%TF.GenerationSoftware,KiCad,Pcbnew,8.0.1*%
%TF.CreationDate,2024-04-01T06:51:43-04:00*%
%TF.ProjectId,emandoharp,656d616e-646f-4686-9172-702e6b696361,rev?*%
%TF.SameCoordinates,Original*%
%TF.FileFunction,Legend,Top*%
%TF.FilePolarity,Positive*%
%FSLAX46Y46*%
G04 Gerber Fmt 4.6, Leading zero omitted, Abs format (unit mm)*
G04 Created by KiCad (PCBNEW 8.0.1) date 2024-04-01 06:51:43*
%MOMM*%
%LPD*%
G01*
G04 APERTURE LIST*
%ADD10C,0.150000*%
%ADD11C,0.100000*%
%ADD12C,0.120000*%
G04 APERTURE END LIST*
D10*
X126588095Y-96614819D02*
X126588095Y-97424342D01*
X126588095Y-97424342D02*
X126635714Y-97519580D01*
X126635714Y-97519580D02*
X126683333Y-97567200D01*
X126683333Y-97567200D02*
X126778571Y-97614819D01*
X126778571Y-97614819D02*
X126969047Y-97614819D01*
X126969047Y-97614819D02*
X127064285Y-97567200D01*
X127064285Y-97567200D02*
X127111904Y-97519580D01*
X127111904Y-97519580D02*
X127159523Y-97424342D01*
X127159523Y-97424342D02*
X127159523Y-96614819D01*
X128159523Y-97614819D02*
X127588095Y-97614819D01*
X127873809Y-97614819D02*
X127873809Y-96614819D01*
X127873809Y-96614819D02*
X127778571Y-96757676D01*
X127778571Y-96757676D02*
X127683333Y-96852914D01*
X127683333Y-96852914D02*
X127588095Y-96900533D01*
X127538033Y-88400000D02*
X126838033Y-88400000D01*
X126838033Y-88400000D02*
X126838033Y-88233333D01*
X126838033Y-88233333D02*
X126871366Y-88133333D01*
X126871366Y-88133333D02*
X126938033Y-88066667D01*
X126938033Y-88066667D02*
X127004700Y-88033333D01*
X127004700Y-88033333D02*
X127138033Y-88000000D01*
X127138033Y-88000000D02*
X127238033Y-88000000D01*
X127238033Y-88000000D02*
X127371366Y-88033333D01*
X127371366Y-88033333D02*
X127438033Y-88066667D01*
X127438033Y-88066667D02*
X127504700Y-88133333D01*
X127504700Y-88133333D02*
X127538033Y-88233333D01*
X127538033Y-88233333D02*
X127538033Y-88400000D01*
X126838033Y-87800000D02*
X127538033Y-87566667D01*
X127538033Y-87566667D02*
X126838033Y-87333333D01*
X127538033Y-86766667D02*
X127538033Y-87100000D01*
X127538033Y-87100000D02*
X126838033Y-87100000D01*
X126838033Y-86233333D02*
X126838033Y-86366666D01*
X126838033Y-86366666D02*
X126871366Y-86433333D01*
X126871366Y-86433333D02*
X126904700Y-86466666D01*
X126904700Y-86466666D02*
X127004700Y-86533333D01*
X127004700Y-86533333D02*
X127138033Y-86566666D01*
X127138033Y-86566666D02*
X127404700Y-86566666D01*
X127404700Y-86566666D02*
X127471366Y-86533333D01*
X127471366Y-86533333D02*
X127504700Y-86500000D01*
X127504700Y-86500000D02*
X127538033Y-86433333D01*
X127538033Y-86433333D02*
X127538033Y-86300000D01*
X127538033Y-86300000D02*
X127504700Y-86233333D01*
X127504700Y-86233333D02*
X127471366Y-86200000D01*
X127471366Y-86200000D02*
X127404700Y-86166666D01*
X127404700Y-86166666D02*
X127238033Y-86166666D01*
X127238033Y-86166666D02*
X127171366Y-86200000D01*
X127171366Y-86200000D02*
X127138033Y-86233333D01*
X127138033Y-86233333D02*
X127104700Y-86300000D01*
X127104700Y-86300000D02*
X127104700Y-86433333D01*
X127104700Y-86433333D02*
X127138033Y-86500000D01*
X127138033Y-86500000D02*
X127171366Y-86533333D01*
X127171366Y-86533333D02*
X127238033Y-86566666D01*
X127338033Y-85899999D02*
X127338033Y-85566666D01*
X127538033Y-85966666D02*
X126838033Y-85733333D01*
X126838033Y-85733333D02*
X127538033Y-85499999D01*
X129062033Y-90083333D02*
X128362033Y-90083333D01*
X128362033Y-90083333D02*
X128862033Y-89850000D01*
X128862033Y-89850000D02*
X128362033Y-89616666D01*
X128362033Y-89616666D02*
X129062033Y-89616666D01*
X129062033Y-89283333D02*
X128362033Y-89283333D01*
X129062033Y-88950000D02*
X128362033Y-88950000D01*
X128362033Y-88950000D02*
X128862033Y-88716667D01*
X128862033Y-88716667D02*
X128362033Y-88483333D01*
X128362033Y-88483333D02*
X129062033Y-88483333D01*
X128362033Y-88216667D02*
X129062033Y-87750000D01*
X128362033Y-87750000D02*
X129062033Y-88216667D01*
X129062033Y-87083333D02*
X128728700Y-87316666D01*
X129062033Y-87483333D02*
X128362033Y-87483333D01*
X128362033Y-87483333D02*
X128362033Y-87216666D01*
X128362033Y-87216666D02*
X128395366Y-87150000D01*
X128395366Y-87150000D02*
X128428700Y-87116666D01*
X128428700Y-87116666D02*
X128495366Y-87083333D01*
X128495366Y-87083333D02*
X128595366Y-87083333D01*
X128595366Y-87083333D02*
X128662033Y-87116666D01*
X128662033Y-87116666D02*
X128695366Y-87150000D01*
X128695366Y-87150000D02*
X128728700Y-87216666D01*
X128728700Y-87216666D02*
X128728700Y-87483333D01*
X128362033Y-86883333D02*
X128362033Y-86483333D01*
X129062033Y-86683333D02*
X128362033Y-86683333D01*
X129062033Y-85883333D02*
X129062033Y-86283333D01*
X129062033Y-86083333D02*
X128362033Y-86083333D01*
X128362033Y-86083333D02*
X128462033Y-86150000D01*
X128462033Y-86150000D02*
X128528700Y-86216667D01*
X128528700Y-86216667D02*
X128562033Y-86283333D01*
X128362033Y-85450000D02*
X128362033Y-85383333D01*
X128362033Y-85383333D02*
X128395366Y-85316666D01*
X128395366Y-85316666D02*
X128428700Y-85283333D01*
X128428700Y-85283333D02*
X128495366Y-85250000D01*
X128495366Y-85250000D02*
X128628700Y-85216666D01*
X128628700Y-85216666D02*
X128795366Y-85216666D01*
X128795366Y-85216666D02*
X128928700Y-85250000D01*
X128928700Y-85250000D02*
X128995366Y-85283333D01*
X128995366Y-85283333D02*
X129028700Y-85316666D01*
X129028700Y-85316666D02*
X129062033Y-85383333D01*
X129062033Y-85383333D02*
X129062033Y-85450000D01*
X129062033Y-85450000D02*
X129028700Y-85516666D01*
X129028700Y-85516666D02*
X128995366Y-85550000D01*
X128995366Y-85550000D02*
X128928700Y-85583333D01*
X128928700Y-85583333D02*
X128795366Y-85616666D01*
X128795366Y-85616666D02*
X128628700Y-85616666D01*
X128628700Y-85616666D02*
X128495366Y-85583333D01*
X128495366Y-85583333D02*
X128428700Y-85550000D01*
X128428700Y-85550000D02*
X128395366Y-85516666D01*
X128395366Y-85516666D02*
X128362033Y-85450000D01*
X128362033Y-84616666D02*
X128362033Y-84749999D01*
X128362033Y-84749999D02*
X128395366Y-84816666D01*
X128395366Y-84816666D02*
X128428700Y-84849999D01*
X128428700Y-84849999D02*
X128528700Y-84916666D01*
X128528700Y-84916666D02*
X128662033Y-84949999D01*
X128662033Y-84949999D02*
X128928700Y-84949999D01*
X128928700Y-84949999D02*
X128995366Y-84916666D01*
X128995366Y-84916666D02*
X129028700Y-84883333D01*
X129028700Y-84883333D02*
X129062033Y-84816666D01*
X129062033Y-84816666D02*
X129062033Y-84683333D01*
X129062033Y-84683333D02*
X129028700Y-84616666D01*
X129028700Y-84616666D02*
X128995366Y-84583333D01*
X128995366Y-84583333D02*
X128928700Y-84549999D01*
X128928700Y-84549999D02*
X128762033Y-84549999D01*
X128762033Y-84549999D02*
X128695366Y-84583333D01*
X128695366Y-84583333D02*
X128662033Y-84616666D01*
X128662033Y-84616666D02*
X128628700Y-84683333D01*
X128628700Y-84683333D02*
X128628700Y-84816666D01*
X128628700Y-84816666D02*
X128662033Y-84883333D01*
X128662033Y-84883333D02*
X128695366Y-84916666D01*
X128695366Y-84916666D02*
X128762033Y-84949999D01*
X128428700Y-84283332D02*
X128395366Y-84249999D01*
X128395366Y-84249999D02*
X128362033Y-84183332D01*
X128362033Y-84183332D02*
X128362033Y-84016666D01*
X128362033Y-84016666D02*
X128395366Y-83949999D01*
X128395366Y-83949999D02*
X128428700Y-83916666D01*
X128428700Y-83916666D02*
X128495366Y-83883332D01*
X128495366Y-83883332D02*
X128562033Y-83883332D01*
X128562033Y-83883332D02*
X128662033Y-83916666D01*
X128662033Y-83916666D02*
X129062033Y-84316666D01*
X129062033Y-84316666D02*
X129062033Y-83883332D01*
X104924819Y-107634285D02*
X103924819Y-107634285D01*
X103924819Y-107634285D02*
X103924819Y-107396190D01*
X103924819Y-107396190D02*
X103972438Y-107253333D01*
X103972438Y-107253333D02*
X104067676Y-107158095D01*
X104067676Y-107158095D02*
X104162914Y-107110476D01*
X104162914Y-107110476D02*
X104353390Y-107062857D01*
X104353390Y-107062857D02*
X104496247Y-107062857D01*
X104496247Y-107062857D02*
X104686723Y-107110476D01*
X104686723Y-107110476D02*
X104781961Y-107158095D01*
X104781961Y-107158095D02*
X104877200Y-107253333D01*
X104877200Y-107253333D02*
X104924819Y-107396190D01*
X104924819Y-107396190D02*
X104924819Y-107634285D01*
X104924819Y-106110476D02*
X104924819Y-106681904D01*
X104924819Y-106396190D02*
X103924819Y-106396190D01*
X103924819Y-106396190D02*
X104067676Y-106491428D01*
X104067676Y-106491428D02*
X104162914Y-106586666D01*
X104162914Y-106586666D02*
X104210533Y-106681904D01*
X104924819Y-105158095D02*
X104924819Y-105729523D01*
X104924819Y-105443809D02*
X103924819Y-105443809D01*
X103924819Y-105443809D02*
X104067676Y-105539047D01*
X104067676Y-105539047D02*
X104162914Y-105634285D01*
X104162914Y-105634285D02*
X104210533Y-105729523D01*
X104554819Y-101601904D02*
X103554819Y-101601904D01*
X104554819Y-101030476D02*
X103983390Y-101459047D01*
X103554819Y-101030476D02*
X104126247Y-101601904D01*
X119357142Y-133324819D02*
X119023809Y-132848628D01*
X118785714Y-133324819D02*
X118785714Y-132324819D01*
X118785714Y-132324819D02*
X119166666Y-132324819D01*
X119166666Y-132324819D02*
X119261904Y-132372438D01*
X119261904Y-132372438D02*
X119309523Y-132420057D01*
X119309523Y-132420057D02*
X119357142Y-132515295D01*
X119357142Y-132515295D02*
X119357142Y-132658152D01*
X119357142Y-132658152D02*
X119309523Y-132753390D01*
X119309523Y-132753390D02*
X119261904Y-132801009D01*
X119261904Y-132801009D02*
X119166666Y-132848628D01*
X119166666Y-132848628D02*
X118785714Y-132848628D01*
X120309523Y-133324819D02*
X119738095Y-133324819D01*
X120023809Y-133324819D02*
X120023809Y-132324819D01*
X120023809Y-132324819D02*
X119928571Y-132467676D01*
X119928571Y-132467676D02*
X119833333Y-132562914D01*
X119833333Y-132562914D02*
X119738095Y-132610533D01*
X121214285Y-132324819D02*
X120738095Y-132324819D01*
X120738095Y-132324819D02*
X120690476Y-132801009D01*
X120690476Y-132801009D02*
X120738095Y-132753390D01*
X120738095Y-132753390D02*
X120833333Y-132705771D01*
X120833333Y-132705771D02*
X121071428Y-132705771D01*
X121071428Y-132705771D02*
X121166666Y-132753390D01*
X121166666Y-132753390D02*
X121214285Y-132801009D01*
X121214285Y-132801009D02*
X121261904Y-132896247D01*
X121261904Y-132896247D02*
X121261904Y-133134342D01*
X121261904Y-133134342D02*
X121214285Y-133229580D01*
X121214285Y-133229580D02*
X121166666Y-133277200D01*
X121166666Y-133277200D02*
X121071428Y-133324819D01*
X121071428Y-133324819D02*
X120833333Y-133324819D01*
X120833333Y-133324819D02*
X120738095Y-133277200D01*
X120738095Y-133277200D02*
X120690476Y-133229580D01*
X106357142Y-120824819D02*
X106023809Y-120348628D01*
X105785714Y-120824819D02*
X105785714Y-119824819D01*
X105785714Y-119824819D02*
X106166666Y-119824819D01*
X106166666Y-119824819D02*
X106261904Y-119872438D01*
X106261904Y-119872438D02*
X106309523Y-119920057D01*
X106309523Y-119920057D02*
X106357142Y-120015295D01*
X106357142Y-120015295D02*
X106357142Y-120158152D01*
X106357142Y-120158152D02*
X106309523Y-120253390D01*
X106309523Y-120253390D02*
X106261904Y-120301009D01*
X106261904Y-120301009D02*
X106166666Y-120348628D01*
X106166666Y-120348628D02*
X105785714Y-120348628D01*
X107309523Y-120824819D02*
X106738095Y-120824819D01*
X107023809Y-120824819D02*
X107023809Y-119824819D01*
X107023809Y-119824819D02*
X106928571Y-119967676D01*
X106928571Y-119967676D02*
X106833333Y-120062914D01*
X106833333Y-120062914D02*
X106738095Y-120110533D01*
X108166666Y-120158152D02*
X108166666Y-120824819D01*
X107928571Y-119777200D02*
X107690476Y-120491485D01*
X107690476Y-120491485D02*
X108309523Y-120491485D01*
X102357142Y-126904819D02*
X102023809Y-126428628D01*
X101785714Y-126904819D02*
X101785714Y-125904819D01*
X101785714Y-125904819D02*
X102166666Y-125904819D01*
X102166666Y-125904819D02*
X102261904Y-125952438D01*
X102261904Y-125952438D02*
X102309523Y-126000057D01*
X102309523Y-126000057D02*
X102357142Y-126095295D01*
X102357142Y-126095295D02*
X102357142Y-126238152D01*
X102357142Y-126238152D02*
X102309523Y-126333390D01*
X102309523Y-126333390D02*
X102261904Y-126381009D01*
X102261904Y-126381009D02*
X102166666Y-126428628D01*
X102166666Y-126428628D02*
X101785714Y-126428628D01*
X103309523Y-126904819D02*
X102738095Y-126904819D01*
X103023809Y-126904819D02*
X103023809Y-125904819D01*
X103023809Y-125904819D02*
X102928571Y-126047676D01*
X102928571Y-126047676D02*
X102833333Y-126142914D01*
X102833333Y-126142914D02*
X102738095Y-126190533D01*
X103642857Y-125904819D02*
X104261904Y-125904819D01*
X104261904Y-125904819D02*
X103928571Y-126285771D01*
X103928571Y-126285771D02*
X104071428Y-126285771D01*
X104071428Y-126285771D02*
X104166666Y-126333390D01*
X104166666Y-126333390D02*
X104214285Y-126381009D01*
X104214285Y-126381009D02*
X104261904Y-126476247D01*
X104261904Y-126476247D02*
X104261904Y-126714342D01*
X104261904Y-126714342D02*
X104214285Y-126809580D01*
X104214285Y-126809580D02*
X104166666Y-126857200D01*
X104166666Y-126857200D02*
X104071428Y-126904819D01*
X104071428Y-126904819D02*
X103785714Y-126904819D01*
X103785714Y-126904819D02*
X103690476Y-126857200D01*
X103690476Y-126857200D02*
X103642857Y-126809580D01*
X98857142Y-133404819D02*
X98523809Y-132928628D01*
X98285714Y-133404819D02*
X98285714Y-132404819D01*
X98285714Y-132404819D02*
X98666666Y-132404819D01*
X98666666Y-132404819D02*
X98761904Y-132452438D01*
X98761904Y-132452438D02*
X98809523Y-132500057D01*
X98809523Y-132500057D02*
X98857142Y-132595295D01*
X98857142Y-132595295D02*
X98857142Y-132738152D01*
X98857142Y-132738152D02*
X98809523Y-132833390D01*
X98809523Y-132833390D02*
X98761904Y-132881009D01*
X98761904Y-132881009D02*
X98666666Y-132928628D01*
X98666666Y-132928628D02*
X98285714Y-132928628D01*
X99809523Y-133404819D02*
X99238095Y-133404819D01*
X99523809Y-133404819D02*
X99523809Y-132404819D01*
X99523809Y-132404819D02*
X99428571Y-132547676D01*
X99428571Y-132547676D02*
X99333333Y-132642914D01*
X99333333Y-132642914D02*
X99238095Y-132690533D01*
X100190476Y-132500057D02*
X100238095Y-132452438D01*
X100238095Y-132452438D02*
X100333333Y-132404819D01*
X100333333Y-132404819D02*
X100571428Y-132404819D01*
X100571428Y-132404819D02*
X100666666Y-132452438D01*
X100666666Y-132452438D02*
X100714285Y-132500057D01*
X100714285Y-132500057D02*
X100761904Y-132595295D01*
X100761904Y-132595295D02*
X100761904Y-132690533D01*
X100761904Y-132690533D02*
X100714285Y-132833390D01*
X100714285Y-132833390D02*
X100142857Y-133404819D01*
X100142857Y-133404819D02*
X100761904Y-133404819D01*
X86237142Y-120904819D02*
X85903809Y-120428628D01*
X85665714Y-120904819D02*
X85665714Y-119904819D01*
X85665714Y-119904819D02*
X86046666Y-119904819D01*
X86046666Y-119904819D02*
X86141904Y-119952438D01*
X86141904Y-119952438D02*
X86189523Y-120000057D01*
X86189523Y-120000057D02*
X86237142Y-120095295D01*
X86237142Y-120095295D02*
X86237142Y-120238152D01*
X86237142Y-120238152D02*
X86189523Y-120333390D01*
X86189523Y-120333390D02*
X86141904Y-120381009D01*
X86141904Y-120381009D02*
X86046666Y-120428628D01*
X86046666Y-120428628D02*
X85665714Y-120428628D01*
X87189523Y-120904819D02*
X86618095Y-120904819D01*
X86903809Y-120904819D02*
X86903809Y-119904819D01*
X86903809Y-119904819D02*
X86808571Y-120047676D01*
X86808571Y-120047676D02*
X86713333Y-120142914D01*
X86713333Y-120142914D02*
X86618095Y-120190533D01*
X88141904Y-120904819D02*
X87570476Y-120904819D01*
X87856190Y-120904819D02*
X87856190Y-119904819D01*
X87856190Y-119904819D02*
X87760952Y-120047676D01*
X87760952Y-120047676D02*
X87665714Y-120142914D01*
X87665714Y-120142914D02*
X87570476Y-120190533D01*
X83333333Y-126904819D02*
X83000000Y-126428628D01*
X82761905Y-126904819D02*
X82761905Y-125904819D01*
X82761905Y-125904819D02*
X83142857Y-125904819D01*
X83142857Y-125904819D02*
X83238095Y-125952438D01*
X83238095Y-125952438D02*
X83285714Y-126000057D01*
X83285714Y-126000057D02*
X83333333Y-126095295D01*
X83333333Y-126095295D02*
X83333333Y-126238152D01*
X83333333Y-126238152D02*
X83285714Y-126333390D01*
X83285714Y-126333390D02*
X83238095Y-126381009D01*
X83238095Y-126381009D02*
X83142857Y-126428628D01*
X83142857Y-126428628D02*
X82761905Y-126428628D01*
X83809524Y-126904819D02*
X84000000Y-126904819D01*
X84000000Y-126904819D02*
X84095238Y-126857200D01*
X84095238Y-126857200D02*
X84142857Y-126809580D01*
X84142857Y-126809580D02*
X84238095Y-126666723D01*
X84238095Y-126666723D02*
X84285714Y-126476247D01*
X84285714Y-126476247D02*
X84285714Y-126095295D01*
X84285714Y-126095295D02*
X84238095Y-126000057D01*
X84238095Y-126000057D02*
X84190476Y-125952438D01*
X84190476Y-125952438D02*
X84095238Y-125904819D01*
X84095238Y-125904819D02*
X83904762Y-125904819D01*
X83904762Y-125904819D02*
X83809524Y-125952438D01*
X83809524Y-125952438D02*
X83761905Y-126000057D01*
X83761905Y-126000057D02*
X83714286Y-126095295D01*
X83714286Y-126095295D02*
X83714286Y-126333390D01*
X83714286Y-126333390D02*
X83761905Y-126428628D01*
X83761905Y-126428628D02*
X83809524Y-126476247D01*
X83809524Y-126476247D02*
X83904762Y-126523866D01*
X83904762Y-126523866D02*
X84095238Y-126523866D01*
X84095238Y-126523866D02*
X84190476Y-126476247D01*
X84190476Y-126476247D02*
X84238095Y-126428628D01*
X84238095Y-126428628D02*
X84285714Y-126333390D01*
X78833333Y-133404819D02*
X78500000Y-132928628D01*
X78261905Y-133404819D02*
X78261905Y-132404819D01*
X78261905Y-132404819D02*
X78642857Y-132404819D01*
X78642857Y-132404819D02*
X78738095Y-132452438D01*
X78738095Y-132452438D02*
X78785714Y-132500057D01*
X78785714Y-132500057D02*
X78833333Y-132595295D01*
X78833333Y-132595295D02*
X78833333Y-132738152D01*
X78833333Y-132738152D02*
X78785714Y-132833390D01*
X78785714Y-132833390D02*
X78738095Y-132881009D01*
X78738095Y-132881009D02*
X78642857Y-132928628D01*
X78642857Y-132928628D02*
X78261905Y-132928628D01*
X79404762Y-132833390D02*
X79309524Y-132785771D01*
X79309524Y-132785771D02*
X79261905Y-132738152D01*
X79261905Y-132738152D02*
X79214286Y-132642914D01*
X79214286Y-132642914D02*
X79214286Y-132595295D01*
X79214286Y-132595295D02*
X79261905Y-132500057D01*
X79261905Y-132500057D02*
X79309524Y-132452438D01*
X79309524Y-132452438D02*
X79404762Y-132404819D01*
X79404762Y-132404819D02*
X79595238Y-132404819D01*
X79595238Y-132404819D02*
X79690476Y-132452438D01*
X79690476Y-132452438D02*
X79738095Y-132500057D01*
X79738095Y-132500057D02*
X79785714Y-132595295D01*
X79785714Y-132595295D02*
X79785714Y-132642914D01*
X79785714Y-132642914D02*
X79738095Y-132738152D01*
X79738095Y-132738152D02*
X79690476Y-132785771D01*
X79690476Y-132785771D02*
X79595238Y-132833390D01*
X79595238Y-132833390D02*
X79404762Y-132833390D01*
X79404762Y-132833390D02*
X79309524Y-132881009D01*
X79309524Y-132881009D02*
X79261905Y-132928628D01*
X79261905Y-132928628D02*
X79214286Y-133023866D01*
X79214286Y-133023866D02*
X79214286Y-133214342D01*
X79214286Y-133214342D02*
X79261905Y-133309580D01*
X79261905Y-133309580D02*
X79309524Y-133357200D01*
X79309524Y-133357200D02*
X79404762Y-133404819D01*
X79404762Y-133404819D02*
X79595238Y-133404819D01*
X79595238Y-133404819D02*
X79690476Y-133357200D01*
X79690476Y-133357200D02*
X79738095Y-133309580D01*
X79738095Y-133309580D02*
X79785714Y-133214342D01*
X79785714Y-133214342D02*
X79785714Y-133023866D01*
X79785714Y-133023866D02*
X79738095Y-132928628D01*
X79738095Y-132928628D02*
X79690476Y-132881009D01*
X79690476Y-132881009D02*
X79595238Y-132833390D01*
X66953333Y-120824819D02*
X66620000Y-120348628D01*
X66381905Y-120824819D02*
X66381905Y-119824819D01*
X66381905Y-119824819D02*
X66762857Y-119824819D01*
X66762857Y-119824819D02*
X66858095Y-119872438D01*
X66858095Y-119872438D02*
X66905714Y-119920057D01*
X66905714Y-119920057D02*
X66953333Y-120015295D01*
X66953333Y-120015295D02*
X66953333Y-120158152D01*
X66953333Y-120158152D02*
X66905714Y-120253390D01*
X66905714Y-120253390D02*
X66858095Y-120301009D01*
X66858095Y-120301009D02*
X66762857Y-120348628D01*
X66762857Y-120348628D02*
X66381905Y-120348628D01*
X67286667Y-119824819D02*
X67953333Y-119824819D01*
X67953333Y-119824819D02*
X67524762Y-120824819D01*
X62833333Y-126904819D02*
X62500000Y-126428628D01*
X62261905Y-126904819D02*
X62261905Y-125904819D01*
X62261905Y-125904819D02*
X62642857Y-125904819D01*
X62642857Y-125904819D02*
X62738095Y-125952438D01*
X62738095Y-125952438D02*
X62785714Y-126000057D01*
X62785714Y-126000057D02*
X62833333Y-126095295D01*
X62833333Y-126095295D02*
X62833333Y-126238152D01*
X62833333Y-126238152D02*
X62785714Y-126333390D01*
X62785714Y-126333390D02*
X62738095Y-126381009D01*
X62738095Y-126381009D02*
X62642857Y-126428628D01*
X62642857Y-126428628D02*
X62261905Y-126428628D01*
X63690476Y-125904819D02*
X63500000Y-125904819D01*
X63500000Y-125904819D02*
X63404762Y-125952438D01*
X63404762Y-125952438D02*
X63357143Y-126000057D01*
X63357143Y-126000057D02*
X63261905Y-126142914D01*
X63261905Y-126142914D02*
X63214286Y-126333390D01*
X63214286Y-126333390D02*
X63214286Y-126714342D01*
X63214286Y-126714342D02*
X63261905Y-126809580D01*
X63261905Y-126809580D02*
X63309524Y-126857200D01*
X63309524Y-126857200D02*
X63404762Y-126904819D01*
X63404762Y-126904819D02*
X63595238Y-126904819D01*
X63595238Y-126904819D02*
X63690476Y-126857200D01*
X63690476Y-126857200D02*
X63738095Y-126809580D01*
X63738095Y-126809580D02*
X63785714Y-126714342D01*
X63785714Y-126714342D02*
X63785714Y-126476247D01*
X63785714Y-126476247D02*
X63738095Y-126381009D01*
X63738095Y-126381009D02*
X63690476Y-126333390D01*
X63690476Y-126333390D02*
X63595238Y-126285771D01*
X63595238Y-126285771D02*
X63404762Y-126285771D01*
X63404762Y-126285771D02*
X63309524Y-126333390D01*
X63309524Y-126333390D02*
X63261905Y-126381009D01*
X63261905Y-126381009D02*
X63214286Y-126476247D01*
X59713333Y-133404819D02*
X59380000Y-132928628D01*
X59141905Y-133404819D02*
X59141905Y-132404819D01*
X59141905Y-132404819D02*
X59522857Y-132404819D01*
X59522857Y-132404819D02*
X59618095Y-132452438D01*
X59618095Y-132452438D02*
X59665714Y-132500057D01*
X59665714Y-132500057D02*
X59713333Y-132595295D01*
X59713333Y-132595295D02*
X59713333Y-132738152D01*
X59713333Y-132738152D02*
X59665714Y-132833390D01*
X59665714Y-132833390D02*
X59618095Y-132881009D01*
X59618095Y-132881009D02*
X59522857Y-132928628D01*
X59522857Y-132928628D02*
X59141905Y-132928628D01*
X60618095Y-132404819D02*
X60141905Y-132404819D01*
X60141905Y-132404819D02*
X60094286Y-132881009D01*
X60094286Y-132881009D02*
X60141905Y-132833390D01*
X60141905Y-132833390D02*
X60237143Y-132785771D01*
X60237143Y-132785771D02*
X60475238Y-132785771D01*
X60475238Y-132785771D02*
X60570476Y-132833390D01*
X60570476Y-132833390D02*
X60618095Y-132881009D01*
X60618095Y-132881009D02*
X60665714Y-132976247D01*
X60665714Y-132976247D02*
X60665714Y-133214342D01*
X60665714Y-133214342D02*
X60618095Y-133309580D01*
X60618095Y-133309580D02*
X60570476Y-133357200D01*
X60570476Y-133357200D02*
X60475238Y-133404819D01*
X60475238Y-133404819D02*
X60237143Y-133404819D01*
X60237143Y-133404819D02*
X60141905Y-133357200D01*
X60141905Y-133357200D02*
X60094286Y-133309580D01*
X57324819Y-145246666D02*
X56848628Y-145579999D01*
X57324819Y-145818094D02*
X56324819Y-145818094D01*
X56324819Y-145818094D02*
X56324819Y-145437142D01*
X56324819Y-145437142D02*
X56372438Y-145341904D01*
X56372438Y-145341904D02*
X56420057Y-145294285D01*
X56420057Y-145294285D02*
X56515295Y-145246666D01*
X56515295Y-145246666D02*
X56658152Y-145246666D01*
X56658152Y-145246666D02*
X56753390Y-145294285D01*
X56753390Y-145294285D02*
X56801009Y-145341904D01*
X56801009Y-145341904D02*
X56848628Y-145437142D01*
X56848628Y-145437142D02*
X56848628Y-145818094D01*
X56658152Y-144389523D02*
X57324819Y-144389523D01*
X56277200Y-144627618D02*
X56991485Y-144865713D01*
X56991485Y-144865713D02*
X56991485Y-144246666D01*
X57824819Y-109126666D02*
X57348628Y-109459999D01*
X57824819Y-109698094D02*
X56824819Y-109698094D01*
X56824819Y-109698094D02*
X56824819Y-109317142D01*
X56824819Y-109317142D02*
X56872438Y-109221904D01*
X56872438Y-109221904D02*
X56920057Y-109174285D01*
X56920057Y-109174285D02*
X57015295Y-109126666D01*
X57015295Y-109126666D02*
X57158152Y-109126666D01*
X57158152Y-109126666D02*
X57253390Y-109174285D01*
X57253390Y-109174285D02*
X57301009Y-109221904D01*
X57301009Y-109221904D02*
X57348628Y-109317142D01*
X57348628Y-109317142D02*
X57348628Y-109698094D01*
X56824819Y-108793332D02*
X56824819Y-108174285D01*
X56824819Y-108174285D02*
X57205771Y-108507618D01*
X57205771Y-108507618D02*
X57205771Y-108364761D01*
X57205771Y-108364761D02*
X57253390Y-108269523D01*
X57253390Y-108269523D02*
X57301009Y-108221904D01*
X57301009Y-108221904D02*
X57396247Y-108174285D01*
X57396247Y-108174285D02*
X57634342Y-108174285D01*
X57634342Y-108174285D02*
X57729580Y-108221904D01*
X57729580Y-108221904D02*
X57777200Y-108269523D01*
X57777200Y-108269523D02*
X57824819Y-108364761D01*
X57824819Y-108364761D02*
X57824819Y-108650475D01*
X57824819Y-108650475D02*
X57777200Y-108745713D01*
X57777200Y-108745713D02*
X57729580Y-108793332D01*
X137084819Y-109166666D02*
X136608628Y-109499999D01*
X137084819Y-109738094D02*
X136084819Y-109738094D01*
X136084819Y-109738094D02*
X136084819Y-109357142D01*
X136084819Y-109357142D02*
X136132438Y-109261904D01*
X136132438Y-109261904D02*
X136180057Y-109214285D01*
X136180057Y-109214285D02*
X136275295Y-109166666D01*
X136275295Y-109166666D02*
X136418152Y-109166666D01*
X136418152Y-109166666D02*
X136513390Y-109214285D01*
X136513390Y-109214285D02*
X136561009Y-109261904D01*
X136561009Y-109261904D02*
X136608628Y-109357142D01*
X136608628Y-109357142D02*
X136608628Y-109738094D01*
X136180057Y-108785713D02*
X136132438Y-108738094D01*
X136132438Y-108738094D02*
X136084819Y-108642856D01*
X136084819Y-108642856D02*
X136084819Y-108404761D01*
X136084819Y-108404761D02*
X136132438Y-108309523D01*
X136132438Y-108309523D02*
X136180057Y-108261904D01*
X136180057Y-108261904D02*
X136275295Y-108214285D01*
X136275295Y-108214285D02*
X136370533Y-108214285D01*
X136370533Y-108214285D02*
X136513390Y-108261904D01*
X136513390Y-108261904D02*
X137084819Y-108833332D01*
X137084819Y-108833332D02*
X137084819Y-108214285D01*
X145324819Y-145246666D02*
X144848628Y-145579999D01*
X145324819Y-145818094D02*
X144324819Y-145818094D01*
X144324819Y-145818094D02*
X144324819Y-145437142D01*
X144324819Y-145437142D02*
X144372438Y-145341904D01*
X144372438Y-145341904D02*
X144420057Y-145294285D01*
X144420057Y-145294285D02*
X144515295Y-145246666D01*
X144515295Y-145246666D02*
X144658152Y-145246666D01*
X144658152Y-145246666D02*
X144753390Y-145294285D01*
X144753390Y-145294285D02*
X144801009Y-145341904D01*
X144801009Y-145341904D02*
X144848628Y-145437142D01*
X144848628Y-145437142D02*
X144848628Y-145818094D01*
X145324819Y-144294285D02*
X145324819Y-144865713D01*
X145324819Y-144579999D02*
X144324819Y-144579999D01*
X144324819Y-144579999D02*
X144467676Y-144675237D01*
X144467676Y-144675237D02*
X144562914Y-144770475D01*
X144562914Y-144770475D02*
X144610533Y-144865713D01*
X114761905Y-120554819D02*
X114761905Y-119554819D01*
X114761905Y-119554819D02*
X115142857Y-119554819D01*
X115142857Y-119554819D02*
X115238095Y-119602438D01*
X115238095Y-119602438D02*
X115285714Y-119650057D01*
X115285714Y-119650057D02*
X115333333Y-119745295D01*
X115333333Y-119745295D02*
X115333333Y-119888152D01*
X115333333Y-119888152D02*
X115285714Y-119983390D01*
X115285714Y-119983390D02*
X115238095Y-120031009D01*
X115238095Y-120031009D02*
X115142857Y-120078628D01*
X115142857Y-120078628D02*
X114761905Y-120078628D01*
X116333333Y-120459580D02*
X116285714Y-120507200D01*
X116285714Y-120507200D02*
X116142857Y-120554819D01*
X116142857Y-120554819D02*
X116047619Y-120554819D01*
X116047619Y-120554819D02*
X115904762Y-120507200D01*
X115904762Y-120507200D02*
X115809524Y-120411961D01*
X115809524Y-120411961D02*
X115761905Y-120316723D01*
X115761905Y-120316723D02*
X115714286Y-120126247D01*
X115714286Y-120126247D02*
X115714286Y-119983390D01*
X115714286Y-119983390D02*
X115761905Y-119792914D01*
X115761905Y-119792914D02*
X115809524Y-119697676D01*
X115809524Y-119697676D02*
X115904762Y-119602438D01*
X115904762Y-119602438D02*
X116047619Y-119554819D01*
X116047619Y-119554819D02*
X116142857Y-119554819D01*
X116142857Y-119554819D02*
X116285714Y-119602438D01*
X116285714Y-119602438D02*
X116333333Y-119650057D01*
X117285714Y-120554819D02*
X116714286Y-120554819D01*
X117000000Y-120554819D02*
X117000000Y-119554819D01*
X117000000Y-119554819D02*
X116904762Y-119697676D01*
X116904762Y-119697676D02*
X116809524Y-119792914D01*
X116809524Y-119792914D02*
X116714286Y-119840533D01*
X131785714Y-134554819D02*
X131785714Y-133554819D01*
X131785714Y-133554819D02*
X132166666Y-133554819D01*
X132166666Y-133554819D02*
X132261904Y-133602438D01*
X132261904Y-133602438D02*
X132309523Y-133650057D01*
X132309523Y-133650057D02*
X132357142Y-133745295D01*
X132357142Y-133745295D02*
X132357142Y-133888152D01*
X132357142Y-133888152D02*
X132309523Y-133983390D01*
X132309523Y-133983390D02*
X132261904Y-134031009D01*
X132261904Y-134031009D02*
X132166666Y-134078628D01*
X132166666Y-134078628D02*
X131785714Y-134078628D01*
X133309523Y-134554819D02*
X132738095Y-134554819D01*
X133023809Y-134554819D02*
X133023809Y-133554819D01*
X133023809Y-133554819D02*
X132928571Y-133697676D01*
X132928571Y-133697676D02*
X132833333Y-133792914D01*
X132833333Y-133792914D02*
X132738095Y-133840533D01*
X133928571Y-133554819D02*
X134023809Y-133554819D01*
X134023809Y-133554819D02*
X134119047Y-133602438D01*
X134119047Y-133602438D02*
X134166666Y-133650057D01*
X134166666Y-133650057D02*
X134214285Y-133745295D01*
X134214285Y-133745295D02*
X134261904Y-133935771D01*
X134261904Y-133935771D02*
X134261904Y-134173866D01*
X134261904Y-134173866D02*
X134214285Y-134364342D01*
X134214285Y-134364342D02*
X134166666Y-134459580D01*
X134166666Y-134459580D02*
X134119047Y-134507200D01*
X134119047Y-134507200D02*
X134023809Y-134554819D01*
X134023809Y-134554819D02*
X133928571Y-134554819D01*
X133928571Y-134554819D02*
X133833333Y-134507200D01*
X133833333Y-134507200D02*
X133785714Y-134459580D01*
X133785714Y-134459580D02*
X133738095Y-134364342D01*
X133738095Y-134364342D02*
X133690476Y-134173866D01*
X133690476Y-134173866D02*
X133690476Y-133935771D01*
X133690476Y-133935771D02*
X133738095Y-133745295D01*
X133738095Y-133745295D02*
X133785714Y-133650057D01*
X133785714Y-133650057D02*
X133833333Y-133602438D01*
X133833333Y-133602438D02*
X133928571Y-133554819D01*
X124261905Y-134054819D02*
X124261905Y-133054819D01*
X124261905Y-133054819D02*
X124642857Y-133054819D01*
X124642857Y-133054819D02*
X124738095Y-133102438D01*
X124738095Y-133102438D02*
X124785714Y-133150057D01*
X124785714Y-133150057D02*
X124833333Y-133245295D01*
X124833333Y-133245295D02*
X124833333Y-133388152D01*
X124833333Y-133388152D02*
X124785714Y-133483390D01*
X124785714Y-133483390D02*
X124738095Y-133531009D01*
X124738095Y-133531009D02*
X124642857Y-133578628D01*
X124642857Y-133578628D02*
X124261905Y-133578628D01*
X125309524Y-134054819D02*
X125500000Y-134054819D01*
X125500000Y-134054819D02*
X125595238Y-134007200D01*
X125595238Y-134007200D02*
X125642857Y-133959580D01*
X125642857Y-133959580D02*
X125738095Y-133816723D01*
X125738095Y-133816723D02*
X125785714Y-133626247D01*
X125785714Y-133626247D02*
X125785714Y-133245295D01*
X125785714Y-133245295D02*
X125738095Y-133150057D01*
X125738095Y-133150057D02*
X125690476Y-133102438D01*
X125690476Y-133102438D02*
X125595238Y-133054819D01*
X125595238Y-133054819D02*
X125404762Y-133054819D01*
X125404762Y-133054819D02*
X125309524Y-133102438D01*
X125309524Y-133102438D02*
X125261905Y-133150057D01*
X125261905Y-133150057D02*
X125214286Y-133245295D01*
X125214286Y-133245295D02*
X125214286Y-133483390D01*
X125214286Y-133483390D02*
X125261905Y-133578628D01*
X125261905Y-133578628D02*
X125309524Y-133626247D01*
X125309524Y-133626247D02*
X125404762Y-133673866D01*
X125404762Y-133673866D02*
X125595238Y-133673866D01*
X125595238Y-133673866D02*
X125690476Y-133626247D01*
X125690476Y-133626247D02*
X125738095Y-133578628D01*
X125738095Y-133578628D02*
X125785714Y-133483390D01*
X116261905Y-133554819D02*
X116261905Y-132554819D01*
X116261905Y-132554819D02*
X116642857Y-132554819D01*
X116642857Y-132554819D02*
X116738095Y-132602438D01*
X116738095Y-132602438D02*
X116785714Y-132650057D01*
X116785714Y-132650057D02*
X116833333Y-132745295D01*
X116833333Y-132745295D02*
X116833333Y-132888152D01*
X116833333Y-132888152D02*
X116785714Y-132983390D01*
X116785714Y-132983390D02*
X116738095Y-133031009D01*
X116738095Y-133031009D02*
X116642857Y-133078628D01*
X116642857Y-133078628D02*
X116261905Y-133078628D01*
X117404762Y-132983390D02*
X117309524Y-132935771D01*
X117309524Y-132935771D02*
X117261905Y-132888152D01*
X117261905Y-132888152D02*
X117214286Y-132792914D01*
X117214286Y-132792914D02*
X117214286Y-132745295D01*
X117214286Y-132745295D02*
X117261905Y-132650057D01*
X117261905Y-132650057D02*
X117309524Y-132602438D01*
X117309524Y-132602438D02*
X117404762Y-132554819D01*
X117404762Y-132554819D02*
X117595238Y-132554819D01*
X117595238Y-132554819D02*
X117690476Y-132602438D01*
X117690476Y-132602438D02*
X117738095Y-132650057D01*
X117738095Y-132650057D02*
X117785714Y-132745295D01*
X117785714Y-132745295D02*
X117785714Y-132792914D01*
X117785714Y-132792914D02*
X117738095Y-132888152D01*
X117738095Y-132888152D02*
X117690476Y-132935771D01*
X117690476Y-132935771D02*
X117595238Y-132983390D01*
X117595238Y-132983390D02*
X117404762Y-132983390D01*
X117404762Y-132983390D02*
X117309524Y-133031009D01*
X117309524Y-133031009D02*
X117261905Y-133078628D01*
X117261905Y-133078628D02*
X117214286Y-133173866D01*
X117214286Y-133173866D02*
X117214286Y-133364342D01*
X117214286Y-133364342D02*
X117261905Y-133459580D01*
X117261905Y-133459580D02*
X117309524Y-133507200D01*
X117309524Y-133507200D02*
X117404762Y-133554819D01*
X117404762Y-133554819D02*
X117595238Y-133554819D01*
X117595238Y-133554819D02*
X117690476Y-133507200D01*
X117690476Y-133507200D02*
X117738095Y-133459580D01*
X117738095Y-133459580D02*
X117785714Y-133364342D01*
X117785714Y-133364342D02*
X117785714Y-133173866D01*
X117785714Y-133173866D02*
X117738095Y-133078628D01*
X117738095Y-133078628D02*
X117690476Y-133031009D01*
X117690476Y-133031009D02*
X117595238Y-132983390D01*
X108761905Y-134054819D02*
X108761905Y-133054819D01*
X108761905Y-133054819D02*
X109142857Y-133054819D01*
X109142857Y-133054819D02*
X109238095Y-133102438D01*
X109238095Y-133102438D02*
X109285714Y-133150057D01*
X109285714Y-133150057D02*
X109333333Y-133245295D01*
X109333333Y-133245295D02*
X109333333Y-133388152D01*
X109333333Y-133388152D02*
X109285714Y-133483390D01*
X109285714Y-133483390D02*
X109238095Y-133531009D01*
X109238095Y-133531009D02*
X109142857Y-133578628D01*
X109142857Y-133578628D02*
X108761905Y-133578628D01*
X109666667Y-133054819D02*
X110333333Y-133054819D01*
X110333333Y-133054819D02*
X109904762Y-134054819D01*
X100261905Y-134554819D02*
X100261905Y-133554819D01*
X100261905Y-133554819D02*
X100642857Y-133554819D01*
X100642857Y-133554819D02*
X100738095Y-133602438D01*
X100738095Y-133602438D02*
X100785714Y-133650057D01*
X100785714Y-133650057D02*
X100833333Y-133745295D01*
X100833333Y-133745295D02*
X100833333Y-133888152D01*
X100833333Y-133888152D02*
X100785714Y-133983390D01*
X100785714Y-133983390D02*
X100738095Y-134031009D01*
X100738095Y-134031009D02*
X100642857Y-134078628D01*
X100642857Y-134078628D02*
X100261905Y-134078628D01*
X101690476Y-133554819D02*
X101500000Y-133554819D01*
X101500000Y-133554819D02*
X101404762Y-133602438D01*
X101404762Y-133602438D02*
X101357143Y-133650057D01*
X101357143Y-133650057D02*
X101261905Y-133792914D01*
X101261905Y-133792914D02*
X101214286Y-133983390D01*
X101214286Y-133983390D02*
X101214286Y-134364342D01*
X101214286Y-134364342D02*
X101261905Y-134459580D01*
X101261905Y-134459580D02*
X101309524Y-134507200D01*
X101309524Y-134507200D02*
X101404762Y-134554819D01*
X101404762Y-134554819D02*
X101595238Y-134554819D01*
X101595238Y-134554819D02*
X101690476Y-134507200D01*
X101690476Y-134507200D02*
X101738095Y-134459580D01*
X101738095Y-134459580D02*
X101785714Y-134364342D01*
X101785714Y-134364342D02*
X101785714Y-134126247D01*
X101785714Y-134126247D02*
X101738095Y-134031009D01*
X101738095Y-134031009D02*
X101690476Y-133983390D01*
X101690476Y-133983390D02*
X101595238Y-133935771D01*
X101595238Y-133935771D02*
X101404762Y-133935771D01*
X101404762Y-133935771D02*
X101309524Y-133983390D01*
X101309524Y-133983390D02*
X101261905Y-134031009D01*
X101261905Y-134031009D02*
X101214286Y-134126247D01*
X91761905Y-134134819D02*
X91761905Y-133134819D01*
X91761905Y-133134819D02*
X92142857Y-133134819D01*
X92142857Y-133134819D02*
X92238095Y-133182438D01*
X92238095Y-133182438D02*
X92285714Y-133230057D01*
X92285714Y-133230057D02*
X92333333Y-133325295D01*
X92333333Y-133325295D02*
X92333333Y-133468152D01*
X92333333Y-133468152D02*
X92285714Y-133563390D01*
X92285714Y-133563390D02*
X92238095Y-133611009D01*
X92238095Y-133611009D02*
X92142857Y-133658628D01*
X92142857Y-133658628D02*
X91761905Y-133658628D01*
X93238095Y-133134819D02*
X92761905Y-133134819D01*
X92761905Y-133134819D02*
X92714286Y-133611009D01*
X92714286Y-133611009D02*
X92761905Y-133563390D01*
X92761905Y-133563390D02*
X92857143Y-133515771D01*
X92857143Y-133515771D02*
X93095238Y-133515771D01*
X93095238Y-133515771D02*
X93190476Y-133563390D01*
X93190476Y-133563390D02*
X93238095Y-133611009D01*
X93238095Y-133611009D02*
X93285714Y-133706247D01*
X93285714Y-133706247D02*
X93285714Y-133944342D01*
X93285714Y-133944342D02*
X93238095Y-134039580D01*
X93238095Y-134039580D02*
X93190476Y-134087200D01*
X93190476Y-134087200D02*
X93095238Y-134134819D01*
X93095238Y-134134819D02*
X92857143Y-134134819D01*
X92857143Y-134134819D02*
X92761905Y-134087200D01*
X92761905Y-134087200D02*
X92714286Y-134039580D01*
X84261905Y-134054819D02*
X84261905Y-133054819D01*
X84261905Y-133054819D02*
X84642857Y-133054819D01*
X84642857Y-133054819D02*
X84738095Y-133102438D01*
X84738095Y-133102438D02*
X84785714Y-133150057D01*
X84785714Y-133150057D02*
X84833333Y-133245295D01*
X84833333Y-133245295D02*
X84833333Y-133388152D01*
X84833333Y-133388152D02*
X84785714Y-133483390D01*
X84785714Y-133483390D02*
X84738095Y-133531009D01*
X84738095Y-133531009D02*
X84642857Y-133578628D01*
X84642857Y-133578628D02*
X84261905Y-133578628D01*
X85690476Y-133388152D02*
X85690476Y-134054819D01*
X85452381Y-133007200D02*
X85214286Y-133721485D01*
X85214286Y-133721485D02*
X85833333Y-133721485D01*
X76761905Y-134134819D02*
X76761905Y-133134819D01*
X76761905Y-133134819D02*
X77142857Y-133134819D01*
X77142857Y-133134819D02*
X77238095Y-133182438D01*
X77238095Y-133182438D02*
X77285714Y-133230057D01*
X77285714Y-133230057D02*
X77333333Y-133325295D01*
X77333333Y-133325295D02*
X77333333Y-133468152D01*
X77333333Y-133468152D02*
X77285714Y-133563390D01*
X77285714Y-133563390D02*
X77238095Y-133611009D01*
X77238095Y-133611009D02*
X77142857Y-133658628D01*
X77142857Y-133658628D02*
X76761905Y-133658628D01*
X77666667Y-133134819D02*
X78285714Y-133134819D01*
X78285714Y-133134819D02*
X77952381Y-133515771D01*
X77952381Y-133515771D02*
X78095238Y-133515771D01*
X78095238Y-133515771D02*
X78190476Y-133563390D01*
X78190476Y-133563390D02*
X78238095Y-133611009D01*
X78238095Y-133611009D02*
X78285714Y-133706247D01*
X78285714Y-133706247D02*
X78285714Y-133944342D01*
X78285714Y-133944342D02*
X78238095Y-134039580D01*
X78238095Y-134039580D02*
X78190476Y-134087200D01*
X78190476Y-134087200D02*
X78095238Y-134134819D01*
X78095238Y-134134819D02*
X77809524Y-134134819D01*
X77809524Y-134134819D02*
X77714286Y-134087200D01*
X77714286Y-134087200D02*
X77666667Y-134039580D01*
X68261905Y-134134819D02*
X68261905Y-133134819D01*
X68261905Y-133134819D02*
X68642857Y-133134819D01*
X68642857Y-133134819D02*
X68738095Y-133182438D01*
X68738095Y-133182438D02*
X68785714Y-133230057D01*
X68785714Y-133230057D02*
X68833333Y-133325295D01*
X68833333Y-133325295D02*
X68833333Y-133468152D01*
X68833333Y-133468152D02*
X68785714Y-133563390D01*
X68785714Y-133563390D02*
X68738095Y-133611009D01*
X68738095Y-133611009D02*
X68642857Y-133658628D01*
X68642857Y-133658628D02*
X68261905Y-133658628D01*
X69214286Y-133230057D02*
X69261905Y-133182438D01*
X69261905Y-133182438D02*
X69357143Y-133134819D01*
X69357143Y-133134819D02*
X69595238Y-133134819D01*
X69595238Y-133134819D02*
X69690476Y-133182438D01*
X69690476Y-133182438D02*
X69738095Y-133230057D01*
X69738095Y-133230057D02*
X69785714Y-133325295D01*
X69785714Y-133325295D02*
X69785714Y-133420533D01*
X69785714Y-133420533D02*
X69738095Y-133563390D01*
X69738095Y-133563390D02*
X69166667Y-134134819D01*
X69166667Y-134134819D02*
X69785714Y-134134819D01*
X60261905Y-134134819D02*
X60261905Y-133134819D01*
X60261905Y-133134819D02*
X60642857Y-133134819D01*
X60642857Y-133134819D02*
X60738095Y-133182438D01*
X60738095Y-133182438D02*
X60785714Y-133230057D01*
X60785714Y-133230057D02*
X60833333Y-133325295D01*
X60833333Y-133325295D02*
X60833333Y-133468152D01*
X60833333Y-133468152D02*
X60785714Y-133563390D01*
X60785714Y-133563390D02*
X60738095Y-133611009D01*
X60738095Y-133611009D02*
X60642857Y-133658628D01*
X60642857Y-133658628D02*
X60261905Y-133658628D01*
X61785714Y-134134819D02*
X61214286Y-134134819D01*
X61500000Y-134134819D02*
X61500000Y-133134819D01*
X61500000Y-133134819D02*
X61404762Y-133277676D01*
X61404762Y-133277676D02*
X61309524Y-133372914D01*
X61309524Y-133372914D02*
X61214286Y-133420533D01*
X135924819Y-148654285D02*
X134924819Y-148654285D01*
X134924819Y-148654285D02*
X134924819Y-148416190D01*
X134924819Y-148416190D02*
X134972438Y-148273333D01*
X134972438Y-148273333D02*
X135067676Y-148178095D01*
X135067676Y-148178095D02*
X135162914Y-148130476D01*
X135162914Y-148130476D02*
X135353390Y-148082857D01*
X135353390Y-148082857D02*
X135496247Y-148082857D01*
X135496247Y-148082857D02*
X135686723Y-148130476D01*
X135686723Y-148130476D02*
X135781961Y-148178095D01*
X135781961Y-148178095D02*
X135877200Y-148273333D01*
X135877200Y-148273333D02*
X135924819Y-148416190D01*
X135924819Y-148416190D02*
X135924819Y-148654285D01*
X135020057Y-147701904D02*
X134972438Y-147654285D01*
X134972438Y-147654285D02*
X134924819Y-147559047D01*
X134924819Y-147559047D02*
X134924819Y-147320952D01*
X134924819Y-147320952D02*
X134972438Y-147225714D01*
X134972438Y-147225714D02*
X135020057Y-147178095D01*
X135020057Y-147178095D02*
X135115295Y-147130476D01*
X135115295Y-147130476D02*
X135210533Y-147130476D01*
X135210533Y-147130476D02*
X135353390Y-147178095D01*
X135353390Y-147178095D02*
X135924819Y-147749523D01*
X135924819Y-147749523D02*
X135924819Y-147130476D01*
X134924819Y-146511428D02*
X134924819Y-146416190D01*
X134924819Y-146416190D02*
X134972438Y-146320952D01*
X134972438Y-146320952D02*
X135020057Y-146273333D01*
X135020057Y-146273333D02*
X135115295Y-146225714D01*
X135115295Y-146225714D02*
X135305771Y-146178095D01*
X135305771Y-146178095D02*
X135543866Y-146178095D01*
X135543866Y-146178095D02*
X135734342Y-146225714D01*
X135734342Y-146225714D02*
X135829580Y-146273333D01*
X135829580Y-146273333D02*
X135877200Y-146320952D01*
X135877200Y-146320952D02*
X135924819Y-146416190D01*
X135924819Y-146416190D02*
X135924819Y-146511428D01*
X135924819Y-146511428D02*
X135877200Y-146606666D01*
X135877200Y-146606666D02*
X135829580Y-146654285D01*
X135829580Y-146654285D02*
X135734342Y-146701904D01*
X135734342Y-146701904D02*
X135543866Y-146749523D01*
X135543866Y-146749523D02*
X135305771Y-146749523D01*
X135305771Y-146749523D02*
X135115295Y-146701904D01*
X135115295Y-146701904D02*
X135020057Y-146654285D01*
X135020057Y-146654285D02*
X134972438Y-146606666D01*
X134972438Y-146606666D02*
X134924819Y-146511428D01*
X135554819Y-142621904D02*
X134554819Y-142621904D01*
X135554819Y-142050476D02*
X134983390Y-142479047D01*
X134554819Y-142050476D02*
X135126247Y-142621904D01*
X136424819Y-107714285D02*
X135424819Y-107714285D01*
X135424819Y-107714285D02*
X135424819Y-107476190D01*
X135424819Y-107476190D02*
X135472438Y-107333333D01*
X135472438Y-107333333D02*
X135567676Y-107238095D01*
X135567676Y-107238095D02*
X135662914Y-107190476D01*
X135662914Y-107190476D02*
X135853390Y-107142857D01*
X135853390Y-107142857D02*
X135996247Y-107142857D01*
X135996247Y-107142857D02*
X136186723Y-107190476D01*
X136186723Y-107190476D02*
X136281961Y-107238095D01*
X136281961Y-107238095D02*
X136377200Y-107333333D01*
X136377200Y-107333333D02*
X136424819Y-107476190D01*
X136424819Y-107476190D02*
X136424819Y-107714285D01*
X136424819Y-106190476D02*
X136424819Y-106761904D01*
X136424819Y-106476190D02*
X135424819Y-106476190D01*
X135424819Y-106476190D02*
X135567676Y-106571428D01*
X135567676Y-106571428D02*
X135662914Y-106666666D01*
X135662914Y-106666666D02*
X135710533Y-106761904D01*
X136424819Y-105714285D02*
X136424819Y-105523809D01*
X136424819Y-105523809D02*
X136377200Y-105428571D01*
X136377200Y-105428571D02*
X136329580Y-105380952D01*
X136329580Y-105380952D02*
X136186723Y-105285714D01*
X136186723Y-105285714D02*
X135996247Y-105238095D01*
X135996247Y-105238095D02*
X135615295Y-105238095D01*
X135615295Y-105238095D02*
X135520057Y-105285714D01*
X135520057Y-105285714D02*
X135472438Y-105333333D01*
X135472438Y-105333333D02*
X135424819Y-105428571D01*
X135424819Y-105428571D02*
X135424819Y-105619047D01*
X135424819Y-105619047D02*
X135472438Y-105714285D01*
X135472438Y-105714285D02*
X135520057Y-105761904D01*
X135520057Y-105761904D02*
X135615295Y-105809523D01*
X135615295Y-105809523D02*
X135853390Y-105809523D01*
X135853390Y-105809523D02*
X135948628Y-105761904D01*
X135948628Y-105761904D02*
X135996247Y-105714285D01*
X135996247Y-105714285D02*
X136043866Y-105619047D01*
X136043866Y-105619047D02*
X136043866Y-105428571D01*
X136043866Y-105428571D02*
X135996247Y-105333333D01*
X135996247Y-105333333D02*
X135948628Y-105285714D01*
X135948628Y-105285714D02*
X135853390Y-105238095D01*
X136054819Y-101681904D02*
X135054819Y-101681904D01*
X136054819Y-101110476D02*
X135483390Y-101539047D01*
X135054819Y-101110476D02*
X135626247Y-101681904D01*
X127924819Y-148734285D02*
X126924819Y-148734285D01*
X126924819Y-148734285D02*
X126924819Y-148496190D01*
X126924819Y-148496190D02*
X126972438Y-148353333D01*
X126972438Y-148353333D02*
X127067676Y-148258095D01*
X127067676Y-148258095D02*
X127162914Y-148210476D01*
X127162914Y-148210476D02*
X127353390Y-148162857D01*
X127353390Y-148162857D02*
X127496247Y-148162857D01*
X127496247Y-148162857D02*
X127686723Y-148210476D01*
X127686723Y-148210476D02*
X127781961Y-148258095D01*
X127781961Y-148258095D02*
X127877200Y-148353333D01*
X127877200Y-148353333D02*
X127924819Y-148496190D01*
X127924819Y-148496190D02*
X127924819Y-148734285D01*
X127924819Y-147210476D02*
X127924819Y-147781904D01*
X127924819Y-147496190D02*
X126924819Y-147496190D01*
X126924819Y-147496190D02*
X127067676Y-147591428D01*
X127067676Y-147591428D02*
X127162914Y-147686666D01*
X127162914Y-147686666D02*
X127210533Y-147781904D01*
X127353390Y-146639047D02*
X127305771Y-146734285D01*
X127305771Y-146734285D02*
X127258152Y-146781904D01*
X127258152Y-146781904D02*
X127162914Y-146829523D01*
X127162914Y-146829523D02*
X127115295Y-146829523D01*
X127115295Y-146829523D02*
X127020057Y-146781904D01*
X127020057Y-146781904D02*
X126972438Y-146734285D01*
X126972438Y-146734285D02*
X126924819Y-146639047D01*
X126924819Y-146639047D02*
X126924819Y-146448571D01*
X126924819Y-146448571D02*
X126972438Y-146353333D01*
X126972438Y-146353333D02*
X127020057Y-146305714D01*
X127020057Y-146305714D02*
X127115295Y-146258095D01*
X127115295Y-146258095D02*
X127162914Y-146258095D01*
X127162914Y-146258095D02*
X127258152Y-146305714D01*
X127258152Y-146305714D02*
X127305771Y-146353333D01*
X127305771Y-146353333D02*
X127353390Y-146448571D01*
X127353390Y-146448571D02*
X127353390Y-146639047D01*
X127353390Y-146639047D02*
X127401009Y-146734285D01*
X127401009Y-146734285D02*
X127448628Y-146781904D01*
X127448628Y-146781904D02*
X127543866Y-146829523D01*
X127543866Y-146829523D02*
X127734342Y-146829523D01*
X127734342Y-146829523D02*
X127829580Y-146781904D01*
X127829580Y-146781904D02*
X127877200Y-146734285D01*
X127877200Y-146734285D02*
X127924819Y-146639047D01*
X127924819Y-146639047D02*
X127924819Y-146448571D01*
X127924819Y-146448571D02*
X127877200Y-146353333D01*
X127877200Y-146353333D02*
X127829580Y-146305714D01*
X127829580Y-146305714D02*
X127734342Y-146258095D01*
X127734342Y-146258095D02*
X127543866Y-146258095D01*
X127543866Y-146258095D02*
X127448628Y-146305714D01*
X127448628Y-146305714D02*
X127401009Y-146353333D01*
X127401009Y-146353333D02*
X127353390Y-146448571D01*
X127554819Y-142701904D02*
X126554819Y-142701904D01*
X127554819Y-142130476D02*
X126983390Y-142559047D01*
X126554819Y-142130476D02*
X127126247Y-142701904D01*
X128924819Y-107714285D02*
X127924819Y-107714285D01*
X127924819Y-107714285D02*
X127924819Y-107476190D01*
X127924819Y-107476190D02*
X127972438Y-107333333D01*
X127972438Y-107333333D02*
X128067676Y-107238095D01*
X128067676Y-107238095D02*
X128162914Y-107190476D01*
X128162914Y-107190476D02*
X128353390Y-107142857D01*
X128353390Y-107142857D02*
X128496247Y-107142857D01*
X128496247Y-107142857D02*
X128686723Y-107190476D01*
X128686723Y-107190476D02*
X128781961Y-107238095D01*
X128781961Y-107238095D02*
X128877200Y-107333333D01*
X128877200Y-107333333D02*
X128924819Y-107476190D01*
X128924819Y-107476190D02*
X128924819Y-107714285D01*
X128924819Y-106190476D02*
X128924819Y-106761904D01*
X128924819Y-106476190D02*
X127924819Y-106476190D01*
X127924819Y-106476190D02*
X128067676Y-106571428D01*
X128067676Y-106571428D02*
X128162914Y-106666666D01*
X128162914Y-106666666D02*
X128210533Y-106761904D01*
X127924819Y-105857142D02*
X127924819Y-105190476D01*
X127924819Y-105190476D02*
X128924819Y-105619047D01*
X128554819Y-101681904D02*
X127554819Y-101681904D01*
X128554819Y-101110476D02*
X127983390Y-101539047D01*
X127554819Y-101110476D02*
X128126247Y-101681904D01*
X119424819Y-148794285D02*
X118424819Y-148794285D01*
X118424819Y-148794285D02*
X118424819Y-148556190D01*
X118424819Y-148556190D02*
X118472438Y-148413333D01*
X118472438Y-148413333D02*
X118567676Y-148318095D01*
X118567676Y-148318095D02*
X118662914Y-148270476D01*
X118662914Y-148270476D02*
X118853390Y-148222857D01*
X118853390Y-148222857D02*
X118996247Y-148222857D01*
X118996247Y-148222857D02*
X119186723Y-148270476D01*
X119186723Y-148270476D02*
X119281961Y-148318095D01*
X119281961Y-148318095D02*
X119377200Y-148413333D01*
X119377200Y-148413333D02*
X119424819Y-148556190D01*
X119424819Y-148556190D02*
X119424819Y-148794285D01*
X119424819Y-147270476D02*
X119424819Y-147841904D01*
X119424819Y-147556190D02*
X118424819Y-147556190D01*
X118424819Y-147556190D02*
X118567676Y-147651428D01*
X118567676Y-147651428D02*
X118662914Y-147746666D01*
X118662914Y-147746666D02*
X118710533Y-147841904D01*
X118424819Y-146413333D02*
X118424819Y-146603809D01*
X118424819Y-146603809D02*
X118472438Y-146699047D01*
X118472438Y-146699047D02*
X118520057Y-146746666D01*
X118520057Y-146746666D02*
X118662914Y-146841904D01*
X118662914Y-146841904D02*
X118853390Y-146889523D01*
X118853390Y-146889523D02*
X119234342Y-146889523D01*
X119234342Y-146889523D02*
X119329580Y-146841904D01*
X119329580Y-146841904D02*
X119377200Y-146794285D01*
X119377200Y-146794285D02*
X119424819Y-146699047D01*
X119424819Y-146699047D02*
X119424819Y-146508571D01*
X119424819Y-146508571D02*
X119377200Y-146413333D01*
X119377200Y-146413333D02*
X119329580Y-146365714D01*
X119329580Y-146365714D02*
X119234342Y-146318095D01*
X119234342Y-146318095D02*
X118996247Y-146318095D01*
X118996247Y-146318095D02*
X118901009Y-146365714D01*
X118901009Y-146365714D02*
X118853390Y-146413333D01*
X118853390Y-146413333D02*
X118805771Y-146508571D01*
X118805771Y-146508571D02*
X118805771Y-146699047D01*
X118805771Y-146699047D02*
X118853390Y-146794285D01*
X118853390Y-146794285D02*
X118901009Y-146841904D01*
X118901009Y-146841904D02*
X118996247Y-146889523D01*
X119054819Y-142761904D02*
X118054819Y-142761904D01*
X119054819Y-142190476D02*
X118483390Y-142619047D01*
X118054819Y-142190476D02*
X118626247Y-142761904D01*
X120924819Y-107794285D02*
X119924819Y-107794285D01*
X119924819Y-107794285D02*
X119924819Y-107556190D01*
X119924819Y-107556190D02*
X119972438Y-107413333D01*
X119972438Y-107413333D02*
X120067676Y-107318095D01*
X120067676Y-107318095D02*
X120162914Y-107270476D01*
X120162914Y-107270476D02*
X120353390Y-107222857D01*
X120353390Y-107222857D02*
X120496247Y-107222857D01*
X120496247Y-107222857D02*
X120686723Y-107270476D01*
X120686723Y-107270476D02*
X120781961Y-107318095D01*
X120781961Y-107318095D02*
X120877200Y-107413333D01*
X120877200Y-107413333D02*
X120924819Y-107556190D01*
X120924819Y-107556190D02*
X120924819Y-107794285D01*
X120924819Y-106270476D02*
X120924819Y-106841904D01*
X120924819Y-106556190D02*
X119924819Y-106556190D01*
X119924819Y-106556190D02*
X120067676Y-106651428D01*
X120067676Y-106651428D02*
X120162914Y-106746666D01*
X120162914Y-106746666D02*
X120210533Y-106841904D01*
X119924819Y-105365714D02*
X119924819Y-105841904D01*
X119924819Y-105841904D02*
X120401009Y-105889523D01*
X120401009Y-105889523D02*
X120353390Y-105841904D01*
X120353390Y-105841904D02*
X120305771Y-105746666D01*
X120305771Y-105746666D02*
X120305771Y-105508571D01*
X120305771Y-105508571D02*
X120353390Y-105413333D01*
X120353390Y-105413333D02*
X120401009Y-105365714D01*
X120401009Y-105365714D02*
X120496247Y-105318095D01*
X120496247Y-105318095D02*
X120734342Y-105318095D01*
X120734342Y-105318095D02*
X120829580Y-105365714D01*
X120829580Y-105365714D02*
X120877200Y-105413333D01*
X120877200Y-105413333D02*
X120924819Y-105508571D01*
X120924819Y-105508571D02*
X120924819Y-105746666D01*
X120924819Y-105746666D02*
X120877200Y-105841904D01*
X120877200Y-105841904D02*
X120829580Y-105889523D01*
X120554819Y-101761904D02*
X119554819Y-101761904D01*
X120554819Y-101190476D02*
X119983390Y-101619047D01*
X119554819Y-101190476D02*
X120126247Y-101761904D01*
X111424819Y-148974285D02*
X110424819Y-148974285D01*
X110424819Y-148974285D02*
X110424819Y-148736190D01*
X110424819Y-148736190D02*
X110472438Y-148593333D01*
X110472438Y-148593333D02*
X110567676Y-148498095D01*
X110567676Y-148498095D02*
X110662914Y-148450476D01*
X110662914Y-148450476D02*
X110853390Y-148402857D01*
X110853390Y-148402857D02*
X110996247Y-148402857D01*
X110996247Y-148402857D02*
X111186723Y-148450476D01*
X111186723Y-148450476D02*
X111281961Y-148498095D01*
X111281961Y-148498095D02*
X111377200Y-148593333D01*
X111377200Y-148593333D02*
X111424819Y-148736190D01*
X111424819Y-148736190D02*
X111424819Y-148974285D01*
X111424819Y-147450476D02*
X111424819Y-148021904D01*
X111424819Y-147736190D02*
X110424819Y-147736190D01*
X110424819Y-147736190D02*
X110567676Y-147831428D01*
X110567676Y-147831428D02*
X110662914Y-147926666D01*
X110662914Y-147926666D02*
X110710533Y-148021904D01*
X110758152Y-146593333D02*
X111424819Y-146593333D01*
X110377200Y-146831428D02*
X111091485Y-147069523D01*
X111091485Y-147069523D02*
X111091485Y-146450476D01*
X111054819Y-142941904D02*
X110054819Y-142941904D01*
X111054819Y-142370476D02*
X110483390Y-142799047D01*
X110054819Y-142370476D02*
X110626247Y-142941904D01*
X112924819Y-107794285D02*
X111924819Y-107794285D01*
X111924819Y-107794285D02*
X111924819Y-107556190D01*
X111924819Y-107556190D02*
X111972438Y-107413333D01*
X111972438Y-107413333D02*
X112067676Y-107318095D01*
X112067676Y-107318095D02*
X112162914Y-107270476D01*
X112162914Y-107270476D02*
X112353390Y-107222857D01*
X112353390Y-107222857D02*
X112496247Y-107222857D01*
X112496247Y-107222857D02*
X112686723Y-107270476D01*
X112686723Y-107270476D02*
X112781961Y-107318095D01*
X112781961Y-107318095D02*
X112877200Y-107413333D01*
X112877200Y-107413333D02*
X112924819Y-107556190D01*
X112924819Y-107556190D02*
X112924819Y-107794285D01*
X112924819Y-106270476D02*
X112924819Y-106841904D01*
X112924819Y-106556190D02*
X111924819Y-106556190D01*
X111924819Y-106556190D02*
X112067676Y-106651428D01*
X112067676Y-106651428D02*
X112162914Y-106746666D01*
X112162914Y-106746666D02*
X112210533Y-106841904D01*
X111924819Y-105937142D02*
X111924819Y-105318095D01*
X111924819Y-105318095D02*
X112305771Y-105651428D01*
X112305771Y-105651428D02*
X112305771Y-105508571D01*
X112305771Y-105508571D02*
X112353390Y-105413333D01*
X112353390Y-105413333D02*
X112401009Y-105365714D01*
X112401009Y-105365714D02*
X112496247Y-105318095D01*
X112496247Y-105318095D02*
X112734342Y-105318095D01*
X112734342Y-105318095D02*
X112829580Y-105365714D01*
X112829580Y-105365714D02*
X112877200Y-105413333D01*
X112877200Y-105413333D02*
X112924819Y-105508571D01*
X112924819Y-105508571D02*
X112924819Y-105794285D01*
X112924819Y-105794285D02*
X112877200Y-105889523D01*
X112877200Y-105889523D02*
X112829580Y-105937142D01*
X112554819Y-101761904D02*
X111554819Y-101761904D01*
X112554819Y-101190476D02*
X111983390Y-101619047D01*
X111554819Y-101190476D02*
X112126247Y-101761904D01*
X102924819Y-149054285D02*
X101924819Y-149054285D01*
X101924819Y-149054285D02*
X101924819Y-148816190D01*
X101924819Y-148816190D02*
X101972438Y-148673333D01*
X101972438Y-148673333D02*
X102067676Y-148578095D01*
X102067676Y-148578095D02*
X102162914Y-148530476D01*
X102162914Y-148530476D02*
X102353390Y-148482857D01*
X102353390Y-148482857D02*
X102496247Y-148482857D01*
X102496247Y-148482857D02*
X102686723Y-148530476D01*
X102686723Y-148530476D02*
X102781961Y-148578095D01*
X102781961Y-148578095D02*
X102877200Y-148673333D01*
X102877200Y-148673333D02*
X102924819Y-148816190D01*
X102924819Y-148816190D02*
X102924819Y-149054285D01*
X102924819Y-147530476D02*
X102924819Y-148101904D01*
X102924819Y-147816190D02*
X101924819Y-147816190D01*
X101924819Y-147816190D02*
X102067676Y-147911428D01*
X102067676Y-147911428D02*
X102162914Y-148006666D01*
X102162914Y-148006666D02*
X102210533Y-148101904D01*
X102020057Y-147149523D02*
X101972438Y-147101904D01*
X101972438Y-147101904D02*
X101924819Y-147006666D01*
X101924819Y-147006666D02*
X101924819Y-146768571D01*
X101924819Y-146768571D02*
X101972438Y-146673333D01*
X101972438Y-146673333D02*
X102020057Y-146625714D01*
X102020057Y-146625714D02*
X102115295Y-146578095D01*
X102115295Y-146578095D02*
X102210533Y-146578095D01*
X102210533Y-146578095D02*
X102353390Y-146625714D01*
X102353390Y-146625714D02*
X102924819Y-147197142D01*
X102924819Y-147197142D02*
X102924819Y-146578095D01*
X102554819Y-143021904D02*
X101554819Y-143021904D01*
X102554819Y-142450476D02*
X101983390Y-142879047D01*
X101554819Y-142450476D02*
X102126247Y-143021904D01*
X94424819Y-148634285D02*
X93424819Y-148634285D01*
X93424819Y-148634285D02*
X93424819Y-148396190D01*
X93424819Y-148396190D02*
X93472438Y-148253333D01*
X93472438Y-148253333D02*
X93567676Y-148158095D01*
X93567676Y-148158095D02*
X93662914Y-148110476D01*
X93662914Y-148110476D02*
X93853390Y-148062857D01*
X93853390Y-148062857D02*
X93996247Y-148062857D01*
X93996247Y-148062857D02*
X94186723Y-148110476D01*
X94186723Y-148110476D02*
X94281961Y-148158095D01*
X94281961Y-148158095D02*
X94377200Y-148253333D01*
X94377200Y-148253333D02*
X94424819Y-148396190D01*
X94424819Y-148396190D02*
X94424819Y-148634285D01*
X94424819Y-147110476D02*
X94424819Y-147681904D01*
X94424819Y-147396190D02*
X93424819Y-147396190D01*
X93424819Y-147396190D02*
X93567676Y-147491428D01*
X93567676Y-147491428D02*
X93662914Y-147586666D01*
X93662914Y-147586666D02*
X93710533Y-147681904D01*
X93424819Y-146491428D02*
X93424819Y-146396190D01*
X93424819Y-146396190D02*
X93472438Y-146300952D01*
X93472438Y-146300952D02*
X93520057Y-146253333D01*
X93520057Y-146253333D02*
X93615295Y-146205714D01*
X93615295Y-146205714D02*
X93805771Y-146158095D01*
X93805771Y-146158095D02*
X94043866Y-146158095D01*
X94043866Y-146158095D02*
X94234342Y-146205714D01*
X94234342Y-146205714D02*
X94329580Y-146253333D01*
X94329580Y-146253333D02*
X94377200Y-146300952D01*
X94377200Y-146300952D02*
X94424819Y-146396190D01*
X94424819Y-146396190D02*
X94424819Y-146491428D01*
X94424819Y-146491428D02*
X94377200Y-146586666D01*
X94377200Y-146586666D02*
X94329580Y-146634285D01*
X94329580Y-146634285D02*
X94234342Y-146681904D01*
X94234342Y-146681904D02*
X94043866Y-146729523D01*
X94043866Y-146729523D02*
X93805771Y-146729523D01*
X93805771Y-146729523D02*
X93615295Y-146681904D01*
X93615295Y-146681904D02*
X93520057Y-146634285D01*
X93520057Y-146634285D02*
X93472438Y-146586666D01*
X93472438Y-146586666D02*
X93424819Y-146491428D01*
X94054819Y-142601904D02*
X93054819Y-142601904D01*
X94054819Y-142030476D02*
X93483390Y-142459047D01*
X93054819Y-142030476D02*
X93626247Y-142601904D01*
X97424819Y-107238094D02*
X96424819Y-107238094D01*
X96424819Y-107238094D02*
X96424819Y-106999999D01*
X96424819Y-106999999D02*
X96472438Y-106857142D01*
X96472438Y-106857142D02*
X96567676Y-106761904D01*
X96567676Y-106761904D02*
X96662914Y-106714285D01*
X96662914Y-106714285D02*
X96853390Y-106666666D01*
X96853390Y-106666666D02*
X96996247Y-106666666D01*
X96996247Y-106666666D02*
X97186723Y-106714285D01*
X97186723Y-106714285D02*
X97281961Y-106761904D01*
X97281961Y-106761904D02*
X97377200Y-106857142D01*
X97377200Y-106857142D02*
X97424819Y-106999999D01*
X97424819Y-106999999D02*
X97424819Y-107238094D01*
X97424819Y-106190475D02*
X97424819Y-105999999D01*
X97424819Y-105999999D02*
X97377200Y-105904761D01*
X97377200Y-105904761D02*
X97329580Y-105857142D01*
X97329580Y-105857142D02*
X97186723Y-105761904D01*
X97186723Y-105761904D02*
X96996247Y-105714285D01*
X96996247Y-105714285D02*
X96615295Y-105714285D01*
X96615295Y-105714285D02*
X96520057Y-105761904D01*
X96520057Y-105761904D02*
X96472438Y-105809523D01*
X96472438Y-105809523D02*
X96424819Y-105904761D01*
X96424819Y-105904761D02*
X96424819Y-106095237D01*
X96424819Y-106095237D02*
X96472438Y-106190475D01*
X96472438Y-106190475D02*
X96520057Y-106238094D01*
X96520057Y-106238094D02*
X96615295Y-106285713D01*
X96615295Y-106285713D02*
X96853390Y-106285713D01*
X96853390Y-106285713D02*
X96948628Y-106238094D01*
X96948628Y-106238094D02*
X96996247Y-106190475D01*
X96996247Y-106190475D02*
X97043866Y-106095237D01*
X97043866Y-106095237D02*
X97043866Y-105904761D01*
X97043866Y-105904761D02*
X96996247Y-105809523D01*
X96996247Y-105809523D02*
X96948628Y-105761904D01*
X96948628Y-105761904D02*
X96853390Y-105714285D01*
X97054819Y-101681904D02*
X96054819Y-101681904D01*
X97054819Y-101110476D02*
X96483390Y-101539047D01*
X96054819Y-101110476D02*
X96626247Y-101681904D01*
X86924819Y-148238094D02*
X85924819Y-148238094D01*
X85924819Y-148238094D02*
X85924819Y-147999999D01*
X85924819Y-147999999D02*
X85972438Y-147857142D01*
X85972438Y-147857142D02*
X86067676Y-147761904D01*
X86067676Y-147761904D02*
X86162914Y-147714285D01*
X86162914Y-147714285D02*
X86353390Y-147666666D01*
X86353390Y-147666666D02*
X86496247Y-147666666D01*
X86496247Y-147666666D02*
X86686723Y-147714285D01*
X86686723Y-147714285D02*
X86781961Y-147761904D01*
X86781961Y-147761904D02*
X86877200Y-147857142D01*
X86877200Y-147857142D02*
X86924819Y-147999999D01*
X86924819Y-147999999D02*
X86924819Y-148238094D01*
X86353390Y-147095237D02*
X86305771Y-147190475D01*
X86305771Y-147190475D02*
X86258152Y-147238094D01*
X86258152Y-147238094D02*
X86162914Y-147285713D01*
X86162914Y-147285713D02*
X86115295Y-147285713D01*
X86115295Y-147285713D02*
X86020057Y-147238094D01*
X86020057Y-147238094D02*
X85972438Y-147190475D01*
X85972438Y-147190475D02*
X85924819Y-147095237D01*
X85924819Y-147095237D02*
X85924819Y-146904761D01*
X85924819Y-146904761D02*
X85972438Y-146809523D01*
X85972438Y-146809523D02*
X86020057Y-146761904D01*
X86020057Y-146761904D02*
X86115295Y-146714285D01*
X86115295Y-146714285D02*
X86162914Y-146714285D01*
X86162914Y-146714285D02*
X86258152Y-146761904D01*
X86258152Y-146761904D02*
X86305771Y-146809523D01*
X86305771Y-146809523D02*
X86353390Y-146904761D01*
X86353390Y-146904761D02*
X86353390Y-147095237D01*
X86353390Y-147095237D02*
X86401009Y-147190475D01*
X86401009Y-147190475D02*
X86448628Y-147238094D01*
X86448628Y-147238094D02*
X86543866Y-147285713D01*
X86543866Y-147285713D02*
X86734342Y-147285713D01*
X86734342Y-147285713D02*
X86829580Y-147238094D01*
X86829580Y-147238094D02*
X86877200Y-147190475D01*
X86877200Y-147190475D02*
X86924819Y-147095237D01*
X86924819Y-147095237D02*
X86924819Y-146904761D01*
X86924819Y-146904761D02*
X86877200Y-146809523D01*
X86877200Y-146809523D02*
X86829580Y-146761904D01*
X86829580Y-146761904D02*
X86734342Y-146714285D01*
X86734342Y-146714285D02*
X86543866Y-146714285D01*
X86543866Y-146714285D02*
X86448628Y-146761904D01*
X86448628Y-146761904D02*
X86401009Y-146809523D01*
X86401009Y-146809523D02*
X86353390Y-146904761D01*
X86554819Y-142681904D02*
X85554819Y-142681904D01*
X86554819Y-142110476D02*
X85983390Y-142539047D01*
X85554819Y-142110476D02*
X86126247Y-142681904D01*
X89924819Y-107238094D02*
X88924819Y-107238094D01*
X88924819Y-107238094D02*
X88924819Y-106999999D01*
X88924819Y-106999999D02*
X88972438Y-106857142D01*
X88972438Y-106857142D02*
X89067676Y-106761904D01*
X89067676Y-106761904D02*
X89162914Y-106714285D01*
X89162914Y-106714285D02*
X89353390Y-106666666D01*
X89353390Y-106666666D02*
X89496247Y-106666666D01*
X89496247Y-106666666D02*
X89686723Y-106714285D01*
X89686723Y-106714285D02*
X89781961Y-106761904D01*
X89781961Y-106761904D02*
X89877200Y-106857142D01*
X89877200Y-106857142D02*
X89924819Y-106999999D01*
X89924819Y-106999999D02*
X89924819Y-107238094D01*
X88924819Y-106333332D02*
X88924819Y-105666666D01*
X88924819Y-105666666D02*
X89924819Y-106095237D01*
X89554819Y-101681904D02*
X88554819Y-101681904D01*
X89554819Y-101110476D02*
X88983390Y-101539047D01*
X88554819Y-101110476D02*
X89126247Y-101681904D01*
X79424819Y-148318094D02*
X78424819Y-148318094D01*
X78424819Y-148318094D02*
X78424819Y-148079999D01*
X78424819Y-148079999D02*
X78472438Y-147937142D01*
X78472438Y-147937142D02*
X78567676Y-147841904D01*
X78567676Y-147841904D02*
X78662914Y-147794285D01*
X78662914Y-147794285D02*
X78853390Y-147746666D01*
X78853390Y-147746666D02*
X78996247Y-147746666D01*
X78996247Y-147746666D02*
X79186723Y-147794285D01*
X79186723Y-147794285D02*
X79281961Y-147841904D01*
X79281961Y-147841904D02*
X79377200Y-147937142D01*
X79377200Y-147937142D02*
X79424819Y-148079999D01*
X79424819Y-148079999D02*
X79424819Y-148318094D01*
X78424819Y-146889523D02*
X78424819Y-147079999D01*
X78424819Y-147079999D02*
X78472438Y-147175237D01*
X78472438Y-147175237D02*
X78520057Y-147222856D01*
X78520057Y-147222856D02*
X78662914Y-147318094D01*
X78662914Y-147318094D02*
X78853390Y-147365713D01*
X78853390Y-147365713D02*
X79234342Y-147365713D01*
X79234342Y-147365713D02*
X79329580Y-147318094D01*
X79329580Y-147318094D02*
X79377200Y-147270475D01*
X79377200Y-147270475D02*
X79424819Y-147175237D01*
X79424819Y-147175237D02*
X79424819Y-146984761D01*
X79424819Y-146984761D02*
X79377200Y-146889523D01*
X79377200Y-146889523D02*
X79329580Y-146841904D01*
X79329580Y-146841904D02*
X79234342Y-146794285D01*
X79234342Y-146794285D02*
X78996247Y-146794285D01*
X78996247Y-146794285D02*
X78901009Y-146841904D01*
X78901009Y-146841904D02*
X78853390Y-146889523D01*
X78853390Y-146889523D02*
X78805771Y-146984761D01*
X78805771Y-146984761D02*
X78805771Y-147175237D01*
X78805771Y-147175237D02*
X78853390Y-147270475D01*
X78853390Y-147270475D02*
X78901009Y-147318094D01*
X78901009Y-147318094D02*
X78996247Y-147365713D01*
X79054819Y-142761904D02*
X78054819Y-142761904D01*
X79054819Y-142190476D02*
X78483390Y-142619047D01*
X78054819Y-142190476D02*
X78626247Y-142761904D01*
X81924819Y-107118094D02*
X80924819Y-107118094D01*
X80924819Y-107118094D02*
X80924819Y-106879999D01*
X80924819Y-106879999D02*
X80972438Y-106737142D01*
X80972438Y-106737142D02*
X81067676Y-106641904D01*
X81067676Y-106641904D02*
X81162914Y-106594285D01*
X81162914Y-106594285D02*
X81353390Y-106546666D01*
X81353390Y-106546666D02*
X81496247Y-106546666D01*
X81496247Y-106546666D02*
X81686723Y-106594285D01*
X81686723Y-106594285D02*
X81781961Y-106641904D01*
X81781961Y-106641904D02*
X81877200Y-106737142D01*
X81877200Y-106737142D02*
X81924819Y-106879999D01*
X81924819Y-106879999D02*
X81924819Y-107118094D01*
X80924819Y-105641904D02*
X80924819Y-106118094D01*
X80924819Y-106118094D02*
X81401009Y-106165713D01*
X81401009Y-106165713D02*
X81353390Y-106118094D01*
X81353390Y-106118094D02*
X81305771Y-106022856D01*
X81305771Y-106022856D02*
X81305771Y-105784761D01*
X81305771Y-105784761D02*
X81353390Y-105689523D01*
X81353390Y-105689523D02*
X81401009Y-105641904D01*
X81401009Y-105641904D02*
X81496247Y-105594285D01*
X81496247Y-105594285D02*
X81734342Y-105594285D01*
X81734342Y-105594285D02*
X81829580Y-105641904D01*
X81829580Y-105641904D02*
X81877200Y-105689523D01*
X81877200Y-105689523D02*
X81924819Y-105784761D01*
X81924819Y-105784761D02*
X81924819Y-106022856D01*
X81924819Y-106022856D02*
X81877200Y-106118094D01*
X81877200Y-106118094D02*
X81829580Y-106165713D01*
X81554819Y-101561904D02*
X80554819Y-101561904D01*
X81554819Y-100990476D02*
X80983390Y-101419047D01*
X80554819Y-100990476D02*
X81126247Y-101561904D01*
X71924819Y-148398094D02*
X70924819Y-148398094D01*
X70924819Y-148398094D02*
X70924819Y-148159999D01*
X70924819Y-148159999D02*
X70972438Y-148017142D01*
X70972438Y-148017142D02*
X71067676Y-147921904D01*
X71067676Y-147921904D02*
X71162914Y-147874285D01*
X71162914Y-147874285D02*
X71353390Y-147826666D01*
X71353390Y-147826666D02*
X71496247Y-147826666D01*
X71496247Y-147826666D02*
X71686723Y-147874285D01*
X71686723Y-147874285D02*
X71781961Y-147921904D01*
X71781961Y-147921904D02*
X71877200Y-148017142D01*
X71877200Y-148017142D02*
X71924819Y-148159999D01*
X71924819Y-148159999D02*
X71924819Y-148398094D01*
X71258152Y-146969523D02*
X71924819Y-146969523D01*
X70877200Y-147207618D02*
X71591485Y-147445713D01*
X71591485Y-147445713D02*
X71591485Y-146826666D01*
X71554819Y-142841904D02*
X70554819Y-142841904D01*
X71554819Y-142270476D02*
X70983390Y-142699047D01*
X70554819Y-142270476D02*
X71126247Y-142841904D01*
X73924819Y-107198094D02*
X72924819Y-107198094D01*
X72924819Y-107198094D02*
X72924819Y-106959999D01*
X72924819Y-106959999D02*
X72972438Y-106817142D01*
X72972438Y-106817142D02*
X73067676Y-106721904D01*
X73067676Y-106721904D02*
X73162914Y-106674285D01*
X73162914Y-106674285D02*
X73353390Y-106626666D01*
X73353390Y-106626666D02*
X73496247Y-106626666D01*
X73496247Y-106626666D02*
X73686723Y-106674285D01*
X73686723Y-106674285D02*
X73781961Y-106721904D01*
X73781961Y-106721904D02*
X73877200Y-106817142D01*
X73877200Y-106817142D02*
X73924819Y-106959999D01*
X73924819Y-106959999D02*
X73924819Y-107198094D01*
X72924819Y-106293332D02*
X72924819Y-105674285D01*
X72924819Y-105674285D02*
X73305771Y-106007618D01*
X73305771Y-106007618D02*
X73305771Y-105864761D01*
X73305771Y-105864761D02*
X73353390Y-105769523D01*
X73353390Y-105769523D02*
X73401009Y-105721904D01*
X73401009Y-105721904D02*
X73496247Y-105674285D01*
X73496247Y-105674285D02*
X73734342Y-105674285D01*
X73734342Y-105674285D02*
X73829580Y-105721904D01*
X73829580Y-105721904D02*
X73877200Y-105769523D01*
X73877200Y-105769523D02*
X73924819Y-105864761D01*
X73924819Y-105864761D02*
X73924819Y-106150475D01*
X73924819Y-106150475D02*
X73877200Y-106245713D01*
X73877200Y-106245713D02*
X73829580Y-106293332D01*
X73554819Y-101641904D02*
X72554819Y-101641904D01*
X73554819Y-101070476D02*
X72983390Y-101499047D01*
X72554819Y-101070476D02*
X73126247Y-101641904D01*
X63954819Y-149318094D02*
X62954819Y-149318094D01*
X62954819Y-149318094D02*
X62954819Y-149079999D01*
X62954819Y-149079999D02*
X63002438Y-148937142D01*
X63002438Y-148937142D02*
X63097676Y-148841904D01*
X63097676Y-148841904D02*
X63192914Y-148794285D01*
X63192914Y-148794285D02*
X63383390Y-148746666D01*
X63383390Y-148746666D02*
X63526247Y-148746666D01*
X63526247Y-148746666D02*
X63716723Y-148794285D01*
X63716723Y-148794285D02*
X63811961Y-148841904D01*
X63811961Y-148841904D02*
X63907200Y-148937142D01*
X63907200Y-148937142D02*
X63954819Y-149079999D01*
X63954819Y-149079999D02*
X63954819Y-149318094D01*
X63050057Y-148365713D02*
X63002438Y-148318094D01*
X63002438Y-148318094D02*
X62954819Y-148222856D01*
X62954819Y-148222856D02*
X62954819Y-147984761D01*
X62954819Y-147984761D02*
X63002438Y-147889523D01*
X63002438Y-147889523D02*
X63050057Y-147841904D01*
X63050057Y-147841904D02*
X63145295Y-147794285D01*
X63145295Y-147794285D02*
X63240533Y-147794285D01*
X63240533Y-147794285D02*
X63383390Y-147841904D01*
X63383390Y-147841904D02*
X63954819Y-148413332D01*
X63954819Y-148413332D02*
X63954819Y-147794285D01*
X63554819Y-142761904D02*
X62554819Y-142761904D01*
X63554819Y-142190476D02*
X62983390Y-142619047D01*
X62554819Y-142190476D02*
X63126247Y-142761904D01*
X65424819Y-107118094D02*
X64424819Y-107118094D01*
X64424819Y-107118094D02*
X64424819Y-106879999D01*
X64424819Y-106879999D02*
X64472438Y-106737142D01*
X64472438Y-106737142D02*
X64567676Y-106641904D01*
X64567676Y-106641904D02*
X64662914Y-106594285D01*
X64662914Y-106594285D02*
X64853390Y-106546666D01*
X64853390Y-106546666D02*
X64996247Y-106546666D01*
X64996247Y-106546666D02*
X65186723Y-106594285D01*
X65186723Y-106594285D02*
X65281961Y-106641904D01*
X65281961Y-106641904D02*
X65377200Y-106737142D01*
X65377200Y-106737142D02*
X65424819Y-106879999D01*
X65424819Y-106879999D02*
X65424819Y-107118094D01*
X65424819Y-105594285D02*
X65424819Y-106165713D01*
X65424819Y-105879999D02*
X64424819Y-105879999D01*
X64424819Y-105879999D02*
X64567676Y-105975237D01*
X64567676Y-105975237D02*
X64662914Y-106070475D01*
X64662914Y-106070475D02*
X64710533Y-106165713D01*
X65054819Y-101561904D02*
X64054819Y-101561904D01*
X65054819Y-100990476D02*
X64483390Y-101419047D01*
X64054819Y-100990476D02*
X64626247Y-101561904D01*
%TO.C,U1*%
X148050000Y-90810000D02*
X146780000Y-90810000D01*
X148050000Y-83190000D02*
X148050000Y-90810000D01*
X146780000Y-95890000D02*
X111220000Y-95890000D01*
X146780000Y-83190000D02*
X148050000Y-83190000D01*
X146780000Y-78110000D02*
X146780000Y-95890000D01*
X141700000Y-90810000D02*
X146780000Y-90810000D01*
X141700000Y-83190000D02*
X146780000Y-83190000D01*
X141700000Y-83190000D02*
X141700000Y-90810000D01*
X134715000Y-92080000D02*
X134715000Y-81920000D01*
X124555000Y-92080000D02*
X134715000Y-92080000D01*
X124555000Y-81920000D02*
X134715000Y-81920000D01*
X124555000Y-81920000D02*
X124555000Y-92080000D01*
X123920000Y-92080000D02*
X121380000Y-92080000D01*
X123920000Y-88905000D02*
X123920000Y-92080000D01*
X121380000Y-92080000D02*
X121380000Y-88905000D01*
X121380000Y-88905000D02*
X123920000Y-88905000D01*
X118840000Y-88270000D02*
X114268000Y-88270000D01*
X118840000Y-85730000D02*
X118840000Y-88270000D01*
X114268000Y-88270000D02*
X114268000Y-85730000D01*
X114268000Y-85730000D02*
X118840000Y-85730000D01*
X111220000Y-95890000D02*
X111220000Y-78110000D01*
X111220000Y-78110000D02*
X146780000Y-78110000D01*
D11*
X132937000Y-86873000D02*
X132683000Y-87127000D01*
X132429000Y-86746000D01*
X132683000Y-86492000D01*
X132937000Y-86873000D01*
G36*
X132937000Y-86873000D02*
G01*
X132683000Y-87127000D01*
X132429000Y-86746000D01*
X132683000Y-86492000D01*
X132937000Y-86873000D01*
G37*
X132556000Y-87254000D02*
X132302000Y-87508000D01*
X132048000Y-87127000D01*
X132302000Y-86873000D01*
X132556000Y-87254000D01*
G36*
X132556000Y-87254000D02*
G01*
X132302000Y-87508000D01*
X132048000Y-87127000D01*
X132302000Y-86873000D01*
X132556000Y-87254000D01*
G37*
X132175000Y-87635000D02*
X131921000Y-87889000D01*
X131667000Y-87508000D01*
X131921000Y-87254000D01*
X132175000Y-87635000D01*
G36*
X132175000Y-87635000D02*
G01*
X131921000Y-87889000D01*
X131667000Y-87508000D01*
X131921000Y-87254000D01*
X132175000Y-87635000D01*
G37*
X131794000Y-87127000D02*
X131540000Y-87381000D01*
X131286000Y-87000000D01*
X131540000Y-86746000D01*
X131794000Y-87127000D01*
G36*
X131794000Y-87127000D02*
G01*
X131540000Y-87381000D01*
X131286000Y-87000000D01*
X131540000Y-86746000D01*
X131794000Y-87127000D01*
G37*
X131413000Y-87508000D02*
X131159000Y-87762000D01*
X130905000Y-87381000D01*
X131159000Y-87127000D01*
X131413000Y-87508000D01*
G36*
X131413000Y-87508000D02*
G01*
X131159000Y-87762000D01*
X130905000Y-87381000D01*
X131159000Y-87127000D01*
X131413000Y-87508000D01*
G37*
X131413000Y-86619000D02*
X131159000Y-86873000D01*
X130905000Y-86492000D01*
X131159000Y-86238000D01*
X131413000Y-86619000D01*
G36*
X131413000Y-86619000D02*
G01*
X131159000Y-86873000D01*
X130905000Y-86492000D01*
X131159000Y-86238000D01*
X131413000Y-86619000D01*
G37*
X131032000Y-87000000D02*
X130778000Y-87254000D01*
X130524000Y-86873000D01*
X130778000Y-86619000D01*
X131032000Y-87000000D01*
G36*
X131032000Y-87000000D02*
G01*
X130778000Y-87254000D01*
X130524000Y-86873000D01*
X130778000Y-86619000D01*
X131032000Y-87000000D01*
G37*
X130651000Y-86492000D02*
X130397000Y-86746000D01*
X130143000Y-86365000D01*
X130397000Y-86111000D01*
X130651000Y-86492000D01*
G36*
X130651000Y-86492000D02*
G01*
X130397000Y-86746000D01*
X130143000Y-86365000D01*
X130397000Y-86111000D01*
X130651000Y-86492000D01*
G37*
D12*
%TO.C,D11*%
X102000000Y-102680000D02*
X102000000Y-103700000D01*
X103470000Y-103700000D02*
X100530000Y-103700000D01*
X100530000Y-103700000D02*
X100530000Y-109140000D01*
X103470000Y-104480000D02*
X100530000Y-104480000D01*
X103470000Y-104600000D02*
X100530000Y-104600000D01*
X103470000Y-104720000D02*
X100530000Y-104720000D01*
X103470000Y-109140000D02*
X103470000Y-103700000D01*
X100530000Y-109140000D02*
X103470000Y-109140000D01*
X102000000Y-110160000D02*
X102000000Y-109140000D01*
%TO.C,R15*%
X113820000Y-129500000D02*
X113930000Y-129500000D01*
X113930000Y-127130000D02*
X113930000Y-131870000D01*
X113930000Y-131870000D02*
X126070000Y-131870000D01*
X126070000Y-127130000D02*
X113930000Y-127130000D01*
X126070000Y-131870000D02*
X126070000Y-127130000D01*
X126180000Y-129500000D02*
X126070000Y-129500000D01*
%TO.C,R14*%
X113180000Y-117000000D02*
X113070000Y-117000000D01*
X113070000Y-119370000D02*
X113070000Y-114630000D01*
X113070000Y-114630000D02*
X100930000Y-114630000D01*
X100930000Y-119370000D02*
X113070000Y-119370000D01*
X100930000Y-114630000D02*
X100930000Y-119370000D01*
X100820000Y-117000000D02*
X100930000Y-117000000D01*
%TO.C,R13*%
X109180000Y-123080000D02*
X109070000Y-123080000D01*
X109070000Y-125450000D02*
X109070000Y-120710000D01*
X109070000Y-120710000D02*
X96930000Y-120710000D01*
X96930000Y-125450000D02*
X109070000Y-125450000D01*
X96930000Y-120710000D02*
X96930000Y-125450000D01*
X96820000Y-123080000D02*
X96930000Y-123080000D01*
%TO.C,R12*%
X105680000Y-129580000D02*
X105570000Y-129580000D01*
X105570000Y-131950000D02*
X105570000Y-127210000D01*
X105570000Y-127210000D02*
X93430000Y-127210000D01*
X93430000Y-131950000D02*
X105570000Y-131950000D01*
X93430000Y-127210000D02*
X93430000Y-131950000D01*
X93320000Y-129580000D02*
X93430000Y-129580000D01*
%TO.C,R11*%
X93060000Y-117080000D02*
X92950000Y-117080000D01*
X92950000Y-119450000D02*
X92950000Y-114710000D01*
X92950000Y-114710000D02*
X80810000Y-114710000D01*
X80810000Y-119450000D02*
X92950000Y-119450000D01*
X80810000Y-114710000D02*
X80810000Y-119450000D01*
X80700000Y-117080000D02*
X80810000Y-117080000D01*
%TO.C,R9*%
X89680000Y-123080000D02*
X89570000Y-123080000D01*
X89570000Y-125450000D02*
X89570000Y-120710000D01*
X89570000Y-120710000D02*
X77430000Y-120710000D01*
X77430000Y-125450000D02*
X89570000Y-125450000D01*
X77430000Y-120710000D02*
X77430000Y-125450000D01*
X77320000Y-123080000D02*
X77430000Y-123080000D01*
%TO.C,R8*%
X85180000Y-129580000D02*
X85070000Y-129580000D01*
X85070000Y-131950000D02*
X85070000Y-127210000D01*
X85070000Y-127210000D02*
X72930000Y-127210000D01*
X72930000Y-131950000D02*
X85070000Y-131950000D01*
X72930000Y-127210000D02*
X72930000Y-131950000D01*
X72820000Y-129580000D02*
X72930000Y-129580000D01*
%TO.C,R7*%
X60940000Y-117000000D02*
X61050000Y-117000000D01*
X61050000Y-114630000D02*
X61050000Y-119370000D01*
X61050000Y-119370000D02*
X73190000Y-119370000D01*
X73190000Y-114630000D02*
X61050000Y-114630000D01*
X73190000Y-119370000D02*
X73190000Y-114630000D01*
X73300000Y-117000000D02*
X73190000Y-117000000D01*
%TO.C,R6*%
X69180000Y-123080000D02*
X69070000Y-123080000D01*
X69070000Y-125450000D02*
X69070000Y-120710000D01*
X69070000Y-120710000D02*
X56930000Y-120710000D01*
X56930000Y-125450000D02*
X69070000Y-125450000D01*
X56930000Y-120710000D02*
X56930000Y-125450000D01*
X56820000Y-123080000D02*
X56930000Y-123080000D01*
%TO.C,R5*%
X66060000Y-129580000D02*
X65950000Y-129580000D01*
X65950000Y-131950000D02*
X65950000Y-127210000D01*
X65950000Y-127210000D02*
X53810000Y-127210000D01*
X53810000Y-131950000D02*
X65950000Y-131950000D01*
X53810000Y-127210000D02*
X53810000Y-131950000D01*
X53700000Y-129580000D02*
X53810000Y-129580000D01*
%TO.C,R4*%
X53500000Y-151260000D02*
X53500000Y-151150000D01*
X51130000Y-151150000D02*
X55870000Y-151150000D01*
X55870000Y-151150000D02*
X55870000Y-139010000D01*
X51130000Y-139010000D02*
X51130000Y-151150000D01*
X55870000Y-139010000D02*
X51130000Y-139010000D01*
X53500000Y-138900000D02*
X53500000Y-139010000D01*
%TO.C,R3*%
X54000000Y-115140000D02*
X54000000Y-115030000D01*
X51630000Y-115030000D02*
X56370000Y-115030000D01*
X56370000Y-115030000D02*
X56370000Y-102890000D01*
X51630000Y-102890000D02*
X51630000Y-115030000D01*
X56370000Y-102890000D02*
X51630000Y-102890000D01*
X54000000Y-102780000D02*
X54000000Y-102890000D01*
%TO.C,R2*%
X140000000Y-102820000D02*
X140000000Y-102930000D01*
X142370000Y-102930000D02*
X137630000Y-102930000D01*
X137630000Y-102930000D02*
X137630000Y-115070000D01*
X142370000Y-115070000D02*
X142370000Y-102930000D01*
X137630000Y-115070000D02*
X142370000Y-115070000D01*
X140000000Y-115180000D02*
X140000000Y-115070000D01*
%TO.C,R1*%
X141500000Y-138900000D02*
X141500000Y-139010000D01*
X143870000Y-139010000D02*
X139130000Y-139010000D01*
X139130000Y-139010000D02*
X139130000Y-151150000D01*
X143870000Y-151150000D02*
X143870000Y-139010000D01*
X139130000Y-151150000D02*
X143870000Y-151150000D01*
X141500000Y-151260000D02*
X141500000Y-151150000D01*
%TO.C,D20*%
X133000000Y-151180000D02*
X133000000Y-150160000D01*
X131530000Y-150160000D02*
X134470000Y-150160000D01*
X134470000Y-150160000D02*
X134470000Y-144720000D01*
X134470000Y-145740000D02*
X131530000Y-145740000D01*
X134470000Y-145620000D02*
X131530000Y-145620000D01*
X134470000Y-145500000D02*
X131530000Y-145500000D01*
X131530000Y-144720000D02*
X131530000Y-150160000D01*
X134470000Y-144720000D02*
X131530000Y-144720000D01*
X133000000Y-143700000D02*
X133000000Y-144720000D01*
%TO.C,D19*%
X133500000Y-102760000D02*
X133500000Y-103780000D01*
X134970000Y-103780000D02*
X132030000Y-103780000D01*
X132030000Y-103780000D02*
X132030000Y-109220000D01*
X134970000Y-104560000D02*
X132030000Y-104560000D01*
X134970000Y-104680000D02*
X132030000Y-104680000D01*
X134970000Y-104800000D02*
X132030000Y-104800000D01*
X134970000Y-109220000D02*
X134970000Y-103780000D01*
X132030000Y-109220000D02*
X134970000Y-109220000D01*
X133500000Y-110240000D02*
X133500000Y-109220000D01*
%TO.C,D18*%
X125000000Y-151260000D02*
X125000000Y-150240000D01*
X123530000Y-150240000D02*
X126470000Y-150240000D01*
X126470000Y-150240000D02*
X126470000Y-144800000D01*
X126470000Y-145820000D02*
X123530000Y-145820000D01*
X126470000Y-145700000D02*
X123530000Y-145700000D01*
X126470000Y-145580000D02*
X123530000Y-145580000D01*
X123530000Y-144800000D02*
X123530000Y-150240000D01*
X126470000Y-144800000D02*
X123530000Y-144800000D01*
X125000000Y-143780000D02*
X125000000Y-144800000D01*
%TO.C,D17*%
X126000000Y-110240000D02*
X126000000Y-109220000D01*
X124530000Y-109220000D02*
X127470000Y-109220000D01*
X127470000Y-109220000D02*
X127470000Y-103780000D01*
X127470000Y-104800000D02*
X124530000Y-104800000D01*
X127470000Y-104680000D02*
X124530000Y-104680000D01*
X127470000Y-104560000D02*
X124530000Y-104560000D01*
X124530000Y-103780000D02*
X124530000Y-109220000D01*
X127470000Y-103780000D02*
X124530000Y-103780000D01*
X126000000Y-102760000D02*
X126000000Y-103780000D01*
%TO.C,D16*%
X116500000Y-143840000D02*
X116500000Y-144860000D01*
X117970000Y-144860000D02*
X115030000Y-144860000D01*
X115030000Y-144860000D02*
X115030000Y-150300000D01*
X117970000Y-145640000D02*
X115030000Y-145640000D01*
X117970000Y-145760000D02*
X115030000Y-145760000D01*
X117970000Y-145880000D02*
X115030000Y-145880000D01*
X117970000Y-150300000D02*
X117970000Y-144860000D01*
X115030000Y-150300000D02*
X117970000Y-150300000D01*
X116500000Y-151320000D02*
X116500000Y-150300000D01*
%TO.C,D15*%
X118000000Y-102840000D02*
X118000000Y-103860000D01*
X119470000Y-103860000D02*
X116530000Y-103860000D01*
X116530000Y-103860000D02*
X116530000Y-109300000D01*
X119470000Y-104640000D02*
X116530000Y-104640000D01*
X119470000Y-104760000D02*
X116530000Y-104760000D01*
X119470000Y-104880000D02*
X116530000Y-104880000D01*
X119470000Y-109300000D02*
X119470000Y-103860000D01*
X116530000Y-109300000D02*
X119470000Y-109300000D01*
X118000000Y-110320000D02*
X118000000Y-109300000D01*
%TO.C,D14*%
X108500000Y-144020000D02*
X108500000Y-145040000D01*
X109970000Y-145040000D02*
X107030000Y-145040000D01*
X107030000Y-145040000D02*
X107030000Y-150480000D01*
X109970000Y-145820000D02*
X107030000Y-145820000D01*
X109970000Y-145940000D02*
X107030000Y-145940000D01*
X109970000Y-146060000D02*
X107030000Y-146060000D01*
X109970000Y-150480000D02*
X109970000Y-145040000D01*
X107030000Y-150480000D02*
X109970000Y-150480000D01*
X108500000Y-151500000D02*
X108500000Y-150480000D01*
%TO.C,D13*%
X110000000Y-102840000D02*
X110000000Y-103860000D01*
X111470000Y-103860000D02*
X108530000Y-103860000D01*
X108530000Y-103860000D02*
X108530000Y-109300000D01*
X111470000Y-104640000D02*
X108530000Y-104640000D01*
X111470000Y-104760000D02*
X108530000Y-104760000D01*
X111470000Y-104880000D02*
X108530000Y-104880000D01*
X111470000Y-109300000D02*
X111470000Y-103860000D01*
X108530000Y-109300000D02*
X111470000Y-109300000D01*
X110000000Y-110320000D02*
X110000000Y-109300000D01*
%TO.C,D12*%
X100000000Y-144100000D02*
X100000000Y-145120000D01*
X101470000Y-145120000D02*
X98530000Y-145120000D01*
X98530000Y-145120000D02*
X98530000Y-150560000D01*
X101470000Y-145900000D02*
X98530000Y-145900000D01*
X101470000Y-146020000D02*
X98530000Y-146020000D01*
X101470000Y-146140000D02*
X98530000Y-146140000D01*
X101470000Y-150560000D02*
X101470000Y-145120000D01*
X98530000Y-150560000D02*
X101470000Y-150560000D01*
X100000000Y-151580000D02*
X100000000Y-150560000D01*
%TO.C,D10*%
X91500000Y-151160000D02*
X91500000Y-150140000D01*
X90030000Y-150140000D02*
X92970000Y-150140000D01*
X92970000Y-150140000D02*
X92970000Y-144700000D01*
X92970000Y-145720000D02*
X90030000Y-145720000D01*
X92970000Y-145600000D02*
X90030000Y-145600000D01*
X92970000Y-145480000D02*
X90030000Y-145480000D01*
X90030000Y-144700000D02*
X90030000Y-150140000D01*
X92970000Y-144700000D02*
X90030000Y-144700000D01*
X91500000Y-143680000D02*
X91500000Y-144700000D01*
%TO.C,D9*%
X94500000Y-102760000D02*
X94500000Y-103780000D01*
X95970000Y-103780000D02*
X93030000Y-103780000D01*
X93030000Y-103780000D02*
X93030000Y-109220000D01*
X95970000Y-104560000D02*
X93030000Y-104560000D01*
X95970000Y-104680000D02*
X93030000Y-104680000D01*
X95970000Y-104800000D02*
X93030000Y-104800000D01*
X95970000Y-109220000D02*
X95970000Y-103780000D01*
X93030000Y-109220000D02*
X95970000Y-109220000D01*
X94500000Y-110240000D02*
X94500000Y-109220000D01*
%TO.C,D8*%
X84000000Y-151240000D02*
X84000000Y-150220000D01*
X82530000Y-150220000D02*
X85470000Y-150220000D01*
X85470000Y-150220000D02*
X85470000Y-144780000D01*
X85470000Y-145800000D02*
X82530000Y-145800000D01*
X85470000Y-145680000D02*
X82530000Y-145680000D01*
X85470000Y-145560000D02*
X82530000Y-145560000D01*
X82530000Y-144780000D02*
X82530000Y-150220000D01*
X85470000Y-144780000D02*
X82530000Y-144780000D01*
X84000000Y-143760000D02*
X84000000Y-144780000D01*
%TO.C,D7*%
X87000000Y-102760000D02*
X87000000Y-103780000D01*
X88470000Y-103780000D02*
X85530000Y-103780000D01*
X85530000Y-103780000D02*
X85530000Y-109220000D01*
X88470000Y-104560000D02*
X85530000Y-104560000D01*
X88470000Y-104680000D02*
X85530000Y-104680000D01*
X88470000Y-104800000D02*
X85530000Y-104800000D01*
X88470000Y-109220000D02*
X88470000Y-103780000D01*
X85530000Y-109220000D02*
X88470000Y-109220000D01*
X87000000Y-110240000D02*
X87000000Y-109220000D01*
%TO.C,D6*%
X76500000Y-143840000D02*
X76500000Y-144860000D01*
X77970000Y-144860000D02*
X75030000Y-144860000D01*
X75030000Y-144860000D02*
X75030000Y-150300000D01*
X77970000Y-145640000D02*
X75030000Y-145640000D01*
X77970000Y-145760000D02*
X75030000Y-145760000D01*
X77970000Y-145880000D02*
X75030000Y-145880000D01*
X77970000Y-150300000D02*
X77970000Y-144860000D01*
X75030000Y-150300000D02*
X77970000Y-150300000D01*
X76500000Y-151320000D02*
X76500000Y-150300000D01*
%TO.C,D5*%
X79000000Y-110120000D02*
X79000000Y-109100000D01*
X77530000Y-109100000D02*
X80470000Y-109100000D01*
X80470000Y-109100000D02*
X80470000Y-103660000D01*
X80470000Y-104680000D02*
X77530000Y-104680000D01*
X80470000Y-104560000D02*
X77530000Y-104560000D01*
X80470000Y-104440000D02*
X77530000Y-104440000D01*
X77530000Y-103660000D02*
X77530000Y-109100000D01*
X80470000Y-103660000D02*
X77530000Y-103660000D01*
X79000000Y-102640000D02*
X79000000Y-103660000D01*
%TO.C,D4*%
X69000000Y-143920000D02*
X69000000Y-144940000D01*
X70470000Y-144940000D02*
X67530000Y-144940000D01*
X67530000Y-144940000D02*
X67530000Y-150380000D01*
X70470000Y-145720000D02*
X67530000Y-145720000D01*
X70470000Y-145840000D02*
X67530000Y-145840000D01*
X70470000Y-145960000D02*
X67530000Y-145960000D01*
X70470000Y-150380000D02*
X70470000Y-144940000D01*
X67530000Y-150380000D02*
X70470000Y-150380000D01*
X69000000Y-151400000D02*
X69000000Y-150380000D01*
%TO.C,D3*%
X71000000Y-102720000D02*
X71000000Y-103740000D01*
X72470000Y-103740000D02*
X69530000Y-103740000D01*
X69530000Y-103740000D02*
X69530000Y-109180000D01*
X72470000Y-104520000D02*
X69530000Y-104520000D01*
X72470000Y-104640000D02*
X69530000Y-104640000D01*
X72470000Y-104760000D02*
X69530000Y-104760000D01*
X72470000Y-109180000D02*
X72470000Y-103740000D01*
X69530000Y-109180000D02*
X72470000Y-109180000D01*
X71000000Y-110200000D02*
X71000000Y-109180000D01*
%TO.C,D2*%
X61000000Y-151320000D02*
X61000000Y-150300000D01*
X59530000Y-150300000D02*
X62470000Y-150300000D01*
X62470000Y-150300000D02*
X62470000Y-144860000D01*
X62470000Y-145880000D02*
X59530000Y-145880000D01*
X62470000Y-145760000D02*
X59530000Y-145760000D01*
X62470000Y-145640000D02*
X59530000Y-145640000D01*
X59530000Y-144860000D02*
X59530000Y-150300000D01*
X62470000Y-144860000D02*
X59530000Y-144860000D01*
X61000000Y-143840000D02*
X61000000Y-144860000D01*
%TO.C,D1*%
X62500000Y-110120000D02*
X62500000Y-109100000D01*
X61030000Y-109100000D02*
X63970000Y-109100000D01*
X63970000Y-109100000D02*
X63970000Y-103660000D01*
X63970000Y-104680000D02*
X61030000Y-104680000D01*
X63970000Y-104560000D02*
X61030000Y-104560000D01*
X63970000Y-104440000D02*
X61030000Y-104440000D01*
X61030000Y-103660000D02*
X61030000Y-109100000D01*
X63970000Y-103660000D02*
X61030000Y-103660000D01*
X62500000Y-102640000D02*
X62500000Y-103660000D01*
%TD*%
M02*
