M48
; DRILL file {KiCad 8.0.1} date 2024-04-01T06:52:06-0400
; FORMAT={-:-/ absolute / inch / decimal}
; #@! TF.CreationDate,2024-04-01T06:52:06-04:00
; #@! TF.GenerationSoftware,Kicad,Pcbnew,8.0.1
; #@! TF.FileFunction,Plated,1,2,PTH
FMAT,2
INCH
; #@! TA.AperFunction,Plated,PTH,ComponentDrill
T1C0.0433
; #@! TA.AperFunction,Plated,PTH,ComponentDrill
T2C0.0472
; #@! TA.AperFunction,Plated,PTH,ComponentDrill
T3C0.0866
%
G90
G05
T1
X2.4016Y-5.6102
X2.4016Y-6.0102
X2.4606Y-3.9882
X2.4606Y-4.3882
X2.7165Y-5.6134
X2.7165Y-6.0134
X2.7953Y-3.9913
X2.7953Y-4.3913
X3.0118Y-5.6102
X3.0118Y-6.0102
X3.1102Y-3.9882
X3.1102Y-4.3882
X3.3071Y-5.6071
X3.3071Y-6.0071
X3.4252Y-3.9929
X3.4252Y-4.3929
X3.6024Y-5.6039
X3.6024Y-6.0039
X3.7205Y-3.9929
X3.7205Y-4.3929
X3.937Y-5.6205
X3.937Y-6.0205
X4.0157Y-3.9898
X4.0157Y-4.3898
X4.2717Y-5.6173
X4.2717Y-6.0173
X4.3307Y-3.9961
X4.3307Y-4.3961
X4.4287Y-3.1252
X4.4287Y-3.2252
X4.4287Y-3.3252
X4.4287Y-3.4252
X4.4287Y-3.5252
X4.4287Y-3.6252
X4.4287Y-3.7252
X4.5287Y-3.1252
X4.5287Y-3.7252
X4.5866Y-5.6102
X4.5866Y-6.0102
X4.6287Y-3.1252
X4.6287Y-3.2252
X4.6287Y-3.3252
X4.6287Y-3.4252
X4.6287Y-3.5252
X4.6287Y-3.6252
X4.6287Y-3.7252
X4.6457Y-3.9961
X4.6457Y-4.3961
X4.7287Y-3.1252
X4.7287Y-3.2252
X4.7287Y-3.3252
X4.7287Y-3.4252
X4.7287Y-3.5252
X4.7287Y-3.6252
X4.7287Y-3.7252
X4.8287Y-3.1252
X4.8287Y-3.7252
X4.9213Y-5.6079
X4.9213Y-6.0079
X4.9287Y-3.1252
X4.9287Y-3.7252
X4.9606Y-3.9929
X4.9606Y-4.3929
X5.0287Y-3.1252
X5.0287Y-3.7252
X5.1287Y-3.1252
X5.1287Y-3.7252
X5.2287Y-3.1252
X5.2287Y-3.7252
X5.2362Y-5.6047
X5.2362Y-6.0047
X5.2559Y-3.9929
X5.2559Y-4.3929
X5.3287Y-3.1252
X5.3287Y-3.7252
X5.4287Y-3.1252
X5.4287Y-3.7252
X5.5287Y-3.1252
X5.5287Y-3.7252
X5.6287Y-3.1252
X5.6287Y-3.6252
X5.6287Y-3.7252
X5.7287Y-3.1252
X5.7287Y-3.7252
T2
X2.0575Y-5.1016
X2.1063Y-5.4118
X2.1063Y-6.0118
X2.126Y-3.9898
X2.126Y-4.5898
X2.1803Y-4.8457
X2.3425Y-4.6063
X2.6575Y-5.1016
X2.7803Y-4.8457
X2.8102Y-5.1016
X2.9425Y-4.6063
X2.9874Y-4.8457
X3.1205Y-4.6094
X3.4102Y-5.1016
X3.5874Y-4.8457
X3.6173Y-5.1016
X3.7205Y-4.6094
X3.7551Y-4.8457
X3.9126Y-4.6063
X4.2173Y-5.1016
X4.3551Y-4.8457
X4.4244Y-5.0984
X4.5126Y-4.6063
X5.0244Y-5.0984
X5.5118Y-3.9913
X5.5118Y-4.5913
X5.5709Y-5.4118
X5.5709Y-6.0118
T3
X2.4016Y-5.3772
X2.7165Y-5.3772
X3.0512Y-5.3772
X3.3465Y-5.374
X3.6417Y-5.3772
X3.9764Y-5.3937
X4.311Y-5.374
X4.5669Y-4.8425
X4.6063Y-5.3543
X4.9213Y-5.374
X5.2362Y-5.3937
M30
