%TF.GenerationSoftware,KiCad,Pcbnew,8.0.1*%
%TF.CreationDate,2024-04-01T06:51:43-04:00*%
%TF.ProjectId,emandoharp,656d616e-646f-4686-9172-702e6b696361,rev?*%
%TF.SameCoordinates,Original*%
%TF.FileFunction,Soldermask,Top*%
%TF.FilePolarity,Negative*%
%FSLAX46Y46*%
G04 Gerber Fmt 4.6, Leading zero omitted, Abs format (unit mm)*
G04 Created by KiCad (PCBNEW 8.0.1) date 2024-04-01 06:51:43*
%MOMM*%
%LPD*%
G01*
G04 APERTURE LIST*
%ADD10C,1.600000*%
%ADD11R,2.200000X2.200000*%
%ADD12O,2.200000X2.200000*%
%ADD13O,2.400000X2.400000*%
%ADD14C,2.400000*%
%ADD15C,3.800000*%
G04 APERTURE END LIST*
D10*
%TO.C,U1*%
X145510000Y-79380000D03*
X142970000Y-79380000D03*
X140430000Y-79380000D03*
X137890000Y-79380000D03*
X135350000Y-79380000D03*
X132810000Y-79380000D03*
X130270000Y-79380000D03*
X127730000Y-79380000D03*
X125190000Y-79380000D03*
X122650000Y-79380000D03*
X120110000Y-79380000D03*
X117570000Y-79380000D03*
X115030000Y-79380000D03*
X112490000Y-79380000D03*
X112490000Y-81920000D03*
X112490000Y-84460000D03*
X112490000Y-87000000D03*
X112490000Y-89540000D03*
X112490000Y-92080000D03*
X112490000Y-94620000D03*
X115030000Y-94620000D03*
X117570000Y-94620000D03*
X120110000Y-94620000D03*
X122650000Y-94620000D03*
X125190000Y-94620000D03*
X127730000Y-94620000D03*
X130270000Y-94620000D03*
X132810000Y-94620000D03*
X135350000Y-94620000D03*
X137890000Y-94620000D03*
X140430000Y-94620000D03*
X142970000Y-94620000D03*
X145510000Y-94620000D03*
X142970000Y-92080000D03*
X117570000Y-92080000D03*
X120110000Y-92080000D03*
X117570000Y-89540000D03*
X120110000Y-89540000D03*
X117570000Y-87000000D03*
X120110000Y-87000000D03*
X117570000Y-84460000D03*
X120110000Y-84460000D03*
X117570000Y-81920000D03*
X120110000Y-81920000D03*
%TD*%
D11*
%TO.C,D11*%
X102000000Y-101340000D03*
D12*
X102000000Y-111500000D03*
%TD*%
D13*
%TO.C,R15*%
X112380000Y-129500000D03*
D14*
X127620000Y-129500000D03*
%TD*%
%TO.C,R14*%
X114620000Y-117000000D03*
D13*
X99380000Y-117000000D03*
%TD*%
D14*
%TO.C,R13*%
X110620000Y-123080000D03*
D13*
X95380000Y-123080000D03*
%TD*%
D14*
%TO.C,R12*%
X107120000Y-129580000D03*
D13*
X91880000Y-129580000D03*
%TD*%
D14*
%TO.C,R11*%
X94500000Y-117080000D03*
D13*
X79260000Y-117080000D03*
%TD*%
D14*
%TO.C,R9*%
X91120000Y-123080000D03*
D13*
X75880000Y-123080000D03*
%TD*%
D14*
%TO.C,R8*%
X86620000Y-129580000D03*
D13*
X71380000Y-129580000D03*
%TD*%
%TO.C,R7*%
X59500000Y-117000000D03*
D14*
X74740000Y-117000000D03*
%TD*%
%TO.C,R6*%
X70620000Y-123080000D03*
D13*
X55380000Y-123080000D03*
%TD*%
D14*
%TO.C,R5*%
X67500000Y-129580000D03*
D13*
X52260000Y-129580000D03*
%TD*%
%TO.C,R4*%
X53500000Y-152700000D03*
D14*
X53500000Y-137460000D03*
%TD*%
D13*
%TO.C,R3*%
X54000000Y-116580000D03*
D14*
X54000000Y-101340000D03*
%TD*%
D13*
%TO.C,R2*%
X140000000Y-101380000D03*
D14*
X140000000Y-116620000D03*
%TD*%
%TO.C,R1*%
X141500000Y-137460000D03*
D13*
X141500000Y-152700000D03*
%TD*%
D15*
%TO.C,PC1*%
X116000000Y-123000000D03*
%TD*%
%TO.C,P10*%
X133000000Y-137000000D03*
%TD*%
%TO.C,P9*%
X125000000Y-136500000D03*
%TD*%
%TO.C,P8*%
X117000000Y-136000000D03*
%TD*%
%TO.C,P7*%
X109500000Y-136500000D03*
%TD*%
%TO.C,P6*%
X101000000Y-137000000D03*
%TD*%
%TO.C,P5*%
X92500000Y-136580000D03*
%TD*%
%TO.C,P4*%
X85000000Y-136500000D03*
%TD*%
%TO.C,P3*%
X77500000Y-136580000D03*
%TD*%
%TO.C,P2*%
X69000000Y-136580000D03*
%TD*%
%TO.C,P1*%
X61000000Y-136580000D03*
%TD*%
D12*
%TO.C,D20*%
X133000000Y-152520000D03*
D11*
X133000000Y-142360000D03*
%TD*%
%TO.C,D19*%
X133500000Y-101420000D03*
D12*
X133500000Y-111580000D03*
%TD*%
%TO.C,D18*%
X125000000Y-152600000D03*
D11*
X125000000Y-142440000D03*
%TD*%
D12*
%TO.C,D17*%
X126000000Y-111580000D03*
D11*
X126000000Y-101420000D03*
%TD*%
%TO.C,D16*%
X116500000Y-142500000D03*
D12*
X116500000Y-152660000D03*
%TD*%
D11*
%TO.C,D15*%
X118000000Y-101500000D03*
D12*
X118000000Y-111660000D03*
%TD*%
D11*
%TO.C,D14*%
X108500000Y-142680000D03*
D12*
X108500000Y-152840000D03*
%TD*%
D11*
%TO.C,D13*%
X110000000Y-101500000D03*
D12*
X110000000Y-111660000D03*
%TD*%
D11*
%TO.C,D12*%
X100000000Y-142760000D03*
D12*
X100000000Y-152920000D03*
%TD*%
%TO.C,D10*%
X91500000Y-152500000D03*
D11*
X91500000Y-142340000D03*
%TD*%
%TO.C,D9*%
X94500000Y-101420000D03*
D12*
X94500000Y-111580000D03*
%TD*%
%TO.C,D8*%
X84000000Y-152580000D03*
D11*
X84000000Y-142420000D03*
%TD*%
%TO.C,D7*%
X87000000Y-101420000D03*
D12*
X87000000Y-111580000D03*
%TD*%
D11*
%TO.C,D6*%
X76500000Y-142500000D03*
D12*
X76500000Y-152660000D03*
%TD*%
%TO.C,D5*%
X79000000Y-111460000D03*
D11*
X79000000Y-101300000D03*
%TD*%
%TO.C,D4*%
X69000000Y-142580000D03*
D12*
X69000000Y-152740000D03*
%TD*%
D11*
%TO.C,D3*%
X71000000Y-101380000D03*
D12*
X71000000Y-111540000D03*
%TD*%
%TO.C,D2*%
X61000000Y-152660000D03*
D11*
X61000000Y-142500000D03*
%TD*%
D12*
%TO.C,D1*%
X62500000Y-111460000D03*
D11*
X62500000Y-101300000D03*
%TD*%
M02*
