%TF.GenerationSoftware,KiCad,Pcbnew,8.0.1*%
%TF.CreationDate,2024-04-01T15:58:40-04:00*%
%TF.ProjectId,emandoharp,656d616e-646f-4686-9172-702e6b696361,rev?*%
%TF.SameCoordinates,Original*%
%TF.FileFunction,Copper,L2,Bot*%
%TF.FilePolarity,Positive*%
%FSLAX46Y46*%
G04 Gerber Fmt 4.6, Leading zero omitted, Abs format (unit mm)*
G04 Created by KiCad (PCBNEW 8.0.1) date 2024-04-01 15:58:40*
%MOMM*%
%LPD*%
G01*
G04 APERTURE LIST*
%TA.AperFunction,Conductor*%
%ADD10C,0.200000*%
%TD*%
%TA.AperFunction,ComponentPad*%
%ADD11C,2.400000*%
%TD*%
%TA.AperFunction,ComponentPad*%
%ADD12O,2.400000X2.400000*%
%TD*%
%TA.AperFunction,ComponentPad*%
%ADD13R,1.600000X1.600000*%
%TD*%
%TA.AperFunction,ComponentPad*%
%ADD14C,1.600000*%
%TD*%
%TA.AperFunction,ComponentPad*%
%ADD15R,1.300000X1.300000*%
%TD*%
%TA.AperFunction,ComponentPad*%
%ADD16C,1.300000*%
%TD*%
%TA.AperFunction,ComponentPad*%
%ADD17C,3.800000*%
%TD*%
%TA.AperFunction,ComponentPad*%
%ADD18R,2.200000X2.200000*%
%TD*%
%TA.AperFunction,ComponentPad*%
%ADD19O,2.200000X2.200000*%
%TD*%
G04 APERTURE END LIST*
D10*
%TO.N,Net-(D27-A)*%
X150500000Y-125000000D02*
X150500000Y-123000000D01*
X155500000Y-126500000D02*
X150500000Y-125000000D01*
X163000000Y-137000000D02*
X155500000Y-126500000D01*
%TO.N,Net-(D25-A)*%
X155000000Y-136500000D02*
X147500000Y-129500000D01*
%TO.N,Net-(D23-A)*%
X139000000Y-124000000D02*
X148500000Y-111500000D01*
X147500000Y-137000000D02*
X134500000Y-117000000D01*
%TO.N,Net-(D17-A)*%
X119000000Y-114000000D02*
X126500000Y-111500000D01*
X114500000Y-117000000D02*
X119000000Y-114000000D01*
%TO.N,Net-(D21-A)*%
X138500000Y-114000000D02*
X141000000Y-111500000D01*
X132000000Y-114500000D02*
X138500000Y-114000000D01*
X130000000Y-122500000D02*
X132000000Y-114500000D01*
X135000000Y-126500000D02*
X130000000Y-122500000D01*
X140500000Y-137000000D02*
X135000000Y-126500000D01*
%TO.N,Net-(D3-A)*%
X69500000Y-131500000D02*
X70500000Y-123000000D01*
X69000000Y-136500000D02*
X69500000Y-131500000D01*
X68500000Y-137000000D02*
X69000000Y-136500000D01*
%TO.N,Net-(D10-K)*%
X96500000Y-129000000D02*
X91000000Y-123000000D01*
X92500000Y-136500000D02*
X96500000Y-129000000D01*
%TO.N,Net-(D5-A)*%
X74500000Y-117000000D02*
X79000000Y-111500000D01*
X79000000Y-121500000D02*
X74500000Y-117000000D01*
X77500000Y-128500000D02*
X79000000Y-121500000D01*
%TD*%
D11*
%TO.P,R9,1*%
%TO.N,Net-(D10-K)*%
X91120000Y-123080000D03*
D12*
%TO.P,R9,2*%
%TO.N,Net-(PC1-Pad1)*%
X75880000Y-123080000D03*
%TD*%
D13*
%TO.P,U1,1,GND*%
%TO.N,unconnected-(U1-GND-Pad1)*%
X192520000Y-76500000D03*
D14*
%TO.P,U1,2,0_RX1_CRX2_CS1*%
%TO.N,unconnected-(U1-0_RX1_CRX2_CS1-Pad2)*%
X189980000Y-76500000D03*
%TO.P,U1,3,1_TX1_CTX2_MISO1*%
%TO.N,unconnected-(U1-1_TX1_CTX2_MISO1-Pad3)*%
X187440000Y-76500000D03*
%TO.P,U1,4,2_OUT2*%
%TO.N,unconnected-(U1-2_OUT2-Pad4)*%
X184900000Y-76500000D03*
%TO.P,U1,5,3_LRCLK2*%
%TO.N,unconnected-(U1-3_LRCLK2-Pad5)*%
X182360000Y-76500000D03*
%TO.P,U1,6,4_BCLK2*%
%TO.N,unconnected-(U1-4_BCLK2-Pad6)*%
X179820000Y-76500000D03*
%TO.P,U1,7,5_IN2*%
%TO.N,unconnected-(U1-5_IN2-Pad7)*%
X177280000Y-76500000D03*
%TO.P,U1,8,6_OUT1D*%
%TO.N,unconnected-(U1-6_OUT1D-Pad8)*%
X174740000Y-76500000D03*
%TO.P,U1,9,7_RX2_OUT1A*%
%TO.N,unconnected-(U1-7_RX2_OUT1A-Pad9)*%
X172200000Y-76500000D03*
%TO.P,U1,10,8_TX2_IN1*%
%TO.N,unconnected-(U1-8_TX2_IN1-Pad10)*%
X169660000Y-76500000D03*
%TO.P,U1,11,9_OUT1C*%
%TO.N,unconnected-(U1-9_OUT1C-Pad11)*%
X167120000Y-76500000D03*
%TO.P,U1,12,10_CS_MQSR*%
%TO.N,unconnected-(U1-10_CS_MQSR-Pad12)*%
X164580000Y-76500000D03*
%TO.P,U1,13,11_MOSI_CTX1*%
%TO.N,unconnected-(U1-11_MOSI_CTX1-Pad13)*%
X162040000Y-76500000D03*
%TO.P,U1,14,12_MISO_MQSL*%
%TO.N,unconnected-(U1-12_MISO_MQSL-Pad14)*%
X159500000Y-76500000D03*
%TO.P,U1,15,3V3*%
%TO.N,unconnected-(U1-3V3-Pad15)*%
X156960000Y-76500000D03*
%TO.P,U1,16,24_A10_TX6_SCL2*%
%TO.N,Net-(D1-A)*%
X154420000Y-76500000D03*
%TO.P,U1,17,25_A11_RX6_SDA2*%
%TO.N,Net-(D3-A)*%
X151880000Y-76500000D03*
%TO.P,U1,18,26_A12_MOSI1*%
%TO.N,Net-(D5-A)*%
X149340000Y-76500000D03*
%TO.P,U1,19,27_A13_SCK1*%
%TO.N,Net-(D7-A)*%
X146800000Y-76500000D03*
%TO.P,U1,20,28_RX7*%
%TO.N,unconnected-(U1-28_RX7-Pad20)*%
X144260000Y-76500000D03*
%TO.P,U1,21,29_TX7*%
%TO.N,unconnected-(U1-29_TX7-Pad21)*%
X141720000Y-76500000D03*
%TO.P,U1,22,30_CRX3*%
%TO.N,unconnected-(U1-30_CRX3-Pad22)*%
X139180000Y-76500000D03*
%TO.P,U1,23,31_CTX3*%
%TO.N,unconnected-(U1-31_CTX3-Pad23)*%
X136640000Y-76500000D03*
%TO.P,U1,24,32_OUT1B*%
%TO.N,unconnected-(U1-32_OUT1B-Pad24)*%
X134100000Y-76500000D03*
%TO.P,U1,25,33_MCLK2*%
%TO.N,unconnected-(U1-33_MCLK2-Pad25)*%
X134100000Y-91740000D03*
%TO.P,U1,26,34_RX8*%
%TO.N,unconnected-(U1-34_RX8-Pad26)*%
X136640000Y-91740000D03*
%TO.P,U1,27,35_TX8*%
%TO.N,unconnected-(U1-35_TX8-Pad27)*%
X139180000Y-91740000D03*
%TO.P,U1,28,36_CS*%
%TO.N,unconnected-(U1-36_CS-Pad28)*%
X141720000Y-91740000D03*
%TO.P,U1,29,37_CS*%
%TO.N,unconnected-(U1-37_CS-Pad29)*%
X144260000Y-91740000D03*
%TO.P,U1,30,38_CS1_IN1*%
%TO.N,Net-(D10-K)*%
X146800000Y-91740000D03*
%TO.P,U1,31,39_MISO1_OUT1A*%
%TO.N,Net-(D11-A)*%
X149340000Y-91740000D03*
%TO.P,U1,32,40_A16*%
%TO.N,Net-(D13-A)*%
X151880000Y-91740000D03*
%TO.P,U1,33,41_A17*%
%TO.N,Net-(D15-A)*%
X154420000Y-91740000D03*
%TO.P,U1,34,GND*%
%TO.N,unconnected-(U1-GND-Pad34)*%
X156960000Y-91740000D03*
%TO.P,U1,35,13_SCK_LED*%
%TO.N,unconnected-(U1-13_SCK_LED-Pad35)*%
X159500000Y-91740000D03*
%TO.P,U1,36,14_A0_TX3_SPDIF_OUT*%
%TO.N,Net-(D17-A)*%
X162040000Y-91740000D03*
%TO.P,U1,37,15_A1_RX3_SPDIF_IN*%
%TO.N,Net-(D19-A)*%
X164580000Y-91740000D03*
%TO.P,U1,38,16_A2_RX4_SCL1*%
%TO.N,Net-(D21-A)*%
X167120000Y-91740000D03*
%TO.P,U1,39,17_A3_TX4_SDA1*%
%TO.N,Net-(D23-A)*%
X169660000Y-91740000D03*
%TO.P,U1,40,18_A4_SDA*%
%TO.N,Net-(D25-A)*%
X172200000Y-91740000D03*
%TO.P,U1,41,19_A5_SCL*%
%TO.N,Net-(D27-A)*%
X174740000Y-91740000D03*
%TO.P,U1,42,20_A6_TX5_LRCLK1*%
%TO.N,Net-(D29-A)*%
X177280000Y-91740000D03*
%TO.P,U1,43,21_A7_RX5_BCLK1*%
%TO.N,Net-(D31-A)*%
X179820000Y-91740000D03*
%TO.P,U1,44,22_A8_CTX1*%
%TO.N,Net-(D33-A)*%
X182360000Y-91740000D03*
%TO.P,U1,45,23_A9_CRX1_MCLK1*%
%TO.N,Net-(D35-A)*%
X184900000Y-91740000D03*
%TO.P,U1,46,3V3*%
%TO.N,Net-(R2-Pad1)*%
X187440000Y-91740000D03*
%TO.P,U1,47,GND*%
%TO.N,Net-(R1-Pad1)*%
X189980000Y-91740000D03*
%TO.P,U1,48,VIN*%
%TO.N,unconnected-(U1-VIN-Pad48)*%
X192520000Y-91740000D03*
%TO.P,U1,49,VUSB*%
%TO.N,unconnected-(U1-VUSB-Pad49)*%
X189980000Y-89200000D03*
%TO.P,U1,50,VBAT*%
%TO.N,unconnected-(U1-VBAT-Pad50)*%
X146800000Y-79040000D03*
%TO.P,U1,51,3V3*%
%TO.N,unconnected-(U1-3V3-Pad51)*%
X146800000Y-81580000D03*
%TO.P,U1,52,GND*%
%TO.N,unconnected-(U1-GND-Pad52)*%
X146800000Y-84120000D03*
%TO.P,U1,53,PROGRAM*%
%TO.N,unconnected-(U1-PROGRAM-Pad53)*%
X146800000Y-86660000D03*
%TO.P,U1,54,ON_OFF*%
%TO.N,unconnected-(U1-ON_OFF-Pad54)*%
X146800000Y-89200000D03*
D13*
%TO.P,U1,55,5V*%
%TO.N,unconnected-(U1-5V-Pad55)*%
X186220800Y-79550800D03*
D14*
%TO.P,U1,56,D-*%
%TO.N,unconnected-(U1-D--Pad56)*%
X183680800Y-79550800D03*
%TO.P,U1,57,D+*%
%TO.N,unconnected-(U1-D+-Pad57)*%
X181140800Y-79550800D03*
%TO.P,U1,58,GND*%
%TO.N,unconnected-(U1-GND-Pad58)*%
X178600800Y-79550800D03*
%TO.P,U1,59,GND*%
%TO.N,unconnected-(U1-GND-Pad59)*%
X176060800Y-79550800D03*
D15*
%TO.P,U1,60,R+*%
%TO.N,unconnected-(U1-R+-Pad60)*%
X179550000Y-89301600D03*
D16*
%TO.P,U1,61,LED*%
%TO.N,unconnected-(U1-LED-Pad61)*%
X179550000Y-87301600D03*
%TO.P,U1,62,T-*%
%TO.N,unconnected-(U1-T--Pad62)*%
X179550000Y-85301600D03*
%TO.P,U1,63,T+*%
%TO.N,unconnected-(U1-T+-Pad63)*%
X177550000Y-85301600D03*
%TO.P,U1,64,GND*%
%TO.N,unconnected-(U1-GND-Pad64)*%
X177550000Y-87301600D03*
%TO.P,U1,65,R-*%
%TO.N,unconnected-(U1-R--Pad65)*%
X177550000Y-89301600D03*
%TO.P,U1,66,D-*%
%TO.N,unconnected-(U1-D--Pad66)*%
X191790000Y-85390000D03*
%TO.P,U1,67,D+*%
%TO.N,unconnected-(U1-D+-Pad67)*%
X191790000Y-82850000D03*
%TD*%
D11*
%TO.P,R22,1*%
%TO.N,Net-(D35-A)*%
X174120000Y-117000000D03*
D12*
%TO.P,R22,2*%
%TO.N,Net-(PC1-Pad1)*%
X158880000Y-117000000D03*
%TD*%
D11*
%TO.P,R21,1*%
%TO.N,Net-(D33-A)*%
X170000000Y-123000000D03*
D12*
%TO.P,R21,2*%
%TO.N,Net-(PC1-Pad1)*%
X154760000Y-123000000D03*
%TD*%
D11*
%TO.P,R20,1*%
%TO.N,Net-(D31-A)*%
X168000000Y-129500000D03*
D12*
%TO.P,R20,2*%
%TO.N,Net-(PC1-Pad1)*%
X152760000Y-129500000D03*
%TD*%
D11*
%TO.P,R19,1*%
%TO.N,Net-(D29-A)*%
X154240000Y-117000000D03*
D12*
%TO.P,R19,2*%
%TO.N,Net-(PC1-Pad1)*%
X139000000Y-117000000D03*
%TD*%
D11*
%TO.P,R18,1*%
%TO.N,Net-(D27-A)*%
X150240000Y-123000000D03*
D12*
%TO.P,R18,2*%
%TO.N,Net-(PC1-Pad1)*%
X135000000Y-123000000D03*
%TD*%
D11*
%TO.P,R17,1*%
%TO.N,Net-(D25-A)*%
X147620000Y-129500000D03*
D12*
%TO.P,R17,2*%
%TO.N,Net-(PC1-Pad1)*%
X132380000Y-129500000D03*
%TD*%
D11*
%TO.P,R16,1*%
%TO.N,Net-(D23-A)*%
X134740000Y-117000000D03*
D12*
%TO.P,R16,2*%
%TO.N,Net-(PC1-Pad1)*%
X119500000Y-117000000D03*
%TD*%
D11*
%TO.P,R10,1*%
%TO.N,Net-(D21-A)*%
X130240000Y-123000000D03*
D12*
%TO.P,R10,2*%
%TO.N,Net-(PC1-Pad1)*%
X115000000Y-123000000D03*
%TD*%
D17*
%TO.P,P18,1,1*%
%TO.N,Net-(D35-A)*%
X192000000Y-137000000D03*
%TD*%
%TO.P,P17,1,1*%
%TO.N,Net-(D33-A)*%
X185000000Y-137000000D03*
%TD*%
%TO.P,P16,1,1*%
%TO.N,Net-(D31-A)*%
X177500000Y-137000000D03*
%TD*%
%TO.P,P15,1,1*%
%TO.N,Net-(D29-A)*%
X170000000Y-136500000D03*
%TD*%
%TO.P,P14,1,1*%
%TO.N,Net-(D27-A)*%
X162500000Y-137000000D03*
%TD*%
%TO.P,P13,1,1*%
%TO.N,Net-(D25-A)*%
X155000000Y-137000000D03*
%TD*%
%TO.P,P12,1,1*%
%TO.N,Net-(D23-A)*%
X147500000Y-137000000D03*
%TD*%
%TO.P,P11,1,1*%
%TO.N,Net-(D21-A)*%
X140500000Y-137000000D03*
%TD*%
D18*
%TO.P,D36,1,K*%
%TO.N,Net-(D35-A)*%
X192000000Y-142420000D03*
D19*
%TO.P,D36,2,A*%
%TO.N,Net-(D10-A)*%
X192000000Y-152580000D03*
%TD*%
D18*
%TO.P,D35,1,K*%
%TO.N,Net-(D1-K)*%
X190500000Y-101420000D03*
D19*
%TO.P,D35,2,A*%
%TO.N,Net-(D35-A)*%
X190500000Y-111580000D03*
%TD*%
D18*
%TO.P,D34,1,K*%
%TO.N,Net-(D33-A)*%
X185000000Y-142420000D03*
D19*
%TO.P,D34,2,A*%
%TO.N,Net-(D10-A)*%
X185000000Y-152580000D03*
%TD*%
D18*
%TO.P,D33,1,K*%
%TO.N,Net-(D1-K)*%
X183500000Y-101420000D03*
D19*
%TO.P,D33,2,A*%
%TO.N,Net-(D33-A)*%
X183500000Y-111580000D03*
%TD*%
D18*
%TO.P,D32,1,K*%
%TO.N,Net-(D31-A)*%
X177500000Y-142420000D03*
D19*
%TO.P,D32,2,A*%
%TO.N,Net-(D10-A)*%
X177500000Y-152580000D03*
%TD*%
D18*
%TO.P,D31,1,K*%
%TO.N,Net-(D1-K)*%
X176500000Y-101340000D03*
D19*
%TO.P,D31,2,A*%
%TO.N,Net-(D31-A)*%
X176500000Y-111500000D03*
%TD*%
D18*
%TO.P,D30,1,K*%
%TO.N,Net-(D29-A)*%
X170000000Y-142420000D03*
D19*
%TO.P,D30,2,A*%
%TO.N,Net-(D10-A)*%
X170000000Y-152580000D03*
%TD*%
D18*
%TO.P,D29,1,K*%
%TO.N,Net-(D1-K)*%
X169500000Y-101420000D03*
D19*
%TO.P,D29,2,A*%
%TO.N,Net-(D29-A)*%
X169500000Y-111580000D03*
%TD*%
D18*
%TO.P,D28,1,K*%
%TO.N,Net-(D27-A)*%
X162500000Y-142420000D03*
D19*
%TO.P,D28,2,A*%
%TO.N,Net-(D10-A)*%
X162500000Y-152580000D03*
%TD*%
D18*
%TO.P,D27,1,K*%
%TO.N,Net-(D1-K)*%
X162500000Y-101420000D03*
D19*
%TO.P,D27,2,A*%
%TO.N,Net-(D27-A)*%
X162500000Y-111580000D03*
%TD*%
D18*
%TO.P,D26,1,K*%
%TO.N,Net-(D25-A)*%
X155000000Y-142500000D03*
D19*
%TO.P,D26,2,A*%
%TO.N,Net-(D10-A)*%
X155000000Y-152660000D03*
%TD*%
D18*
%TO.P,D25,1,K*%
%TO.N,Net-(D1-K)*%
X155500000Y-101420000D03*
D19*
%TO.P,D25,2,A*%
%TO.N,Net-(D25-A)*%
X155500000Y-111580000D03*
%TD*%
D18*
%TO.P,D24,1,K*%
%TO.N,Net-(D23-A)*%
X147500000Y-142500000D03*
D19*
%TO.P,D24,2,A*%
%TO.N,Net-(D10-A)*%
X147500000Y-152660000D03*
%TD*%
D18*
%TO.P,D23,1,K*%
%TO.N,Net-(D1-K)*%
X148500000Y-101340000D03*
D19*
%TO.P,D23,2,A*%
%TO.N,Net-(D23-A)*%
X148500000Y-111500000D03*
%TD*%
D18*
%TO.P,D22,1,K*%
%TO.N,Net-(D21-A)*%
X140500000Y-142500000D03*
D19*
%TO.P,D22,2,A*%
%TO.N,Net-(D10-A)*%
X140500000Y-152660000D03*
%TD*%
D18*
%TO.P,D21,1,K*%
%TO.N,Net-(D1-K)*%
X141000000Y-101340000D03*
D19*
%TO.P,D21,2,A*%
%TO.N,Net-(D21-A)*%
X141000000Y-111500000D03*
%TD*%
D11*
%TO.P,R13,1*%
%TO.N,Net-(D15-A)*%
X110620000Y-123080000D03*
D12*
%TO.P,R13,2*%
%TO.N,Net-(PC1-Pad1)*%
X95380000Y-123080000D03*
%TD*%
D17*
%TO.P,P3,1,1*%
%TO.N,Net-(D5-A)*%
X77500000Y-136580000D03*
%TD*%
D11*
%TO.P,R2,1*%
%TO.N,Net-(R2-Pad1)*%
X181500000Y-131240000D03*
D12*
%TO.P,R2,2*%
%TO.N,Net-(D1-K)*%
X181500000Y-116000000D03*
%TD*%
D18*
%TO.P,D7,1,K*%
%TO.N,Net-(D1-K)*%
X87000000Y-101420000D03*
D19*
%TO.P,D7,2,A*%
%TO.N,Net-(D7-A)*%
X87000000Y-111580000D03*
%TD*%
D18*
%TO.P,D20,1,K*%
%TO.N,Net-(D19-A)*%
X133000000Y-142360000D03*
D19*
%TO.P,D20,2,A*%
%TO.N,Net-(D10-A)*%
X133000000Y-152520000D03*
%TD*%
D18*
%TO.P,D15,1,K*%
%TO.N,Net-(D1-K)*%
X118000000Y-101500000D03*
D19*
%TO.P,D15,2,A*%
%TO.N,Net-(D15-A)*%
X118000000Y-111660000D03*
%TD*%
D18*
%TO.P,D2,1,K*%
%TO.N,Net-(D1-A)*%
X61000000Y-142500000D03*
D19*
%TO.P,D2,2,A*%
%TO.N,Net-(D10-A)*%
X61000000Y-152660000D03*
%TD*%
D11*
%TO.P,R6,1*%
%TO.N,Net-(D3-A)*%
X70620000Y-123080000D03*
D12*
%TO.P,R6,2*%
%TO.N,Net-(PC1-Pad1)*%
X55380000Y-123080000D03*
%TD*%
D17*
%TO.P,P6,1,1*%
%TO.N,Net-(D11-A)*%
X101000000Y-137000000D03*
%TD*%
D11*
%TO.P,R14,1*%
%TO.N,Net-(D17-A)*%
X114620000Y-117000000D03*
D12*
%TO.P,R14,2*%
%TO.N,Net-(PC1-Pad1)*%
X99380000Y-117000000D03*
%TD*%
D18*
%TO.P,D11,1,K*%
%TO.N,Net-(D1-K)*%
X102000000Y-101340000D03*
D19*
%TO.P,D11,2,A*%
%TO.N,Net-(D11-A)*%
X102000000Y-111500000D03*
%TD*%
D18*
%TO.P,D8,1,K*%
%TO.N,Net-(D7-A)*%
X84000000Y-142420000D03*
D19*
%TO.P,D8,2,A*%
%TO.N,Net-(D10-A)*%
X84000000Y-152580000D03*
%TD*%
D18*
%TO.P,D12,1,K*%
%TO.N,Net-(D11-A)*%
X100000000Y-142760000D03*
D19*
%TO.P,D12,2,A*%
%TO.N,Net-(D10-A)*%
X100000000Y-152920000D03*
%TD*%
D18*
%TO.P,D9,1,K*%
%TO.N,Net-(D1-K)*%
X94500000Y-101420000D03*
D19*
%TO.P,D9,2,A*%
%TO.N,Net-(D10-K)*%
X94500000Y-111580000D03*
%TD*%
D18*
%TO.P,D10,1,K*%
%TO.N,Net-(D10-K)*%
X91500000Y-142340000D03*
D19*
%TO.P,D10,2,A*%
%TO.N,Net-(D10-A)*%
X91500000Y-152500000D03*
%TD*%
D18*
%TO.P,D19,1,K*%
%TO.N,Net-(D1-K)*%
X133500000Y-101420000D03*
D19*
%TO.P,D19,2,A*%
%TO.N,Net-(D19-A)*%
X133500000Y-111580000D03*
%TD*%
D11*
%TO.P,R11,1*%
%TO.N,Net-(D11-A)*%
X94500000Y-117080000D03*
D12*
%TO.P,R11,2*%
%TO.N,Net-(PC1-Pad1)*%
X79260000Y-117080000D03*
%TD*%
D18*
%TO.P,D14,1,K*%
%TO.N,Net-(D13-A)*%
X108500000Y-142680000D03*
D19*
%TO.P,D14,2,A*%
%TO.N,Net-(D10-A)*%
X108500000Y-152840000D03*
%TD*%
D18*
%TO.P,D16,1,K*%
%TO.N,Net-(D15-A)*%
X116500000Y-142500000D03*
D19*
%TO.P,D16,2,A*%
%TO.N,Net-(D10-A)*%
X116500000Y-152660000D03*
%TD*%
D11*
%TO.P,R3,1*%
%TO.N,Net-(D1-K)*%
X54000000Y-101340000D03*
D12*
%TO.P,R3,2*%
%TO.N,Net-(PC1-Pad1)*%
X54000000Y-116580000D03*
%TD*%
D17*
%TO.P,P9,1,1*%
%TO.N,Net-(D17-A)*%
X125000000Y-136500000D03*
%TD*%
D11*
%TO.P,R7,1*%
%TO.N,Net-(D5-A)*%
X74740000Y-117000000D03*
D12*
%TO.P,R7,2*%
%TO.N,Net-(PC1-Pad1)*%
X59500000Y-117000000D03*
%TD*%
D17*
%TO.P,P7,1,1*%
%TO.N,Net-(D13-A)*%
X109500000Y-136500000D03*
%TD*%
D11*
%TO.P,R8,1*%
%TO.N,Net-(D7-A)*%
X87240000Y-129580000D03*
D12*
%TO.P,R8,2*%
%TO.N,Net-(PC1-Pad1)*%
X72000000Y-129580000D03*
%TD*%
D11*
%TO.P,R15,1*%
%TO.N,Net-(D19-A)*%
X127620000Y-129500000D03*
D12*
%TO.P,R15,2*%
%TO.N,Net-(PC1-Pad1)*%
X112380000Y-129500000D03*
%TD*%
D11*
%TO.P,R4,1*%
%TO.N,Net-(PC1-Pad1)*%
X53500000Y-137460000D03*
D12*
%TO.P,R4,2*%
%TO.N,Net-(D10-A)*%
X53500000Y-152700000D03*
%TD*%
D18*
%TO.P,D4,1,K*%
%TO.N,Net-(D3-A)*%
X69000000Y-142580000D03*
D19*
%TO.P,D4,2,A*%
%TO.N,Net-(D10-A)*%
X69000000Y-152740000D03*
%TD*%
D17*
%TO.P,P2,1,1*%
%TO.N,Net-(D3-A)*%
X69000000Y-136580000D03*
%TD*%
%TO.P,P8,1,1*%
%TO.N,Net-(D15-A)*%
X117000000Y-136000000D03*
%TD*%
%TO.P,P5,1,1*%
%TO.N,Net-(D10-K)*%
X92500000Y-136580000D03*
%TD*%
%TO.P,P10,1,1*%
%TO.N,Net-(D19-A)*%
X133000000Y-137000000D03*
%TD*%
D18*
%TO.P,D17,1,K*%
%TO.N,Net-(D1-K)*%
X126000000Y-101420000D03*
D19*
%TO.P,D17,2,A*%
%TO.N,Net-(D17-A)*%
X126000000Y-111580000D03*
%TD*%
D17*
%TO.P,P1,1,1*%
%TO.N,Net-(D1-A)*%
X61000000Y-136580000D03*
%TD*%
D11*
%TO.P,R1,1*%
%TO.N,Net-(R1-Pad1)*%
X191000000Y-116000000D03*
D12*
%TO.P,R1,2*%
%TO.N,Net-(D10-A)*%
X191000000Y-131240000D03*
%TD*%
D18*
%TO.P,D5,1,K*%
%TO.N,Net-(D1-K)*%
X79000000Y-101300000D03*
D19*
%TO.P,D5,2,A*%
%TO.N,Net-(D5-A)*%
X79000000Y-111460000D03*
%TD*%
D11*
%TO.P,R5,1*%
%TO.N,Net-(D1-A)*%
X67500000Y-129580000D03*
D12*
%TO.P,R5,2*%
%TO.N,Net-(PC1-Pad1)*%
X52260000Y-129580000D03*
%TD*%
D18*
%TO.P,D3,1,K*%
%TO.N,Net-(D1-K)*%
X71000000Y-101380000D03*
D19*
%TO.P,D3,2,A*%
%TO.N,Net-(D3-A)*%
X71000000Y-111540000D03*
%TD*%
D18*
%TO.P,D13,1,K*%
%TO.N,Net-(D1-K)*%
X110000000Y-101500000D03*
D19*
%TO.P,D13,2,A*%
%TO.N,Net-(D13-A)*%
X110000000Y-111660000D03*
%TD*%
D18*
%TO.P,D6,1,K*%
%TO.N,Net-(D5-A)*%
X76500000Y-142500000D03*
D19*
%TO.P,D6,2,A*%
%TO.N,Net-(D10-A)*%
X76500000Y-152660000D03*
%TD*%
D18*
%TO.P,D1,1,K*%
%TO.N,Net-(D1-K)*%
X62500000Y-101300000D03*
D19*
%TO.P,D1,2,A*%
%TO.N,Net-(D1-A)*%
X62500000Y-111460000D03*
%TD*%
D18*
%TO.P,D18,1,K*%
%TO.N,Net-(D17-A)*%
X125000000Y-142440000D03*
D19*
%TO.P,D18,2,A*%
%TO.N,Net-(D10-A)*%
X125000000Y-152600000D03*
%TD*%
D17*
%TO.P,P4,1,1*%
%TO.N,Net-(D7-A)*%
X85000000Y-136500000D03*
%TD*%
D11*
%TO.P,R12,1*%
%TO.N,Net-(D13-A)*%
X107120000Y-129580000D03*
D12*
%TO.P,R12,2*%
%TO.N,Net-(PC1-Pad1)*%
X91880000Y-129580000D03*
%TD*%
D17*
%TO.P,PC1,1,1*%
%TO.N,Net-(PC1-Pad1)*%
X173500000Y-129000000D03*
%TD*%
D10*
%TO.N,Net-(D1-A)*%
X154420000Y-76500000D02*
X150920000Y-73000000D01*
X150920000Y-73000000D02*
X130000000Y-73000000D01*
X130000000Y-73000000D02*
X130000000Y-90000000D01*
X130000000Y-90000000D02*
X84000000Y-90000000D01*
X84000000Y-90000000D02*
X83500000Y-90500000D01*
X83500000Y-90500000D02*
X83500000Y-92000000D01*
X83500000Y-92000000D02*
X74500000Y-101000000D01*
X69460000Y-104500000D02*
X62500000Y-111460000D01*
X74500000Y-101000000D02*
X74500000Y-104500000D01*
X74500000Y-104500000D02*
X69460000Y-104500000D01*
%TO.N,Net-(D3-A)*%
X151880000Y-76500000D02*
X148880000Y-73500000D01*
X75540000Y-107000000D02*
X71000000Y-111540000D01*
X148880000Y-73500000D02*
X131000000Y-73500000D01*
X83000000Y-99000000D02*
X83000000Y-106000000D01*
X131000000Y-73500000D02*
X130500000Y-74000000D01*
X130500000Y-74000000D02*
X130500000Y-90500000D01*
X91500000Y-90500000D02*
X83000000Y-99000000D01*
X130500000Y-90500000D02*
X91500000Y-90500000D01*
X83000000Y-106000000D02*
X82000000Y-107000000D01*
X82000000Y-107000000D02*
X75540000Y-107000000D01*
%TO.N,Net-(D5-A)*%
X149340000Y-76500000D02*
X146840000Y-74000000D01*
X90000000Y-106500000D02*
X89000000Y-106500000D01*
X146840000Y-74000000D02*
X145855635Y-74000000D01*
X131500000Y-74434315D02*
X131500000Y-91500000D01*
X145855635Y-74000000D02*
X145955635Y-74100000D01*
X145955635Y-74100000D02*
X131834315Y-74100000D01*
X131834315Y-74100000D02*
X131500000Y-74434315D01*
X91000000Y-99000000D02*
X91000000Y-101500000D01*
X131500000Y-91500000D02*
X98500000Y-91500000D01*
X90000000Y-102500000D02*
X90000000Y-106500000D01*
X98500000Y-91500000D02*
X91000000Y-99000000D01*
X91000000Y-101500000D02*
X90000000Y-102500000D01*
X89000000Y-106500000D02*
X84040000Y-111460000D01*
X84040000Y-111460000D02*
X79000000Y-111460000D01*
%TO.N,Net-(D7-A)*%
X146800000Y-76500000D02*
X145000000Y-74700000D01*
X145000000Y-74700000D02*
X145000000Y-74500000D01*
X145000000Y-74500000D02*
X132000000Y-74500000D01*
X132000000Y-74500000D02*
X132000000Y-92000000D01*
X98000000Y-104000000D02*
X90420000Y-111580000D01*
X132000000Y-92000000D02*
X131500000Y-92500000D01*
X131500000Y-92500000D02*
X105500000Y-92500000D01*
X105500000Y-92500000D02*
X98000000Y-100000000D01*
X98000000Y-100000000D02*
X98000000Y-104000000D01*
X90420000Y-111580000D02*
X87000000Y-111580000D01*
%TO.N,Net-(D19-A)*%
X133500000Y-111580000D02*
X135920000Y-111580000D01*
X135920000Y-111580000D02*
X144500000Y-103000000D01*
X144500000Y-103000000D02*
X144500000Y-96500000D01*
X144500000Y-96500000D02*
X161500000Y-96500000D01*
X161500000Y-96500000D02*
X164580000Y-93420000D01*
X164580000Y-93420000D02*
X164580000Y-91740000D01*
%TO.N,Net-(D17-A)*%
X126000000Y-111580000D02*
X128420000Y-111580000D01*
X128420000Y-111580000D02*
X137500000Y-102500000D01*
X137500000Y-102500000D02*
X137500000Y-96000000D01*
X137500000Y-96000000D02*
X157780000Y-96000000D01*
X157780000Y-96000000D02*
X162040000Y-91740000D01*
%TO.N,Net-(D3-A)*%
X72460000Y-111540000D02*
X71000000Y-111540000D01*
%TO.N,Net-(D10-K)*%
X94500000Y-111580000D02*
X112580000Y-93500000D01*
X146500000Y-93500000D02*
X146500000Y-92040000D01*
X112580000Y-93500000D02*
X146500000Y-93500000D01*
X146500000Y-92040000D02*
X146800000Y-91740000D01*
%TO.N,Net-(D11-A)*%
X102000000Y-111500000D02*
X104000000Y-111500000D01*
X104000000Y-111500000D02*
X121500000Y-94000000D01*
X121500000Y-94000000D02*
X147080000Y-94000000D01*
X147080000Y-94000000D02*
X149340000Y-91740000D01*
%TO.N,Net-(D13-A)*%
X110000000Y-111660000D02*
X111840000Y-111660000D01*
X150500000Y-94500000D02*
X151880000Y-93120000D01*
X111840000Y-111660000D02*
X129000000Y-94500000D01*
X129000000Y-94500000D02*
X150500000Y-94500000D01*
X151880000Y-93120000D02*
X151880000Y-91740000D01*
%TO.N,Net-(D15-A)*%
X118000000Y-111660000D02*
X119340000Y-111660000D01*
X150660000Y-95500000D02*
X154420000Y-91740000D01*
X119340000Y-111660000D02*
X135500000Y-95500000D01*
X135500000Y-95500000D02*
X150660000Y-95500000D01*
%TO.N,Net-(D21-A)*%
X141000000Y-111500000D02*
X144000000Y-111500000D01*
X144000000Y-111500000D02*
X144500000Y-111000000D01*
X144500000Y-111000000D02*
X144500000Y-110500000D01*
X144500000Y-110500000D02*
X145000000Y-110000000D01*
X145000000Y-110000000D02*
X145000000Y-97000000D01*
X145000000Y-97000000D02*
X163000000Y-97000000D01*
X163000000Y-97000000D02*
X167120000Y-92880000D01*
X167120000Y-92880000D02*
X167120000Y-91740000D01*
%TO.N,Net-(D23-A)*%
X148500000Y-111500000D02*
X152000000Y-108000000D01*
X152000000Y-108000000D02*
X152000000Y-97500000D01*
X152000000Y-97500000D02*
X164000000Y-97500000D01*
X164000000Y-97500000D02*
X165000000Y-96500000D01*
X165000000Y-96500000D02*
X165000000Y-96400000D01*
X165000000Y-96400000D02*
X169660000Y-91740000D01*
%TO.N,Net-(D25-A)*%
X155500000Y-111580000D02*
X155500000Y-109000000D01*
X159000000Y-105500000D02*
X159000000Y-99000000D01*
X155500000Y-109000000D02*
X159000000Y-105500000D01*
X159000000Y-99000000D02*
X164500000Y-99000000D01*
X164500000Y-99000000D02*
X164500000Y-98500000D01*
X164500000Y-98500000D02*
X169000000Y-94000000D01*
X171500000Y-94000000D02*
X172200000Y-93300000D01*
X169000000Y-94000000D02*
X171500000Y-94000000D01*
X172200000Y-93300000D02*
X172200000Y-91740000D01*
%TO.N,Net-(D27-A)*%
X162500000Y-111580000D02*
X162500000Y-108500000D01*
X169500000Y-95000000D02*
X174000000Y-95000000D01*
X162500000Y-108500000D02*
X166000000Y-105000000D01*
X166000000Y-105000000D02*
X166000000Y-98500000D01*
X174740000Y-93760000D02*
X174740000Y-91740000D01*
X166000000Y-98500000D02*
X169500000Y-95000000D01*
X174000000Y-95000000D02*
X174000000Y-94500000D01*
X174000000Y-94500000D02*
X174740000Y-93760000D01*
%TO.N,Net-(D29-A)*%
X169500000Y-111580000D02*
X169500000Y-107500000D01*
X169500000Y-107500000D02*
X173000000Y-104000000D01*
X173000000Y-104000000D02*
X173000000Y-98500000D01*
X173000000Y-98500000D02*
X177280000Y-94220000D01*
X177280000Y-94220000D02*
X177280000Y-91740000D01*
%TO.N,Net-(D31-A)*%
X176500000Y-111500000D02*
X176500000Y-106500000D01*
X176500000Y-106500000D02*
X179500000Y-103500000D01*
X179500000Y-103500000D02*
X179500000Y-95500000D01*
X179500000Y-95500000D02*
X179820000Y-95180000D01*
X179820000Y-95180000D02*
X179820000Y-91740000D01*
%TO.N,Net-(D33-A)*%
X181000000Y-99000000D02*
X182500000Y-97500000D01*
X183500000Y-111580000D02*
X183500000Y-105500000D01*
X183500000Y-105500000D02*
X181000000Y-103000000D01*
X181000000Y-103000000D02*
X181000000Y-99000000D01*
X182500000Y-97500000D02*
X182360000Y-97360000D01*
X182360000Y-97360000D02*
X182360000Y-91740000D01*
%TO.N,Net-(D35-A)*%
X190500000Y-111580000D02*
X190500000Y-106500000D01*
X190500000Y-106500000D02*
X187000000Y-103000000D01*
X187000000Y-103000000D02*
X187000000Y-98000000D01*
X187000000Y-98000000D02*
X184900000Y-95900000D01*
X184900000Y-95900000D02*
X184900000Y-91740000D01*
%TO.N,Net-(R1-Pad1)*%
X189980000Y-92980000D02*
X189980000Y-91740000D01*
%TO.N,Net-(D35-A)*%
X185000000Y-125500000D02*
X185500000Y-125000000D01*
X185500000Y-125000000D02*
X185500000Y-116580000D01*
X185500000Y-116580000D02*
X190500000Y-111580000D01*
X185000000Y-125500000D02*
X176500000Y-117000000D01*
X176500000Y-117000000D02*
X174120000Y-117000000D01*
%TO.N,Net-(D33-A)*%
X170000000Y-123000000D02*
X170000000Y-117000000D01*
X170000000Y-117000000D02*
X173000000Y-114000000D01*
X173000000Y-114000000D02*
X179500000Y-114000000D01*
X179500000Y-114000000D02*
X181920000Y-111580000D01*
X181920000Y-111580000D02*
X183500000Y-111580000D01*
%TO.N,Net-(D35-A)*%
X185000000Y-130000000D02*
X185000000Y-125500000D01*
X192000000Y-137000000D02*
X185000000Y-130000000D01*
%TO.N,Net-(D33-A)*%
X185000000Y-137000000D02*
X182000000Y-134000000D01*
X182000000Y-134000000D02*
X179500000Y-134000000D01*
X177000000Y-131500000D02*
X177000000Y-131000000D01*
X179500000Y-134000000D02*
X177000000Y-131500000D01*
X177000000Y-131000000D02*
X177500000Y-130500000D01*
X177500000Y-130500000D02*
X177500000Y-123000000D01*
X177500000Y-123000000D02*
X170000000Y-123000000D01*
%TO.N,Net-(D31-A)*%
X168000000Y-129500000D02*
X165000000Y-126500000D01*
X165000000Y-126500000D02*
X165000000Y-121000000D01*
X165000000Y-121000000D02*
X174500000Y-111500000D01*
X174500000Y-111500000D02*
X176500000Y-111500000D01*
X173500000Y-133000000D02*
X171500000Y-133000000D01*
X177500000Y-137000000D02*
X173500000Y-133000000D01*
X171500000Y-133000000D02*
X168000000Y-129500000D01*
%TO.N,Net-(D29-A)*%
X159000000Y-121760000D02*
X159320000Y-121760000D01*
X159320000Y-121760000D02*
X169500000Y-111580000D01*
X170000000Y-136500000D02*
X159000000Y-125500000D01*
X159000000Y-125500000D02*
X159000000Y-121760000D01*
X159000000Y-121760000D02*
X154240000Y-117000000D01*
%TO.N,Net-(D25-A)*%
X153000000Y-112500000D02*
X153000000Y-111500000D01*
X147620000Y-117880000D02*
X153000000Y-112500000D01*
X153920000Y-111580000D02*
X155500000Y-111580000D01*
X153000000Y-111500000D02*
X153840000Y-111500000D01*
X153840000Y-111500000D02*
X153920000Y-111580000D01*
%TO.N,Net-(D27-A)*%
X150240000Y-123000000D02*
X150240000Y-116760000D01*
X153000000Y-114000000D02*
X160080000Y-114000000D01*
X160080000Y-114000000D02*
X162500000Y-111580000D01*
X150240000Y-116760000D02*
X153000000Y-114000000D01*
%TO.N,Net-(D25-A)*%
X147620000Y-129500000D02*
X147620000Y-117880000D01*
%TO.N,Net-(D5-A)*%
X77500000Y-136580000D02*
X77500000Y-128500000D01*
%TO.N,Net-(D1-A)*%
X67500000Y-130080000D02*
X67500000Y-129580000D01*
X62500000Y-124580000D02*
X62500000Y-111460000D01*
X67500000Y-129580000D02*
X62500000Y-124580000D01*
X61000000Y-136580000D02*
X67500000Y-130080000D01*
%TO.N,Net-(D3-A)*%
X70620000Y-123080000D02*
X70620000Y-111920000D01*
X69000000Y-136580000D02*
X69500000Y-136080000D01*
%TO.N,Net-(D5-A)*%
X79000000Y-112740000D02*
X79000000Y-111460000D01*
X74740000Y-118240000D02*
X74740000Y-117000000D01*
X77500000Y-136580000D02*
X78500000Y-135580000D01*
%TO.N,Net-(D7-A)*%
X85620000Y-136500000D02*
X85620000Y-131200000D01*
X85620000Y-131200000D02*
X87240000Y-129580000D01*
X86620000Y-111960000D02*
X87000000Y-111580000D01*
X87240000Y-129580000D02*
X87240000Y-111960000D01*
%TO.N,Net-(D10-K)*%
X91120000Y-114960000D02*
X94500000Y-111580000D01*
X91120000Y-123080000D02*
X91120000Y-114960000D01*
%TO.N,Net-(D11-A)*%
X101000000Y-137000000D02*
X101000000Y-123580000D01*
X101000000Y-123580000D02*
X94500000Y-117080000D01*
X94500000Y-117080000D02*
X96420000Y-117080000D01*
X96420000Y-117080000D02*
X102000000Y-111500000D01*
X102000000Y-111500000D02*
X102800000Y-111500000D01*
%TO.N,Net-(D13-A)*%
X109500000Y-131960000D02*
X107120000Y-129580000D01*
X109500000Y-136500000D02*
X109500000Y-131960000D01*
X107120000Y-114540000D02*
X110000000Y-111660000D01*
X107120000Y-129580000D02*
X107120000Y-114540000D01*
%TO.N,Net-(D15-A)*%
X110620000Y-117484366D02*
X116444366Y-111660000D01*
X109500000Y-124200000D02*
X110620000Y-123080000D01*
X116444366Y-111660000D02*
X118000000Y-111660000D01*
X109500000Y-131187005D02*
X109500000Y-124200000D01*
X110620000Y-123080000D02*
X110620000Y-117484366D01*
X117000000Y-136000000D02*
X114312995Y-136000000D01*
X114312995Y-136000000D02*
X109500000Y-131187005D01*
%TO.N,Net-(D17-A)*%
X125000000Y-136500000D02*
X125000000Y-127380000D01*
X126000000Y-111580000D02*
X126000000Y-111500000D01*
X125000000Y-127380000D02*
X114620000Y-117000000D01*
%TO.N,Net-(D19-A)*%
X127620000Y-131620000D02*
X127620000Y-129500000D01*
X133000000Y-137000000D02*
X127620000Y-131620000D01*
X127620000Y-117460000D02*
X133500000Y-111580000D01*
X127620000Y-129500000D02*
X127620000Y-117460000D01*
%TO.N,Net-(PC1-Pad1)*%
X52880000Y-137580000D02*
X53000000Y-137460000D01*
X53000000Y-130320000D02*
X52260000Y-129580000D01*
%TD*%
M02*
