M48
; DRILL file {KiCad 8.0.1} date 2024-04-01T15:58:45-0400
; FORMAT={-:-/ absolute / inch / decimal}
; #@! TF.CreationDate,2024-04-01T15:58:45-04:00
; #@! TF.GenerationSoftware,Kicad,Pcbnew,8.0.1
; #@! TF.FileFunction,Plated,1,2,PTH
FMAT,2
INCH
; #@! TA.AperFunction,Plated,PTH,ComponentDrill
T1C0.0315
; #@! TA.AperFunction,Plated,PTH,ComponentDrill
T2C0.0433
; #@! TA.AperFunction,Plated,PTH,ComponentDrill
T3C0.0472
; #@! TA.AperFunction,Plated,PTH,ComponentDrill
T4C0.0866
%
G90
G05
T1
X6.9902Y-3.3583
X6.9902Y-3.4371
X6.9902Y-3.5158
X7.0689Y-3.3583
X7.0689Y-3.4371
X7.0689Y-3.5158
X7.5508Y-3.2618
X7.5508Y-3.3618
T2
X2.4016Y-5.6102
X2.4016Y-6.0102
X2.4606Y-3.9882
X2.4606Y-4.3882
X2.7165Y-5.6134
X2.7165Y-6.0134
X2.7953Y-3.9913
X2.7953Y-4.3913
X3.0118Y-5.6102
X3.0118Y-6.0102
X3.1102Y-3.9882
X3.1102Y-4.3882
X3.3071Y-5.6071
X3.3071Y-6.0071
X3.4252Y-3.9929
X3.4252Y-4.3929
X3.6024Y-5.6039
X3.6024Y-6.0039
X3.7205Y-3.9929
X3.7205Y-4.3929
X3.937Y-5.6205
X3.937Y-6.0205
X4.0157Y-3.9898
X4.0157Y-4.3898
X4.2717Y-5.6173
X4.2717Y-6.0173
X4.3307Y-3.9961
X4.3307Y-4.3961
X4.5866Y-5.6102
X4.5866Y-6.0102
X4.6457Y-3.9961
X4.6457Y-4.3961
X4.9213Y-5.6079
X4.9213Y-6.0079
X4.9606Y-3.9929
X4.9606Y-4.3929
X5.2362Y-5.6047
X5.2362Y-6.0047
X5.2559Y-3.9929
X5.2559Y-4.3929
X5.2795Y-3.0118
X5.2795Y-3.6118
X5.3795Y-3.0118
X5.3795Y-3.6118
X5.4795Y-3.0118
X5.4795Y-3.6118
X5.5315Y-5.6102
X5.5315Y-6.0102
X5.5512Y-3.9898
X5.5512Y-4.3898
X5.5795Y-3.0118
X5.5795Y-3.6118
X5.6795Y-3.0118
X5.6795Y-3.6118
X5.7795Y-3.0118
X5.7795Y-3.1118
X5.7795Y-3.2118
X5.7795Y-3.3118
X5.7795Y-3.4118
X5.7795Y-3.5118
X5.7795Y-3.6118
X5.8071Y-5.6102
X5.8071Y-6.0102
X5.8465Y-3.9898
X5.8465Y-4.3898
X5.8795Y-3.0118
X5.8795Y-3.6118
X5.9795Y-3.0118
X5.9795Y-3.6118
X6.0795Y-3.0118
X6.0795Y-3.6118
X6.1024Y-5.6102
X6.1024Y-6.0102
X6.122Y-3.9929
X6.122Y-4.3929
X6.1795Y-3.0118
X6.1795Y-3.6118
X6.2795Y-3.0118
X6.2795Y-3.6118
X6.3795Y-3.0118
X6.3795Y-3.6118
X6.3976Y-3.9929
X6.3976Y-4.3929
X6.3976Y-5.6071
X6.3976Y-6.0071
X6.4795Y-3.0118
X6.4795Y-3.6118
X6.5795Y-3.0118
X6.5795Y-3.6118
X6.6732Y-3.9929
X6.6732Y-4.3929
X6.6795Y-3.0118
X6.6795Y-3.6118
X6.6929Y-5.6071
X6.6929Y-6.0071
X6.7795Y-3.0118
X6.7795Y-3.6118
X6.8795Y-3.0118
X6.8795Y-3.6118
X6.9315Y-3.1319
X6.9488Y-3.9898
X6.9488Y-4.3898
X6.9795Y-3.0118
X6.9795Y-3.6118
X6.9882Y-5.6071
X6.9882Y-6.0071
X7.0315Y-3.1319
X7.0795Y-3.0118
X7.0795Y-3.6118
X7.1315Y-3.1319
X7.1795Y-3.0118
X7.1795Y-3.6118
X7.2244Y-3.9929
X7.2244Y-4.3929
X7.2315Y-3.1319
X7.2795Y-3.0118
X7.2795Y-3.6118
X7.2835Y-5.6071
X7.2835Y-6.0071
X7.3315Y-3.1319
X7.3795Y-3.0118
X7.3795Y-3.6118
X7.4795Y-3.0118
X7.4795Y-3.5118
X7.4795Y-3.6118
X7.5Y-3.9929
X7.5Y-4.3929
X7.5591Y-5.6071
X7.5591Y-6.0071
X7.5795Y-3.0118
X7.5795Y-3.6118
T3
X2.0575Y-5.1016
X2.1063Y-5.4118
X2.1063Y-6.0118
X2.126Y-3.9898
X2.126Y-4.5898
X2.1803Y-4.8457
X2.3425Y-4.6063
X2.6575Y-5.1016
X2.7803Y-4.8457
X2.8346Y-5.1016
X2.9425Y-4.6063
X2.9874Y-4.8457
X3.1205Y-4.6094
X3.4346Y-5.1016
X3.5874Y-4.8457
X3.6173Y-5.1016
X3.7205Y-4.6094
X3.7551Y-4.8457
X3.9126Y-4.6063
X4.2173Y-5.1016
X4.3551Y-4.8457
X4.4244Y-5.0984
X4.5126Y-4.6063
X4.5276Y-4.8425
X4.7047Y-4.6063
X5.0244Y-5.0984
X5.1276Y-4.8425
X5.2118Y-5.0984
X5.3047Y-4.6063
X5.315Y-4.8425
X5.4724Y-4.6063
X5.8118Y-5.0984
X5.915Y-4.8425
X6.0142Y-5.0984
X6.0724Y-4.6063
X6.0929Y-4.8425
X6.2551Y-4.6063
X6.6142Y-5.0984
X6.6929Y-4.8425
X6.8551Y-4.6063
X7.1457Y-4.5669
X7.1457Y-5.1669
X7.5197Y-4.5669
X7.5197Y-5.1669
T4
X2.4016Y-5.3772
X2.7165Y-5.3772
X3.0512Y-5.3772
X3.3465Y-5.374
X3.6417Y-5.3772
X3.9764Y-5.3937
X4.311Y-5.374
X4.6063Y-5.3543
X4.9213Y-5.374
X5.2362Y-5.3937
X5.5315Y-5.3937
X5.8071Y-5.3937
X6.1024Y-5.3937
X6.3976Y-5.3937
X6.6929Y-5.374
X6.8307Y-5.0787
X6.9882Y-5.3937
X7.2835Y-5.3937
X7.5591Y-5.3937
M30
