%TF.GenerationSoftware,KiCad,Pcbnew,8.0.1*%
%TF.CreationDate,2024-05-08T16:13:40-04:00*%
%TF.ProjectId,whistle-synth,77686973-746c-4652-9d73-796e74682e6b,rev?*%
%TF.SameCoordinates,Original*%
%TF.FileFunction,Profile,NP*%
%FSLAX46Y46*%
G04 Gerber Fmt 4.6, Leading zero omitted, Abs format (unit mm)*
G04 Created by KiCad (PCBNEW 8.0.1) date 2024-05-08 16:13:40*
%MOMM*%
%LPD*%
G01*
G04 APERTURE LIST*
%TA.AperFunction,Profile*%
%ADD10C,0.050000*%
%TD*%
G04 APERTURE END LIST*
D10*
X150000000Y-46000000D02*
X249500000Y-46000000D01*
X249500000Y-131000000D01*
X150000000Y-131000000D01*
X150000000Y-46000000D01*
X219500000Y-87000000D02*
X247500000Y-87000000D01*
X247500000Y-90000000D01*
X219500000Y-90000000D01*
X219500000Y-87000000D01*
X215500000Y-47500000D02*
X218000000Y-47500000D01*
X218000000Y-85500000D01*
X215500000Y-85500000D01*
X215500000Y-47500000D01*
X185500000Y-87000000D02*
X214000000Y-87000000D01*
X214000000Y-90000000D01*
X185500000Y-90000000D01*
X185500000Y-87000000D01*
X181500000Y-47500000D02*
X184000000Y-47500000D01*
X184000000Y-85500000D01*
X181500000Y-85500000D01*
X181500000Y-47500000D01*
X151500000Y-87000000D02*
X180000000Y-87000000D01*
X180000000Y-90000000D01*
X151500000Y-90000000D01*
X151500000Y-87000000D01*
X215500000Y-91500000D02*
X218000000Y-91500000D01*
X218000000Y-129500000D01*
X215500000Y-129500000D01*
X215500000Y-91500000D01*
X181500000Y-91500000D02*
X184000000Y-91500000D01*
X184000000Y-129500000D01*
X181500000Y-129500000D01*
X181500000Y-91500000D01*
M02*
