%TF.GenerationSoftware,KiCad,Pcbnew,8.0.1*%
%TF.CreationDate,2024-05-08T16:13:40-04:00*%
%TF.ProjectId,whistle-synth,77686973-746c-4652-9d73-796e74682e6b,rev?*%
%TF.SameCoordinates,Original*%
%TF.FileFunction,Soldermask,Bot*%
%TF.FilePolarity,Negative*%
%FSLAX46Y46*%
G04 Gerber Fmt 4.6, Leading zero omitted, Abs format (unit mm)*
G04 Created by KiCad (PCBNEW 8.0.1) date 2024-05-08 16:13:40*
%MOMM*%
%LPD*%
G01*
G04 APERTURE LIST*
%ADD10C,3.800000*%
%ADD11C,2.600000*%
%ADD12C,1.200000*%
%ADD13R,1.200000X1.200000*%
%ADD14O,1.600000X1.600000*%
%ADD15C,1.600000*%
%ADD16O,2.200000X2.200000*%
%ADD17R,2.200000X2.200000*%
%ADD18C,5.000000*%
%ADD19R,1.600000X1.600000*%
G04 APERTURE END LIST*
D10*
%TO.C,H4*%
X228000000Y-68500000D03*
D11*
X228000000Y-68500000D03*
%TD*%
D12*
%TO.C,C2*%
X244500000Y-70500000D03*
D13*
X244500000Y-72500000D03*
%TD*%
D10*
%TO.C,H2*%
X244500000Y-77500000D03*
D11*
X244500000Y-77500000D03*
%TD*%
D14*
%TO.C,R3*%
X232000000Y-79700000D03*
D15*
X232000000Y-67000000D03*
%TD*%
D16*
%TO.C,D1*%
X224000000Y-59660000D03*
D17*
X224000000Y-49500000D03*
%TD*%
D12*
%TO.C,C3*%
X235500000Y-48500000D03*
D13*
X233500000Y-48500000D03*
%TD*%
D16*
%TO.C,D2*%
X220000000Y-49500000D03*
D17*
X220000000Y-59660000D03*
%TD*%
D18*
%TO.C,REF\u002A\u002A*%
X223500000Y-81500000D03*
%TD*%
%TO.C,REF\u002A\u002A*%
X243500000Y-51500000D03*
%TD*%
D14*
%TO.C,R1*%
X236000000Y-82200000D03*
D15*
X236000000Y-69500000D03*
%TD*%
D10*
%TO.C,H1*%
X244500000Y-83500000D03*
D11*
X244500000Y-83500000D03*
%TD*%
D12*
%TO.C,C4*%
X228472600Y-48500000D03*
D13*
X230472600Y-48500000D03*
%TD*%
D10*
%TO.C,H3*%
X247380000Y-67000000D03*
D11*
X247380000Y-67000000D03*
%TD*%
D10*
%TO.C,H5*%
X247380000Y-61000000D03*
D11*
X247380000Y-61000000D03*
%TD*%
D14*
%TO.C,R2*%
X240000000Y-82200000D03*
D15*
X240000000Y-69500000D03*
%TD*%
D10*
%TO.C,H7*%
X228000000Y-74500000D03*
D11*
X228000000Y-74500000D03*
%TD*%
D14*
%TO.C,U1*%
X235500000Y-59000000D03*
X238040000Y-59000000D03*
X240580000Y-59000000D03*
X243120000Y-59000000D03*
X243120000Y-66620000D03*
X240580000Y-66620000D03*
X238040000Y-66620000D03*
D19*
X235500000Y-66620000D03*
%TD*%
D10*
%TO.C,H6*%
X236500000Y-55000000D03*
D11*
X236500000Y-55000000D03*
%TD*%
D14*
%TO.C,R5*%
X224000000Y-62500000D03*
D15*
X224000000Y-75200000D03*
%TD*%
D14*
%TO.C,R4*%
X232000000Y-64700000D03*
D15*
X232000000Y-52000000D03*
%TD*%
D14*
%TO.C,R7*%
X228000000Y-52300000D03*
D15*
X228000000Y-65000000D03*
%TD*%
D12*
%TO.C,C1*%
X232000000Y-84000000D03*
D13*
X230000000Y-84000000D03*
%TD*%
D14*
%TO.C,R6*%
X220000000Y-75350000D03*
D15*
X220000000Y-62650000D03*
%TD*%
D11*
%TO.C,H4*%
X194000000Y-68500000D03*
D10*
X194000000Y-68500000D03*
%TD*%
D13*
%TO.C,C2*%
X210500000Y-72500000D03*
D12*
X210500000Y-70500000D03*
%TD*%
D11*
%TO.C,H2*%
X210500000Y-77500000D03*
D10*
X210500000Y-77500000D03*
%TD*%
D15*
%TO.C,R3*%
X198000000Y-67000000D03*
D14*
X198000000Y-79700000D03*
%TD*%
D17*
%TO.C,D1*%
X190000000Y-49500000D03*
D16*
X190000000Y-59660000D03*
%TD*%
D13*
%TO.C,C3*%
X199500000Y-48500000D03*
D12*
X201500000Y-48500000D03*
%TD*%
D17*
%TO.C,D2*%
X186000000Y-59660000D03*
D16*
X186000000Y-49500000D03*
%TD*%
D18*
%TO.C,REF\u002A\u002A*%
X189500000Y-81500000D03*
%TD*%
%TO.C,REF\u002A\u002A*%
X209500000Y-51500000D03*
%TD*%
D15*
%TO.C,R1*%
X202000000Y-69500000D03*
D14*
X202000000Y-82200000D03*
%TD*%
D11*
%TO.C,H1*%
X210500000Y-83500000D03*
D10*
X210500000Y-83500000D03*
%TD*%
D13*
%TO.C,C4*%
X196472600Y-48500000D03*
D12*
X194472600Y-48500000D03*
%TD*%
D11*
%TO.C,H3*%
X213380000Y-67000000D03*
D10*
X213380000Y-67000000D03*
%TD*%
D11*
%TO.C,H5*%
X213380000Y-61000000D03*
D10*
X213380000Y-61000000D03*
%TD*%
D15*
%TO.C,R2*%
X206000000Y-69500000D03*
D14*
X206000000Y-82200000D03*
%TD*%
D11*
%TO.C,H7*%
X194000000Y-74500000D03*
D10*
X194000000Y-74500000D03*
%TD*%
D19*
%TO.C,U1*%
X201500000Y-66620000D03*
D14*
X204040000Y-66620000D03*
X206580000Y-66620000D03*
X209120000Y-66620000D03*
X209120000Y-59000000D03*
X206580000Y-59000000D03*
X204040000Y-59000000D03*
X201500000Y-59000000D03*
%TD*%
D11*
%TO.C,H6*%
X202500000Y-55000000D03*
D10*
X202500000Y-55000000D03*
%TD*%
D15*
%TO.C,R5*%
X190000000Y-75200000D03*
D14*
X190000000Y-62500000D03*
%TD*%
D15*
%TO.C,R4*%
X198000000Y-52000000D03*
D14*
X198000000Y-64700000D03*
%TD*%
D15*
%TO.C,R7*%
X194000000Y-65000000D03*
D14*
X194000000Y-52300000D03*
%TD*%
D13*
%TO.C,C1*%
X196000000Y-84000000D03*
D12*
X198000000Y-84000000D03*
%TD*%
D15*
%TO.C,R6*%
X186000000Y-62650000D03*
D14*
X186000000Y-75350000D03*
%TD*%
D11*
%TO.C,H4*%
X160000000Y-68500000D03*
D10*
X160000000Y-68500000D03*
%TD*%
D13*
%TO.C,C2*%
X176500000Y-72500000D03*
D12*
X176500000Y-70500000D03*
%TD*%
D11*
%TO.C,H2*%
X176500000Y-77500000D03*
D10*
X176500000Y-77500000D03*
%TD*%
D15*
%TO.C,R3*%
X164000000Y-67000000D03*
D14*
X164000000Y-79700000D03*
%TD*%
D17*
%TO.C,D1*%
X156000000Y-49500000D03*
D16*
X156000000Y-59660000D03*
%TD*%
D13*
%TO.C,C3*%
X165500000Y-48500000D03*
D12*
X167500000Y-48500000D03*
%TD*%
D17*
%TO.C,D2*%
X152000000Y-59660000D03*
D16*
X152000000Y-49500000D03*
%TD*%
D18*
%TO.C,REF\u002A\u002A*%
X155500000Y-81500000D03*
%TD*%
%TO.C,REF\u002A\u002A*%
X175500000Y-51500000D03*
%TD*%
D15*
%TO.C,R1*%
X168000000Y-69500000D03*
D14*
X168000000Y-82200000D03*
%TD*%
D11*
%TO.C,H1*%
X176500000Y-83500000D03*
D10*
X176500000Y-83500000D03*
%TD*%
D13*
%TO.C,C4*%
X162472600Y-48500000D03*
D12*
X160472600Y-48500000D03*
%TD*%
D11*
%TO.C,H3*%
X179380000Y-67000000D03*
D10*
X179380000Y-67000000D03*
%TD*%
D11*
%TO.C,H5*%
X179380000Y-61000000D03*
D10*
X179380000Y-61000000D03*
%TD*%
D15*
%TO.C,R2*%
X172000000Y-69500000D03*
D14*
X172000000Y-82200000D03*
%TD*%
D11*
%TO.C,H7*%
X160000000Y-74500000D03*
D10*
X160000000Y-74500000D03*
%TD*%
D19*
%TO.C,U1*%
X167500000Y-66620000D03*
D14*
X170040000Y-66620000D03*
X172580000Y-66620000D03*
X175120000Y-66620000D03*
X175120000Y-59000000D03*
X172580000Y-59000000D03*
X170040000Y-59000000D03*
X167500000Y-59000000D03*
%TD*%
D11*
%TO.C,H6*%
X168500000Y-55000000D03*
D10*
X168500000Y-55000000D03*
%TD*%
D15*
%TO.C,R5*%
X156000000Y-75200000D03*
D14*
X156000000Y-62500000D03*
%TD*%
D15*
%TO.C,R4*%
X164000000Y-52000000D03*
D14*
X164000000Y-64700000D03*
%TD*%
D15*
%TO.C,R7*%
X160000000Y-65000000D03*
D14*
X160000000Y-52300000D03*
%TD*%
D13*
%TO.C,C1*%
X162000000Y-84000000D03*
D12*
X164000000Y-84000000D03*
%TD*%
D15*
%TO.C,R6*%
X152000000Y-62650000D03*
D14*
X152000000Y-75350000D03*
%TD*%
D11*
%TO.C,H4*%
X228000000Y-112500000D03*
D10*
X228000000Y-112500000D03*
%TD*%
D13*
%TO.C,C2*%
X244500000Y-116500000D03*
D12*
X244500000Y-114500000D03*
%TD*%
D11*
%TO.C,H2*%
X244500000Y-121500000D03*
D10*
X244500000Y-121500000D03*
%TD*%
D15*
%TO.C,R3*%
X232000000Y-111000000D03*
D14*
X232000000Y-123700000D03*
%TD*%
D17*
%TO.C,D1*%
X224000000Y-93500000D03*
D16*
X224000000Y-103660000D03*
%TD*%
D13*
%TO.C,C3*%
X233500000Y-92500000D03*
D12*
X235500000Y-92500000D03*
%TD*%
D17*
%TO.C,D2*%
X220000000Y-103660000D03*
D16*
X220000000Y-93500000D03*
%TD*%
D18*
%TO.C,REF\u002A\u002A*%
X223500000Y-125500000D03*
%TD*%
%TO.C,REF\u002A\u002A*%
X243500000Y-95500000D03*
%TD*%
D15*
%TO.C,R1*%
X236000000Y-113500000D03*
D14*
X236000000Y-126200000D03*
%TD*%
D11*
%TO.C,H1*%
X244500000Y-127500000D03*
D10*
X244500000Y-127500000D03*
%TD*%
D13*
%TO.C,C4*%
X230472600Y-92500000D03*
D12*
X228472600Y-92500000D03*
%TD*%
D11*
%TO.C,H3*%
X247380000Y-111000000D03*
D10*
X247380000Y-111000000D03*
%TD*%
D11*
%TO.C,H5*%
X247380000Y-105000000D03*
D10*
X247380000Y-105000000D03*
%TD*%
D15*
%TO.C,R2*%
X240000000Y-113500000D03*
D14*
X240000000Y-126200000D03*
%TD*%
D11*
%TO.C,H7*%
X228000000Y-118500000D03*
D10*
X228000000Y-118500000D03*
%TD*%
D19*
%TO.C,U1*%
X235500000Y-110620000D03*
D14*
X238040000Y-110620000D03*
X240580000Y-110620000D03*
X243120000Y-110620000D03*
X243120000Y-103000000D03*
X240580000Y-103000000D03*
X238040000Y-103000000D03*
X235500000Y-103000000D03*
%TD*%
D11*
%TO.C,H6*%
X236500000Y-99000000D03*
D10*
X236500000Y-99000000D03*
%TD*%
D15*
%TO.C,R5*%
X224000000Y-119200000D03*
D14*
X224000000Y-106500000D03*
%TD*%
D15*
%TO.C,R4*%
X232000000Y-96000000D03*
D14*
X232000000Y-108700000D03*
%TD*%
D15*
%TO.C,R7*%
X228000000Y-109000000D03*
D14*
X228000000Y-96300000D03*
%TD*%
D13*
%TO.C,C1*%
X230000000Y-128000000D03*
D12*
X232000000Y-128000000D03*
%TD*%
D15*
%TO.C,R6*%
X220000000Y-106650000D03*
D14*
X220000000Y-119350000D03*
%TD*%
D11*
%TO.C,H4*%
X194000000Y-112500000D03*
D10*
X194000000Y-112500000D03*
%TD*%
D13*
%TO.C,C2*%
X210500000Y-116500000D03*
D12*
X210500000Y-114500000D03*
%TD*%
D11*
%TO.C,H2*%
X210500000Y-121500000D03*
D10*
X210500000Y-121500000D03*
%TD*%
D15*
%TO.C,R3*%
X198000000Y-111000000D03*
D14*
X198000000Y-123700000D03*
%TD*%
D17*
%TO.C,D1*%
X190000000Y-93500000D03*
D16*
X190000000Y-103660000D03*
%TD*%
D13*
%TO.C,C3*%
X199500000Y-92500000D03*
D12*
X201500000Y-92500000D03*
%TD*%
D17*
%TO.C,D2*%
X186000000Y-103660000D03*
D16*
X186000000Y-93500000D03*
%TD*%
D18*
%TO.C,REF\u002A\u002A*%
X189500000Y-125500000D03*
%TD*%
%TO.C,REF\u002A\u002A*%
X209500000Y-95500000D03*
%TD*%
D15*
%TO.C,R1*%
X202000000Y-113500000D03*
D14*
X202000000Y-126200000D03*
%TD*%
D11*
%TO.C,H1*%
X210500000Y-127500000D03*
D10*
X210500000Y-127500000D03*
%TD*%
D13*
%TO.C,C4*%
X196472600Y-92500000D03*
D12*
X194472600Y-92500000D03*
%TD*%
D11*
%TO.C,H3*%
X213380000Y-111000000D03*
D10*
X213380000Y-111000000D03*
%TD*%
D11*
%TO.C,H5*%
X213380000Y-105000000D03*
D10*
X213380000Y-105000000D03*
%TD*%
D15*
%TO.C,R2*%
X206000000Y-113500000D03*
D14*
X206000000Y-126200000D03*
%TD*%
D11*
%TO.C,H7*%
X194000000Y-118500000D03*
D10*
X194000000Y-118500000D03*
%TD*%
D19*
%TO.C,U1*%
X201500000Y-110620000D03*
D14*
X204040000Y-110620000D03*
X206580000Y-110620000D03*
X209120000Y-110620000D03*
X209120000Y-103000000D03*
X206580000Y-103000000D03*
X204040000Y-103000000D03*
X201500000Y-103000000D03*
%TD*%
D11*
%TO.C,H6*%
X202500000Y-99000000D03*
D10*
X202500000Y-99000000D03*
%TD*%
D15*
%TO.C,R5*%
X190000000Y-119200000D03*
D14*
X190000000Y-106500000D03*
%TD*%
D15*
%TO.C,R4*%
X198000000Y-96000000D03*
D14*
X198000000Y-108700000D03*
%TD*%
D15*
%TO.C,R7*%
X194000000Y-109000000D03*
D14*
X194000000Y-96300000D03*
%TD*%
D13*
%TO.C,C1*%
X196000000Y-128000000D03*
D12*
X198000000Y-128000000D03*
%TD*%
D15*
%TO.C,R6*%
X186000000Y-106650000D03*
D14*
X186000000Y-119350000D03*
%TD*%
D18*
%TO.C,REF\u002A\u002A*%
X155500000Y-125500000D03*
%TD*%
%TO.C,REF\u002A\u002A*%
X175500000Y-95500000D03*
%TD*%
D19*
%TO.C,U1*%
X167500000Y-110620000D03*
D14*
X170040000Y-110620000D03*
X172580000Y-110620000D03*
X175120000Y-110620000D03*
X175120000Y-103000000D03*
X172580000Y-103000000D03*
X170040000Y-103000000D03*
X167500000Y-103000000D03*
%TD*%
D15*
%TO.C,R7*%
X160000000Y-109000000D03*
D14*
X160000000Y-96300000D03*
%TD*%
D15*
%TO.C,R6*%
X152000000Y-106650000D03*
D14*
X152000000Y-119350000D03*
%TD*%
%TO.C,R5*%
X156000000Y-106500000D03*
D15*
X156000000Y-119200000D03*
%TD*%
%TO.C,R4*%
X164000000Y-96000000D03*
D14*
X164000000Y-108700000D03*
%TD*%
D15*
%TO.C,R3*%
X164000000Y-111000000D03*
D14*
X164000000Y-123700000D03*
%TD*%
%TO.C,R2*%
X172000000Y-126200000D03*
D15*
X172000000Y-113500000D03*
%TD*%
D14*
%TO.C,R1*%
X168000000Y-126200000D03*
D15*
X168000000Y-113500000D03*
%TD*%
D11*
%TO.C,H7*%
X160000000Y-118500000D03*
D10*
X160000000Y-118500000D03*
%TD*%
D11*
%TO.C,H6*%
X168500000Y-99000000D03*
D10*
X168500000Y-99000000D03*
%TD*%
D11*
%TO.C,H5*%
X179380000Y-105000000D03*
D10*
X179380000Y-105000000D03*
%TD*%
D11*
%TO.C,H4*%
X160000000Y-112500000D03*
D10*
X160000000Y-112500000D03*
%TD*%
D11*
%TO.C,H3*%
X179380000Y-111000000D03*
D10*
X179380000Y-111000000D03*
%TD*%
D11*
%TO.C,H2*%
X176500000Y-121500000D03*
D10*
X176500000Y-121500000D03*
%TD*%
D11*
%TO.C,H1*%
X176500000Y-127500000D03*
D10*
X176500000Y-127500000D03*
%TD*%
D17*
%TO.C,D2*%
X152000000Y-103660000D03*
D16*
X152000000Y-93500000D03*
%TD*%
D17*
%TO.C,D1*%
X156000000Y-93500000D03*
D16*
X156000000Y-103660000D03*
%TD*%
D13*
%TO.C,C4*%
X162472600Y-92500000D03*
D12*
X160472600Y-92500000D03*
%TD*%
D13*
%TO.C,C3*%
X165500000Y-92500000D03*
D12*
X167500000Y-92500000D03*
%TD*%
D13*
%TO.C,C2*%
X176500000Y-116500000D03*
D12*
X176500000Y-114500000D03*
%TD*%
%TO.C,C1*%
X164000000Y-128000000D03*
D13*
X162000000Y-128000000D03*
%TD*%
M02*
