%TF.GenerationSoftware,KiCad,Pcbnew,8.0.1*%
%TF.CreationDate,2024-05-08T16:13:39-04:00*%
%TF.ProjectId,whistle-synth,77686973-746c-4652-9d73-796e74682e6b,rev?*%
%TF.SameCoordinates,Original*%
%TF.FileFunction,Copper,L1,Top*%
%TF.FilePolarity,Positive*%
%FSLAX46Y46*%
G04 Gerber Fmt 4.6, Leading zero omitted, Abs format (unit mm)*
G04 Created by KiCad (PCBNEW 8.0.1) date 2024-05-08 16:13:39*
%MOMM*%
%LPD*%
G01*
G04 APERTURE LIST*
%TA.AperFunction,ConnectorPad*%
%ADD10C,3.800000*%
%TD*%
%TA.AperFunction,ComponentPad*%
%ADD11C,2.600000*%
%TD*%
%TA.AperFunction,ComponentPad*%
%ADD12C,1.200000*%
%TD*%
%TA.AperFunction,ComponentPad*%
%ADD13R,1.200000X1.200000*%
%TD*%
%TA.AperFunction,ComponentPad*%
%ADD14O,1.600000X1.600000*%
%TD*%
%TA.AperFunction,ComponentPad*%
%ADD15C,1.600000*%
%TD*%
%TA.AperFunction,ComponentPad*%
%ADD16O,2.200000X2.200000*%
%TD*%
%TA.AperFunction,ComponentPad*%
%ADD17R,2.200000X2.200000*%
%TD*%
%TA.AperFunction,ComponentPad*%
%ADD18R,1.600000X1.600000*%
%TD*%
%TA.AperFunction,Conductor*%
%ADD19C,0.200000*%
%TD*%
G04 APERTURE END LIST*
D10*
%TO.P,H4,1,1*%
%TO.N,Net-(H4-Pad1)*%
X228000000Y-68500000D03*
D11*
X228000000Y-68500000D03*
%TD*%
D12*
%TO.P,C2,2*%
%TO.N,Net-(C2-Pad2)*%
X244500000Y-70500000D03*
D13*
%TO.P,C2,1*%
%TO.N,Net-(C2-Pad1)*%
X244500000Y-72500000D03*
%TD*%
D10*
%TO.P,H2,1,1*%
%TO.N,Net-(C2-Pad1)*%
X244500000Y-77500000D03*
D11*
X244500000Y-77500000D03*
%TD*%
D14*
%TO.P,R3,2*%
%TO.N,Net-(U1A--)*%
X232000000Y-79700000D03*
D15*
%TO.P,R3,1*%
%TO.N,Net-(R3-Pad1)*%
X232000000Y-67000000D03*
%TD*%
D16*
%TO.P,D1,2,A*%
%TO.N,Net-(D1-A)*%
X224000000Y-59660000D03*
D17*
%TO.P,D1,1,K*%
%TO.N,Net-(D1-K)*%
X224000000Y-49500000D03*
%TD*%
D12*
%TO.P,C3,2*%
%TO.N,Net-(D1-A)*%
X235500000Y-48500000D03*
D13*
%TO.P,C3,1*%
%TO.N,Net-(D1-K)*%
X233500000Y-48500000D03*
%TD*%
D16*
%TO.P,D2,2,A*%
%TO.N,Net-(D1-K)*%
X220000000Y-49500000D03*
D17*
%TO.P,D2,1,K*%
%TO.N,Net-(D2-K)*%
X220000000Y-59660000D03*
%TD*%
D14*
%TO.P,R1,2*%
%TO.N,Net-(C1-Pad2)*%
X236000000Y-82200000D03*
D15*
%TO.P,R1,1*%
%TO.N,Net-(U1A--)*%
X236000000Y-69500000D03*
%TD*%
D10*
%TO.P,H1,1,1*%
%TO.N,Net-(C1-Pad1)*%
X244500000Y-83500000D03*
D11*
X244500000Y-83500000D03*
%TD*%
D12*
%TO.P,C4,2*%
%TO.N,Net-(C4-Pad2)*%
X228472600Y-48500000D03*
D13*
%TO.P,C4,1*%
%TO.N,Net-(D1-K)*%
X230472600Y-48500000D03*
%TD*%
D10*
%TO.P,H3,1,1*%
%TO.N,Net-(D1-A)*%
X247380000Y-67000000D03*
D11*
X247380000Y-67000000D03*
%TD*%
D10*
%TO.P,H5,1,1*%
%TO.N,Net-(D1-A)*%
X247380000Y-61000000D03*
D11*
X247380000Y-61000000D03*
%TD*%
D14*
%TO.P,R2,2*%
%TO.N,Net-(C2-Pad2)*%
X240000000Y-82200000D03*
D15*
%TO.P,R2,1*%
%TO.N,Net-(U1A-+)*%
X240000000Y-69500000D03*
%TD*%
D10*
%TO.P,H7,1,1*%
%TO.N,Net-(D2-K)*%
X228000000Y-74500000D03*
D11*
X228000000Y-74500000D03*
%TD*%
D14*
%TO.P,U1,8,V+*%
%TO.N,Net-(U1C-V+)*%
X235500000Y-59000000D03*
%TO.P,U1,7*%
%TO.N,unconnected-(U1-Pad7)*%
X238040000Y-59000000D03*
%TO.P,U1,6,-*%
%TO.N,unconnected-(U1B---Pad6)*%
X240580000Y-59000000D03*
%TO.P,U1,5,+*%
%TO.N,unconnected-(U1B-+-Pad5)*%
X243120000Y-59000000D03*
%TO.P,U1,4,V-*%
%TO.N,Net-(D1-A)*%
X243120000Y-66620000D03*
%TO.P,U1,3,+*%
%TO.N,Net-(U1A-+)*%
X240580000Y-66620000D03*
%TO.P,U1,2,-*%
%TO.N,Net-(U1A--)*%
X238040000Y-66620000D03*
D18*
%TO.P,U1,1*%
%TO.N,Net-(R3-Pad1)*%
X235500000Y-66620000D03*
%TD*%
D10*
%TO.P,H6,1,1*%
%TO.N,Net-(U1C-V+)*%
X236500000Y-55000000D03*
D11*
X236500000Y-55000000D03*
%TD*%
D14*
%TO.P,R5,2*%
%TO.N,Net-(D1-A)*%
X224000000Y-62500000D03*
D15*
%TO.P,R5,1*%
%TO.N,Net-(U1A-+)*%
X224000000Y-75200000D03*
%TD*%
D14*
%TO.P,R4,2*%
%TO.N,Net-(R3-Pad1)*%
X232000000Y-64700000D03*
D15*
%TO.P,R4,1*%
%TO.N,Net-(D1-K)*%
X232000000Y-52000000D03*
%TD*%
D14*
%TO.P,R7,2*%
%TO.N,Net-(C4-Pad2)*%
X228000000Y-52300000D03*
D15*
%TO.P,R7,1*%
%TO.N,Net-(H4-Pad1)*%
X228000000Y-65000000D03*
%TD*%
D12*
%TO.P,C1,2*%
%TO.N,Net-(C1-Pad2)*%
X232000000Y-84000000D03*
D13*
%TO.P,C1,1*%
%TO.N,Net-(C1-Pad1)*%
X230000000Y-84000000D03*
%TD*%
D14*
%TO.P,R6,2*%
%TO.N,Net-(U1A-+)*%
X220000000Y-75350000D03*
D15*
%TO.P,R6,1*%
%TO.N,Net-(D2-K)*%
X220000000Y-62650000D03*
%TD*%
D11*
%TO.P,H4,1,1*%
%TO.N,Net-(H4-Pad1)*%
X194000000Y-68500000D03*
D10*
X194000000Y-68500000D03*
%TD*%
D13*
%TO.P,C2,1*%
%TO.N,Net-(C2-Pad1)*%
X210500000Y-72500000D03*
D12*
%TO.P,C2,2*%
%TO.N,Net-(C2-Pad2)*%
X210500000Y-70500000D03*
%TD*%
D11*
%TO.P,H2,1,1*%
%TO.N,Net-(C2-Pad1)*%
X210500000Y-77500000D03*
D10*
X210500000Y-77500000D03*
%TD*%
D15*
%TO.P,R3,1*%
%TO.N,Net-(R3-Pad1)*%
X198000000Y-67000000D03*
D14*
%TO.P,R3,2*%
%TO.N,Net-(U1A--)*%
X198000000Y-79700000D03*
%TD*%
D17*
%TO.P,D1,1,K*%
%TO.N,Net-(D1-K)*%
X190000000Y-49500000D03*
D16*
%TO.P,D1,2,A*%
%TO.N,Net-(D1-A)*%
X190000000Y-59660000D03*
%TD*%
D13*
%TO.P,C3,1*%
%TO.N,Net-(D1-K)*%
X199500000Y-48500000D03*
D12*
%TO.P,C3,2*%
%TO.N,Net-(D1-A)*%
X201500000Y-48500000D03*
%TD*%
D17*
%TO.P,D2,1,K*%
%TO.N,Net-(D2-K)*%
X186000000Y-59660000D03*
D16*
%TO.P,D2,2,A*%
%TO.N,Net-(D1-K)*%
X186000000Y-49500000D03*
%TD*%
D15*
%TO.P,R1,1*%
%TO.N,Net-(U1A--)*%
X202000000Y-69500000D03*
D14*
%TO.P,R1,2*%
%TO.N,Net-(C1-Pad2)*%
X202000000Y-82200000D03*
%TD*%
D11*
%TO.P,H1,1,1*%
%TO.N,Net-(C1-Pad1)*%
X210500000Y-83500000D03*
D10*
X210500000Y-83500000D03*
%TD*%
D13*
%TO.P,C4,1*%
%TO.N,Net-(D1-K)*%
X196472600Y-48500000D03*
D12*
%TO.P,C4,2*%
%TO.N,Net-(C4-Pad2)*%
X194472600Y-48500000D03*
%TD*%
D11*
%TO.P,H3,1,1*%
%TO.N,Net-(D1-A)*%
X213380000Y-67000000D03*
D10*
X213380000Y-67000000D03*
%TD*%
D11*
%TO.P,H5,1,1*%
%TO.N,Net-(D1-A)*%
X213380000Y-61000000D03*
D10*
X213380000Y-61000000D03*
%TD*%
D15*
%TO.P,R2,1*%
%TO.N,Net-(U1A-+)*%
X206000000Y-69500000D03*
D14*
%TO.P,R2,2*%
%TO.N,Net-(C2-Pad2)*%
X206000000Y-82200000D03*
%TD*%
D11*
%TO.P,H7,1,1*%
%TO.N,Net-(D2-K)*%
X194000000Y-74500000D03*
D10*
X194000000Y-74500000D03*
%TD*%
D18*
%TO.P,U1,1*%
%TO.N,Net-(R3-Pad1)*%
X201500000Y-66620000D03*
D14*
%TO.P,U1,2,-*%
%TO.N,Net-(U1A--)*%
X204040000Y-66620000D03*
%TO.P,U1,3,+*%
%TO.N,Net-(U1A-+)*%
X206580000Y-66620000D03*
%TO.P,U1,4,V-*%
%TO.N,Net-(D1-A)*%
X209120000Y-66620000D03*
%TO.P,U1,5,+*%
%TO.N,unconnected-(U1B-+-Pad5)*%
X209120000Y-59000000D03*
%TO.P,U1,6,-*%
%TO.N,unconnected-(U1B---Pad6)*%
X206580000Y-59000000D03*
%TO.P,U1,7*%
%TO.N,unconnected-(U1-Pad7)*%
X204040000Y-59000000D03*
%TO.P,U1,8,V+*%
%TO.N,Net-(U1C-V+)*%
X201500000Y-59000000D03*
%TD*%
D11*
%TO.P,H6,1,1*%
%TO.N,Net-(U1C-V+)*%
X202500000Y-55000000D03*
D10*
X202500000Y-55000000D03*
%TD*%
D15*
%TO.P,R5,1*%
%TO.N,Net-(U1A-+)*%
X190000000Y-75200000D03*
D14*
%TO.P,R5,2*%
%TO.N,Net-(D1-A)*%
X190000000Y-62500000D03*
%TD*%
D15*
%TO.P,R4,1*%
%TO.N,Net-(D1-K)*%
X198000000Y-52000000D03*
D14*
%TO.P,R4,2*%
%TO.N,Net-(R3-Pad1)*%
X198000000Y-64700000D03*
%TD*%
D15*
%TO.P,R7,1*%
%TO.N,Net-(H4-Pad1)*%
X194000000Y-65000000D03*
D14*
%TO.P,R7,2*%
%TO.N,Net-(C4-Pad2)*%
X194000000Y-52300000D03*
%TD*%
D13*
%TO.P,C1,1*%
%TO.N,Net-(C1-Pad1)*%
X196000000Y-84000000D03*
D12*
%TO.P,C1,2*%
%TO.N,Net-(C1-Pad2)*%
X198000000Y-84000000D03*
%TD*%
D15*
%TO.P,R6,1*%
%TO.N,Net-(D2-K)*%
X186000000Y-62650000D03*
D14*
%TO.P,R6,2*%
%TO.N,Net-(U1A-+)*%
X186000000Y-75350000D03*
%TD*%
D11*
%TO.P,H4,1,1*%
%TO.N,Net-(H4-Pad1)*%
X160000000Y-68500000D03*
D10*
X160000000Y-68500000D03*
%TD*%
D13*
%TO.P,C2,1*%
%TO.N,Net-(C2-Pad1)*%
X176500000Y-72500000D03*
D12*
%TO.P,C2,2*%
%TO.N,Net-(C2-Pad2)*%
X176500000Y-70500000D03*
%TD*%
D11*
%TO.P,H2,1,1*%
%TO.N,Net-(C2-Pad1)*%
X176500000Y-77500000D03*
D10*
X176500000Y-77500000D03*
%TD*%
D15*
%TO.P,R3,1*%
%TO.N,Net-(R3-Pad1)*%
X164000000Y-67000000D03*
D14*
%TO.P,R3,2*%
%TO.N,Net-(U1A--)*%
X164000000Y-79700000D03*
%TD*%
D17*
%TO.P,D1,1,K*%
%TO.N,Net-(D1-K)*%
X156000000Y-49500000D03*
D16*
%TO.P,D1,2,A*%
%TO.N,Net-(D1-A)*%
X156000000Y-59660000D03*
%TD*%
D13*
%TO.P,C3,1*%
%TO.N,Net-(D1-K)*%
X165500000Y-48500000D03*
D12*
%TO.P,C3,2*%
%TO.N,Net-(D1-A)*%
X167500000Y-48500000D03*
%TD*%
D17*
%TO.P,D2,1,K*%
%TO.N,Net-(D2-K)*%
X152000000Y-59660000D03*
D16*
%TO.P,D2,2,A*%
%TO.N,Net-(D1-K)*%
X152000000Y-49500000D03*
%TD*%
D15*
%TO.P,R1,1*%
%TO.N,Net-(U1A--)*%
X168000000Y-69500000D03*
D14*
%TO.P,R1,2*%
%TO.N,Net-(C1-Pad2)*%
X168000000Y-82200000D03*
%TD*%
D11*
%TO.P,H1,1,1*%
%TO.N,Net-(C1-Pad1)*%
X176500000Y-83500000D03*
D10*
X176500000Y-83500000D03*
%TD*%
D13*
%TO.P,C4,1*%
%TO.N,Net-(D1-K)*%
X162472600Y-48500000D03*
D12*
%TO.P,C4,2*%
%TO.N,Net-(C4-Pad2)*%
X160472600Y-48500000D03*
%TD*%
D11*
%TO.P,H3,1,1*%
%TO.N,Net-(D1-A)*%
X179380000Y-67000000D03*
D10*
X179380000Y-67000000D03*
%TD*%
D11*
%TO.P,H5,1,1*%
%TO.N,Net-(D1-A)*%
X179380000Y-61000000D03*
D10*
X179380000Y-61000000D03*
%TD*%
D15*
%TO.P,R2,1*%
%TO.N,Net-(U1A-+)*%
X172000000Y-69500000D03*
D14*
%TO.P,R2,2*%
%TO.N,Net-(C2-Pad2)*%
X172000000Y-82200000D03*
%TD*%
D11*
%TO.P,H7,1,1*%
%TO.N,Net-(D2-K)*%
X160000000Y-74500000D03*
D10*
X160000000Y-74500000D03*
%TD*%
D18*
%TO.P,U1,1*%
%TO.N,Net-(R3-Pad1)*%
X167500000Y-66620000D03*
D14*
%TO.P,U1,2,-*%
%TO.N,Net-(U1A--)*%
X170040000Y-66620000D03*
%TO.P,U1,3,+*%
%TO.N,Net-(U1A-+)*%
X172580000Y-66620000D03*
%TO.P,U1,4,V-*%
%TO.N,Net-(D1-A)*%
X175120000Y-66620000D03*
%TO.P,U1,5,+*%
%TO.N,unconnected-(U1B-+-Pad5)*%
X175120000Y-59000000D03*
%TO.P,U1,6,-*%
%TO.N,unconnected-(U1B---Pad6)*%
X172580000Y-59000000D03*
%TO.P,U1,7*%
%TO.N,unconnected-(U1-Pad7)*%
X170040000Y-59000000D03*
%TO.P,U1,8,V+*%
%TO.N,Net-(U1C-V+)*%
X167500000Y-59000000D03*
%TD*%
D11*
%TO.P,H6,1,1*%
%TO.N,Net-(U1C-V+)*%
X168500000Y-55000000D03*
D10*
X168500000Y-55000000D03*
%TD*%
D15*
%TO.P,R5,1*%
%TO.N,Net-(U1A-+)*%
X156000000Y-75200000D03*
D14*
%TO.P,R5,2*%
%TO.N,Net-(D1-A)*%
X156000000Y-62500000D03*
%TD*%
D15*
%TO.P,R4,1*%
%TO.N,Net-(D1-K)*%
X164000000Y-52000000D03*
D14*
%TO.P,R4,2*%
%TO.N,Net-(R3-Pad1)*%
X164000000Y-64700000D03*
%TD*%
D15*
%TO.P,R7,1*%
%TO.N,Net-(H4-Pad1)*%
X160000000Y-65000000D03*
D14*
%TO.P,R7,2*%
%TO.N,Net-(C4-Pad2)*%
X160000000Y-52300000D03*
%TD*%
D13*
%TO.P,C1,1*%
%TO.N,Net-(C1-Pad1)*%
X162000000Y-84000000D03*
D12*
%TO.P,C1,2*%
%TO.N,Net-(C1-Pad2)*%
X164000000Y-84000000D03*
%TD*%
D15*
%TO.P,R6,1*%
%TO.N,Net-(D2-K)*%
X152000000Y-62650000D03*
D14*
%TO.P,R6,2*%
%TO.N,Net-(U1A-+)*%
X152000000Y-75350000D03*
%TD*%
D11*
%TO.P,H4,1,1*%
%TO.N,Net-(H4-Pad1)*%
X228000000Y-112500000D03*
D10*
X228000000Y-112500000D03*
%TD*%
D13*
%TO.P,C2,1*%
%TO.N,Net-(C2-Pad1)*%
X244500000Y-116500000D03*
D12*
%TO.P,C2,2*%
%TO.N,Net-(C2-Pad2)*%
X244500000Y-114500000D03*
%TD*%
D11*
%TO.P,H2,1,1*%
%TO.N,Net-(C2-Pad1)*%
X244500000Y-121500000D03*
D10*
X244500000Y-121500000D03*
%TD*%
D15*
%TO.P,R3,1*%
%TO.N,Net-(R3-Pad1)*%
X232000000Y-111000000D03*
D14*
%TO.P,R3,2*%
%TO.N,Net-(U1A--)*%
X232000000Y-123700000D03*
%TD*%
D17*
%TO.P,D1,1,K*%
%TO.N,Net-(D1-K)*%
X224000000Y-93500000D03*
D16*
%TO.P,D1,2,A*%
%TO.N,Net-(D1-A)*%
X224000000Y-103660000D03*
%TD*%
D13*
%TO.P,C3,1*%
%TO.N,Net-(D1-K)*%
X233500000Y-92500000D03*
D12*
%TO.P,C3,2*%
%TO.N,Net-(D1-A)*%
X235500000Y-92500000D03*
%TD*%
D17*
%TO.P,D2,1,K*%
%TO.N,Net-(D2-K)*%
X220000000Y-103660000D03*
D16*
%TO.P,D2,2,A*%
%TO.N,Net-(D1-K)*%
X220000000Y-93500000D03*
%TD*%
D15*
%TO.P,R1,1*%
%TO.N,Net-(U1A--)*%
X236000000Y-113500000D03*
D14*
%TO.P,R1,2*%
%TO.N,Net-(C1-Pad2)*%
X236000000Y-126200000D03*
%TD*%
D11*
%TO.P,H1,1,1*%
%TO.N,Net-(C1-Pad1)*%
X244500000Y-127500000D03*
D10*
X244500000Y-127500000D03*
%TD*%
D13*
%TO.P,C4,1*%
%TO.N,Net-(D1-K)*%
X230472600Y-92500000D03*
D12*
%TO.P,C4,2*%
%TO.N,Net-(C4-Pad2)*%
X228472600Y-92500000D03*
%TD*%
D11*
%TO.P,H3,1,1*%
%TO.N,Net-(D1-A)*%
X247380000Y-111000000D03*
D10*
X247380000Y-111000000D03*
%TD*%
D11*
%TO.P,H5,1,1*%
%TO.N,Net-(D1-A)*%
X247380000Y-105000000D03*
D10*
X247380000Y-105000000D03*
%TD*%
D15*
%TO.P,R2,1*%
%TO.N,Net-(U1A-+)*%
X240000000Y-113500000D03*
D14*
%TO.P,R2,2*%
%TO.N,Net-(C2-Pad2)*%
X240000000Y-126200000D03*
%TD*%
D11*
%TO.P,H7,1,1*%
%TO.N,Net-(D2-K)*%
X228000000Y-118500000D03*
D10*
X228000000Y-118500000D03*
%TD*%
D18*
%TO.P,U1,1*%
%TO.N,Net-(R3-Pad1)*%
X235500000Y-110620000D03*
D14*
%TO.P,U1,2,-*%
%TO.N,Net-(U1A--)*%
X238040000Y-110620000D03*
%TO.P,U1,3,+*%
%TO.N,Net-(U1A-+)*%
X240580000Y-110620000D03*
%TO.P,U1,4,V-*%
%TO.N,Net-(D1-A)*%
X243120000Y-110620000D03*
%TO.P,U1,5,+*%
%TO.N,unconnected-(U1B-+-Pad5)*%
X243120000Y-103000000D03*
%TO.P,U1,6,-*%
%TO.N,unconnected-(U1B---Pad6)*%
X240580000Y-103000000D03*
%TO.P,U1,7*%
%TO.N,unconnected-(U1-Pad7)*%
X238040000Y-103000000D03*
%TO.P,U1,8,V+*%
%TO.N,Net-(U1C-V+)*%
X235500000Y-103000000D03*
%TD*%
D11*
%TO.P,H6,1,1*%
%TO.N,Net-(U1C-V+)*%
X236500000Y-99000000D03*
D10*
X236500000Y-99000000D03*
%TD*%
D15*
%TO.P,R5,1*%
%TO.N,Net-(U1A-+)*%
X224000000Y-119200000D03*
D14*
%TO.P,R5,2*%
%TO.N,Net-(D1-A)*%
X224000000Y-106500000D03*
%TD*%
D15*
%TO.P,R4,1*%
%TO.N,Net-(D1-K)*%
X232000000Y-96000000D03*
D14*
%TO.P,R4,2*%
%TO.N,Net-(R3-Pad1)*%
X232000000Y-108700000D03*
%TD*%
D15*
%TO.P,R7,1*%
%TO.N,Net-(H4-Pad1)*%
X228000000Y-109000000D03*
D14*
%TO.P,R7,2*%
%TO.N,Net-(C4-Pad2)*%
X228000000Y-96300000D03*
%TD*%
D13*
%TO.P,C1,1*%
%TO.N,Net-(C1-Pad1)*%
X230000000Y-128000000D03*
D12*
%TO.P,C1,2*%
%TO.N,Net-(C1-Pad2)*%
X232000000Y-128000000D03*
%TD*%
D15*
%TO.P,R6,1*%
%TO.N,Net-(D2-K)*%
X220000000Y-106650000D03*
D14*
%TO.P,R6,2*%
%TO.N,Net-(U1A-+)*%
X220000000Y-119350000D03*
%TD*%
D11*
%TO.P,H4,1,1*%
%TO.N,Net-(H4-Pad1)*%
X194000000Y-112500000D03*
D10*
X194000000Y-112500000D03*
%TD*%
D13*
%TO.P,C2,1*%
%TO.N,Net-(C2-Pad1)*%
X210500000Y-116500000D03*
D12*
%TO.P,C2,2*%
%TO.N,Net-(C2-Pad2)*%
X210500000Y-114500000D03*
%TD*%
D11*
%TO.P,H2,1,1*%
%TO.N,Net-(C2-Pad1)*%
X210500000Y-121500000D03*
D10*
X210500000Y-121500000D03*
%TD*%
D15*
%TO.P,R3,1*%
%TO.N,Net-(R3-Pad1)*%
X198000000Y-111000000D03*
D14*
%TO.P,R3,2*%
%TO.N,Net-(U1A--)*%
X198000000Y-123700000D03*
%TD*%
D17*
%TO.P,D1,1,K*%
%TO.N,Net-(D1-K)*%
X190000000Y-93500000D03*
D16*
%TO.P,D1,2,A*%
%TO.N,Net-(D1-A)*%
X190000000Y-103660000D03*
%TD*%
D13*
%TO.P,C3,1*%
%TO.N,Net-(D1-K)*%
X199500000Y-92500000D03*
D12*
%TO.P,C3,2*%
%TO.N,Net-(D1-A)*%
X201500000Y-92500000D03*
%TD*%
D17*
%TO.P,D2,1,K*%
%TO.N,Net-(D2-K)*%
X186000000Y-103660000D03*
D16*
%TO.P,D2,2,A*%
%TO.N,Net-(D1-K)*%
X186000000Y-93500000D03*
%TD*%
D15*
%TO.P,R1,1*%
%TO.N,Net-(U1A--)*%
X202000000Y-113500000D03*
D14*
%TO.P,R1,2*%
%TO.N,Net-(C1-Pad2)*%
X202000000Y-126200000D03*
%TD*%
D11*
%TO.P,H1,1,1*%
%TO.N,Net-(C1-Pad1)*%
X210500000Y-127500000D03*
D10*
X210500000Y-127500000D03*
%TD*%
D13*
%TO.P,C4,1*%
%TO.N,Net-(D1-K)*%
X196472600Y-92500000D03*
D12*
%TO.P,C4,2*%
%TO.N,Net-(C4-Pad2)*%
X194472600Y-92500000D03*
%TD*%
D11*
%TO.P,H3,1,1*%
%TO.N,Net-(D1-A)*%
X213380000Y-111000000D03*
D10*
X213380000Y-111000000D03*
%TD*%
D11*
%TO.P,H5,1,1*%
%TO.N,Net-(D1-A)*%
X213380000Y-105000000D03*
D10*
X213380000Y-105000000D03*
%TD*%
D15*
%TO.P,R2,1*%
%TO.N,Net-(U1A-+)*%
X206000000Y-113500000D03*
D14*
%TO.P,R2,2*%
%TO.N,Net-(C2-Pad2)*%
X206000000Y-126200000D03*
%TD*%
D11*
%TO.P,H7,1,1*%
%TO.N,Net-(D2-K)*%
X194000000Y-118500000D03*
D10*
X194000000Y-118500000D03*
%TD*%
D18*
%TO.P,U1,1*%
%TO.N,Net-(R3-Pad1)*%
X201500000Y-110620000D03*
D14*
%TO.P,U1,2,-*%
%TO.N,Net-(U1A--)*%
X204040000Y-110620000D03*
%TO.P,U1,3,+*%
%TO.N,Net-(U1A-+)*%
X206580000Y-110620000D03*
%TO.P,U1,4,V-*%
%TO.N,Net-(D1-A)*%
X209120000Y-110620000D03*
%TO.P,U1,5,+*%
%TO.N,unconnected-(U1B-+-Pad5)*%
X209120000Y-103000000D03*
%TO.P,U1,6,-*%
%TO.N,unconnected-(U1B---Pad6)*%
X206580000Y-103000000D03*
%TO.P,U1,7*%
%TO.N,unconnected-(U1-Pad7)*%
X204040000Y-103000000D03*
%TO.P,U1,8,V+*%
%TO.N,Net-(U1C-V+)*%
X201500000Y-103000000D03*
%TD*%
D11*
%TO.P,H6,1,1*%
%TO.N,Net-(U1C-V+)*%
X202500000Y-99000000D03*
D10*
X202500000Y-99000000D03*
%TD*%
D15*
%TO.P,R5,1*%
%TO.N,Net-(U1A-+)*%
X190000000Y-119200000D03*
D14*
%TO.P,R5,2*%
%TO.N,Net-(D1-A)*%
X190000000Y-106500000D03*
%TD*%
D15*
%TO.P,R4,1*%
%TO.N,Net-(D1-K)*%
X198000000Y-96000000D03*
D14*
%TO.P,R4,2*%
%TO.N,Net-(R3-Pad1)*%
X198000000Y-108700000D03*
%TD*%
D15*
%TO.P,R7,1*%
%TO.N,Net-(H4-Pad1)*%
X194000000Y-109000000D03*
D14*
%TO.P,R7,2*%
%TO.N,Net-(C4-Pad2)*%
X194000000Y-96300000D03*
%TD*%
D13*
%TO.P,C1,1*%
%TO.N,Net-(C1-Pad1)*%
X196000000Y-128000000D03*
D12*
%TO.P,C1,2*%
%TO.N,Net-(C1-Pad2)*%
X198000000Y-128000000D03*
%TD*%
D15*
%TO.P,R6,1*%
%TO.N,Net-(D2-K)*%
X186000000Y-106650000D03*
D14*
%TO.P,R6,2*%
%TO.N,Net-(U1A-+)*%
X186000000Y-119350000D03*
%TD*%
D18*
%TO.P,U1,1*%
%TO.N,Net-(R3-Pad1)*%
X167500000Y-110620000D03*
D14*
%TO.P,U1,2,-*%
%TO.N,Net-(U1A--)*%
X170040000Y-110620000D03*
%TO.P,U1,3,+*%
%TO.N,Net-(U1A-+)*%
X172580000Y-110620000D03*
%TO.P,U1,4,V-*%
%TO.N,Net-(D1-A)*%
X175120000Y-110620000D03*
%TO.P,U1,5,+*%
%TO.N,unconnected-(U1B-+-Pad5)*%
X175120000Y-103000000D03*
%TO.P,U1,6,-*%
%TO.N,unconnected-(U1B---Pad6)*%
X172580000Y-103000000D03*
%TO.P,U1,7*%
%TO.N,unconnected-(U1-Pad7)*%
X170040000Y-103000000D03*
%TO.P,U1,8,V+*%
%TO.N,Net-(U1C-V+)*%
X167500000Y-103000000D03*
%TD*%
D15*
%TO.P,R7,1*%
%TO.N,Net-(H4-Pad1)*%
X160000000Y-109000000D03*
D14*
%TO.P,R7,2*%
%TO.N,Net-(C4-Pad2)*%
X160000000Y-96300000D03*
%TD*%
D15*
%TO.P,R6,1*%
%TO.N,Net-(D2-K)*%
X152000000Y-106650000D03*
D14*
%TO.P,R6,2*%
%TO.N,Net-(U1A-+)*%
X152000000Y-119350000D03*
%TD*%
%TO.P,R5,2*%
%TO.N,Net-(D1-A)*%
X156000000Y-106500000D03*
D15*
%TO.P,R5,1*%
%TO.N,Net-(U1A-+)*%
X156000000Y-119200000D03*
%TD*%
%TO.P,R4,1*%
%TO.N,Net-(D1-K)*%
X164000000Y-96000000D03*
D14*
%TO.P,R4,2*%
%TO.N,Net-(R3-Pad1)*%
X164000000Y-108700000D03*
%TD*%
D15*
%TO.P,R3,1*%
%TO.N,Net-(R3-Pad1)*%
X164000000Y-111000000D03*
D14*
%TO.P,R3,2*%
%TO.N,Net-(U1A--)*%
X164000000Y-123700000D03*
%TD*%
%TO.P,R2,2*%
%TO.N,Net-(C2-Pad2)*%
X172000000Y-126200000D03*
D15*
%TO.P,R2,1*%
%TO.N,Net-(U1A-+)*%
X172000000Y-113500000D03*
%TD*%
D14*
%TO.P,R1,2*%
%TO.N,Net-(C1-Pad2)*%
X168000000Y-126200000D03*
D15*
%TO.P,R1,1*%
%TO.N,Net-(U1A--)*%
X168000000Y-113500000D03*
%TD*%
D11*
%TO.P,H7,1,1*%
%TO.N,Net-(D2-K)*%
X160000000Y-118500000D03*
D10*
X160000000Y-118500000D03*
%TD*%
D11*
%TO.P,H6,1,1*%
%TO.N,Net-(U1C-V+)*%
X168500000Y-99000000D03*
D10*
X168500000Y-99000000D03*
%TD*%
D11*
%TO.P,H5,1,1*%
%TO.N,Net-(D1-A)*%
X179380000Y-105000000D03*
D10*
X179380000Y-105000000D03*
%TD*%
D11*
%TO.P,H4,1,1*%
%TO.N,Net-(H4-Pad1)*%
X160000000Y-112500000D03*
D10*
X160000000Y-112500000D03*
%TD*%
D11*
%TO.P,H3,1,1*%
%TO.N,Net-(D1-A)*%
X179380000Y-111000000D03*
D10*
X179380000Y-111000000D03*
%TD*%
D11*
%TO.P,H2,1,1*%
%TO.N,Net-(C2-Pad1)*%
X176500000Y-121500000D03*
D10*
X176500000Y-121500000D03*
%TD*%
D11*
%TO.P,H1,1,1*%
%TO.N,Net-(C1-Pad1)*%
X176500000Y-127500000D03*
D10*
X176500000Y-127500000D03*
%TD*%
D17*
%TO.P,D2,1,K*%
%TO.N,Net-(D2-K)*%
X152000000Y-103660000D03*
D16*
%TO.P,D2,2,A*%
%TO.N,Net-(D1-K)*%
X152000000Y-93500000D03*
%TD*%
D17*
%TO.P,D1,1,K*%
%TO.N,Net-(D1-K)*%
X156000000Y-93500000D03*
D16*
%TO.P,D1,2,A*%
%TO.N,Net-(D1-A)*%
X156000000Y-103660000D03*
%TD*%
D13*
%TO.P,C4,1*%
%TO.N,Net-(D1-K)*%
X162472600Y-92500000D03*
D12*
%TO.P,C4,2*%
%TO.N,Net-(C4-Pad2)*%
X160472600Y-92500000D03*
%TD*%
D13*
%TO.P,C3,1*%
%TO.N,Net-(D1-K)*%
X165500000Y-92500000D03*
D12*
%TO.P,C3,2*%
%TO.N,Net-(D1-A)*%
X167500000Y-92500000D03*
%TD*%
D13*
%TO.P,C2,1*%
%TO.N,Net-(C2-Pad1)*%
X176500000Y-116500000D03*
D12*
%TO.P,C2,2*%
%TO.N,Net-(C2-Pad2)*%
X176500000Y-114500000D03*
%TD*%
%TO.P,C1,2*%
%TO.N,Net-(C1-Pad2)*%
X164000000Y-128000000D03*
D13*
%TO.P,C1,1*%
%TO.N,Net-(C1-Pad1)*%
X162000000Y-128000000D03*
%TD*%
D19*
%TO.N,Net-(U1A--)*%
X236000000Y-69500000D02*
X238040000Y-67460000D01*
%TO.N,Net-(D2-K)*%
X220000000Y-62650000D02*
X220000000Y-59660000D01*
%TO.N,Net-(U1A--)*%
X238040000Y-67460000D02*
X238040000Y-66620000D01*
%TO.N,Net-(D1-A)*%
X247380000Y-67000000D02*
X243500000Y-67000000D01*
X243500000Y-67000000D02*
X243120000Y-66620000D01*
%TO.N,Net-(C2-Pad1)*%
X244500000Y-77500000D02*
X244500000Y-72500000D01*
%TO.N,Net-(U1A-+)*%
X229500000Y-81000000D02*
X229500000Y-80700000D01*
X229500000Y-80700000D02*
X224000000Y-75200000D01*
X233500000Y-79755635D02*
X233500000Y-81000000D01*
X240000000Y-73255635D02*
X233500000Y-79755635D01*
X240000000Y-69500000D02*
X240000000Y-73255635D01*
X233500000Y-81000000D02*
X229500000Y-81000000D01*
%TO.N,Net-(D1-K)*%
X224000000Y-49500000D02*
X226000000Y-47500000D01*
X229500000Y-47500000D02*
X229500000Y-47527400D01*
X229500000Y-47527400D02*
X230472600Y-48500000D01*
X226000000Y-47500000D02*
X229500000Y-47500000D01*
%TO.N,Net-(U1C-V+)*%
X236500000Y-58000000D02*
X235500000Y-59000000D01*
%TO.N,Net-(D1-K)*%
X230472600Y-48500000D02*
X233500000Y-48500000D01*
%TO.N,Net-(U1A--)*%
X232000000Y-79700000D02*
X232000000Y-73500000D01*
%TO.N,Net-(D1-A)*%
X247380000Y-61000000D02*
X247380000Y-67000000D01*
%TO.N,Net-(D1-K)*%
X233500000Y-49000000D02*
X232000000Y-50500000D01*
X232000000Y-50500000D02*
X232000000Y-52000000D01*
%TO.N,Net-(U1C-V+)*%
X236500000Y-55000000D02*
X236500000Y-58000000D01*
%TO.N,Net-(U1A--)*%
X232000000Y-73500000D02*
X236000000Y-69500000D01*
%TO.N,Net-(D1-K)*%
X233500000Y-48500000D02*
X233500000Y-49000000D01*
%TO.N,Net-(C4-Pad2)*%
X228000000Y-48972600D02*
X228472600Y-48500000D01*
X228000000Y-52300000D02*
X228000000Y-48972600D01*
%TO.N,Net-(D2-K)*%
X220000000Y-66500000D02*
X220000000Y-62650000D01*
%TO.N,Net-(D1-A)*%
X235500000Y-50000000D02*
X238000000Y-52500000D01*
X235500000Y-48500000D02*
X235500000Y-50000000D01*
X238000000Y-52500000D02*
X238000000Y-53388730D01*
X238700000Y-54088730D02*
X238700000Y-54200000D01*
X238000000Y-53388730D02*
X238700000Y-54088730D01*
X247000000Y-61000000D02*
X247380000Y-61000000D01*
%TO.N,Net-(U1A-+)*%
X240580000Y-66620000D02*
X240580000Y-68920000D01*
%TO.N,Net-(D1-A)*%
X243000000Y-57000000D02*
X247000000Y-61000000D01*
X238700000Y-54200000D02*
X241500000Y-57000000D01*
X224000000Y-62500000D02*
X224000000Y-59660000D01*
%TO.N,Net-(D1-K)*%
X220000000Y-49500000D02*
X224000000Y-49500000D01*
%TO.N,Net-(D1-A)*%
X241500000Y-57000000D02*
X243000000Y-57000000D01*
%TO.N,Net-(D2-K)*%
X228000000Y-74500000D02*
X220000000Y-66500000D01*
%TO.N,Net-(U1A-+)*%
X240580000Y-68920000D02*
X240000000Y-69500000D01*
%TO.N,Net-(R3-Pad1)*%
X232000000Y-67000000D02*
X232000000Y-64700000D01*
%TO.N,Net-(U1A-+)*%
X224000000Y-75200000D02*
X220150000Y-75200000D01*
X220150000Y-75200000D02*
X220000000Y-75350000D01*
%TO.N,Net-(H4-Pad1)*%
X228000000Y-68500000D02*
X228000000Y-65000000D01*
%TO.N,Net-(R3-Pad1)*%
X235500000Y-66620000D02*
X232380000Y-66620000D01*
X232380000Y-66620000D02*
X232000000Y-67000000D01*
%TO.N,Net-(C1-Pad1)*%
X232372793Y-84900000D02*
X230900000Y-84900000D01*
X244500000Y-83500000D02*
X233065686Y-83500000D01*
X232900000Y-84372793D02*
X232372793Y-84900000D01*
X230900000Y-84900000D02*
X230000000Y-84000000D01*
X233065686Y-83500000D02*
X232900000Y-83665686D01*
X232900000Y-83665686D02*
X232900000Y-84372793D01*
%TO.N,Net-(D1-A)*%
X224000000Y-59660000D02*
X226840000Y-59660000D01*
X226840000Y-59660000D02*
X235500000Y-51000000D01*
X235500000Y-51000000D02*
X235500000Y-48500000D01*
%TO.N,Net-(C2-Pad2)*%
X240000000Y-82200000D02*
X240000000Y-75000000D01*
%TO.N,Net-(C1-Pad2)*%
X232000000Y-84000000D02*
X233800000Y-82200000D01*
%TO.N,Net-(C2-Pad2)*%
X240000000Y-75000000D02*
X244500000Y-70500000D01*
%TO.N,Net-(C1-Pad2)*%
X233800000Y-82200000D02*
X236000000Y-82200000D01*
%TO.N,Net-(U1A--)*%
X202000000Y-69500000D02*
X204040000Y-67460000D01*
%TO.N,Net-(D2-K)*%
X186000000Y-62650000D02*
X186000000Y-59660000D01*
%TO.N,Net-(U1A--)*%
X204040000Y-67460000D02*
X204040000Y-66620000D01*
%TO.N,Net-(D1-A)*%
X213380000Y-67000000D02*
X209500000Y-67000000D01*
X209500000Y-67000000D02*
X209120000Y-66620000D01*
%TO.N,Net-(C2-Pad1)*%
X210500000Y-77500000D02*
X210500000Y-72500000D01*
%TO.N,Net-(U1A-+)*%
X195500000Y-81000000D02*
X195500000Y-80700000D01*
X195500000Y-80700000D02*
X190000000Y-75200000D01*
X199500000Y-79755635D02*
X199500000Y-81000000D01*
X206000000Y-73255635D02*
X199500000Y-79755635D01*
X206000000Y-69500000D02*
X206000000Y-73255635D01*
X199500000Y-81000000D02*
X195500000Y-81000000D01*
%TO.N,Net-(D1-K)*%
X190000000Y-49500000D02*
X192000000Y-47500000D01*
X195500000Y-47500000D02*
X195500000Y-47527400D01*
X195500000Y-47527400D02*
X196472600Y-48500000D01*
X192000000Y-47500000D02*
X195500000Y-47500000D01*
%TO.N,Net-(U1C-V+)*%
X202500000Y-58000000D02*
X201500000Y-59000000D01*
%TO.N,Net-(D1-K)*%
X196472600Y-48500000D02*
X199500000Y-48500000D01*
%TO.N,Net-(U1A--)*%
X198000000Y-79700000D02*
X198000000Y-73500000D01*
%TO.N,Net-(D1-A)*%
X213380000Y-61000000D02*
X213380000Y-67000000D01*
%TO.N,Net-(D1-K)*%
X199500000Y-49000000D02*
X198000000Y-50500000D01*
X198000000Y-50500000D02*
X198000000Y-52000000D01*
%TO.N,Net-(U1C-V+)*%
X202500000Y-55000000D02*
X202500000Y-58000000D01*
%TO.N,Net-(U1A--)*%
X198000000Y-73500000D02*
X202000000Y-69500000D01*
%TO.N,Net-(D1-K)*%
X199500000Y-48500000D02*
X199500000Y-49000000D01*
%TO.N,Net-(C4-Pad2)*%
X194000000Y-48972600D02*
X194472600Y-48500000D01*
X194000000Y-52300000D02*
X194000000Y-48972600D01*
%TO.N,Net-(D2-K)*%
X186000000Y-66500000D02*
X186000000Y-62650000D01*
%TO.N,Net-(D1-A)*%
X201500000Y-50000000D02*
X204000000Y-52500000D01*
X201500000Y-48500000D02*
X201500000Y-50000000D01*
X204000000Y-52500000D02*
X204000000Y-53388730D01*
X204700000Y-54088730D02*
X204700000Y-54200000D01*
X204000000Y-53388730D02*
X204700000Y-54088730D01*
X213000000Y-61000000D02*
X213380000Y-61000000D01*
%TO.N,Net-(U1A-+)*%
X206580000Y-66620000D02*
X206580000Y-68920000D01*
%TO.N,Net-(D1-A)*%
X209000000Y-57000000D02*
X213000000Y-61000000D01*
X204700000Y-54200000D02*
X207500000Y-57000000D01*
X190000000Y-62500000D02*
X190000000Y-59660000D01*
%TO.N,Net-(D1-K)*%
X186000000Y-49500000D02*
X190000000Y-49500000D01*
%TO.N,Net-(D1-A)*%
X207500000Y-57000000D02*
X209000000Y-57000000D01*
%TO.N,Net-(D2-K)*%
X194000000Y-74500000D02*
X186000000Y-66500000D01*
%TO.N,Net-(U1A-+)*%
X206580000Y-68920000D02*
X206000000Y-69500000D01*
%TO.N,Net-(R3-Pad1)*%
X198000000Y-67000000D02*
X198000000Y-64700000D01*
%TO.N,Net-(U1A-+)*%
X190000000Y-75200000D02*
X186150000Y-75200000D01*
X186150000Y-75200000D02*
X186000000Y-75350000D01*
%TO.N,Net-(H4-Pad1)*%
X194000000Y-68500000D02*
X194000000Y-65000000D01*
%TO.N,Net-(R3-Pad1)*%
X201500000Y-66620000D02*
X198380000Y-66620000D01*
X198380000Y-66620000D02*
X198000000Y-67000000D01*
%TO.N,Net-(C1-Pad1)*%
X198372793Y-84900000D02*
X196900000Y-84900000D01*
X210500000Y-83500000D02*
X199065686Y-83500000D01*
X198900000Y-84372793D02*
X198372793Y-84900000D01*
X196900000Y-84900000D02*
X196000000Y-84000000D01*
X199065686Y-83500000D02*
X198900000Y-83665686D01*
X198900000Y-83665686D02*
X198900000Y-84372793D01*
%TO.N,Net-(D1-A)*%
X190000000Y-59660000D02*
X192840000Y-59660000D01*
X192840000Y-59660000D02*
X201500000Y-51000000D01*
X201500000Y-51000000D02*
X201500000Y-48500000D01*
%TO.N,Net-(C2-Pad2)*%
X206000000Y-82200000D02*
X206000000Y-75000000D01*
%TO.N,Net-(C1-Pad2)*%
X198000000Y-84000000D02*
X199800000Y-82200000D01*
%TO.N,Net-(C2-Pad2)*%
X206000000Y-75000000D02*
X210500000Y-70500000D01*
%TO.N,Net-(C1-Pad2)*%
X199800000Y-82200000D02*
X202000000Y-82200000D01*
%TO.N,Net-(U1A--)*%
X168000000Y-69500000D02*
X170040000Y-67460000D01*
%TO.N,Net-(D2-K)*%
X152000000Y-62650000D02*
X152000000Y-59660000D01*
%TO.N,Net-(U1A--)*%
X170040000Y-67460000D02*
X170040000Y-66620000D01*
%TO.N,Net-(D1-A)*%
X179380000Y-67000000D02*
X175500000Y-67000000D01*
X175500000Y-67000000D02*
X175120000Y-66620000D01*
%TO.N,Net-(C2-Pad1)*%
X176500000Y-77500000D02*
X176500000Y-72500000D01*
%TO.N,Net-(U1A-+)*%
X161500000Y-81000000D02*
X161500000Y-80700000D01*
X161500000Y-80700000D02*
X156000000Y-75200000D01*
X165500000Y-79755635D02*
X165500000Y-81000000D01*
X172000000Y-73255635D02*
X165500000Y-79755635D01*
X172000000Y-69500000D02*
X172000000Y-73255635D01*
X165500000Y-81000000D02*
X161500000Y-81000000D01*
%TO.N,Net-(D1-K)*%
X156000000Y-49500000D02*
X158000000Y-47500000D01*
X161500000Y-47500000D02*
X161500000Y-47527400D01*
X161500000Y-47527400D02*
X162472600Y-48500000D01*
X158000000Y-47500000D02*
X161500000Y-47500000D01*
%TO.N,Net-(U1C-V+)*%
X168500000Y-58000000D02*
X167500000Y-59000000D01*
%TO.N,Net-(D1-K)*%
X162472600Y-48500000D02*
X165500000Y-48500000D01*
%TO.N,Net-(U1A--)*%
X164000000Y-79700000D02*
X164000000Y-73500000D01*
%TO.N,Net-(D1-A)*%
X179380000Y-61000000D02*
X179380000Y-67000000D01*
%TO.N,Net-(D1-K)*%
X165500000Y-49000000D02*
X164000000Y-50500000D01*
X164000000Y-50500000D02*
X164000000Y-52000000D01*
%TO.N,Net-(U1C-V+)*%
X168500000Y-55000000D02*
X168500000Y-58000000D01*
%TO.N,Net-(U1A--)*%
X164000000Y-73500000D02*
X168000000Y-69500000D01*
%TO.N,Net-(D1-K)*%
X165500000Y-48500000D02*
X165500000Y-49000000D01*
%TO.N,Net-(C4-Pad2)*%
X160000000Y-48972600D02*
X160472600Y-48500000D01*
X160000000Y-52300000D02*
X160000000Y-48972600D01*
%TO.N,Net-(D2-K)*%
X152000000Y-66500000D02*
X152000000Y-62650000D01*
%TO.N,Net-(D1-A)*%
X167500000Y-50000000D02*
X170000000Y-52500000D01*
X167500000Y-48500000D02*
X167500000Y-50000000D01*
X170000000Y-52500000D02*
X170000000Y-53388730D01*
X170700000Y-54088730D02*
X170700000Y-54200000D01*
X170000000Y-53388730D02*
X170700000Y-54088730D01*
X179000000Y-61000000D02*
X179380000Y-61000000D01*
%TO.N,Net-(U1A-+)*%
X172580000Y-66620000D02*
X172580000Y-68920000D01*
%TO.N,Net-(D1-A)*%
X175000000Y-57000000D02*
X179000000Y-61000000D01*
X170700000Y-54200000D02*
X173500000Y-57000000D01*
X156000000Y-62500000D02*
X156000000Y-59660000D01*
%TO.N,Net-(D1-K)*%
X152000000Y-49500000D02*
X156000000Y-49500000D01*
%TO.N,Net-(D1-A)*%
X173500000Y-57000000D02*
X175000000Y-57000000D01*
%TO.N,Net-(D2-K)*%
X160000000Y-74500000D02*
X152000000Y-66500000D01*
%TO.N,Net-(U1A-+)*%
X172580000Y-68920000D02*
X172000000Y-69500000D01*
%TO.N,Net-(R3-Pad1)*%
X164000000Y-67000000D02*
X164000000Y-64700000D01*
%TO.N,Net-(U1A-+)*%
X156000000Y-75200000D02*
X152150000Y-75200000D01*
X152150000Y-75200000D02*
X152000000Y-75350000D01*
%TO.N,Net-(H4-Pad1)*%
X160000000Y-68500000D02*
X160000000Y-65000000D01*
%TO.N,Net-(R3-Pad1)*%
X167500000Y-66620000D02*
X164380000Y-66620000D01*
X164380000Y-66620000D02*
X164000000Y-67000000D01*
%TO.N,Net-(C1-Pad1)*%
X164372793Y-84900000D02*
X162900000Y-84900000D01*
X176500000Y-83500000D02*
X165065686Y-83500000D01*
X164900000Y-84372793D02*
X164372793Y-84900000D01*
X162900000Y-84900000D02*
X162000000Y-84000000D01*
X165065686Y-83500000D02*
X164900000Y-83665686D01*
X164900000Y-83665686D02*
X164900000Y-84372793D01*
%TO.N,Net-(D1-A)*%
X156000000Y-59660000D02*
X158840000Y-59660000D01*
X158840000Y-59660000D02*
X167500000Y-51000000D01*
X167500000Y-51000000D02*
X167500000Y-48500000D01*
%TO.N,Net-(C2-Pad2)*%
X172000000Y-82200000D02*
X172000000Y-75000000D01*
%TO.N,Net-(C1-Pad2)*%
X164000000Y-84000000D02*
X165800000Y-82200000D01*
%TO.N,Net-(C2-Pad2)*%
X172000000Y-75000000D02*
X176500000Y-70500000D01*
%TO.N,Net-(C1-Pad2)*%
X165800000Y-82200000D02*
X168000000Y-82200000D01*
%TO.N,Net-(U1A--)*%
X236000000Y-113500000D02*
X238040000Y-111460000D01*
%TO.N,Net-(D2-K)*%
X220000000Y-106650000D02*
X220000000Y-103660000D01*
%TO.N,Net-(U1A--)*%
X238040000Y-111460000D02*
X238040000Y-110620000D01*
%TO.N,Net-(D1-A)*%
X247380000Y-111000000D02*
X243500000Y-111000000D01*
X243500000Y-111000000D02*
X243120000Y-110620000D01*
%TO.N,Net-(C2-Pad1)*%
X244500000Y-121500000D02*
X244500000Y-116500000D01*
%TO.N,Net-(U1A-+)*%
X229500000Y-125000000D02*
X229500000Y-124700000D01*
X229500000Y-124700000D02*
X224000000Y-119200000D01*
X233500000Y-123755635D02*
X233500000Y-125000000D01*
X240000000Y-117255635D02*
X233500000Y-123755635D01*
X240000000Y-113500000D02*
X240000000Y-117255635D01*
X233500000Y-125000000D02*
X229500000Y-125000000D01*
%TO.N,Net-(D1-K)*%
X224000000Y-93500000D02*
X226000000Y-91500000D01*
X229500000Y-91500000D02*
X229500000Y-91527400D01*
X229500000Y-91527400D02*
X230472600Y-92500000D01*
X226000000Y-91500000D02*
X229500000Y-91500000D01*
%TO.N,Net-(U1C-V+)*%
X236500000Y-102000000D02*
X235500000Y-103000000D01*
%TO.N,Net-(D1-K)*%
X230472600Y-92500000D02*
X233500000Y-92500000D01*
%TO.N,Net-(U1A--)*%
X232000000Y-123700000D02*
X232000000Y-117500000D01*
%TO.N,Net-(D1-A)*%
X247380000Y-105000000D02*
X247380000Y-111000000D01*
%TO.N,Net-(D1-K)*%
X233500000Y-93000000D02*
X232000000Y-94500000D01*
X232000000Y-94500000D02*
X232000000Y-96000000D01*
%TO.N,Net-(U1C-V+)*%
X236500000Y-99000000D02*
X236500000Y-102000000D01*
%TO.N,Net-(U1A--)*%
X232000000Y-117500000D02*
X236000000Y-113500000D01*
%TO.N,Net-(D1-K)*%
X233500000Y-92500000D02*
X233500000Y-93000000D01*
%TO.N,Net-(C4-Pad2)*%
X228000000Y-92972600D02*
X228472600Y-92500000D01*
X228000000Y-96300000D02*
X228000000Y-92972600D01*
%TO.N,Net-(D2-K)*%
X220000000Y-110500000D02*
X220000000Y-106650000D01*
%TO.N,Net-(D1-A)*%
X235500000Y-94000000D02*
X238000000Y-96500000D01*
X235500000Y-92500000D02*
X235500000Y-94000000D01*
X238000000Y-96500000D02*
X238000000Y-97388730D01*
X238700000Y-98088730D02*
X238700000Y-98200000D01*
X238000000Y-97388730D02*
X238700000Y-98088730D01*
X247000000Y-105000000D02*
X247380000Y-105000000D01*
%TO.N,Net-(U1A-+)*%
X240580000Y-110620000D02*
X240580000Y-112920000D01*
%TO.N,Net-(D1-A)*%
X243000000Y-101000000D02*
X247000000Y-105000000D01*
X238700000Y-98200000D02*
X241500000Y-101000000D01*
X224000000Y-106500000D02*
X224000000Y-103660000D01*
%TO.N,Net-(D1-K)*%
X220000000Y-93500000D02*
X224000000Y-93500000D01*
%TO.N,Net-(D1-A)*%
X241500000Y-101000000D02*
X243000000Y-101000000D01*
%TO.N,Net-(D2-K)*%
X228000000Y-118500000D02*
X220000000Y-110500000D01*
%TO.N,Net-(U1A-+)*%
X240580000Y-112920000D02*
X240000000Y-113500000D01*
%TO.N,Net-(R3-Pad1)*%
X232000000Y-111000000D02*
X232000000Y-108700000D01*
%TO.N,Net-(U1A-+)*%
X224000000Y-119200000D02*
X220150000Y-119200000D01*
X220150000Y-119200000D02*
X220000000Y-119350000D01*
%TO.N,Net-(H4-Pad1)*%
X228000000Y-112500000D02*
X228000000Y-109000000D01*
%TO.N,Net-(R3-Pad1)*%
X235500000Y-110620000D02*
X232380000Y-110620000D01*
X232380000Y-110620000D02*
X232000000Y-111000000D01*
%TO.N,Net-(C1-Pad1)*%
X232372793Y-128900000D02*
X230900000Y-128900000D01*
X244500000Y-127500000D02*
X233065686Y-127500000D01*
X232900000Y-128372793D02*
X232372793Y-128900000D01*
X230900000Y-128900000D02*
X230000000Y-128000000D01*
X233065686Y-127500000D02*
X232900000Y-127665686D01*
X232900000Y-127665686D02*
X232900000Y-128372793D01*
%TO.N,Net-(D1-A)*%
X224000000Y-103660000D02*
X226840000Y-103660000D01*
X226840000Y-103660000D02*
X235500000Y-95000000D01*
X235500000Y-95000000D02*
X235500000Y-92500000D01*
%TO.N,Net-(C2-Pad2)*%
X240000000Y-126200000D02*
X240000000Y-119000000D01*
%TO.N,Net-(C1-Pad2)*%
X232000000Y-128000000D02*
X233800000Y-126200000D01*
%TO.N,Net-(C2-Pad2)*%
X240000000Y-119000000D02*
X244500000Y-114500000D01*
%TO.N,Net-(C1-Pad2)*%
X233800000Y-126200000D02*
X236000000Y-126200000D01*
%TO.N,Net-(U1A--)*%
X202000000Y-113500000D02*
X204040000Y-111460000D01*
%TO.N,Net-(D2-K)*%
X186000000Y-106650000D02*
X186000000Y-103660000D01*
%TO.N,Net-(U1A--)*%
X204040000Y-111460000D02*
X204040000Y-110620000D01*
%TO.N,Net-(D1-A)*%
X213380000Y-111000000D02*
X209500000Y-111000000D01*
X209500000Y-111000000D02*
X209120000Y-110620000D01*
%TO.N,Net-(C2-Pad1)*%
X210500000Y-121500000D02*
X210500000Y-116500000D01*
%TO.N,Net-(U1A-+)*%
X195500000Y-125000000D02*
X195500000Y-124700000D01*
X195500000Y-124700000D02*
X190000000Y-119200000D01*
X199500000Y-123755635D02*
X199500000Y-125000000D01*
X206000000Y-117255635D02*
X199500000Y-123755635D01*
X206000000Y-113500000D02*
X206000000Y-117255635D01*
X199500000Y-125000000D02*
X195500000Y-125000000D01*
%TO.N,Net-(D1-K)*%
X190000000Y-93500000D02*
X192000000Y-91500000D01*
X195500000Y-91500000D02*
X195500000Y-91527400D01*
X195500000Y-91527400D02*
X196472600Y-92500000D01*
X192000000Y-91500000D02*
X195500000Y-91500000D01*
%TO.N,Net-(U1C-V+)*%
X202500000Y-102000000D02*
X201500000Y-103000000D01*
%TO.N,Net-(D1-K)*%
X196472600Y-92500000D02*
X199500000Y-92500000D01*
%TO.N,Net-(U1A--)*%
X198000000Y-123700000D02*
X198000000Y-117500000D01*
%TO.N,Net-(D1-A)*%
X213380000Y-105000000D02*
X213380000Y-111000000D01*
%TO.N,Net-(D1-K)*%
X199500000Y-93000000D02*
X198000000Y-94500000D01*
X198000000Y-94500000D02*
X198000000Y-96000000D01*
%TO.N,Net-(U1C-V+)*%
X202500000Y-99000000D02*
X202500000Y-102000000D01*
%TO.N,Net-(U1A--)*%
X198000000Y-117500000D02*
X202000000Y-113500000D01*
%TO.N,Net-(D1-K)*%
X199500000Y-92500000D02*
X199500000Y-93000000D01*
%TO.N,Net-(C4-Pad2)*%
X194000000Y-92972600D02*
X194472600Y-92500000D01*
X194000000Y-96300000D02*
X194000000Y-92972600D01*
%TO.N,Net-(D2-K)*%
X186000000Y-110500000D02*
X186000000Y-106650000D01*
%TO.N,Net-(D1-A)*%
X201500000Y-94000000D02*
X204000000Y-96500000D01*
X201500000Y-92500000D02*
X201500000Y-94000000D01*
X204000000Y-96500000D02*
X204000000Y-97388730D01*
X204700000Y-98088730D02*
X204700000Y-98200000D01*
X204000000Y-97388730D02*
X204700000Y-98088730D01*
X213000000Y-105000000D02*
X213380000Y-105000000D01*
%TO.N,Net-(U1A-+)*%
X206580000Y-110620000D02*
X206580000Y-112920000D01*
%TO.N,Net-(D1-A)*%
X209000000Y-101000000D02*
X213000000Y-105000000D01*
X204700000Y-98200000D02*
X207500000Y-101000000D01*
X190000000Y-106500000D02*
X190000000Y-103660000D01*
%TO.N,Net-(D1-K)*%
X186000000Y-93500000D02*
X190000000Y-93500000D01*
%TO.N,Net-(D1-A)*%
X207500000Y-101000000D02*
X209000000Y-101000000D01*
%TO.N,Net-(D2-K)*%
X194000000Y-118500000D02*
X186000000Y-110500000D01*
%TO.N,Net-(U1A-+)*%
X206580000Y-112920000D02*
X206000000Y-113500000D01*
%TO.N,Net-(R3-Pad1)*%
X198000000Y-111000000D02*
X198000000Y-108700000D01*
%TO.N,Net-(U1A-+)*%
X190000000Y-119200000D02*
X186150000Y-119200000D01*
X186150000Y-119200000D02*
X186000000Y-119350000D01*
%TO.N,Net-(H4-Pad1)*%
X194000000Y-112500000D02*
X194000000Y-109000000D01*
%TO.N,Net-(R3-Pad1)*%
X201500000Y-110620000D02*
X198380000Y-110620000D01*
X198380000Y-110620000D02*
X198000000Y-111000000D01*
%TO.N,Net-(C1-Pad1)*%
X198372793Y-128900000D02*
X196900000Y-128900000D01*
X210500000Y-127500000D02*
X199065686Y-127500000D01*
X198900000Y-128372793D02*
X198372793Y-128900000D01*
X196900000Y-128900000D02*
X196000000Y-128000000D01*
X199065686Y-127500000D02*
X198900000Y-127665686D01*
X198900000Y-127665686D02*
X198900000Y-128372793D01*
%TO.N,Net-(D1-A)*%
X190000000Y-103660000D02*
X192840000Y-103660000D01*
X192840000Y-103660000D02*
X201500000Y-95000000D01*
X201500000Y-95000000D02*
X201500000Y-92500000D01*
%TO.N,Net-(C2-Pad2)*%
X206000000Y-126200000D02*
X206000000Y-119000000D01*
%TO.N,Net-(C1-Pad2)*%
X198000000Y-128000000D02*
X199800000Y-126200000D01*
%TO.N,Net-(C2-Pad2)*%
X206000000Y-119000000D02*
X210500000Y-114500000D01*
%TO.N,Net-(C1-Pad2)*%
X199800000Y-126200000D02*
X202000000Y-126200000D01*
%TO.N,Net-(C1-Pad1)*%
X176500000Y-127500000D02*
X165065686Y-127500000D01*
X165065686Y-127500000D02*
X164900000Y-127665686D01*
X164372793Y-128900000D02*
X162900000Y-128900000D01*
X164900000Y-127665686D02*
X164900000Y-128372793D01*
X164900000Y-128372793D02*
X164372793Y-128900000D01*
X162900000Y-128900000D02*
X162000000Y-128000000D01*
%TO.N,Net-(D1-A)*%
X156000000Y-103660000D02*
X158840000Y-103660000D01*
X158840000Y-103660000D02*
X167500000Y-95000000D01*
X167500000Y-95000000D02*
X167500000Y-92500000D01*
X167500000Y-94000000D02*
X170000000Y-96500000D01*
X173500000Y-101000000D02*
X175000000Y-101000000D01*
X170000000Y-97388730D02*
X170700000Y-98088730D01*
X170000000Y-96500000D02*
X170000000Y-97388730D01*
X170700000Y-98088730D02*
X170700000Y-98200000D01*
X167500000Y-92500000D02*
X167500000Y-94000000D01*
X170700000Y-98200000D02*
X173500000Y-101000000D01*
X179000000Y-105000000D02*
X179380000Y-105000000D01*
X175000000Y-101000000D02*
X179000000Y-105000000D01*
%TO.N,Net-(U1A-+)*%
X172000000Y-113500000D02*
X172000000Y-117255635D01*
X172000000Y-117255635D02*
X165500000Y-123755635D01*
X165500000Y-123755635D02*
X165500000Y-125000000D01*
X165500000Y-125000000D02*
X161500000Y-125000000D01*
X161500000Y-125000000D02*
X161500000Y-124700000D01*
X161500000Y-124700000D02*
X156000000Y-119200000D01*
%TO.N,Net-(H4-Pad1)*%
X160000000Y-112500000D02*
X160000000Y-109000000D01*
%TO.N,Net-(R3-Pad1)*%
X164000000Y-111000000D02*
X164000000Y-108700000D01*
X167500000Y-110620000D02*
X164380000Y-110620000D01*
X164380000Y-110620000D02*
X164000000Y-111000000D01*
%TO.N,Net-(U1C-V+)*%
X168500000Y-99000000D02*
X168500000Y-102000000D01*
X168500000Y-102000000D02*
X167500000Y-103000000D01*
%TO.N,Net-(C4-Pad2)*%
X160000000Y-96300000D02*
X160000000Y-92972600D01*
X160000000Y-92972600D02*
X160472600Y-92500000D01*
%TO.N,Net-(D1-A)*%
X156000000Y-106500000D02*
X156000000Y-103660000D01*
%TO.N,Net-(D2-K)*%
X152000000Y-106650000D02*
X152000000Y-103660000D01*
X160000000Y-118500000D02*
X152000000Y-110500000D01*
X152000000Y-110500000D02*
X152000000Y-106650000D01*
%TO.N,Net-(U1A--)*%
X164000000Y-123700000D02*
X164000000Y-117500000D01*
X164000000Y-117500000D02*
X168000000Y-113500000D01*
%TO.N,Net-(U1A-+)*%
X156000000Y-119200000D02*
X152150000Y-119200000D01*
X152150000Y-119200000D02*
X152000000Y-119350000D01*
%TO.N,Net-(C2-Pad2)*%
X172000000Y-126200000D02*
X172000000Y-119000000D01*
X172000000Y-119000000D02*
X176500000Y-114500000D01*
%TO.N,Net-(C1-Pad2)*%
X164000000Y-128000000D02*
X165800000Y-126200000D01*
X165800000Y-126200000D02*
X168000000Y-126200000D01*
%TO.N,Net-(C2-Pad1)*%
X176500000Y-121500000D02*
X176500000Y-116500000D01*
%TO.N,Net-(U1A--)*%
X168000000Y-113500000D02*
X170040000Y-111460000D01*
X170040000Y-111460000D02*
X170040000Y-110620000D01*
%TO.N,Net-(U1A-+)*%
X172580000Y-110620000D02*
X172580000Y-112920000D01*
X172580000Y-112920000D02*
X172000000Y-113500000D01*
%TO.N,Net-(D1-A)*%
X179380000Y-111000000D02*
X175500000Y-111000000D01*
X175500000Y-111000000D02*
X175120000Y-110620000D01*
X179380000Y-105000000D02*
X179380000Y-111000000D01*
%TO.N,Net-(D1-K)*%
X165500000Y-92500000D02*
X165500000Y-93000000D01*
X165500000Y-93000000D02*
X164000000Y-94500000D01*
X164000000Y-94500000D02*
X164000000Y-96000000D01*
X162472600Y-92500000D02*
X165500000Y-92500000D01*
X158000000Y-91500000D02*
X161500000Y-91500000D01*
X156000000Y-93500000D02*
X158000000Y-91500000D01*
X161500000Y-91527400D02*
X162472600Y-92500000D01*
X161500000Y-91500000D02*
X161500000Y-91527400D01*
X152000000Y-93500000D02*
X156000000Y-93500000D01*
%TD*%
M02*
