M48
; DRILL file {KiCad 8.0.1} date 2024-05-08T16:13:36-0400
; FORMAT={-:-/ absolute / inch / decimal}
; #@! TF.CreationDate,2024-05-08T16:13:36-04:00
; #@! TF.GenerationSoftware,Kicad,Pcbnew,8.0.1
; #@! TF.FileFunction,Plated,1,2,PTH
FMAT,2
INCH
; #@! TA.AperFunction,Plated,PTH,ComponentDrill
T1C0.0236
; #@! TA.AperFunction,Plated,PTH,ComponentDrill
T2C0.0315
; #@! TA.AperFunction,Plated,PTH,ComponentDrill
T3C0.0433
; #@! TA.AperFunction,Plated,PTH,ComponentDrill
T4C0.0866
%
G90
G05
T1
X6.3178Y-1.9094
X6.3178Y-3.6417
X6.378Y-3.3071
X6.378Y-5.0394
X6.3966Y-1.9094
X6.3966Y-3.6417
X6.4567Y-3.3071
X6.4567Y-5.0394
X6.5157Y-1.9094
X6.5157Y-3.6417
X6.5945Y-1.9094
X6.5945Y-3.6417
X6.9488Y-2.7756
X6.9488Y-2.8543
X6.9488Y-4.5079
X6.9488Y-4.5866
X7.6564Y-1.9094
X7.6564Y-3.6417
X7.7165Y-3.3071
X7.7165Y-5.0394
X7.7351Y-1.9094
X7.7351Y-3.6417
X7.7953Y-3.3071
X7.7953Y-5.0394
X7.8543Y-1.9094
X7.8543Y-3.6417
X7.9331Y-1.9094
X7.9331Y-3.6417
X8.2874Y-2.7756
X8.2874Y-2.8543
X8.2874Y-4.5079
X8.2874Y-4.5866
X8.995Y-1.9094
X8.995Y-3.6417
X9.0551Y-3.3071
X9.0551Y-5.0394
X9.0737Y-1.9094
X9.0737Y-3.6417
X9.1339Y-3.3071
X9.1339Y-5.0394
X9.1929Y-1.9094
X9.1929Y-3.6417
X9.2717Y-1.9094
X9.2717Y-3.6417
X9.626Y-2.7756
X9.626Y-2.8543
X9.626Y-4.5079
X9.626Y-4.5866
T2
X5.9843Y-2.4665
X5.9843Y-2.9665
X5.9843Y-4.1988
X5.9843Y-4.6988
X6.1417Y-2.4606
X6.1417Y-2.9606
X6.1417Y-4.1929
X6.1417Y-4.6929
X6.2992Y-2.0591
X6.2992Y-2.5591
X6.2992Y-3.7913
X6.2992Y-4.2913
X6.4567Y-2.0472
X6.4567Y-2.5472
X6.4567Y-2.6378
X6.4567Y-3.1378
X6.4567Y-3.7795
X6.4567Y-4.2795
X6.4567Y-4.3701
X6.4567Y-4.8701
X6.5945Y-2.3228
X6.5945Y-2.6228
X6.5945Y-4.0551
X6.5945Y-4.3551
X6.6142Y-2.7362
X6.6142Y-3.2362
X6.6142Y-4.4685
X6.6142Y-4.9685
X6.6945Y-2.3228
X6.6945Y-2.6228
X6.6945Y-4.0551
X6.6945Y-4.3551
X6.7717Y-2.7362
X6.7717Y-3.2362
X6.7717Y-4.4685
X6.7717Y-4.9685
X6.7945Y-2.3228
X6.7945Y-2.6228
X6.7945Y-4.0551
X6.7945Y-4.3551
X6.8945Y-2.3228
X6.8945Y-2.6228
X6.8945Y-4.0551
X6.8945Y-4.3551
X7.3228Y-2.4665
X7.3228Y-2.9665
X7.3228Y-4.1988
X7.3228Y-4.6988
X7.4803Y-2.4606
X7.4803Y-2.9606
X7.4803Y-4.1929
X7.4803Y-4.6929
X7.6378Y-2.0591
X7.6378Y-2.5591
X7.6378Y-3.7913
X7.6378Y-4.2913
X7.7953Y-2.0472
X7.7953Y-2.5472
X7.7953Y-2.6378
X7.7953Y-3.1378
X7.7953Y-3.7795
X7.7953Y-4.2795
X7.7953Y-4.3701
X7.7953Y-4.8701
X7.9331Y-2.3228
X7.9331Y-2.6228
X7.9331Y-4.0551
X7.9331Y-4.3551
X7.9528Y-2.7362
X7.9528Y-3.2362
X7.9528Y-4.4685
X7.9528Y-4.9685
X8.0331Y-2.3228
X8.0331Y-2.6228
X8.0331Y-4.0551
X8.0331Y-4.3551
X8.1102Y-2.7362
X8.1102Y-3.2362
X8.1102Y-4.4685
X8.1102Y-4.9685
X8.1331Y-2.3228
X8.1331Y-2.6228
X8.1331Y-4.0551
X8.1331Y-4.3551
X8.2331Y-2.3228
X8.2331Y-2.6228
X8.2331Y-4.0551
X8.2331Y-4.3551
X8.6614Y-2.4665
X8.6614Y-2.9665
X8.6614Y-4.1988
X8.6614Y-4.6988
X8.8189Y-2.4606
X8.8189Y-2.9606
X8.8189Y-4.1929
X8.8189Y-4.6929
X8.9764Y-2.0591
X8.9764Y-2.5591
X8.9764Y-3.7913
X8.9764Y-4.2913
X9.1339Y-2.0472
X9.1339Y-2.5472
X9.1339Y-2.6378
X9.1339Y-3.1378
X9.1339Y-3.7795
X9.1339Y-4.2795
X9.1339Y-4.3701
X9.1339Y-4.8701
X9.2717Y-2.3228
X9.2717Y-2.6228
X9.2717Y-4.0551
X9.2717Y-4.3551
X9.2913Y-2.7362
X9.2913Y-3.2362
X9.2913Y-4.4685
X9.2913Y-4.9685
X9.3717Y-2.3228
X9.3717Y-2.6228
X9.3717Y-4.0551
X9.3717Y-4.3551
X9.4488Y-2.7362
X9.4488Y-3.2362
X9.4488Y-4.4685
X9.4488Y-4.9685
X9.4717Y-2.3228
X9.4717Y-2.6228
X9.4717Y-4.0551
X9.4717Y-4.3551
X9.5717Y-2.3228
X9.5717Y-2.6228
X9.5717Y-4.0551
X9.5717Y-4.3551
T3
X5.9843Y-1.9488
X5.9843Y-2.3488
X5.9843Y-3.6811
X5.9843Y-4.0811
X6.1417Y-1.9488
X6.1417Y-2.3488
X6.1417Y-3.6811
X6.1417Y-4.0811
X7.3228Y-1.9488
X7.3228Y-2.3488
X7.3228Y-3.6811
X7.3228Y-4.0811
X7.4803Y-1.9488
X7.4803Y-2.3488
X7.4803Y-3.6811
X7.4803Y-4.0811
X8.6614Y-1.9488
X8.6614Y-2.3488
X8.6614Y-3.6811
X8.6614Y-4.0811
X8.8189Y-1.9488
X8.8189Y-2.3488
X8.8189Y-3.6811
X8.8189Y-4.0811
T4
X6.2992Y-2.6969
X6.2992Y-2.9331
X6.2992Y-4.4291
X6.2992Y-4.6654
X6.6339Y-2.1654
X6.6339Y-3.8976
X6.9488Y-3.0512
X6.9488Y-3.2874
X6.9488Y-4.7835
X6.9488Y-5.0197
X7.0622Y-2.4016
X7.0622Y-2.6378
X7.0622Y-4.1339
X7.0622Y-4.3701
X7.6378Y-2.6969
X7.6378Y-2.9331
X7.6378Y-4.4291
X7.6378Y-4.6654
X7.9724Y-2.1654
X7.9724Y-3.8976
X8.2874Y-3.0512
X8.2874Y-3.2874
X8.2874Y-4.7835
X8.2874Y-5.0197
X8.4008Y-2.4016
X8.4008Y-2.6378
X8.4008Y-4.1339
X8.4008Y-4.3701
X8.9764Y-2.6969
X8.9764Y-2.9331
X8.9764Y-4.4291
X8.9764Y-4.6654
X9.311Y-2.1654
X9.311Y-3.8976
X9.626Y-3.0512
X9.626Y-3.2874
X9.626Y-4.7835
X9.626Y-5.0197
X9.7394Y-2.4016
X9.7394Y-2.6378
X9.7394Y-4.1339
X9.7394Y-4.3701
M30
