%TF.GenerationSoftware,KiCad,Pcbnew,8.0.1*%
%TF.CreationDate,2024-04-18T23:28:31-04:00*%
%TF.ProjectId,emandoharp,656d616e-646f-4686-9172-702e6b696361,rev?*%
%TF.SameCoordinates,Original*%
%TF.FileFunction,Drillmap*%
%TF.FilePolarity,Positive*%
%FSLAX45Y45*%
G04 Gerber Fmt 4.5, Leading zero omitted, Abs format (unit mm)*
G04 Created by KiCad (PCBNEW 8.0.1) date 2024-04-18 23:28:31*
%MOMM*%
%LPD*%
G01*
G04 APERTURE LIST*
%ADD10C,0.050000*%
%ADD11C,0.200000*%
%ADD12C,0.100000*%
%ADD13C,0.110000*%
G04 APERTURE END LIST*
D10*
X2600000Y-1925000D02*
X14600000Y-1925000D01*
X14600000Y-18925000D01*
X2600000Y-18925000D01*
X2600000Y-1925000D01*
D11*
D12*
X4975000Y-9900000D02*
X5025000Y-9950000D01*
X5025000Y-9900000D02*
X4975000Y-9950000D01*
X4975000Y-10550000D02*
X5025000Y-10600000D01*
X5025000Y-10550000D02*
X4975000Y-10600000D01*
X4975000Y-14900000D02*
X5025000Y-14950000D01*
X5025000Y-14900000D02*
X4975000Y-14950000D01*
X4975000Y-15650000D02*
X5025000Y-15700000D01*
X5025000Y-15650000D02*
X4975000Y-15700000D01*
X6175000Y-7500000D02*
X6225000Y-7550000D01*
X6225000Y-7500000D02*
X6175000Y-7550000D01*
X6175000Y-8250000D02*
X6225000Y-8300000D01*
X6225000Y-8250000D02*
X6175000Y-8300000D01*
X6175000Y-12300000D02*
X6225000Y-12350000D01*
X6225000Y-12300000D02*
X6175000Y-12350000D01*
X6175000Y-13200000D02*
X6225000Y-13250000D01*
X6225000Y-13200000D02*
X6175000Y-13250000D01*
X6175000Y-17500000D02*
X6225000Y-17550000D01*
X6225000Y-17500000D02*
X6175000Y-17550000D01*
X6175000Y-18250000D02*
X6225000Y-18300000D01*
X6225000Y-18250000D02*
X6175000Y-18300000D01*
X7375000Y-9900000D02*
X7425000Y-9950000D01*
X7425000Y-9900000D02*
X7375000Y-9950000D01*
X7375000Y-10500000D02*
X7425000Y-10550000D01*
X7425000Y-10500000D02*
X7375000Y-10550000D01*
X7375000Y-14900000D02*
X7425000Y-14950000D01*
X7425000Y-14900000D02*
X7375000Y-14950000D01*
X7375000Y-15550000D02*
X7425000Y-15600000D01*
X7425000Y-15550000D02*
X7375000Y-15600000D01*
X8575000Y-12300000D02*
X8625000Y-12350000D01*
X8625000Y-12300000D02*
X8575000Y-12350000D01*
X8575000Y-13100000D02*
X8625000Y-13150000D01*
X8625000Y-13100000D02*
X8575000Y-13150000D01*
X8575000Y-17500000D02*
X8625000Y-17550000D01*
X8625000Y-17500000D02*
X8575000Y-17550000D01*
X8575000Y-18100000D02*
X8625000Y-18150000D01*
X8625000Y-18100000D02*
X8575000Y-18150000D01*
X9775000Y-9900000D02*
X9825000Y-9950000D01*
X9825000Y-9900000D02*
X9775000Y-9950000D01*
X9775000Y-10600000D02*
X9825000Y-10650000D01*
X9825000Y-10600000D02*
X9775000Y-10650000D01*
X9775000Y-14900000D02*
X9825000Y-14950000D01*
X9825000Y-14900000D02*
X9775000Y-14950000D01*
X9775000Y-15550000D02*
X9825000Y-15600000D01*
X9825000Y-15550000D02*
X9775000Y-15600000D01*
X10975000Y-12300000D02*
X11025000Y-12350000D01*
X11025000Y-12300000D02*
X10975000Y-12350000D01*
X10975000Y-13000000D02*
X11025000Y-13050000D01*
X11025000Y-13000000D02*
X10975000Y-13050000D01*
X10975000Y-17500000D02*
X11025000Y-17550000D01*
X11025000Y-17500000D02*
X10975000Y-17550000D01*
X10975000Y-18050000D02*
X11025000Y-18100000D01*
X11025000Y-18050000D02*
X10975000Y-18100000D01*
X12175000Y-9900000D02*
X12225000Y-9950000D01*
X12225000Y-9900000D02*
X12175000Y-9950000D01*
X12175000Y-10500000D02*
X12225000Y-10550000D01*
X12225000Y-10500000D02*
X12175000Y-10550000D01*
X12175000Y-14900000D02*
X12225000Y-14950000D01*
X12225000Y-14900000D02*
X12175000Y-14950000D01*
X12175000Y-15650000D02*
X12225000Y-15700000D01*
X12225000Y-15650000D02*
X12175000Y-15700000D01*
X13375000Y-12350000D02*
X13425000Y-12400000D01*
X13425000Y-12350000D02*
X13375000Y-12400000D01*
X13375000Y-17500000D02*
X13425000Y-17550000D01*
X13425000Y-17500000D02*
X13375000Y-17550000D01*
X13425000Y-13150000D02*
X13475000Y-13200000D01*
X13475000Y-13150000D02*
X13425000Y-13200000D01*
X13425000Y-18150000D02*
X13475000Y-18200000D01*
X13475000Y-18150000D02*
X13425000Y-18200000D01*
X13725000Y-16500000D02*
X13775000Y-16550000D01*
X13775000Y-16500000D02*
X13725000Y-16550000D01*
X14075000Y-16500000D02*
X14125000Y-16550000D01*
X14125000Y-16500000D02*
X14075000Y-16550000D01*
X7190000Y-6544000D02*
G75*
G02*
X7110000Y-6544000I-40000J0D01*
G01*
X7110000Y-6544000D02*
G75*
G02*
X7190000Y-6544000I40000J0D01*
G01*
X7190000Y-7306000D02*
G75*
G02*
X7110000Y-7306000I-40000J0D01*
G01*
X7110000Y-7306000D02*
G75*
G02*
X7190000Y-7306000I40000J0D01*
G01*
X7540000Y-6544000D02*
G75*
G02*
X7460000Y-6544000I-40000J0D01*
G01*
X7460000Y-6544000D02*
G75*
G02*
X7540000Y-6544000I40000J0D01*
G01*
X7540000Y-7306000D02*
G75*
G02*
X7460000Y-7306000I-40000J0D01*
G01*
X7460000Y-7306000D02*
G75*
G02*
X7540000Y-7306000I40000J0D01*
G01*
X7890000Y-6544000D02*
G75*
G02*
X7810000Y-6544000I-40000J0D01*
G01*
X7810000Y-6544000D02*
G75*
G02*
X7890000Y-6544000I40000J0D01*
G01*
X7890000Y-7306000D02*
G75*
G02*
X7810000Y-7306000I-40000J0D01*
G01*
X7810000Y-7306000D02*
G75*
G02*
X7890000Y-7306000I40000J0D01*
G01*
X8240000Y-6525000D02*
G75*
G02*
X8160000Y-6525000I-40000J0D01*
G01*
X8160000Y-6525000D02*
G75*
G02*
X8240000Y-6525000I40000J0D01*
G01*
X8240000Y-7287000D02*
G75*
G02*
X8160000Y-7287000I-40000J0D01*
G01*
X8160000Y-7287000D02*
G75*
G02*
X8240000Y-7287000I40000J0D01*
G01*
X8590000Y-6544000D02*
G75*
G02*
X8510000Y-6544000I-40000J0D01*
G01*
X8510000Y-6544000D02*
G75*
G02*
X8590000Y-6544000I40000J0D01*
G01*
X8590000Y-7306000D02*
G75*
G02*
X8510000Y-7306000I-40000J0D01*
G01*
X8510000Y-7306000D02*
G75*
G02*
X8590000Y-7306000I40000J0D01*
G01*
X8940000Y-6544000D02*
G75*
G02*
X8860000Y-6544000I-40000J0D01*
G01*
X8860000Y-6544000D02*
G75*
G02*
X8940000Y-6544000I40000J0D01*
G01*
X8940000Y-7306000D02*
G75*
G02*
X8860000Y-7306000I-40000J0D01*
G01*
X8860000Y-7306000D02*
G75*
G02*
X8940000Y-7306000I40000J0D01*
G01*
X9290000Y-6544000D02*
G75*
G02*
X9210000Y-6544000I-40000J0D01*
G01*
X9210000Y-6544000D02*
G75*
G02*
X9290000Y-6544000I40000J0D01*
G01*
X9290000Y-7306000D02*
G75*
G02*
X9210000Y-7306000I-40000J0D01*
G01*
X9210000Y-7306000D02*
G75*
G02*
X9290000Y-7306000I40000J0D01*
G01*
X9640000Y-6544000D02*
G75*
G02*
X9560000Y-6544000I-40000J0D01*
G01*
X9560000Y-6544000D02*
G75*
G02*
X9640000Y-6544000I40000J0D01*
G01*
X9640000Y-7306000D02*
G75*
G02*
X9560000Y-7306000I-40000J0D01*
G01*
X9560000Y-7306000D02*
G75*
G02*
X9640000Y-7306000I40000J0D01*
G01*
X9990000Y-6544000D02*
G75*
G02*
X9910000Y-6544000I-40000J0D01*
G01*
X9910000Y-6544000D02*
G75*
G02*
X9990000Y-6544000I40000J0D01*
G01*
X9990000Y-7306000D02*
G75*
G02*
X9910000Y-7306000I-40000J0D01*
G01*
X9910000Y-7306000D02*
G75*
G02*
X9990000Y-7306000I40000J0D01*
G01*
X10340000Y-6525000D02*
G75*
G02*
X10260000Y-6525000I-40000J0D01*
G01*
X10260000Y-6525000D02*
G75*
G02*
X10340000Y-6525000I40000J0D01*
G01*
X10340000Y-7287000D02*
G75*
G02*
X10260000Y-7287000I-40000J0D01*
G01*
X10260000Y-7287000D02*
G75*
G02*
X10340000Y-7287000I40000J0D01*
G01*
X10690000Y-6525000D02*
G75*
G02*
X10610000Y-6525000I-40000J0D01*
G01*
X10610000Y-6525000D02*
G75*
G02*
X10690000Y-6525000I40000J0D01*
G01*
X10690000Y-7287000D02*
G75*
G02*
X10610000Y-7287000I-40000J0D01*
G01*
X10610000Y-7287000D02*
G75*
G02*
X10690000Y-7287000I40000J0D01*
G01*
X11040000Y-6525000D02*
G75*
G02*
X10960000Y-6525000I-40000J0D01*
G01*
X10960000Y-6525000D02*
G75*
G02*
X11040000Y-6525000I40000J0D01*
G01*
X11040000Y-7287000D02*
G75*
G02*
X10960000Y-7287000I-40000J0D01*
G01*
X10960000Y-7287000D02*
G75*
G02*
X11040000Y-7287000I40000J0D01*
G01*
X11390000Y-6544000D02*
G75*
G02*
X11310000Y-6544000I-40000J0D01*
G01*
X11310000Y-6544000D02*
G75*
G02*
X11390000Y-6544000I40000J0D01*
G01*
X11390000Y-7306000D02*
G75*
G02*
X11310000Y-7306000I-40000J0D01*
G01*
X11310000Y-7306000D02*
G75*
G02*
X11390000Y-7306000I40000J0D01*
G01*
X11740000Y-6544000D02*
G75*
G02*
X11660000Y-6544000I-40000J0D01*
G01*
X11660000Y-6544000D02*
G75*
G02*
X11740000Y-6544000I40000J0D01*
G01*
X11740000Y-7306000D02*
G75*
G02*
X11660000Y-7306000I-40000J0D01*
G01*
X11660000Y-7306000D02*
G75*
G02*
X11740000Y-7306000I40000J0D01*
G01*
X12090000Y-6550000D02*
G75*
G02*
X12010000Y-6550000I-40000J0D01*
G01*
X12010000Y-6550000D02*
G75*
G02*
X12090000Y-6550000I40000J0D01*
G01*
X12090000Y-7312000D02*
G75*
G02*
X12010000Y-7312000I-40000J0D01*
G01*
X12010000Y-7312000D02*
G75*
G02*
X12090000Y-7312000I40000J0D01*
G01*
X12440000Y-6544000D02*
G75*
G02*
X12360000Y-6544000I-40000J0D01*
G01*
X12360000Y-6544000D02*
G75*
G02*
X12440000Y-6544000I40000J0D01*
G01*
X12440000Y-7306000D02*
G75*
G02*
X12360000Y-7306000I-40000J0D01*
G01*
X12360000Y-7306000D02*
G75*
G02*
X12440000Y-7306000I40000J0D01*
G01*
X12790000Y-6563000D02*
G75*
G02*
X12710000Y-6563000I-40000J0D01*
G01*
X12710000Y-6563000D02*
G75*
G02*
X12790000Y-6563000I40000J0D01*
G01*
X12790000Y-7325000D02*
G75*
G02*
X12710000Y-7325000I-40000J0D01*
G01*
X12710000Y-7325000D02*
G75*
G02*
X12790000Y-7325000I40000J0D01*
G01*
X12947000Y-4235160D02*
G75*
G02*
X12867000Y-4235160I-40000J0D01*
G01*
X12867000Y-4235160D02*
G75*
G02*
X12947000Y-4235160I40000J0D01*
G01*
X12947000Y-4435160D02*
G75*
G02*
X12867000Y-4435160I-40000J0D01*
G01*
X12867000Y-4435160D02*
G75*
G02*
X12947000Y-4435160I40000J0D01*
G01*
X12947000Y-4635160D02*
G75*
G02*
X12867000Y-4635160I-40000J0D01*
G01*
X12867000Y-4635160D02*
G75*
G02*
X12947000Y-4635160I40000J0D01*
G01*
X13140000Y-6563000D02*
G75*
G02*
X13060000Y-6563000I-40000J0D01*
G01*
X13060000Y-6563000D02*
G75*
G02*
X13140000Y-6563000I40000J0D01*
G01*
X13140000Y-7325000D02*
G75*
G02*
X13060000Y-7325000I-40000J0D01*
G01*
X13060000Y-7325000D02*
G75*
G02*
X13140000Y-7325000I40000J0D01*
G01*
X13147000Y-4235160D02*
G75*
G02*
X13067000Y-4235160I-40000J0D01*
G01*
X13067000Y-4235160D02*
G75*
G02*
X13147000Y-4235160I40000J0D01*
G01*
X13147000Y-4435160D02*
G75*
G02*
X13067000Y-4435160I-40000J0D01*
G01*
X13067000Y-4435160D02*
G75*
G02*
X13147000Y-4435160I40000J0D01*
G01*
X13147000Y-4635160D02*
G75*
G02*
X13067000Y-4635160I-40000J0D01*
G01*
X13067000Y-4635160D02*
G75*
G02*
X13147000Y-4635160I40000J0D01*
G01*
X13490000Y-5244000D02*
G75*
G02*
X13410000Y-5244000I-40000J0D01*
G01*
X13410000Y-5244000D02*
G75*
G02*
X13490000Y-5244000I40000J0D01*
G01*
X13490000Y-6006000D02*
G75*
G02*
X13410000Y-6006000I-40000J0D01*
G01*
X13410000Y-6006000D02*
G75*
G02*
X13490000Y-6006000I40000J0D01*
G01*
X13490000Y-6394000D02*
G75*
G02*
X13410000Y-6394000I-40000J0D01*
G01*
X13410000Y-6394000D02*
G75*
G02*
X13490000Y-6394000I40000J0D01*
G01*
X13490000Y-7156000D02*
G75*
G02*
X13410000Y-7156000I-40000J0D01*
G01*
X13410000Y-7156000D02*
G75*
G02*
X13490000Y-7156000I40000J0D01*
G01*
X13490000Y-7594000D02*
G75*
G02*
X13410000Y-7594000I-40000J0D01*
G01*
X13410000Y-7594000D02*
G75*
G02*
X13490000Y-7594000I40000J0D01*
G01*
X13490000Y-8356000D02*
G75*
G02*
X13410000Y-8356000I-40000J0D01*
G01*
X13410000Y-8356000D02*
G75*
G02*
X13490000Y-8356000I40000J0D01*
G01*
X13840000Y-5225000D02*
G75*
G02*
X13760000Y-5225000I-40000J0D01*
G01*
X13760000Y-5225000D02*
G75*
G02*
X13840000Y-5225000I40000J0D01*
G01*
X13840000Y-5987000D02*
G75*
G02*
X13760000Y-5987000I-40000J0D01*
G01*
X13760000Y-5987000D02*
G75*
G02*
X13840000Y-5987000I40000J0D01*
G01*
X14371000Y-3990000D02*
G75*
G02*
X14291000Y-3990000I-40000J0D01*
G01*
X14291000Y-3990000D02*
G75*
G02*
X14371000Y-3990000I40000J0D01*
G01*
X14371000Y-4244000D02*
G75*
G02*
X14291000Y-4244000I-40000J0D01*
G01*
X14291000Y-4244000D02*
G75*
G02*
X14371000Y-4244000I40000J0D01*
G01*
D13*
X7150000Y-5204000D02*
X7150000Y-5314000D01*
X7095000Y-5259000D02*
X7205000Y-5259000D01*
X7150000Y-6220000D02*
X7150000Y-6330000D01*
X7095000Y-6275000D02*
X7205000Y-6275000D01*
X7150000Y-7504000D02*
X7150000Y-7614000D01*
X7095000Y-7559000D02*
X7205000Y-7559000D01*
X7150000Y-8520000D02*
X7150000Y-8630000D01*
X7095000Y-8575000D02*
X7205000Y-8575000D01*
X7500000Y-5204000D02*
X7500000Y-5314000D01*
X7445000Y-5259000D02*
X7555000Y-5259000D01*
X7500000Y-6220000D02*
X7500000Y-6330000D01*
X7445000Y-6275000D02*
X7555000Y-6275000D01*
X7500000Y-7504000D02*
X7500000Y-7614000D01*
X7445000Y-7559000D02*
X7555000Y-7559000D01*
X7500000Y-8520000D02*
X7500000Y-8630000D01*
X7445000Y-8575000D02*
X7555000Y-8575000D01*
X7850000Y-5212000D02*
X7850000Y-5322000D01*
X7795000Y-5267000D02*
X7905000Y-5267000D01*
X7850000Y-6228000D02*
X7850000Y-6338000D01*
X7795000Y-6283000D02*
X7905000Y-6283000D01*
X7850000Y-7504000D02*
X7850000Y-7614000D01*
X7795000Y-7559000D02*
X7905000Y-7559000D01*
X7850000Y-8520000D02*
X7850000Y-8630000D01*
X7795000Y-8575000D02*
X7905000Y-8575000D01*
X8200000Y-5212000D02*
X8200000Y-5322000D01*
X8145000Y-5267000D02*
X8255000Y-5267000D01*
X8200000Y-6228000D02*
X8200000Y-6338000D01*
X8145000Y-6283000D02*
X8255000Y-6283000D01*
X8200000Y-7504000D02*
X8200000Y-7614000D01*
X8145000Y-7559000D02*
X8255000Y-7559000D01*
X8200000Y-8520000D02*
X8200000Y-8630000D01*
X8145000Y-8575000D02*
X8255000Y-8575000D01*
X8550000Y-5204000D02*
X8550000Y-5314000D01*
X8495000Y-5259000D02*
X8605000Y-5259000D01*
X8550000Y-6220000D02*
X8550000Y-6330000D01*
X8495000Y-6275000D02*
X8605000Y-6275000D01*
X8550000Y-7504000D02*
X8550000Y-7614000D01*
X8495000Y-7559000D02*
X8605000Y-7559000D01*
X8550000Y-8520000D02*
X8550000Y-8630000D01*
X8495000Y-8575000D02*
X8605000Y-8575000D01*
X8562000Y-3300000D02*
X8562000Y-3410000D01*
X8507000Y-3355000D02*
X8617000Y-3355000D01*
X8562000Y-4824000D02*
X8562000Y-4934000D01*
X8507000Y-4879000D02*
X8617000Y-4879000D01*
X8816000Y-3300000D02*
X8816000Y-3410000D01*
X8761000Y-3355000D02*
X8871000Y-3355000D01*
X8816000Y-4824000D02*
X8816000Y-4934000D01*
X8761000Y-4879000D02*
X8871000Y-4879000D01*
X8900000Y-5204000D02*
X8900000Y-5314000D01*
X8845000Y-5259000D02*
X8955000Y-5259000D01*
X8900000Y-6220000D02*
X8900000Y-6330000D01*
X8845000Y-6275000D02*
X8955000Y-6275000D01*
X8900000Y-7504000D02*
X8900000Y-7614000D01*
X8845000Y-7559000D02*
X8955000Y-7559000D01*
X8900000Y-8520000D02*
X8900000Y-8630000D01*
X8845000Y-8575000D02*
X8955000Y-8575000D01*
X9070000Y-3300000D02*
X9070000Y-3410000D01*
X9015000Y-3355000D02*
X9125000Y-3355000D01*
X9070000Y-4824000D02*
X9070000Y-4934000D01*
X9015000Y-4879000D02*
X9125000Y-4879000D01*
X9250000Y-5204000D02*
X9250000Y-5314000D01*
X9195000Y-5259000D02*
X9305000Y-5259000D01*
X9250000Y-6220000D02*
X9250000Y-6330000D01*
X9195000Y-6275000D02*
X9305000Y-6275000D01*
X9250000Y-7504000D02*
X9250000Y-7614000D01*
X9195000Y-7559000D02*
X9305000Y-7559000D01*
X9250000Y-8520000D02*
X9250000Y-8630000D01*
X9195000Y-8575000D02*
X9305000Y-8575000D01*
X9324000Y-3300000D02*
X9324000Y-3410000D01*
X9269000Y-3355000D02*
X9379000Y-3355000D01*
X9324000Y-4824000D02*
X9324000Y-4934000D01*
X9269000Y-4879000D02*
X9379000Y-4879000D01*
X9578000Y-3300000D02*
X9578000Y-3410000D01*
X9523000Y-3355000D02*
X9633000Y-3355000D01*
X9578000Y-4824000D02*
X9578000Y-4934000D01*
X9523000Y-4879000D02*
X9633000Y-4879000D01*
X9600000Y-5212000D02*
X9600000Y-5322000D01*
X9545000Y-5267000D02*
X9655000Y-5267000D01*
X9600000Y-6228000D02*
X9600000Y-6338000D01*
X9545000Y-6283000D02*
X9655000Y-6283000D01*
X9600000Y-7504000D02*
X9600000Y-7614000D01*
X9545000Y-7559000D02*
X9655000Y-7559000D01*
X9600000Y-8520000D02*
X9600000Y-8630000D01*
X9545000Y-8575000D02*
X9655000Y-8575000D01*
X9832000Y-3300000D02*
X9832000Y-3410000D01*
X9777000Y-3355000D02*
X9887000Y-3355000D01*
X9832000Y-3554000D02*
X9832000Y-3664000D01*
X9777000Y-3609000D02*
X9887000Y-3609000D01*
X9832000Y-3808000D02*
X9832000Y-3918000D01*
X9777000Y-3863000D02*
X9887000Y-3863000D01*
X9832000Y-4062000D02*
X9832000Y-4172000D01*
X9777000Y-4117000D02*
X9887000Y-4117000D01*
X9832000Y-4316000D02*
X9832000Y-4426000D01*
X9777000Y-4371000D02*
X9887000Y-4371000D01*
X9832000Y-4570000D02*
X9832000Y-4680000D01*
X9777000Y-4625000D02*
X9887000Y-4625000D01*
X9832000Y-4824000D02*
X9832000Y-4934000D01*
X9777000Y-4879000D02*
X9887000Y-4879000D01*
X9950000Y-5212000D02*
X9950000Y-5322000D01*
X9895000Y-5267000D02*
X10005000Y-5267000D01*
X9950000Y-6228000D02*
X9950000Y-6338000D01*
X9895000Y-6283000D02*
X10005000Y-6283000D01*
X9950000Y-7504000D02*
X9950000Y-7614000D01*
X9895000Y-7559000D02*
X10005000Y-7559000D01*
X9950000Y-8520000D02*
X9950000Y-8630000D01*
X9895000Y-8575000D02*
X10005000Y-8575000D01*
X10086000Y-3300000D02*
X10086000Y-3410000D01*
X10031000Y-3355000D02*
X10141000Y-3355000D01*
X10086000Y-4824000D02*
X10086000Y-4934000D01*
X10031000Y-4879000D02*
X10141000Y-4879000D01*
X10300000Y-5212000D02*
X10300000Y-5322000D01*
X10245000Y-5267000D02*
X10355000Y-5267000D01*
X10300000Y-6228000D02*
X10300000Y-6338000D01*
X10245000Y-6283000D02*
X10355000Y-6283000D01*
X10300000Y-7504000D02*
X10300000Y-7614000D01*
X10245000Y-7559000D02*
X10355000Y-7559000D01*
X10300000Y-8520000D02*
X10300000Y-8630000D01*
X10245000Y-8575000D02*
X10355000Y-8575000D01*
X10340000Y-3300000D02*
X10340000Y-3410000D01*
X10285000Y-3355000D02*
X10395000Y-3355000D01*
X10340000Y-4824000D02*
X10340000Y-4934000D01*
X10285000Y-4879000D02*
X10395000Y-4879000D01*
X10594000Y-3300000D02*
X10594000Y-3410000D01*
X10539000Y-3355000D02*
X10649000Y-3355000D01*
X10594000Y-4824000D02*
X10594000Y-4934000D01*
X10539000Y-4879000D02*
X10649000Y-4879000D01*
X10650000Y-5204000D02*
X10650000Y-5314000D01*
X10595000Y-5259000D02*
X10705000Y-5259000D01*
X10650000Y-6220000D02*
X10650000Y-6330000D01*
X10595000Y-6275000D02*
X10705000Y-6275000D01*
X10650000Y-7504000D02*
X10650000Y-7614000D01*
X10595000Y-7559000D02*
X10705000Y-7559000D01*
X10650000Y-8520000D02*
X10650000Y-8630000D01*
X10595000Y-8575000D02*
X10705000Y-8575000D01*
X10848000Y-3300000D02*
X10848000Y-3410000D01*
X10793000Y-3355000D02*
X10903000Y-3355000D01*
X10848000Y-4824000D02*
X10848000Y-4934000D01*
X10793000Y-4879000D02*
X10903000Y-4879000D01*
X11000000Y-5204000D02*
X11000000Y-5314000D01*
X10945000Y-5259000D02*
X11055000Y-5259000D01*
X11000000Y-6220000D02*
X11000000Y-6330000D01*
X10945000Y-6275000D02*
X11055000Y-6275000D01*
X11000000Y-7504000D02*
X11000000Y-7614000D01*
X10945000Y-7559000D02*
X11055000Y-7559000D01*
X11000000Y-8520000D02*
X11000000Y-8630000D01*
X10945000Y-8575000D02*
X11055000Y-8575000D01*
X11102000Y-3300000D02*
X11102000Y-3410000D01*
X11047000Y-3355000D02*
X11157000Y-3355000D01*
X11102000Y-4824000D02*
X11102000Y-4934000D01*
X11047000Y-4879000D02*
X11157000Y-4879000D01*
X11350000Y-5204000D02*
X11350000Y-5314000D01*
X11295000Y-5259000D02*
X11405000Y-5259000D01*
X11350000Y-6220000D02*
X11350000Y-6330000D01*
X11295000Y-6275000D02*
X11405000Y-6275000D01*
X11350000Y-7504000D02*
X11350000Y-7614000D01*
X11295000Y-7559000D02*
X11405000Y-7559000D01*
X11350000Y-8520000D02*
X11350000Y-8630000D01*
X11295000Y-8575000D02*
X11405000Y-8575000D01*
X11356000Y-3300000D02*
X11356000Y-3410000D01*
X11301000Y-3355000D02*
X11411000Y-3355000D01*
X11356000Y-4824000D02*
X11356000Y-4934000D01*
X11301000Y-4879000D02*
X11411000Y-4879000D01*
X11610000Y-3300000D02*
X11610000Y-3410000D01*
X11555000Y-3355000D02*
X11665000Y-3355000D01*
X11610000Y-4824000D02*
X11610000Y-4934000D01*
X11555000Y-4879000D02*
X11665000Y-4879000D01*
X11700000Y-5212000D02*
X11700000Y-5322000D01*
X11645000Y-5267000D02*
X11755000Y-5267000D01*
X11700000Y-6228000D02*
X11700000Y-6338000D01*
X11645000Y-6283000D02*
X11755000Y-6283000D01*
X11700000Y-7504000D02*
X11700000Y-7614000D01*
X11645000Y-7559000D02*
X11755000Y-7559000D01*
X11700000Y-8520000D02*
X11700000Y-8630000D01*
X11645000Y-8575000D02*
X11755000Y-8575000D01*
X11864000Y-3300000D02*
X11864000Y-3410000D01*
X11809000Y-3355000D02*
X11919000Y-3355000D01*
X11864000Y-4824000D02*
X11864000Y-4934000D01*
X11809000Y-4879000D02*
X11919000Y-4879000D01*
X12050000Y-5212000D02*
X12050000Y-5322000D01*
X11995000Y-5267000D02*
X12105000Y-5267000D01*
X12050000Y-6228000D02*
X12050000Y-6338000D01*
X11995000Y-6283000D02*
X12105000Y-6283000D01*
X12050000Y-7504000D02*
X12050000Y-7614000D01*
X11995000Y-7559000D02*
X12105000Y-7559000D01*
X12050000Y-8520000D02*
X12050000Y-8630000D01*
X11995000Y-8575000D02*
X12105000Y-8575000D01*
X12118000Y-3300000D02*
X12118000Y-3410000D01*
X12063000Y-3355000D02*
X12173000Y-3355000D01*
X12118000Y-4824000D02*
X12118000Y-4934000D01*
X12063000Y-4879000D02*
X12173000Y-4879000D01*
X12372000Y-3300000D02*
X12372000Y-3410000D01*
X12317000Y-3355000D02*
X12427000Y-3355000D01*
X12372000Y-4824000D02*
X12372000Y-4934000D01*
X12317000Y-4879000D02*
X12427000Y-4879000D01*
X12400000Y-5212000D02*
X12400000Y-5322000D01*
X12345000Y-5267000D02*
X12455000Y-5267000D01*
X12400000Y-6228000D02*
X12400000Y-6338000D01*
X12345000Y-6283000D02*
X12455000Y-6283000D01*
X12400000Y-7504000D02*
X12400000Y-7614000D01*
X12345000Y-7559000D02*
X12455000Y-7559000D01*
X12400000Y-8520000D02*
X12400000Y-8630000D01*
X12345000Y-8575000D02*
X12455000Y-8575000D01*
X12626000Y-3300000D02*
X12626000Y-3410000D01*
X12571000Y-3355000D02*
X12681000Y-3355000D01*
X12626000Y-4824000D02*
X12626000Y-4934000D01*
X12571000Y-4879000D02*
X12681000Y-4879000D01*
X12750000Y-5212000D02*
X12750000Y-5322000D01*
X12695000Y-5267000D02*
X12805000Y-5267000D01*
X12750000Y-6228000D02*
X12750000Y-6338000D01*
X12695000Y-6283000D02*
X12805000Y-6283000D01*
X12750000Y-7520000D02*
X12750000Y-7630000D01*
X12695000Y-7575000D02*
X12805000Y-7575000D01*
X12750000Y-8536000D02*
X12750000Y-8646000D01*
X12695000Y-8591000D02*
X12805000Y-8591000D01*
X12758080Y-3605080D02*
X12758080Y-3715080D01*
X12703080Y-3660080D02*
X12813080Y-3660080D01*
X12880000Y-3300000D02*
X12880000Y-3410000D01*
X12825000Y-3355000D02*
X12935000Y-3355000D01*
X12880000Y-4824000D02*
X12880000Y-4934000D01*
X12825000Y-4879000D02*
X12935000Y-4879000D01*
X13012080Y-3605080D02*
X13012080Y-3715080D01*
X12957080Y-3660080D02*
X13067080Y-3660080D01*
X13100000Y-5204000D02*
X13100000Y-5314000D01*
X13045000Y-5259000D02*
X13155000Y-5259000D01*
X13100000Y-6220000D02*
X13100000Y-6330000D01*
X13045000Y-6275000D02*
X13155000Y-6275000D01*
X13100000Y-7554000D02*
X13100000Y-7664000D01*
X13045000Y-7609000D02*
X13155000Y-7609000D01*
X13100000Y-8570000D02*
X13100000Y-8680000D01*
X13045000Y-8625000D02*
X13155000Y-8625000D01*
X13134000Y-3300000D02*
X13134000Y-3410000D01*
X13079000Y-3355000D02*
X13189000Y-3355000D01*
X13134000Y-4824000D02*
X13134000Y-4934000D01*
X13079000Y-4879000D02*
X13189000Y-4879000D01*
X13266080Y-3605080D02*
X13266080Y-3715080D01*
X13211080Y-3660080D02*
X13321080Y-3660080D01*
X13388000Y-3300000D02*
X13388000Y-3410000D01*
X13333000Y-3355000D02*
X13443000Y-3355000D01*
X13388000Y-4824000D02*
X13388000Y-4934000D01*
X13333000Y-4879000D02*
X13443000Y-4879000D01*
X13520080Y-3605080D02*
X13520080Y-3715080D01*
X13465080Y-3660080D02*
X13575080Y-3660080D01*
X13642000Y-3300000D02*
X13642000Y-3410000D01*
X13587000Y-3355000D02*
X13697000Y-3355000D01*
X13642000Y-4824000D02*
X13642000Y-4934000D01*
X13587000Y-4879000D02*
X13697000Y-4879000D01*
X13774080Y-3605080D02*
X13774080Y-3715080D01*
X13719080Y-3660080D02*
X13829080Y-3660080D01*
X13896000Y-3300000D02*
X13896000Y-3410000D01*
X13841000Y-3355000D02*
X13951000Y-3355000D01*
X13896000Y-4824000D02*
X13896000Y-4934000D01*
X13841000Y-4879000D02*
X13951000Y-4879000D01*
X14150000Y-3300000D02*
X14150000Y-3410000D01*
X14095000Y-3355000D02*
X14205000Y-3355000D01*
X14150000Y-4570000D02*
X14150000Y-4680000D01*
X14095000Y-4625000D02*
X14205000Y-4625000D01*
X14150000Y-4824000D02*
X14150000Y-4934000D01*
X14095000Y-4879000D02*
X14205000Y-4879000D01*
X14404000Y-3300000D02*
X14404000Y-3410000D01*
X14349000Y-3355000D02*
X14459000Y-3355000D01*
X14404000Y-4824000D02*
X14404000Y-4934000D01*
X14349000Y-4879000D02*
X14459000Y-4879000D01*
D11*
X2858277Y-19238984D02*
X2858277Y-19038984D01*
X2858277Y-19038984D02*
X2905896Y-19038984D01*
X2905896Y-19038984D02*
X2934467Y-19048508D01*
X2934467Y-19048508D02*
X2953515Y-19067555D01*
X2953515Y-19067555D02*
X2963039Y-19086603D01*
X2963039Y-19086603D02*
X2972562Y-19124698D01*
X2972562Y-19124698D02*
X2972562Y-19153270D01*
X2972562Y-19153270D02*
X2963039Y-19191365D01*
X2963039Y-19191365D02*
X2953515Y-19210412D01*
X2953515Y-19210412D02*
X2934467Y-19229460D01*
X2934467Y-19229460D02*
X2905896Y-19238984D01*
X2905896Y-19238984D02*
X2858277Y-19238984D01*
X3058277Y-19238984D02*
X3058277Y-19105650D01*
X3058277Y-19143746D02*
X3067801Y-19124698D01*
X3067801Y-19124698D02*
X3077324Y-19115174D01*
X3077324Y-19115174D02*
X3096372Y-19105650D01*
X3096372Y-19105650D02*
X3115420Y-19105650D01*
X3182086Y-19238984D02*
X3182086Y-19105650D01*
X3182086Y-19038984D02*
X3172562Y-19048508D01*
X3172562Y-19048508D02*
X3182086Y-19058031D01*
X3182086Y-19058031D02*
X3191610Y-19048508D01*
X3191610Y-19048508D02*
X3182086Y-19038984D01*
X3182086Y-19038984D02*
X3182086Y-19058031D01*
X3305896Y-19238984D02*
X3286848Y-19229460D01*
X3286848Y-19229460D02*
X3277324Y-19210412D01*
X3277324Y-19210412D02*
X3277324Y-19038984D01*
X3410658Y-19238984D02*
X3391610Y-19229460D01*
X3391610Y-19229460D02*
X3382086Y-19210412D01*
X3382086Y-19210412D02*
X3382086Y-19038984D01*
X3639229Y-19238984D02*
X3639229Y-19038984D01*
X3639229Y-19038984D02*
X3705896Y-19181841D01*
X3705896Y-19181841D02*
X3772562Y-19038984D01*
X3772562Y-19038984D02*
X3772562Y-19238984D01*
X3953515Y-19238984D02*
X3953515Y-19134222D01*
X3953515Y-19134222D02*
X3943991Y-19115174D01*
X3943991Y-19115174D02*
X3924943Y-19105650D01*
X3924943Y-19105650D02*
X3886848Y-19105650D01*
X3886848Y-19105650D02*
X3867801Y-19115174D01*
X3953515Y-19229460D02*
X3934467Y-19238984D01*
X3934467Y-19238984D02*
X3886848Y-19238984D01*
X3886848Y-19238984D02*
X3867801Y-19229460D01*
X3867801Y-19229460D02*
X3858277Y-19210412D01*
X3858277Y-19210412D02*
X3858277Y-19191365D01*
X3858277Y-19191365D02*
X3867801Y-19172317D01*
X3867801Y-19172317D02*
X3886848Y-19162793D01*
X3886848Y-19162793D02*
X3934467Y-19162793D01*
X3934467Y-19162793D02*
X3953515Y-19153270D01*
X4048753Y-19105650D02*
X4048753Y-19305650D01*
X4048753Y-19115174D02*
X4067801Y-19105650D01*
X4067801Y-19105650D02*
X4105896Y-19105650D01*
X4105896Y-19105650D02*
X4124943Y-19115174D01*
X4124943Y-19115174D02*
X4134467Y-19124698D01*
X4134467Y-19124698D02*
X4143991Y-19143746D01*
X4143991Y-19143746D02*
X4143991Y-19200889D01*
X4143991Y-19200889D02*
X4134467Y-19219936D01*
X4134467Y-19219936D02*
X4124943Y-19229460D01*
X4124943Y-19229460D02*
X4105896Y-19238984D01*
X4105896Y-19238984D02*
X4067801Y-19238984D01*
X4067801Y-19238984D02*
X4048753Y-19229460D01*
X4229705Y-19219936D02*
X4239229Y-19229460D01*
X4239229Y-19229460D02*
X4229705Y-19238984D01*
X4229705Y-19238984D02*
X4220182Y-19229460D01*
X4220182Y-19229460D02*
X4229705Y-19219936D01*
X4229705Y-19219936D02*
X4229705Y-19238984D01*
X4229705Y-19115174D02*
X4239229Y-19124698D01*
X4239229Y-19124698D02*
X4229705Y-19134222D01*
X4229705Y-19134222D02*
X4220182Y-19124698D01*
X4220182Y-19124698D02*
X4229705Y-19115174D01*
X4229705Y-19115174D02*
X4229705Y-19134222D01*
D12*
X2547500Y-19542500D02*
X2597500Y-19592500D01*
X2597500Y-19542500D02*
X2547500Y-19592500D01*
D11*
X2896372Y-19458984D02*
X2915420Y-19458984D01*
X2915420Y-19458984D02*
X2934467Y-19468508D01*
X2934467Y-19468508D02*
X2943991Y-19478031D01*
X2943991Y-19478031D02*
X2953515Y-19497079D01*
X2953515Y-19497079D02*
X2963039Y-19535174D01*
X2963039Y-19535174D02*
X2963039Y-19582793D01*
X2963039Y-19582793D02*
X2953515Y-19620889D01*
X2953515Y-19620889D02*
X2943991Y-19639936D01*
X2943991Y-19639936D02*
X2934467Y-19649460D01*
X2934467Y-19649460D02*
X2915420Y-19658984D01*
X2915420Y-19658984D02*
X2896372Y-19658984D01*
X2896372Y-19658984D02*
X2877324Y-19649460D01*
X2877324Y-19649460D02*
X2867801Y-19639936D01*
X2867801Y-19639936D02*
X2858277Y-19620889D01*
X2858277Y-19620889D02*
X2848753Y-19582793D01*
X2848753Y-19582793D02*
X2848753Y-19535174D01*
X2848753Y-19535174D02*
X2858277Y-19497079D01*
X2858277Y-19497079D02*
X2867801Y-19478031D01*
X2867801Y-19478031D02*
X2877324Y-19468508D01*
X2877324Y-19468508D02*
X2896372Y-19458984D01*
X3048753Y-19639936D02*
X3058277Y-19649460D01*
X3058277Y-19649460D02*
X3048753Y-19658984D01*
X3048753Y-19658984D02*
X3039229Y-19649460D01*
X3039229Y-19649460D02*
X3048753Y-19639936D01*
X3048753Y-19639936D02*
X3048753Y-19658984D01*
X3239229Y-19458984D02*
X3143991Y-19458984D01*
X3143991Y-19458984D02*
X3134467Y-19554222D01*
X3134467Y-19554222D02*
X3143991Y-19544698D01*
X3143991Y-19544698D02*
X3163039Y-19535174D01*
X3163039Y-19535174D02*
X3210658Y-19535174D01*
X3210658Y-19535174D02*
X3229705Y-19544698D01*
X3229705Y-19544698D02*
X3239229Y-19554222D01*
X3239229Y-19554222D02*
X3248753Y-19573270D01*
X3248753Y-19573270D02*
X3248753Y-19620889D01*
X3248753Y-19620889D02*
X3239229Y-19639936D01*
X3239229Y-19639936D02*
X3229705Y-19649460D01*
X3229705Y-19649460D02*
X3210658Y-19658984D01*
X3210658Y-19658984D02*
X3163039Y-19658984D01*
X3163039Y-19658984D02*
X3143991Y-19649460D01*
X3143991Y-19649460D02*
X3134467Y-19639936D01*
X3372562Y-19458984D02*
X3391610Y-19458984D01*
X3391610Y-19458984D02*
X3410658Y-19468508D01*
X3410658Y-19468508D02*
X3420182Y-19478031D01*
X3420182Y-19478031D02*
X3429705Y-19497079D01*
X3429705Y-19497079D02*
X3439229Y-19535174D01*
X3439229Y-19535174D02*
X3439229Y-19582793D01*
X3439229Y-19582793D02*
X3429705Y-19620889D01*
X3429705Y-19620889D02*
X3420182Y-19639936D01*
X3420182Y-19639936D02*
X3410658Y-19649460D01*
X3410658Y-19649460D02*
X3391610Y-19658984D01*
X3391610Y-19658984D02*
X3372562Y-19658984D01*
X3372562Y-19658984D02*
X3353515Y-19649460D01*
X3353515Y-19649460D02*
X3343991Y-19639936D01*
X3343991Y-19639936D02*
X3334467Y-19620889D01*
X3334467Y-19620889D02*
X3324943Y-19582793D01*
X3324943Y-19582793D02*
X3324943Y-19535174D01*
X3324943Y-19535174D02*
X3334467Y-19497079D01*
X3334467Y-19497079D02*
X3343991Y-19478031D01*
X3343991Y-19478031D02*
X3353515Y-19468508D01*
X3353515Y-19468508D02*
X3372562Y-19458984D01*
X3563039Y-19458984D02*
X3582086Y-19458984D01*
X3582086Y-19458984D02*
X3601134Y-19468508D01*
X3601134Y-19468508D02*
X3610658Y-19478031D01*
X3610658Y-19478031D02*
X3620182Y-19497079D01*
X3620182Y-19497079D02*
X3629705Y-19535174D01*
X3629705Y-19535174D02*
X3629705Y-19582793D01*
X3629705Y-19582793D02*
X3620182Y-19620889D01*
X3620182Y-19620889D02*
X3610658Y-19639936D01*
X3610658Y-19639936D02*
X3601134Y-19649460D01*
X3601134Y-19649460D02*
X3582086Y-19658984D01*
X3582086Y-19658984D02*
X3563039Y-19658984D01*
X3563039Y-19658984D02*
X3543991Y-19649460D01*
X3543991Y-19649460D02*
X3534467Y-19639936D01*
X3534467Y-19639936D02*
X3524943Y-19620889D01*
X3524943Y-19620889D02*
X3515420Y-19582793D01*
X3515420Y-19582793D02*
X3515420Y-19535174D01*
X3515420Y-19535174D02*
X3524943Y-19497079D01*
X3524943Y-19497079D02*
X3534467Y-19478031D01*
X3534467Y-19478031D02*
X3543991Y-19468508D01*
X3543991Y-19468508D02*
X3563039Y-19458984D01*
X3715420Y-19658984D02*
X3715420Y-19525650D01*
X3715420Y-19544698D02*
X3724943Y-19535174D01*
X3724943Y-19535174D02*
X3743991Y-19525650D01*
X3743991Y-19525650D02*
X3772563Y-19525650D01*
X3772563Y-19525650D02*
X3791610Y-19535174D01*
X3791610Y-19535174D02*
X3801134Y-19554222D01*
X3801134Y-19554222D02*
X3801134Y-19658984D01*
X3801134Y-19554222D02*
X3810658Y-19535174D01*
X3810658Y-19535174D02*
X3829705Y-19525650D01*
X3829705Y-19525650D02*
X3858277Y-19525650D01*
X3858277Y-19525650D02*
X3877324Y-19535174D01*
X3877324Y-19535174D02*
X3886848Y-19554222D01*
X3886848Y-19554222D02*
X3886848Y-19658984D01*
X3982086Y-19658984D02*
X3982086Y-19525650D01*
X3982086Y-19544698D02*
X3991610Y-19535174D01*
X3991610Y-19535174D02*
X4010658Y-19525650D01*
X4010658Y-19525650D02*
X4039229Y-19525650D01*
X4039229Y-19525650D02*
X4058277Y-19535174D01*
X4058277Y-19535174D02*
X4067801Y-19554222D01*
X4067801Y-19554222D02*
X4067801Y-19658984D01*
X4067801Y-19554222D02*
X4077324Y-19535174D01*
X4077324Y-19535174D02*
X4096372Y-19525650D01*
X4096372Y-19525650D02*
X4124943Y-19525650D01*
X4124943Y-19525650D02*
X4143991Y-19535174D01*
X4143991Y-19535174D02*
X4153515Y-19554222D01*
X4153515Y-19554222D02*
X4153515Y-19658984D01*
X4543991Y-19449460D02*
X4372563Y-19706603D01*
X4801134Y-19458984D02*
X4820182Y-19458984D01*
X4820182Y-19458984D02*
X4839229Y-19468508D01*
X4839229Y-19468508D02*
X4848753Y-19478031D01*
X4848753Y-19478031D02*
X4858277Y-19497079D01*
X4858277Y-19497079D02*
X4867801Y-19535174D01*
X4867801Y-19535174D02*
X4867801Y-19582793D01*
X4867801Y-19582793D02*
X4858277Y-19620889D01*
X4858277Y-19620889D02*
X4848753Y-19639936D01*
X4848753Y-19639936D02*
X4839229Y-19649460D01*
X4839229Y-19649460D02*
X4820182Y-19658984D01*
X4820182Y-19658984D02*
X4801134Y-19658984D01*
X4801134Y-19658984D02*
X4782087Y-19649460D01*
X4782087Y-19649460D02*
X4772563Y-19639936D01*
X4772563Y-19639936D02*
X4763039Y-19620889D01*
X4763039Y-19620889D02*
X4753515Y-19582793D01*
X4753515Y-19582793D02*
X4753515Y-19535174D01*
X4753515Y-19535174D02*
X4763039Y-19497079D01*
X4763039Y-19497079D02*
X4772563Y-19478031D01*
X4772563Y-19478031D02*
X4782087Y-19468508D01*
X4782087Y-19468508D02*
X4801134Y-19458984D01*
X4953515Y-19639936D02*
X4963039Y-19649460D01*
X4963039Y-19649460D02*
X4953515Y-19658984D01*
X4953515Y-19658984D02*
X4943991Y-19649460D01*
X4943991Y-19649460D02*
X4953515Y-19639936D01*
X4953515Y-19639936D02*
X4953515Y-19658984D01*
X5086848Y-19458984D02*
X5105896Y-19458984D01*
X5105896Y-19458984D02*
X5124944Y-19468508D01*
X5124944Y-19468508D02*
X5134468Y-19478031D01*
X5134468Y-19478031D02*
X5143991Y-19497079D01*
X5143991Y-19497079D02*
X5153515Y-19535174D01*
X5153515Y-19535174D02*
X5153515Y-19582793D01*
X5153515Y-19582793D02*
X5143991Y-19620889D01*
X5143991Y-19620889D02*
X5134468Y-19639936D01*
X5134468Y-19639936D02*
X5124944Y-19649460D01*
X5124944Y-19649460D02*
X5105896Y-19658984D01*
X5105896Y-19658984D02*
X5086848Y-19658984D01*
X5086848Y-19658984D02*
X5067801Y-19649460D01*
X5067801Y-19649460D02*
X5058277Y-19639936D01*
X5058277Y-19639936D02*
X5048753Y-19620889D01*
X5048753Y-19620889D02*
X5039229Y-19582793D01*
X5039229Y-19582793D02*
X5039229Y-19535174D01*
X5039229Y-19535174D02*
X5048753Y-19497079D01*
X5048753Y-19497079D02*
X5058277Y-19478031D01*
X5058277Y-19478031D02*
X5067801Y-19468508D01*
X5067801Y-19468508D02*
X5086848Y-19458984D01*
X5343991Y-19658984D02*
X5229706Y-19658984D01*
X5286848Y-19658984D02*
X5286848Y-19458984D01*
X5286848Y-19458984D02*
X5267801Y-19487555D01*
X5267801Y-19487555D02*
X5248753Y-19506603D01*
X5248753Y-19506603D02*
X5229706Y-19516127D01*
X5439229Y-19658984D02*
X5477325Y-19658984D01*
X5477325Y-19658984D02*
X5496372Y-19649460D01*
X5496372Y-19649460D02*
X5505896Y-19639936D01*
X5505896Y-19639936D02*
X5524944Y-19611365D01*
X5524944Y-19611365D02*
X5534468Y-19573270D01*
X5534468Y-19573270D02*
X5534468Y-19497079D01*
X5534468Y-19497079D02*
X5524944Y-19478031D01*
X5524944Y-19478031D02*
X5515420Y-19468508D01*
X5515420Y-19468508D02*
X5496372Y-19458984D01*
X5496372Y-19458984D02*
X5458277Y-19458984D01*
X5458277Y-19458984D02*
X5439229Y-19468508D01*
X5439229Y-19468508D02*
X5429706Y-19478031D01*
X5429706Y-19478031D02*
X5420182Y-19497079D01*
X5420182Y-19497079D02*
X5420182Y-19544698D01*
X5420182Y-19544698D02*
X5429706Y-19563746D01*
X5429706Y-19563746D02*
X5439229Y-19573270D01*
X5439229Y-19573270D02*
X5458277Y-19582793D01*
X5458277Y-19582793D02*
X5496372Y-19582793D01*
X5496372Y-19582793D02*
X5515420Y-19573270D01*
X5515420Y-19573270D02*
X5524944Y-19563746D01*
X5524944Y-19563746D02*
X5534468Y-19544698D01*
X5601134Y-19458984D02*
X5734467Y-19458984D01*
X5734467Y-19458984D02*
X5648753Y-19658984D01*
X5801134Y-19458984D02*
X5801134Y-19497079D01*
X5877325Y-19458984D02*
X5877325Y-19497079D01*
X6172563Y-19735174D02*
X6163039Y-19725650D01*
X6163039Y-19725650D02*
X6143991Y-19697079D01*
X6143991Y-19697079D02*
X6134468Y-19678031D01*
X6134468Y-19678031D02*
X6124944Y-19649460D01*
X6124944Y-19649460D02*
X6115420Y-19601841D01*
X6115420Y-19601841D02*
X6115420Y-19563746D01*
X6115420Y-19563746D02*
X6124944Y-19516127D01*
X6124944Y-19516127D02*
X6134468Y-19487555D01*
X6134468Y-19487555D02*
X6143991Y-19468508D01*
X6143991Y-19468508D02*
X6163039Y-19439936D01*
X6163039Y-19439936D02*
X6172563Y-19430412D01*
X6229706Y-19458984D02*
X6353515Y-19458984D01*
X6353515Y-19458984D02*
X6286848Y-19535174D01*
X6286848Y-19535174D02*
X6315420Y-19535174D01*
X6315420Y-19535174D02*
X6334468Y-19544698D01*
X6334468Y-19544698D02*
X6343991Y-19554222D01*
X6343991Y-19554222D02*
X6353515Y-19573270D01*
X6353515Y-19573270D02*
X6353515Y-19620889D01*
X6353515Y-19620889D02*
X6343991Y-19639936D01*
X6343991Y-19639936D02*
X6334468Y-19649460D01*
X6334468Y-19649460D02*
X6315420Y-19658984D01*
X6315420Y-19658984D02*
X6258277Y-19658984D01*
X6258277Y-19658984D02*
X6239229Y-19649460D01*
X6239229Y-19649460D02*
X6229706Y-19639936D01*
X6524944Y-19458984D02*
X6486848Y-19458984D01*
X6486848Y-19458984D02*
X6467801Y-19468508D01*
X6467801Y-19468508D02*
X6458277Y-19478031D01*
X6458277Y-19478031D02*
X6439229Y-19506603D01*
X6439229Y-19506603D02*
X6429706Y-19544698D01*
X6429706Y-19544698D02*
X6429706Y-19620889D01*
X6429706Y-19620889D02*
X6439229Y-19639936D01*
X6439229Y-19639936D02*
X6448753Y-19649460D01*
X6448753Y-19649460D02*
X6467801Y-19658984D01*
X6467801Y-19658984D02*
X6505896Y-19658984D01*
X6505896Y-19658984D02*
X6524944Y-19649460D01*
X6524944Y-19649460D02*
X6534468Y-19639936D01*
X6534468Y-19639936D02*
X6543991Y-19620889D01*
X6543991Y-19620889D02*
X6543991Y-19573270D01*
X6543991Y-19573270D02*
X6534468Y-19554222D01*
X6534468Y-19554222D02*
X6524944Y-19544698D01*
X6524944Y-19544698D02*
X6505896Y-19535174D01*
X6505896Y-19535174D02*
X6467801Y-19535174D01*
X6467801Y-19535174D02*
X6448753Y-19544698D01*
X6448753Y-19544698D02*
X6439229Y-19554222D01*
X6439229Y-19554222D02*
X6429706Y-19573270D01*
X6782087Y-19658984D02*
X6782087Y-19458984D01*
X6867801Y-19658984D02*
X6867801Y-19554222D01*
X6867801Y-19554222D02*
X6858277Y-19535174D01*
X6858277Y-19535174D02*
X6839230Y-19525650D01*
X6839230Y-19525650D02*
X6810658Y-19525650D01*
X6810658Y-19525650D02*
X6791610Y-19535174D01*
X6791610Y-19535174D02*
X6782087Y-19544698D01*
X6991610Y-19658984D02*
X6972563Y-19649460D01*
X6972563Y-19649460D02*
X6963039Y-19639936D01*
X6963039Y-19639936D02*
X6953515Y-19620889D01*
X6953515Y-19620889D02*
X6953515Y-19563746D01*
X6953515Y-19563746D02*
X6963039Y-19544698D01*
X6963039Y-19544698D02*
X6972563Y-19535174D01*
X6972563Y-19535174D02*
X6991610Y-19525650D01*
X6991610Y-19525650D02*
X7020182Y-19525650D01*
X7020182Y-19525650D02*
X7039230Y-19535174D01*
X7039230Y-19535174D02*
X7048753Y-19544698D01*
X7048753Y-19544698D02*
X7058277Y-19563746D01*
X7058277Y-19563746D02*
X7058277Y-19620889D01*
X7058277Y-19620889D02*
X7048753Y-19639936D01*
X7048753Y-19639936D02*
X7039230Y-19649460D01*
X7039230Y-19649460D02*
X7020182Y-19658984D01*
X7020182Y-19658984D02*
X6991610Y-19658984D01*
X7172563Y-19658984D02*
X7153515Y-19649460D01*
X7153515Y-19649460D02*
X7143991Y-19630412D01*
X7143991Y-19630412D02*
X7143991Y-19458984D01*
X7324944Y-19649460D02*
X7305896Y-19658984D01*
X7305896Y-19658984D02*
X7267801Y-19658984D01*
X7267801Y-19658984D02*
X7248753Y-19649460D01*
X7248753Y-19649460D02*
X7239230Y-19630412D01*
X7239230Y-19630412D02*
X7239230Y-19554222D01*
X7239230Y-19554222D02*
X7248753Y-19535174D01*
X7248753Y-19535174D02*
X7267801Y-19525650D01*
X7267801Y-19525650D02*
X7305896Y-19525650D01*
X7305896Y-19525650D02*
X7324944Y-19535174D01*
X7324944Y-19535174D02*
X7334468Y-19554222D01*
X7334468Y-19554222D02*
X7334468Y-19573270D01*
X7334468Y-19573270D02*
X7239230Y-19592317D01*
X7410658Y-19649460D02*
X7429706Y-19658984D01*
X7429706Y-19658984D02*
X7467801Y-19658984D01*
X7467801Y-19658984D02*
X7486849Y-19649460D01*
X7486849Y-19649460D02*
X7496372Y-19630412D01*
X7496372Y-19630412D02*
X7496372Y-19620889D01*
X7496372Y-19620889D02*
X7486849Y-19601841D01*
X7486849Y-19601841D02*
X7467801Y-19592317D01*
X7467801Y-19592317D02*
X7439230Y-19592317D01*
X7439230Y-19592317D02*
X7420182Y-19582793D01*
X7420182Y-19582793D02*
X7410658Y-19563746D01*
X7410658Y-19563746D02*
X7410658Y-19554222D01*
X7410658Y-19554222D02*
X7420182Y-19535174D01*
X7420182Y-19535174D02*
X7439230Y-19525650D01*
X7439230Y-19525650D02*
X7467801Y-19525650D01*
X7467801Y-19525650D02*
X7486849Y-19535174D01*
X7563039Y-19735174D02*
X7572563Y-19725650D01*
X7572563Y-19725650D02*
X7591611Y-19697079D01*
X7591611Y-19697079D02*
X7601134Y-19678031D01*
X7601134Y-19678031D02*
X7610658Y-19649460D01*
X7610658Y-19649460D02*
X7620182Y-19601841D01*
X7620182Y-19601841D02*
X7620182Y-19563746D01*
X7620182Y-19563746D02*
X7610658Y-19516127D01*
X7610658Y-19516127D02*
X7601134Y-19487555D01*
X7601134Y-19487555D02*
X7591611Y-19468508D01*
X7591611Y-19468508D02*
X7572563Y-19439936D01*
X7572563Y-19439936D02*
X7563039Y-19430412D01*
D12*
X2597500Y-19831500D02*
G75*
G02*
X2517500Y-19831500I-40000J0D01*
G01*
X2517500Y-19831500D02*
G75*
G02*
X2597500Y-19831500I40000J0D01*
G01*
D11*
X2896372Y-19722984D02*
X2915420Y-19722984D01*
X2915420Y-19722984D02*
X2934467Y-19732508D01*
X2934467Y-19732508D02*
X2943991Y-19742031D01*
X2943991Y-19742031D02*
X2953515Y-19761079D01*
X2953515Y-19761079D02*
X2963039Y-19799174D01*
X2963039Y-19799174D02*
X2963039Y-19846793D01*
X2963039Y-19846793D02*
X2953515Y-19884889D01*
X2953515Y-19884889D02*
X2943991Y-19903936D01*
X2943991Y-19903936D02*
X2934467Y-19913460D01*
X2934467Y-19913460D02*
X2915420Y-19922984D01*
X2915420Y-19922984D02*
X2896372Y-19922984D01*
X2896372Y-19922984D02*
X2877324Y-19913460D01*
X2877324Y-19913460D02*
X2867801Y-19903936D01*
X2867801Y-19903936D02*
X2858277Y-19884889D01*
X2858277Y-19884889D02*
X2848753Y-19846793D01*
X2848753Y-19846793D02*
X2848753Y-19799174D01*
X2848753Y-19799174D02*
X2858277Y-19761079D01*
X2858277Y-19761079D02*
X2867801Y-19742031D01*
X2867801Y-19742031D02*
X2877324Y-19732508D01*
X2877324Y-19732508D02*
X2896372Y-19722984D01*
X3048753Y-19903936D02*
X3058277Y-19913460D01*
X3058277Y-19913460D02*
X3048753Y-19922984D01*
X3048753Y-19922984D02*
X3039229Y-19913460D01*
X3039229Y-19913460D02*
X3048753Y-19903936D01*
X3048753Y-19903936D02*
X3048753Y-19922984D01*
X3172562Y-19808698D02*
X3153515Y-19799174D01*
X3153515Y-19799174D02*
X3143991Y-19789650D01*
X3143991Y-19789650D02*
X3134467Y-19770603D01*
X3134467Y-19770603D02*
X3134467Y-19761079D01*
X3134467Y-19761079D02*
X3143991Y-19742031D01*
X3143991Y-19742031D02*
X3153515Y-19732508D01*
X3153515Y-19732508D02*
X3172562Y-19722984D01*
X3172562Y-19722984D02*
X3210658Y-19722984D01*
X3210658Y-19722984D02*
X3229705Y-19732508D01*
X3229705Y-19732508D02*
X3239229Y-19742031D01*
X3239229Y-19742031D02*
X3248753Y-19761079D01*
X3248753Y-19761079D02*
X3248753Y-19770603D01*
X3248753Y-19770603D02*
X3239229Y-19789650D01*
X3239229Y-19789650D02*
X3229705Y-19799174D01*
X3229705Y-19799174D02*
X3210658Y-19808698D01*
X3210658Y-19808698D02*
X3172562Y-19808698D01*
X3172562Y-19808698D02*
X3153515Y-19818222D01*
X3153515Y-19818222D02*
X3143991Y-19827746D01*
X3143991Y-19827746D02*
X3134467Y-19846793D01*
X3134467Y-19846793D02*
X3134467Y-19884889D01*
X3134467Y-19884889D02*
X3143991Y-19903936D01*
X3143991Y-19903936D02*
X3153515Y-19913460D01*
X3153515Y-19913460D02*
X3172562Y-19922984D01*
X3172562Y-19922984D02*
X3210658Y-19922984D01*
X3210658Y-19922984D02*
X3229705Y-19913460D01*
X3229705Y-19913460D02*
X3239229Y-19903936D01*
X3239229Y-19903936D02*
X3248753Y-19884889D01*
X3248753Y-19884889D02*
X3248753Y-19846793D01*
X3248753Y-19846793D02*
X3239229Y-19827746D01*
X3239229Y-19827746D02*
X3229705Y-19818222D01*
X3229705Y-19818222D02*
X3210658Y-19808698D01*
X3372562Y-19722984D02*
X3391610Y-19722984D01*
X3391610Y-19722984D02*
X3410658Y-19732508D01*
X3410658Y-19732508D02*
X3420182Y-19742031D01*
X3420182Y-19742031D02*
X3429705Y-19761079D01*
X3429705Y-19761079D02*
X3439229Y-19799174D01*
X3439229Y-19799174D02*
X3439229Y-19846793D01*
X3439229Y-19846793D02*
X3429705Y-19884889D01*
X3429705Y-19884889D02*
X3420182Y-19903936D01*
X3420182Y-19903936D02*
X3410658Y-19913460D01*
X3410658Y-19913460D02*
X3391610Y-19922984D01*
X3391610Y-19922984D02*
X3372562Y-19922984D01*
X3372562Y-19922984D02*
X3353515Y-19913460D01*
X3353515Y-19913460D02*
X3343991Y-19903936D01*
X3343991Y-19903936D02*
X3334467Y-19884889D01*
X3334467Y-19884889D02*
X3324943Y-19846793D01*
X3324943Y-19846793D02*
X3324943Y-19799174D01*
X3324943Y-19799174D02*
X3334467Y-19761079D01*
X3334467Y-19761079D02*
X3343991Y-19742031D01*
X3343991Y-19742031D02*
X3353515Y-19732508D01*
X3353515Y-19732508D02*
X3372562Y-19722984D01*
X3563039Y-19722984D02*
X3582086Y-19722984D01*
X3582086Y-19722984D02*
X3601134Y-19732508D01*
X3601134Y-19732508D02*
X3610658Y-19742031D01*
X3610658Y-19742031D02*
X3620182Y-19761079D01*
X3620182Y-19761079D02*
X3629705Y-19799174D01*
X3629705Y-19799174D02*
X3629705Y-19846793D01*
X3629705Y-19846793D02*
X3620182Y-19884889D01*
X3620182Y-19884889D02*
X3610658Y-19903936D01*
X3610658Y-19903936D02*
X3601134Y-19913460D01*
X3601134Y-19913460D02*
X3582086Y-19922984D01*
X3582086Y-19922984D02*
X3563039Y-19922984D01*
X3563039Y-19922984D02*
X3543991Y-19913460D01*
X3543991Y-19913460D02*
X3534467Y-19903936D01*
X3534467Y-19903936D02*
X3524943Y-19884889D01*
X3524943Y-19884889D02*
X3515420Y-19846793D01*
X3515420Y-19846793D02*
X3515420Y-19799174D01*
X3515420Y-19799174D02*
X3524943Y-19761079D01*
X3524943Y-19761079D02*
X3534467Y-19742031D01*
X3534467Y-19742031D02*
X3543991Y-19732508D01*
X3543991Y-19732508D02*
X3563039Y-19722984D01*
X3715420Y-19922984D02*
X3715420Y-19789650D01*
X3715420Y-19808698D02*
X3724943Y-19799174D01*
X3724943Y-19799174D02*
X3743991Y-19789650D01*
X3743991Y-19789650D02*
X3772563Y-19789650D01*
X3772563Y-19789650D02*
X3791610Y-19799174D01*
X3791610Y-19799174D02*
X3801134Y-19818222D01*
X3801134Y-19818222D02*
X3801134Y-19922984D01*
X3801134Y-19818222D02*
X3810658Y-19799174D01*
X3810658Y-19799174D02*
X3829705Y-19789650D01*
X3829705Y-19789650D02*
X3858277Y-19789650D01*
X3858277Y-19789650D02*
X3877324Y-19799174D01*
X3877324Y-19799174D02*
X3886848Y-19818222D01*
X3886848Y-19818222D02*
X3886848Y-19922984D01*
X3982086Y-19922984D02*
X3982086Y-19789650D01*
X3982086Y-19808698D02*
X3991610Y-19799174D01*
X3991610Y-19799174D02*
X4010658Y-19789650D01*
X4010658Y-19789650D02*
X4039229Y-19789650D01*
X4039229Y-19789650D02*
X4058277Y-19799174D01*
X4058277Y-19799174D02*
X4067801Y-19818222D01*
X4067801Y-19818222D02*
X4067801Y-19922984D01*
X4067801Y-19818222D02*
X4077324Y-19799174D01*
X4077324Y-19799174D02*
X4096372Y-19789650D01*
X4096372Y-19789650D02*
X4124943Y-19789650D01*
X4124943Y-19789650D02*
X4143991Y-19799174D01*
X4143991Y-19799174D02*
X4153515Y-19818222D01*
X4153515Y-19818222D02*
X4153515Y-19922984D01*
X4543991Y-19713460D02*
X4372563Y-19970603D01*
X4801134Y-19722984D02*
X4820182Y-19722984D01*
X4820182Y-19722984D02*
X4839229Y-19732508D01*
X4839229Y-19732508D02*
X4848753Y-19742031D01*
X4848753Y-19742031D02*
X4858277Y-19761079D01*
X4858277Y-19761079D02*
X4867801Y-19799174D01*
X4867801Y-19799174D02*
X4867801Y-19846793D01*
X4867801Y-19846793D02*
X4858277Y-19884889D01*
X4858277Y-19884889D02*
X4848753Y-19903936D01*
X4848753Y-19903936D02*
X4839229Y-19913460D01*
X4839229Y-19913460D02*
X4820182Y-19922984D01*
X4820182Y-19922984D02*
X4801134Y-19922984D01*
X4801134Y-19922984D02*
X4782087Y-19913460D01*
X4782087Y-19913460D02*
X4772563Y-19903936D01*
X4772563Y-19903936D02*
X4763039Y-19884889D01*
X4763039Y-19884889D02*
X4753515Y-19846793D01*
X4753515Y-19846793D02*
X4753515Y-19799174D01*
X4753515Y-19799174D02*
X4763039Y-19761079D01*
X4763039Y-19761079D02*
X4772563Y-19742031D01*
X4772563Y-19742031D02*
X4782087Y-19732508D01*
X4782087Y-19732508D02*
X4801134Y-19722984D01*
X4953515Y-19903936D02*
X4963039Y-19913460D01*
X4963039Y-19913460D02*
X4953515Y-19922984D01*
X4953515Y-19922984D02*
X4943991Y-19913460D01*
X4943991Y-19913460D02*
X4953515Y-19903936D01*
X4953515Y-19903936D02*
X4953515Y-19922984D01*
X5086848Y-19722984D02*
X5105896Y-19722984D01*
X5105896Y-19722984D02*
X5124944Y-19732508D01*
X5124944Y-19732508D02*
X5134468Y-19742031D01*
X5134468Y-19742031D02*
X5143991Y-19761079D01*
X5143991Y-19761079D02*
X5153515Y-19799174D01*
X5153515Y-19799174D02*
X5153515Y-19846793D01*
X5153515Y-19846793D02*
X5143991Y-19884889D01*
X5143991Y-19884889D02*
X5134468Y-19903936D01*
X5134468Y-19903936D02*
X5124944Y-19913460D01*
X5124944Y-19913460D02*
X5105896Y-19922984D01*
X5105896Y-19922984D02*
X5086848Y-19922984D01*
X5086848Y-19922984D02*
X5067801Y-19913460D01*
X5067801Y-19913460D02*
X5058277Y-19903936D01*
X5058277Y-19903936D02*
X5048753Y-19884889D01*
X5048753Y-19884889D02*
X5039229Y-19846793D01*
X5039229Y-19846793D02*
X5039229Y-19799174D01*
X5039229Y-19799174D02*
X5048753Y-19761079D01*
X5048753Y-19761079D02*
X5058277Y-19742031D01*
X5058277Y-19742031D02*
X5067801Y-19732508D01*
X5067801Y-19732508D02*
X5086848Y-19722984D01*
X5220182Y-19722984D02*
X5343991Y-19722984D01*
X5343991Y-19722984D02*
X5277325Y-19799174D01*
X5277325Y-19799174D02*
X5305896Y-19799174D01*
X5305896Y-19799174D02*
X5324944Y-19808698D01*
X5324944Y-19808698D02*
X5334468Y-19818222D01*
X5334468Y-19818222D02*
X5343991Y-19837270D01*
X5343991Y-19837270D02*
X5343991Y-19884889D01*
X5343991Y-19884889D02*
X5334468Y-19903936D01*
X5334468Y-19903936D02*
X5324944Y-19913460D01*
X5324944Y-19913460D02*
X5305896Y-19922984D01*
X5305896Y-19922984D02*
X5248753Y-19922984D01*
X5248753Y-19922984D02*
X5229706Y-19913460D01*
X5229706Y-19913460D02*
X5220182Y-19903936D01*
X5534468Y-19922984D02*
X5420182Y-19922984D01*
X5477325Y-19922984D02*
X5477325Y-19722984D01*
X5477325Y-19722984D02*
X5458277Y-19751555D01*
X5458277Y-19751555D02*
X5439229Y-19770603D01*
X5439229Y-19770603D02*
X5420182Y-19780127D01*
X5715420Y-19722984D02*
X5620182Y-19722984D01*
X5620182Y-19722984D02*
X5610658Y-19818222D01*
X5610658Y-19818222D02*
X5620182Y-19808698D01*
X5620182Y-19808698D02*
X5639229Y-19799174D01*
X5639229Y-19799174D02*
X5686848Y-19799174D01*
X5686848Y-19799174D02*
X5705896Y-19808698D01*
X5705896Y-19808698D02*
X5715420Y-19818222D01*
X5715420Y-19818222D02*
X5724944Y-19837270D01*
X5724944Y-19837270D02*
X5724944Y-19884889D01*
X5724944Y-19884889D02*
X5715420Y-19903936D01*
X5715420Y-19903936D02*
X5705896Y-19913460D01*
X5705896Y-19913460D02*
X5686848Y-19922984D01*
X5686848Y-19922984D02*
X5639229Y-19922984D01*
X5639229Y-19922984D02*
X5620182Y-19913460D01*
X5620182Y-19913460D02*
X5610658Y-19903936D01*
X5801134Y-19722984D02*
X5801134Y-19761079D01*
X5877325Y-19722984D02*
X5877325Y-19761079D01*
X6172563Y-19999174D02*
X6163039Y-19989650D01*
X6163039Y-19989650D02*
X6143991Y-19961079D01*
X6143991Y-19961079D02*
X6134468Y-19942031D01*
X6134468Y-19942031D02*
X6124944Y-19913460D01*
X6124944Y-19913460D02*
X6115420Y-19865841D01*
X6115420Y-19865841D02*
X6115420Y-19827746D01*
X6115420Y-19827746D02*
X6124944Y-19780127D01*
X6124944Y-19780127D02*
X6134468Y-19751555D01*
X6134468Y-19751555D02*
X6143991Y-19732508D01*
X6143991Y-19732508D02*
X6163039Y-19703936D01*
X6163039Y-19703936D02*
X6172563Y-19694412D01*
X6343991Y-19722984D02*
X6248753Y-19722984D01*
X6248753Y-19722984D02*
X6239229Y-19818222D01*
X6239229Y-19818222D02*
X6248753Y-19808698D01*
X6248753Y-19808698D02*
X6267801Y-19799174D01*
X6267801Y-19799174D02*
X6315420Y-19799174D01*
X6315420Y-19799174D02*
X6334468Y-19808698D01*
X6334468Y-19808698D02*
X6343991Y-19818222D01*
X6343991Y-19818222D02*
X6353515Y-19837270D01*
X6353515Y-19837270D02*
X6353515Y-19884889D01*
X6353515Y-19884889D02*
X6343991Y-19903936D01*
X6343991Y-19903936D02*
X6334468Y-19913460D01*
X6334468Y-19913460D02*
X6315420Y-19922984D01*
X6315420Y-19922984D02*
X6267801Y-19922984D01*
X6267801Y-19922984D02*
X6248753Y-19913460D01*
X6248753Y-19913460D02*
X6239229Y-19903936D01*
X6429706Y-19742031D02*
X6439229Y-19732508D01*
X6439229Y-19732508D02*
X6458277Y-19722984D01*
X6458277Y-19722984D02*
X6505896Y-19722984D01*
X6505896Y-19722984D02*
X6524944Y-19732508D01*
X6524944Y-19732508D02*
X6534468Y-19742031D01*
X6534468Y-19742031D02*
X6543991Y-19761079D01*
X6543991Y-19761079D02*
X6543991Y-19780127D01*
X6543991Y-19780127D02*
X6534468Y-19808698D01*
X6534468Y-19808698D02*
X6420182Y-19922984D01*
X6420182Y-19922984D02*
X6543991Y-19922984D01*
X6782087Y-19922984D02*
X6782087Y-19722984D01*
X6867801Y-19922984D02*
X6867801Y-19818222D01*
X6867801Y-19818222D02*
X6858277Y-19799174D01*
X6858277Y-19799174D02*
X6839230Y-19789650D01*
X6839230Y-19789650D02*
X6810658Y-19789650D01*
X6810658Y-19789650D02*
X6791610Y-19799174D01*
X6791610Y-19799174D02*
X6782087Y-19808698D01*
X6991610Y-19922984D02*
X6972563Y-19913460D01*
X6972563Y-19913460D02*
X6963039Y-19903936D01*
X6963039Y-19903936D02*
X6953515Y-19884889D01*
X6953515Y-19884889D02*
X6953515Y-19827746D01*
X6953515Y-19827746D02*
X6963039Y-19808698D01*
X6963039Y-19808698D02*
X6972563Y-19799174D01*
X6972563Y-19799174D02*
X6991610Y-19789650D01*
X6991610Y-19789650D02*
X7020182Y-19789650D01*
X7020182Y-19789650D02*
X7039230Y-19799174D01*
X7039230Y-19799174D02*
X7048753Y-19808698D01*
X7048753Y-19808698D02*
X7058277Y-19827746D01*
X7058277Y-19827746D02*
X7058277Y-19884889D01*
X7058277Y-19884889D02*
X7048753Y-19903936D01*
X7048753Y-19903936D02*
X7039230Y-19913460D01*
X7039230Y-19913460D02*
X7020182Y-19922984D01*
X7020182Y-19922984D02*
X6991610Y-19922984D01*
X7172563Y-19922984D02*
X7153515Y-19913460D01*
X7153515Y-19913460D02*
X7143991Y-19894412D01*
X7143991Y-19894412D02*
X7143991Y-19722984D01*
X7324944Y-19913460D02*
X7305896Y-19922984D01*
X7305896Y-19922984D02*
X7267801Y-19922984D01*
X7267801Y-19922984D02*
X7248753Y-19913460D01*
X7248753Y-19913460D02*
X7239230Y-19894412D01*
X7239230Y-19894412D02*
X7239230Y-19818222D01*
X7239230Y-19818222D02*
X7248753Y-19799174D01*
X7248753Y-19799174D02*
X7267801Y-19789650D01*
X7267801Y-19789650D02*
X7305896Y-19789650D01*
X7305896Y-19789650D02*
X7324944Y-19799174D01*
X7324944Y-19799174D02*
X7334468Y-19818222D01*
X7334468Y-19818222D02*
X7334468Y-19837270D01*
X7334468Y-19837270D02*
X7239230Y-19856317D01*
X7410658Y-19913460D02*
X7429706Y-19922984D01*
X7429706Y-19922984D02*
X7467801Y-19922984D01*
X7467801Y-19922984D02*
X7486849Y-19913460D01*
X7486849Y-19913460D02*
X7496372Y-19894412D01*
X7496372Y-19894412D02*
X7496372Y-19884889D01*
X7496372Y-19884889D02*
X7486849Y-19865841D01*
X7486849Y-19865841D02*
X7467801Y-19856317D01*
X7467801Y-19856317D02*
X7439230Y-19856317D01*
X7439230Y-19856317D02*
X7420182Y-19846793D01*
X7420182Y-19846793D02*
X7410658Y-19827746D01*
X7410658Y-19827746D02*
X7410658Y-19818222D01*
X7410658Y-19818222D02*
X7420182Y-19799174D01*
X7420182Y-19799174D02*
X7439230Y-19789650D01*
X7439230Y-19789650D02*
X7467801Y-19789650D01*
X7467801Y-19789650D02*
X7486849Y-19799174D01*
X7563039Y-19999174D02*
X7572563Y-19989650D01*
X7572563Y-19989650D02*
X7591611Y-19961079D01*
X7591611Y-19961079D02*
X7601134Y-19942031D01*
X7601134Y-19942031D02*
X7610658Y-19913460D01*
X7610658Y-19913460D02*
X7620182Y-19865841D01*
X7620182Y-19865841D02*
X7620182Y-19827746D01*
X7620182Y-19827746D02*
X7610658Y-19780127D01*
X7610658Y-19780127D02*
X7601134Y-19751555D01*
X7601134Y-19751555D02*
X7591611Y-19732508D01*
X7591611Y-19732508D02*
X7572563Y-19703936D01*
X7572563Y-19703936D02*
X7563039Y-19694412D01*
D13*
X2542500Y-20040500D02*
X2542500Y-20150500D01*
X2487500Y-20095500D02*
X2597500Y-20095500D01*
D11*
X2963039Y-20186984D02*
X2848753Y-20186984D01*
X2905896Y-20186984D02*
X2905896Y-19986984D01*
X2905896Y-19986984D02*
X2886848Y-20015555D01*
X2886848Y-20015555D02*
X2867801Y-20034603D01*
X2867801Y-20034603D02*
X2848753Y-20044127D01*
X3048753Y-20167936D02*
X3058277Y-20177460D01*
X3058277Y-20177460D02*
X3048753Y-20186984D01*
X3048753Y-20186984D02*
X3039229Y-20177460D01*
X3039229Y-20177460D02*
X3048753Y-20167936D01*
X3048753Y-20167936D02*
X3048753Y-20186984D01*
X3248753Y-20186984D02*
X3134467Y-20186984D01*
X3191610Y-20186984D02*
X3191610Y-19986984D01*
X3191610Y-19986984D02*
X3172562Y-20015555D01*
X3172562Y-20015555D02*
X3153515Y-20034603D01*
X3153515Y-20034603D02*
X3134467Y-20044127D01*
X3372562Y-19986984D02*
X3391610Y-19986984D01*
X3391610Y-19986984D02*
X3410658Y-19996508D01*
X3410658Y-19996508D02*
X3420182Y-20006031D01*
X3420182Y-20006031D02*
X3429705Y-20025079D01*
X3429705Y-20025079D02*
X3439229Y-20063174D01*
X3439229Y-20063174D02*
X3439229Y-20110793D01*
X3439229Y-20110793D02*
X3429705Y-20148889D01*
X3429705Y-20148889D02*
X3420182Y-20167936D01*
X3420182Y-20167936D02*
X3410658Y-20177460D01*
X3410658Y-20177460D02*
X3391610Y-20186984D01*
X3391610Y-20186984D02*
X3372562Y-20186984D01*
X3372562Y-20186984D02*
X3353515Y-20177460D01*
X3353515Y-20177460D02*
X3343991Y-20167936D01*
X3343991Y-20167936D02*
X3334467Y-20148889D01*
X3334467Y-20148889D02*
X3324943Y-20110793D01*
X3324943Y-20110793D02*
X3324943Y-20063174D01*
X3324943Y-20063174D02*
X3334467Y-20025079D01*
X3334467Y-20025079D02*
X3343991Y-20006031D01*
X3343991Y-20006031D02*
X3353515Y-19996508D01*
X3353515Y-19996508D02*
X3372562Y-19986984D01*
X3563039Y-19986984D02*
X3582086Y-19986984D01*
X3582086Y-19986984D02*
X3601134Y-19996508D01*
X3601134Y-19996508D02*
X3610658Y-20006031D01*
X3610658Y-20006031D02*
X3620182Y-20025079D01*
X3620182Y-20025079D02*
X3629705Y-20063174D01*
X3629705Y-20063174D02*
X3629705Y-20110793D01*
X3629705Y-20110793D02*
X3620182Y-20148889D01*
X3620182Y-20148889D02*
X3610658Y-20167936D01*
X3610658Y-20167936D02*
X3601134Y-20177460D01*
X3601134Y-20177460D02*
X3582086Y-20186984D01*
X3582086Y-20186984D02*
X3563039Y-20186984D01*
X3563039Y-20186984D02*
X3543991Y-20177460D01*
X3543991Y-20177460D02*
X3534467Y-20167936D01*
X3534467Y-20167936D02*
X3524943Y-20148889D01*
X3524943Y-20148889D02*
X3515420Y-20110793D01*
X3515420Y-20110793D02*
X3515420Y-20063174D01*
X3515420Y-20063174D02*
X3524943Y-20025079D01*
X3524943Y-20025079D02*
X3534467Y-20006031D01*
X3534467Y-20006031D02*
X3543991Y-19996508D01*
X3543991Y-19996508D02*
X3563039Y-19986984D01*
X3715420Y-20186984D02*
X3715420Y-20053650D01*
X3715420Y-20072698D02*
X3724943Y-20063174D01*
X3724943Y-20063174D02*
X3743991Y-20053650D01*
X3743991Y-20053650D02*
X3772563Y-20053650D01*
X3772563Y-20053650D02*
X3791610Y-20063174D01*
X3791610Y-20063174D02*
X3801134Y-20082222D01*
X3801134Y-20082222D02*
X3801134Y-20186984D01*
X3801134Y-20082222D02*
X3810658Y-20063174D01*
X3810658Y-20063174D02*
X3829705Y-20053650D01*
X3829705Y-20053650D02*
X3858277Y-20053650D01*
X3858277Y-20053650D02*
X3877324Y-20063174D01*
X3877324Y-20063174D02*
X3886848Y-20082222D01*
X3886848Y-20082222D02*
X3886848Y-20186984D01*
X3982086Y-20186984D02*
X3982086Y-20053650D01*
X3982086Y-20072698D02*
X3991610Y-20063174D01*
X3991610Y-20063174D02*
X4010658Y-20053650D01*
X4010658Y-20053650D02*
X4039229Y-20053650D01*
X4039229Y-20053650D02*
X4058277Y-20063174D01*
X4058277Y-20063174D02*
X4067801Y-20082222D01*
X4067801Y-20082222D02*
X4067801Y-20186984D01*
X4067801Y-20082222D02*
X4077324Y-20063174D01*
X4077324Y-20063174D02*
X4096372Y-20053650D01*
X4096372Y-20053650D02*
X4124943Y-20053650D01*
X4124943Y-20053650D02*
X4143991Y-20063174D01*
X4143991Y-20063174D02*
X4153515Y-20082222D01*
X4153515Y-20082222D02*
X4153515Y-20186984D01*
X4543991Y-19977460D02*
X4372563Y-20234603D01*
X4801134Y-19986984D02*
X4820182Y-19986984D01*
X4820182Y-19986984D02*
X4839229Y-19996508D01*
X4839229Y-19996508D02*
X4848753Y-20006031D01*
X4848753Y-20006031D02*
X4858277Y-20025079D01*
X4858277Y-20025079D02*
X4867801Y-20063174D01*
X4867801Y-20063174D02*
X4867801Y-20110793D01*
X4867801Y-20110793D02*
X4858277Y-20148889D01*
X4858277Y-20148889D02*
X4848753Y-20167936D01*
X4848753Y-20167936D02*
X4839229Y-20177460D01*
X4839229Y-20177460D02*
X4820182Y-20186984D01*
X4820182Y-20186984D02*
X4801134Y-20186984D01*
X4801134Y-20186984D02*
X4782087Y-20177460D01*
X4782087Y-20177460D02*
X4772563Y-20167936D01*
X4772563Y-20167936D02*
X4763039Y-20148889D01*
X4763039Y-20148889D02*
X4753515Y-20110793D01*
X4753515Y-20110793D02*
X4753515Y-20063174D01*
X4753515Y-20063174D02*
X4763039Y-20025079D01*
X4763039Y-20025079D02*
X4772563Y-20006031D01*
X4772563Y-20006031D02*
X4782087Y-19996508D01*
X4782087Y-19996508D02*
X4801134Y-19986984D01*
X4953515Y-20167936D02*
X4963039Y-20177460D01*
X4963039Y-20177460D02*
X4953515Y-20186984D01*
X4953515Y-20186984D02*
X4943991Y-20177460D01*
X4943991Y-20177460D02*
X4953515Y-20167936D01*
X4953515Y-20167936D02*
X4953515Y-20186984D01*
X5086848Y-19986984D02*
X5105896Y-19986984D01*
X5105896Y-19986984D02*
X5124944Y-19996508D01*
X5124944Y-19996508D02*
X5134468Y-20006031D01*
X5134468Y-20006031D02*
X5143991Y-20025079D01*
X5143991Y-20025079D02*
X5153515Y-20063174D01*
X5153515Y-20063174D02*
X5153515Y-20110793D01*
X5153515Y-20110793D02*
X5143991Y-20148889D01*
X5143991Y-20148889D02*
X5134468Y-20167936D01*
X5134468Y-20167936D02*
X5124944Y-20177460D01*
X5124944Y-20177460D02*
X5105896Y-20186984D01*
X5105896Y-20186984D02*
X5086848Y-20186984D01*
X5086848Y-20186984D02*
X5067801Y-20177460D01*
X5067801Y-20177460D02*
X5058277Y-20167936D01*
X5058277Y-20167936D02*
X5048753Y-20148889D01*
X5048753Y-20148889D02*
X5039229Y-20110793D01*
X5039229Y-20110793D02*
X5039229Y-20063174D01*
X5039229Y-20063174D02*
X5048753Y-20025079D01*
X5048753Y-20025079D02*
X5058277Y-20006031D01*
X5058277Y-20006031D02*
X5067801Y-19996508D01*
X5067801Y-19996508D02*
X5086848Y-19986984D01*
X5324944Y-20053650D02*
X5324944Y-20186984D01*
X5277325Y-19977460D02*
X5229706Y-20120317D01*
X5229706Y-20120317D02*
X5353515Y-20120317D01*
X5410658Y-19986984D02*
X5534468Y-19986984D01*
X5534468Y-19986984D02*
X5467801Y-20063174D01*
X5467801Y-20063174D02*
X5496372Y-20063174D01*
X5496372Y-20063174D02*
X5515420Y-20072698D01*
X5515420Y-20072698D02*
X5524944Y-20082222D01*
X5524944Y-20082222D02*
X5534468Y-20101270D01*
X5534468Y-20101270D02*
X5534468Y-20148889D01*
X5534468Y-20148889D02*
X5524944Y-20167936D01*
X5524944Y-20167936D02*
X5515420Y-20177460D01*
X5515420Y-20177460D02*
X5496372Y-20186984D01*
X5496372Y-20186984D02*
X5439229Y-20186984D01*
X5439229Y-20186984D02*
X5420182Y-20177460D01*
X5420182Y-20177460D02*
X5410658Y-20167936D01*
X5601134Y-19986984D02*
X5724944Y-19986984D01*
X5724944Y-19986984D02*
X5658277Y-20063174D01*
X5658277Y-20063174D02*
X5686848Y-20063174D01*
X5686848Y-20063174D02*
X5705896Y-20072698D01*
X5705896Y-20072698D02*
X5715420Y-20082222D01*
X5715420Y-20082222D02*
X5724944Y-20101270D01*
X5724944Y-20101270D02*
X5724944Y-20148889D01*
X5724944Y-20148889D02*
X5715420Y-20167936D01*
X5715420Y-20167936D02*
X5705896Y-20177460D01*
X5705896Y-20177460D02*
X5686848Y-20186984D01*
X5686848Y-20186984D02*
X5629706Y-20186984D01*
X5629706Y-20186984D02*
X5610658Y-20177460D01*
X5610658Y-20177460D02*
X5601134Y-20167936D01*
X5801134Y-19986984D02*
X5801134Y-20025079D01*
X5877325Y-19986984D02*
X5877325Y-20025079D01*
X6172563Y-20263174D02*
X6163039Y-20253650D01*
X6163039Y-20253650D02*
X6143991Y-20225079D01*
X6143991Y-20225079D02*
X6134468Y-20206031D01*
X6134468Y-20206031D02*
X6124944Y-20177460D01*
X6124944Y-20177460D02*
X6115420Y-20129841D01*
X6115420Y-20129841D02*
X6115420Y-20091746D01*
X6115420Y-20091746D02*
X6124944Y-20044127D01*
X6124944Y-20044127D02*
X6134468Y-20015555D01*
X6134468Y-20015555D02*
X6143991Y-19996508D01*
X6143991Y-19996508D02*
X6163039Y-19967936D01*
X6163039Y-19967936D02*
X6172563Y-19958412D01*
X6353515Y-20186984D02*
X6239229Y-20186984D01*
X6296372Y-20186984D02*
X6296372Y-19986984D01*
X6296372Y-19986984D02*
X6277325Y-20015555D01*
X6277325Y-20015555D02*
X6258277Y-20034603D01*
X6258277Y-20034603D02*
X6239229Y-20044127D01*
X6420182Y-19986984D02*
X6543991Y-19986984D01*
X6543991Y-19986984D02*
X6477325Y-20063174D01*
X6477325Y-20063174D02*
X6505896Y-20063174D01*
X6505896Y-20063174D02*
X6524944Y-20072698D01*
X6524944Y-20072698D02*
X6534468Y-20082222D01*
X6534468Y-20082222D02*
X6543991Y-20101270D01*
X6543991Y-20101270D02*
X6543991Y-20148889D01*
X6543991Y-20148889D02*
X6534468Y-20167936D01*
X6534468Y-20167936D02*
X6524944Y-20177460D01*
X6524944Y-20177460D02*
X6505896Y-20186984D01*
X6505896Y-20186984D02*
X6448753Y-20186984D01*
X6448753Y-20186984D02*
X6429706Y-20177460D01*
X6429706Y-20177460D02*
X6420182Y-20167936D01*
X6734468Y-20186984D02*
X6620182Y-20186984D01*
X6677325Y-20186984D02*
X6677325Y-19986984D01*
X6677325Y-19986984D02*
X6658277Y-20015555D01*
X6658277Y-20015555D02*
X6639229Y-20034603D01*
X6639229Y-20034603D02*
X6620182Y-20044127D01*
X6972563Y-20186984D02*
X6972563Y-19986984D01*
X7058277Y-20186984D02*
X7058277Y-20082222D01*
X7058277Y-20082222D02*
X7048753Y-20063174D01*
X7048753Y-20063174D02*
X7029706Y-20053650D01*
X7029706Y-20053650D02*
X7001134Y-20053650D01*
X7001134Y-20053650D02*
X6982087Y-20063174D01*
X6982087Y-20063174D02*
X6972563Y-20072698D01*
X7182087Y-20186984D02*
X7163039Y-20177460D01*
X7163039Y-20177460D02*
X7153515Y-20167936D01*
X7153515Y-20167936D02*
X7143991Y-20148889D01*
X7143991Y-20148889D02*
X7143991Y-20091746D01*
X7143991Y-20091746D02*
X7153515Y-20072698D01*
X7153515Y-20072698D02*
X7163039Y-20063174D01*
X7163039Y-20063174D02*
X7182087Y-20053650D01*
X7182087Y-20053650D02*
X7210658Y-20053650D01*
X7210658Y-20053650D02*
X7229706Y-20063174D01*
X7229706Y-20063174D02*
X7239230Y-20072698D01*
X7239230Y-20072698D02*
X7248753Y-20091746D01*
X7248753Y-20091746D02*
X7248753Y-20148889D01*
X7248753Y-20148889D02*
X7239230Y-20167936D01*
X7239230Y-20167936D02*
X7229706Y-20177460D01*
X7229706Y-20177460D02*
X7210658Y-20186984D01*
X7210658Y-20186984D02*
X7182087Y-20186984D01*
X7363039Y-20186984D02*
X7343991Y-20177460D01*
X7343991Y-20177460D02*
X7334468Y-20158412D01*
X7334468Y-20158412D02*
X7334468Y-19986984D01*
X7515420Y-20177460D02*
X7496372Y-20186984D01*
X7496372Y-20186984D02*
X7458277Y-20186984D01*
X7458277Y-20186984D02*
X7439230Y-20177460D01*
X7439230Y-20177460D02*
X7429706Y-20158412D01*
X7429706Y-20158412D02*
X7429706Y-20082222D01*
X7429706Y-20082222D02*
X7439230Y-20063174D01*
X7439230Y-20063174D02*
X7458277Y-20053650D01*
X7458277Y-20053650D02*
X7496372Y-20053650D01*
X7496372Y-20053650D02*
X7515420Y-20063174D01*
X7515420Y-20063174D02*
X7524944Y-20082222D01*
X7524944Y-20082222D02*
X7524944Y-20101270D01*
X7524944Y-20101270D02*
X7429706Y-20120317D01*
X7601134Y-20177460D02*
X7620182Y-20186984D01*
X7620182Y-20186984D02*
X7658277Y-20186984D01*
X7658277Y-20186984D02*
X7677325Y-20177460D01*
X7677325Y-20177460D02*
X7686849Y-20158412D01*
X7686849Y-20158412D02*
X7686849Y-20148889D01*
X7686849Y-20148889D02*
X7677325Y-20129841D01*
X7677325Y-20129841D02*
X7658277Y-20120317D01*
X7658277Y-20120317D02*
X7629706Y-20120317D01*
X7629706Y-20120317D02*
X7610658Y-20110793D01*
X7610658Y-20110793D02*
X7601134Y-20091746D01*
X7601134Y-20091746D02*
X7601134Y-20082222D01*
X7601134Y-20082222D02*
X7610658Y-20063174D01*
X7610658Y-20063174D02*
X7629706Y-20053650D01*
X7629706Y-20053650D02*
X7658277Y-20053650D01*
X7658277Y-20053650D02*
X7677325Y-20063174D01*
X7753515Y-20263174D02*
X7763039Y-20253650D01*
X7763039Y-20253650D02*
X7782087Y-20225079D01*
X7782087Y-20225079D02*
X7791611Y-20206031D01*
X7791611Y-20206031D02*
X7801134Y-20177460D01*
X7801134Y-20177460D02*
X7810658Y-20129841D01*
X7810658Y-20129841D02*
X7810658Y-20091746D01*
X7810658Y-20091746D02*
X7801134Y-20044127D01*
X7801134Y-20044127D02*
X7791611Y-20015555D01*
X7791611Y-20015555D02*
X7782087Y-19996508D01*
X7782087Y-19996508D02*
X7763039Y-19967936D01*
X7763039Y-19967936D02*
X7753515Y-19958412D01*
M02*
