%TF.GenerationSoftware,KiCad,Pcbnew,8.0.1*%
%TF.CreationDate,2024-04-18T23:30:45-04:00*%
%TF.ProjectId,emandoharp,656d616e-646f-4686-9172-702e6b696361,rev?*%
%TF.SameCoordinates,Original*%
%TF.FileFunction,Copper,L2,Bot*%
%TF.FilePolarity,Positive*%
%FSLAX46Y46*%
G04 Gerber Fmt 4.6, Leading zero omitted, Abs format (unit mm)*
G04 Created by KiCad (PCBNEW 8.0.1) date 2024-04-18 23:30:45*
%MOMM*%
%LPD*%
G01*
G04 APERTURE LIST*
%TA.AperFunction,ComponentPad*%
%ADD10R,2.200000X2.200000*%
%TD*%
%TA.AperFunction,ComponentPad*%
%ADD11O,2.200000X2.200000*%
%TD*%
%TA.AperFunction,ComponentPad*%
%ADD12C,1.600000*%
%TD*%
%TA.AperFunction,ComponentPad*%
%ADD13O,1.600000X1.600000*%
%TD*%
%TA.AperFunction,ComponentPad*%
%ADD14C,1.000000*%
%TD*%
%TA.AperFunction,ComponentPad*%
%ADD15R,1.600000X1.600000*%
%TD*%
%TA.AperFunction,ComponentPad*%
%ADD16R,1.300000X1.300000*%
%TD*%
%TA.AperFunction,ComponentPad*%
%ADD17C,1.300000*%
%TD*%
%TA.AperFunction,Conductor*%
%ADD18C,0.200000*%
%TD*%
G04 APERTURE END LIST*
D10*
%TO.P,D28,1,K*%
%TO.N,Net-(D27-A)*%
X117000000Y-85750000D03*
D11*
%TO.P,D28,2,A*%
%TO.N,Net-(D10-A)*%
X117000000Y-75590000D03*
%TD*%
D12*
%TO.P,R13,1*%
%TO.N,Net-(D15-A)*%
X96000000Y-65440000D03*
D13*
%TO.P,R13,2*%
%TO.N,Net-(R10-Pad2)*%
X96000000Y-73060000D03*
%TD*%
D14*
%TO.P,P20,1,1*%
%TO.N,Net-(P19-Pad1)*%
X86000000Y-175250000D03*
%TD*%
%TO.P,P3,1,1*%
%TO.N,Net-(D5-A)*%
X50000000Y-105750000D03*
%TD*%
D12*
%TO.P,R2,1*%
%TO.N,Net-(R2-Pad1)*%
X138000000Y-59870000D03*
D13*
%TO.P,R2,2*%
%TO.N,Net-(D1-K)*%
X138000000Y-52250000D03*
%TD*%
D14*
%TO.P,P27,1,1*%
%TO.N,Net-(P19-Pad1)*%
X137500000Y-165250000D03*
%TD*%
D10*
%TO.P,D7,1,K*%
%TO.N,Net-(D1-K)*%
X82000000Y-52670000D03*
D11*
%TO.P,D7,2,A*%
%TO.N,Net-(D7-A)*%
X82000000Y-62830000D03*
%TD*%
D10*
%TO.P,D23,1,K*%
%TO.N,Net-(D1-K)*%
X110000000Y-52590000D03*
D11*
%TO.P,D23,2,A*%
%TO.N,Net-(D23-A)*%
X110000000Y-62750000D03*
%TD*%
D10*
%TO.P,D20,1,K*%
%TO.N,Net-(D19-A)*%
X103000000Y-85750000D03*
D11*
%TO.P,D20,2,A*%
%TO.N,Net-(D10-A)*%
X103000000Y-75590000D03*
%TD*%
D10*
%TO.P,D15,1,K*%
%TO.N,Net-(D1-K)*%
X96000000Y-52670000D03*
D11*
%TO.P,D15,2,A*%
%TO.N,Net-(D15-A)*%
X96000000Y-62830000D03*
%TD*%
D12*
%TO.P,R19,1*%
%TO.N,Net-(D29-A)*%
X120500000Y-65500000D03*
D13*
%TO.P,R19,2*%
%TO.N,Net-(R10-Pad2)*%
X120500000Y-73120000D03*
%TD*%
D10*
%TO.P,D2,1,K*%
%TO.N,Net-(D1-A)*%
X71500000Y-85750000D03*
D11*
%TO.P,D2,2,A*%
%TO.N,Net-(D10-A)*%
X71500000Y-75590000D03*
%TD*%
D14*
%TO.P,P25,1,1*%
%TO.N,Net-(P19-Pad1)*%
X98000000Y-149250000D03*
%TD*%
D10*
%TO.P,D36,1,K*%
%TO.N,Net-(D35-A)*%
X131000000Y-86250000D03*
D11*
%TO.P,D36,2,A*%
%TO.N,Net-(D10-A)*%
X131000000Y-76090000D03*
%TD*%
D15*
%TO.P,U1,1,GND*%
%TO.N,unconnected-(U1-GND-Pad1)*%
X144040000Y-33550000D03*
D12*
%TO.P,U1,2,0_RX1_CRX2_CS1*%
%TO.N,unconnected-(U1-0_RX1_CRX2_CS1-Pad2)*%
X141500000Y-33550000D03*
%TO.P,U1,3,1_TX1_CTX2_MISO1*%
%TO.N,unconnected-(U1-1_TX1_CTX2_MISO1-Pad3)*%
X138960000Y-33550000D03*
%TO.P,U1,4,2_OUT2*%
%TO.N,unconnected-(U1-2_OUT2-Pad4)*%
X136420000Y-33550000D03*
%TO.P,U1,5,3_LRCLK2*%
%TO.N,unconnected-(U1-3_LRCLK2-Pad5)*%
X133880000Y-33550000D03*
%TO.P,U1,6,4_BCLK2*%
%TO.N,unconnected-(U1-4_BCLK2-Pad6)*%
X131340000Y-33550000D03*
%TO.P,U1,7,5_IN2*%
%TO.N,unconnected-(U1-5_IN2-Pad7)*%
X128800000Y-33550000D03*
%TO.P,U1,8,6_OUT1D*%
%TO.N,unconnected-(U1-6_OUT1D-Pad8)*%
X126260000Y-33550000D03*
%TO.P,U1,9,7_RX2_OUT1A*%
%TO.N,unconnected-(U1-7_RX2_OUT1A-Pad9)*%
X123720000Y-33550000D03*
%TO.P,U1,10,8_TX2_IN1*%
%TO.N,unconnected-(U1-8_TX2_IN1-Pad10)*%
X121180000Y-33550000D03*
%TO.P,U1,11,9_OUT1C*%
%TO.N,unconnected-(U1-9_OUT1C-Pad11)*%
X118640000Y-33550000D03*
%TO.P,U1,12,10_CS_MQSR*%
%TO.N,unconnected-(U1-10_CS_MQSR-Pad12)*%
X116100000Y-33550000D03*
%TO.P,U1,13,11_MOSI_CTX1*%
%TO.N,unconnected-(U1-11_MOSI_CTX1-Pad13)*%
X113560000Y-33550000D03*
%TO.P,U1,14,12_MISO_MQSL*%
%TO.N,unconnected-(U1-12_MISO_MQSL-Pad14)*%
X111020000Y-33550000D03*
%TO.P,U1,15,3V3*%
%TO.N,unconnected-(U1-3V3-Pad15)*%
X108480000Y-33550000D03*
%TO.P,U1,16,24_A10_TX6_SCL2*%
%TO.N,Net-(D1-A)*%
X105940000Y-33550000D03*
%TO.P,U1,17,25_A11_RX6_SDA2*%
%TO.N,Net-(D3-A)*%
X103400000Y-33550000D03*
%TO.P,U1,18,26_A12_MOSI1*%
%TO.N,Net-(D5-A)*%
X100860000Y-33550000D03*
%TO.P,U1,19,27_A13_SCK1*%
%TO.N,Net-(D7-A)*%
X98320000Y-33550000D03*
%TO.P,U1,20,28_RX7*%
%TO.N,unconnected-(U1-28_RX7-Pad20)*%
X95780000Y-33550000D03*
%TO.P,U1,21,29_TX7*%
%TO.N,unconnected-(U1-29_TX7-Pad21)*%
X93240000Y-33550000D03*
%TO.P,U1,22,30_CRX3*%
%TO.N,unconnected-(U1-30_CRX3-Pad22)*%
X90700000Y-33550000D03*
%TO.P,U1,23,31_CTX3*%
%TO.N,unconnected-(U1-31_CTX3-Pad23)*%
X88160000Y-33550000D03*
%TO.P,U1,24,32_OUT1B*%
%TO.N,unconnected-(U1-32_OUT1B-Pad24)*%
X85620000Y-33550000D03*
%TO.P,U1,25,33_MCLK2*%
%TO.N,unconnected-(U1-33_MCLK2-Pad25)*%
X85620000Y-48790000D03*
%TO.P,U1,26,34_RX8*%
%TO.N,unconnected-(U1-34_RX8-Pad26)*%
X88160000Y-48790000D03*
%TO.P,U1,27,35_TX8*%
%TO.N,unconnected-(U1-35_TX8-Pad27)*%
X90700000Y-48790000D03*
%TO.P,U1,28,36_CS*%
%TO.N,unconnected-(U1-36_CS-Pad28)*%
X93240000Y-48790000D03*
%TO.P,U1,29,37_CS*%
%TO.N,unconnected-(U1-37_CS-Pad29)*%
X95780000Y-48790000D03*
%TO.P,U1,30,38_CS1_IN1*%
%TO.N,Net-(D10-K)*%
X98320000Y-48790000D03*
%TO.P,U1,31,39_MISO1_OUT1A*%
%TO.N,Net-(D11-A)*%
X100860000Y-48790000D03*
%TO.P,U1,32,40_A16*%
%TO.N,Net-(D13-A)*%
X103400000Y-48790000D03*
%TO.P,U1,33,41_A17*%
%TO.N,Net-(D15-A)*%
X105940000Y-48790000D03*
%TO.P,U1,34,GND*%
%TO.N,unconnected-(U1-GND-Pad34)*%
X108480000Y-48790000D03*
%TO.P,U1,35,13_SCK_LED*%
%TO.N,unconnected-(U1-13_SCK_LED-Pad35)*%
X111020000Y-48790000D03*
%TO.P,U1,36,14_A0_TX3_SPDIF_OUT*%
%TO.N,Net-(D17-A)*%
X113560000Y-48790000D03*
%TO.P,U1,37,15_A1_RX3_SPDIF_IN*%
%TO.N,Net-(D19-A)*%
X116100000Y-48790000D03*
%TO.P,U1,38,16_A2_RX4_SCL1*%
%TO.N,Net-(D21-A)*%
X118640000Y-48790000D03*
%TO.P,U1,39,17_A3_TX4_SDA1*%
%TO.N,Net-(D23-A)*%
X121180000Y-48790000D03*
%TO.P,U1,40,18_A4_SDA*%
%TO.N,Net-(D25-A)*%
X123720000Y-48790000D03*
%TO.P,U1,41,19_A5_SCL*%
%TO.N,Net-(D27-A)*%
X126260000Y-48790000D03*
%TO.P,U1,42,20_A6_TX5_LRCLK1*%
%TO.N,Net-(D29-A)*%
X128800000Y-48790000D03*
%TO.P,U1,43,21_A7_RX5_BCLK1*%
%TO.N,Net-(D31-A)*%
X131340000Y-48790000D03*
%TO.P,U1,44,22_A8_CTX1*%
%TO.N,Net-(D33-A)*%
X133880000Y-48790000D03*
%TO.P,U1,45,23_A9_CRX1_MCLK1*%
%TO.N,Net-(D35-A)*%
X136420000Y-48790000D03*
%TO.P,U1,46,3V3*%
%TO.N,Net-(R2-Pad1)*%
X138960000Y-48790000D03*
%TO.P,U1,47,GND*%
%TO.N,Net-(P19-Pad1)*%
X141500000Y-48790000D03*
%TO.P,U1,48,VIN*%
%TO.N,unconnected-(U1-VIN-Pad48)*%
X144040000Y-48790000D03*
%TO.P,U1,49,VUSB*%
%TO.N,unconnected-(U1-VUSB-Pad49)*%
X141500000Y-46250000D03*
%TO.P,U1,50,VBAT*%
%TO.N,unconnected-(U1-VBAT-Pad50)*%
X98320000Y-36090000D03*
%TO.P,U1,51,3V3*%
%TO.N,unconnected-(U1-3V3-Pad51)*%
X98320000Y-38630000D03*
%TO.P,U1,52,GND*%
%TO.N,unconnected-(U1-GND-Pad52)*%
X98320000Y-41170000D03*
%TO.P,U1,53,PROGRAM*%
%TO.N,unconnected-(U1-PROGRAM-Pad53)*%
X98320000Y-43710000D03*
%TO.P,U1,54,ON_OFF*%
%TO.N,unconnected-(U1-ON_OFF-Pad54)*%
X98320000Y-46250000D03*
D15*
%TO.P,U1,55,5V*%
%TO.N,unconnected-(U1-5V-Pad55)*%
X137740800Y-36600800D03*
D12*
%TO.P,U1,56,D-*%
%TO.N,unconnected-(U1-D--Pad56)*%
X135200800Y-36600800D03*
%TO.P,U1,57,D+*%
%TO.N,unconnected-(U1-D+-Pad57)*%
X132660800Y-36600800D03*
%TO.P,U1,58,GND*%
%TO.N,unconnected-(U1-GND-Pad58)*%
X130120800Y-36600800D03*
%TO.P,U1,59,GND*%
%TO.N,unconnected-(U1-GND-Pad59)*%
X127580800Y-36600800D03*
D16*
%TO.P,U1,60,R+*%
%TO.N,unconnected-(U1-R+-Pad60)*%
X131070000Y-46351600D03*
D17*
%TO.P,U1,61,LED*%
%TO.N,unconnected-(U1-LED-Pad61)*%
X131070000Y-44351600D03*
%TO.P,U1,62,T-*%
%TO.N,unconnected-(U1-T--Pad62)*%
X131070000Y-42351600D03*
%TO.P,U1,63,T+*%
%TO.N,unconnected-(U1-T+-Pad63)*%
X129070000Y-42351600D03*
%TO.P,U1,64,GND*%
%TO.N,unconnected-(U1-GND-Pad64)*%
X129070000Y-44351600D03*
%TO.P,U1,65,R-*%
%TO.N,unconnected-(U1-R--Pad65)*%
X129070000Y-46351600D03*
%TO.P,U1,66,D-*%
%TO.N,unconnected-(U1-D--Pad66)*%
X143310000Y-42440000D03*
%TO.P,U1,67,D+*%
%TO.N,unconnected-(U1-D+-Pad67)*%
X143310000Y-39900000D03*
%TD*%
D14*
%TO.P,P23,1,1*%
%TO.N,Net-(P19-Pad1)*%
X50000000Y-149250000D03*
%TD*%
%TO.P,P17,1,1*%
%TO.N,Net-(D33-A)*%
X134500000Y-131750000D03*
%TD*%
D12*
%TO.P,R6,1*%
%TO.N,Net-(D3-A)*%
X75000000Y-65440000D03*
D13*
%TO.P,R6,2*%
%TO.N,Net-(R10-Pad2)*%
X75000000Y-73060000D03*
%TD*%
D12*
%TO.P,R10,1*%
%TO.N,Net-(D21-A)*%
X106500000Y-65250000D03*
D13*
%TO.P,R10,2*%
%TO.N,Net-(R10-Pad2)*%
X106500000Y-72870000D03*
%TD*%
D10*
%TO.P,D29,1,K*%
%TO.N,Net-(D1-K)*%
X120500000Y-52670000D03*
D11*
%TO.P,D29,2,A*%
%TO.N,Net-(D29-A)*%
X120500000Y-62830000D03*
%TD*%
D14*
%TO.P,P19,1,1*%
%TO.N,Net-(P19-Pad1)*%
X62000000Y-175250000D03*
%TD*%
%TO.P,P6,1,1*%
%TO.N,Net-(D11-A)*%
X74000000Y-155750000D03*
%TD*%
D12*
%TO.P,R14,1*%
%TO.N,Net-(D17-A)*%
X99500000Y-65440000D03*
D13*
%TO.P,R14,2*%
%TO.N,Net-(R10-Pad2)*%
X99500000Y-73060000D03*
%TD*%
D14*
%TO.P,P21,1,1*%
%TO.N,Net-(P19-Pad1)*%
X110000000Y-175250000D03*
%TD*%
%TO.P,P34,1,1*%
%TO.N,Net-(P19-Pad1)*%
X98000000Y-99250000D03*
%TD*%
%TO.P,P36,1,1*%
%TO.N,Net-(P19-Pad1)*%
X62000000Y-75250000D03*
%TD*%
D10*
%TO.P,D11,1,K*%
%TO.N,Net-(D1-K)*%
X89000000Y-52590000D03*
D11*
%TO.P,D11,2,A*%
%TO.N,Net-(D11-A)*%
X89000000Y-62750000D03*
%TD*%
D14*
%TO.P,P15,1,1*%
%TO.N,Net-(D29-A)*%
X122000000Y-105250000D03*
%TD*%
D10*
%TO.P,D8,1,K*%
%TO.N,Net-(D7-A)*%
X82000000Y-85750000D03*
D11*
%TO.P,D8,2,A*%
%TO.N,Net-(D10-A)*%
X82000000Y-75590000D03*
%TD*%
D10*
%TO.P,D12,1,K*%
%TO.N,Net-(D11-A)*%
X89000000Y-85750000D03*
D11*
%TO.P,D12,2,A*%
%TO.N,Net-(D10-A)*%
X89000000Y-75590000D03*
%TD*%
D10*
%TO.P,D9,1,K*%
%TO.N,Net-(D1-K)*%
X85500000Y-52590000D03*
D11*
%TO.P,D9,2,A*%
%TO.N,Net-(D10-K)*%
X85500000Y-62750000D03*
%TD*%
D10*
%TO.P,D27,1,K*%
%TO.N,Net-(D1-K)*%
X117000000Y-52670000D03*
D11*
%TO.P,D27,2,A*%
%TO.N,Net-(D27-A)*%
X117000000Y-62830000D03*
%TD*%
D14*
%TO.P,P12,1,1*%
%TO.N,Net-(D23-A)*%
X110000000Y-130250000D03*
%TD*%
%TO.P,P13,1,1*%
%TO.N,Net-(D25-A)*%
X110000000Y-180750000D03*
%TD*%
D10*
%TO.P,D10,1,K*%
%TO.N,Net-(D10-K)*%
X85500000Y-85750000D03*
D11*
%TO.P,D10,2,A*%
%TO.N,Net-(D10-A)*%
X85500000Y-75590000D03*
%TD*%
D10*
%TO.P,D19,1,K*%
%TO.N,Net-(D1-K)*%
X103000000Y-52670000D03*
D11*
%TO.P,D19,2,A*%
%TO.N,Net-(D19-A)*%
X103000000Y-62830000D03*
%TD*%
D14*
%TO.P,P22,1,1*%
%TO.N,Net-(P19-Pad1)*%
X134000000Y-175250000D03*
%TD*%
%TO.P,P11,1,1*%
%TO.N,Net-(D21-A)*%
X98000000Y-155750000D03*
%TD*%
D12*
%TO.P,R11,1*%
%TO.N,Net-(D11-A)*%
X89000000Y-65440000D03*
D13*
%TO.P,R11,2*%
%TO.N,Net-(R10-Pad2)*%
X89000000Y-73060000D03*
%TD*%
D10*
%TO.P,D14,1,K*%
%TO.N,Net-(D13-A)*%
X92500000Y-85750000D03*
D11*
%TO.P,D14,2,A*%
%TO.N,Net-(D10-A)*%
X92500000Y-75590000D03*
%TD*%
D10*
%TO.P,D16,1,K*%
%TO.N,Net-(D15-A)*%
X96000000Y-85750000D03*
D11*
%TO.P,D16,2,A*%
%TO.N,Net-(D10-A)*%
X96000000Y-75590000D03*
%TD*%
D12*
%TO.P,R3,1*%
%TO.N,Net-(D1-K)*%
X134500000Y-52440000D03*
D13*
%TO.P,R3,2*%
%TO.N,Net-(R10-Pad2)*%
X134500000Y-60060000D03*
%TD*%
D14*
%TO.P,P14,1,1*%
%TO.N,Net-(D27-A)*%
X122000000Y-156750000D03*
%TD*%
%TO.P,P9,1,1*%
%TO.N,Net-(D17-A)*%
X86000000Y-131250000D03*
%TD*%
D12*
%TO.P,R7,1*%
%TO.N,Net-(D5-A)*%
X78500000Y-65440000D03*
D13*
%TO.P,R7,2*%
%TO.N,Net-(R10-Pad2)*%
X78500000Y-73060000D03*
%TD*%
D12*
%TO.P,R22,1*%
%TO.N,Net-(D35-A)*%
X131000000Y-65630000D03*
D13*
%TO.P,R22,2*%
%TO.N,Net-(R10-Pad2)*%
X131000000Y-73250000D03*
%TD*%
D14*
%TO.P,P32,1,1*%
%TO.N,Net-(P19-Pad1)*%
X50000000Y-99250000D03*
%TD*%
%TO.P,P29,1,1*%
%TO.N,Net-(P19-Pad1)*%
X86000000Y-123250000D03*
%TD*%
D10*
%TO.P,D34,1,K*%
%TO.N,Net-(D33-A)*%
X127500000Y-85910000D03*
D11*
%TO.P,D34,2,A*%
%TO.N,Net-(D10-A)*%
X127500000Y-75750000D03*
%TD*%
D14*
%TO.P,P7,1,1*%
%TO.N,Net-(D13-A)*%
X86000000Y-181250000D03*
%TD*%
D10*
%TO.P,D30,1,K*%
%TO.N,Net-(D29-A)*%
X120500000Y-85750000D03*
D11*
%TO.P,D30,2,A*%
%TO.N,Net-(D10-A)*%
X120500000Y-75590000D03*
%TD*%
D10*
%TO.P,D32,1,K*%
%TO.N,Net-(D31-A)*%
X124000000Y-85750000D03*
D11*
%TO.P,D32,2,A*%
%TO.N,Net-(D10-A)*%
X124000000Y-75590000D03*
%TD*%
D12*
%TO.P,R8,1*%
%TO.N,Net-(D7-A)*%
X82000000Y-65250000D03*
D13*
%TO.P,R8,2*%
%TO.N,Net-(R10-Pad2)*%
X82000000Y-72870000D03*
%TD*%
D12*
%TO.P,R15,1*%
%TO.N,Net-(D19-A)*%
X103000000Y-65250000D03*
D13*
%TO.P,R15,2*%
%TO.N,Net-(R10-Pad2)*%
X103000000Y-72870000D03*
%TD*%
D10*
%TO.P,D21,1,K*%
%TO.N,Net-(D1-K)*%
X106500000Y-52590000D03*
D11*
%TO.P,D21,2,A*%
%TO.N,Net-(D21-A)*%
X106500000Y-62750000D03*
%TD*%
D14*
%TO.P,P33,1,1*%
%TO.N,Net-(P19-Pad1)*%
X74000000Y-99250000D03*
%TD*%
D12*
%TO.P,R4,1*%
%TO.N,Net-(R10-Pad2)*%
X134500000Y-63940000D03*
D13*
%TO.P,R4,2*%
%TO.N,Net-(D10-A)*%
X134500000Y-71560000D03*
%TD*%
D10*
%TO.P,D4,1,K*%
%TO.N,Net-(D3-A)*%
X75000000Y-85750000D03*
D11*
%TO.P,D4,2,A*%
%TO.N,Net-(D10-A)*%
X75000000Y-75590000D03*
%TD*%
D10*
%TO.P,D26,1,K*%
%TO.N,Net-(D25-A)*%
X113500000Y-85750000D03*
D11*
%TO.P,D26,2,A*%
%TO.N,Net-(D10-A)*%
X113500000Y-75590000D03*
%TD*%
D10*
%TO.P,D22,1,K*%
%TO.N,Net-(D21-A)*%
X106500000Y-85750000D03*
D11*
%TO.P,D22,2,A*%
%TO.N,Net-(D10-A)*%
X106500000Y-75590000D03*
%TD*%
D14*
%TO.P,P31,1,1*%
%TO.N,Net-(P19-Pad1)*%
X134000000Y-123750000D03*
%TD*%
D10*
%TO.P,D31,1,K*%
%TO.N,Net-(D1-K)*%
X124000000Y-52670000D03*
D11*
%TO.P,D31,2,A*%
%TO.N,Net-(D31-A)*%
X124000000Y-62830000D03*
%TD*%
D14*
%TO.P,P2,1,1*%
%TO.N,Net-(D3-A)*%
X50000000Y-156750000D03*
%TD*%
D10*
%TO.P,D24,1,K*%
%TO.N,Net-(D23-A)*%
X110000000Y-85750000D03*
D11*
%TO.P,D24,2,A*%
%TO.N,Net-(D10-A)*%
X110000000Y-75590000D03*
%TD*%
D12*
%TO.P,R9,1*%
%TO.N,Net-(D10-K)*%
X85500000Y-65440000D03*
D13*
%TO.P,R9,2*%
%TO.N,Net-(R10-Pad2)*%
X85500000Y-73060000D03*
%TD*%
D10*
%TO.P,D25,1,K*%
%TO.N,Net-(D1-K)*%
X113500000Y-52590000D03*
D11*
%TO.P,D25,2,A*%
%TO.N,Net-(D25-A)*%
X113500000Y-62750000D03*
%TD*%
D14*
%TO.P,P8,1,1*%
%TO.N,Net-(D15-A)*%
X74000000Y-105250000D03*
%TD*%
D10*
%TO.P,D33,1,K*%
%TO.N,Net-(D1-K)*%
X127500000Y-52670000D03*
D11*
%TO.P,D33,2,A*%
%TO.N,Net-(D33-A)*%
X127500000Y-62830000D03*
%TD*%
D14*
%TO.P,P5,1,1*%
%TO.N,Net-(D10-K)*%
X62000000Y-132250000D03*
%TD*%
%TO.P,P10,1,1*%
%TO.N,Net-(D19-A)*%
X98000000Y-106250000D03*
%TD*%
D10*
%TO.P,D17,1,K*%
%TO.N,Net-(D1-K)*%
X99500000Y-52670000D03*
D11*
%TO.P,D17,2,A*%
%TO.N,Net-(D17-A)*%
X99500000Y-62830000D03*
%TD*%
D14*
%TO.P,P1,1,1*%
%TO.N,Net-(D1-A)*%
X62000000Y-82750000D03*
%TD*%
D12*
%TO.P,R1,1*%
%TO.N,Net-(P19-Pad1)*%
X134500000Y-83560000D03*
D13*
%TO.P,R1,2*%
%TO.N,Net-(D10-A)*%
X134500000Y-75940000D03*
%TD*%
D10*
%TO.P,D5,1,K*%
%TO.N,Net-(D1-K)*%
X78500000Y-52670000D03*
D11*
%TO.P,D5,2,A*%
%TO.N,Net-(D5-A)*%
X78500000Y-62830000D03*
%TD*%
D12*
%TO.P,R18,1*%
%TO.N,Net-(D27-A)*%
X117000000Y-65440000D03*
D13*
%TO.P,R18,2*%
%TO.N,Net-(R10-Pad2)*%
X117000000Y-73060000D03*
%TD*%
D12*
%TO.P,R5,1*%
%TO.N,Net-(D1-A)*%
X71500000Y-65440000D03*
D13*
%TO.P,R5,2*%
%TO.N,Net-(R10-Pad2)*%
X71500000Y-73060000D03*
%TD*%
D14*
%TO.P,P30,1,1*%
%TO.N,Net-(P19-Pad1)*%
X110000000Y-123250000D03*
%TD*%
D12*
%TO.P,R20,1*%
%TO.N,Net-(D31-A)*%
X124000000Y-65440000D03*
D13*
%TO.P,R20,2*%
%TO.N,Net-(R10-Pad2)*%
X124000000Y-73060000D03*
%TD*%
D10*
%TO.P,D3,1,K*%
%TO.N,Net-(D1-K)*%
X75000000Y-52590000D03*
D11*
%TO.P,D3,2,A*%
%TO.N,Net-(D3-A)*%
X75000000Y-62750000D03*
%TD*%
D14*
%TO.P,P26,1,1*%
%TO.N,Net-(P19-Pad1)*%
X122000000Y-149250000D03*
%TD*%
D12*
%TO.P,R16,1*%
%TO.N,Net-(D23-A)*%
X110000000Y-65250000D03*
D13*
%TO.P,R16,2*%
%TO.N,Net-(R10-Pad2)*%
X110000000Y-72870000D03*
%TD*%
D10*
%TO.P,D13,1,K*%
%TO.N,Net-(D1-K)*%
X92500000Y-52590000D03*
D11*
%TO.P,D13,2,A*%
%TO.N,Net-(D13-A)*%
X92500000Y-62750000D03*
%TD*%
D10*
%TO.P,D35,1,K*%
%TO.N,Net-(D1-K)*%
X131000000Y-52590000D03*
D11*
%TO.P,D35,2,A*%
%TO.N,Net-(D35-A)*%
X131000000Y-62750000D03*
%TD*%
D10*
%TO.P,D6,1,K*%
%TO.N,Net-(D5-A)*%
X78500000Y-85750000D03*
D11*
%TO.P,D6,2,A*%
%TO.N,Net-(D10-A)*%
X78500000Y-75590000D03*
%TD*%
D12*
%TO.P,R17,1*%
%TO.N,Net-(D25-A)*%
X113500000Y-65440000D03*
D13*
%TO.P,R17,2*%
%TO.N,Net-(R10-Pad2)*%
X113500000Y-73060000D03*
%TD*%
D10*
%TO.P,D1,1,K*%
%TO.N,Net-(D1-K)*%
X71500000Y-52590000D03*
D11*
%TO.P,D1,2,A*%
%TO.N,Net-(D1-A)*%
X71500000Y-62750000D03*
%TD*%
D10*
%TO.P,D18,1,K*%
%TO.N,Net-(D17-A)*%
X99500000Y-85750000D03*
D11*
%TO.P,D18,2,A*%
%TO.N,Net-(D10-A)*%
X99500000Y-75590000D03*
%TD*%
D14*
%TO.P,P4,1,1*%
%TO.N,Net-(D7-A)*%
X62000000Y-182750000D03*
%TD*%
%TO.P,P18,1,1*%
%TO.N,Net-(D35-A)*%
X141000000Y-165250000D03*
%TD*%
%TO.P,P24,1,1*%
%TO.N,Net-(P19-Pad1)*%
X74000000Y-149250000D03*
%TD*%
D12*
%TO.P,R12,1*%
%TO.N,Net-(D13-A)*%
X92500000Y-65440000D03*
D13*
%TO.P,R12,2*%
%TO.N,Net-(R10-Pad2)*%
X92500000Y-73060000D03*
%TD*%
D14*
%TO.P,P16,1,1*%
%TO.N,Net-(D31-A)*%
X134500000Y-181750000D03*
%TD*%
D12*
%TO.P,R21,1*%
%TO.N,Net-(D33-A)*%
X127500000Y-65630000D03*
D13*
%TO.P,R21,2*%
%TO.N,Net-(R10-Pad2)*%
X127500000Y-73250000D03*
%TD*%
D14*
%TO.P,P35,1,1*%
%TO.N,Net-(P19-Pad1)*%
X122000000Y-99250000D03*
%TD*%
%TO.P,P28,1,1*%
%TO.N,Net-(P19-Pad1)*%
X62000000Y-123250000D03*
%TD*%
D18*
%TO.N,Net-(D1-A)*%
X70100000Y-84350000D02*
X70100000Y-66840000D01*
X67000000Y-86250000D02*
X67500000Y-85750000D01*
X62000000Y-82750000D02*
X63500000Y-82750000D01*
X76700000Y-57550000D02*
X71500000Y-62750000D01*
X76700000Y-57550000D02*
X76700000Y-49445635D01*
X70100000Y-66840000D02*
X71500000Y-65440000D01*
X63500000Y-82750000D02*
X67000000Y-86250000D01*
X76700000Y-49445635D02*
X92140000Y-34005635D01*
X92140000Y-33094365D02*
X93584365Y-31650000D01*
X93584365Y-31650000D02*
X104040000Y-31650000D01*
X92140000Y-34005635D02*
X92140000Y-33094365D01*
X67500000Y-85750000D02*
X71500000Y-85750000D01*
X104040000Y-31650000D02*
X105940000Y-33550000D01*
X71500000Y-85750000D02*
X70100000Y-84350000D01*
%TO.N,Net-(R2-Pad1)*%
X139100000Y-48930000D02*
X138960000Y-48790000D01*
X138000000Y-59870000D02*
X139100000Y-58770000D01*
X139100000Y-58770000D02*
X139100000Y-48930000D01*
%TO.N,Net-(D21-A)*%
X106500000Y-85750000D02*
X106500000Y-149250000D01*
X115200000Y-51104314D02*
X116054314Y-50250000D01*
X116054314Y-50250000D02*
X118500000Y-50250000D01*
X106500000Y-85750000D02*
X105100000Y-84350000D01*
X106500000Y-149250000D02*
X100000000Y-155750000D01*
X115200000Y-53904314D02*
X115200000Y-51104314D01*
X106500000Y-62604314D02*
X115200000Y-53904314D01*
X118640000Y-50110000D02*
X118640000Y-48790000D01*
X106500000Y-62750000D02*
X106500000Y-62604314D01*
X118500000Y-50250000D02*
X118640000Y-50110000D01*
X105100000Y-84350000D02*
X105100000Y-66650000D01*
X100000000Y-155750000D02*
X98000000Y-155750000D01*
X105100000Y-66650000D02*
X106500000Y-65250000D01*
%TO.N,Net-(D25-A)*%
X112000000Y-83750000D02*
X112000000Y-66940000D01*
X112000000Y-66940000D02*
X113500000Y-65440000D01*
X119100000Y-53370000D02*
X119100000Y-51270000D01*
X113500000Y-85750000D02*
X113500000Y-177250000D01*
X113500000Y-58970000D02*
X119100000Y-53370000D01*
X121240000Y-51270000D02*
X123720000Y-48790000D01*
X113500000Y-85250000D02*
X112000000Y-83750000D01*
X113500000Y-85750000D02*
X113500000Y-85250000D01*
X113500000Y-177250000D02*
X110000000Y-180750000D01*
X113500000Y-62750000D02*
X113500000Y-58970000D01*
X119100000Y-51270000D02*
X121240000Y-51270000D01*
%TO.N,Net-(D27-A)*%
X122000000Y-155250000D02*
X122000000Y-156750000D01*
X117000000Y-58970000D02*
X122600000Y-53370000D01*
X117000000Y-85750000D02*
X115600000Y-84350000D01*
X119000000Y-152250000D02*
X122000000Y-155250000D01*
X115600000Y-84350000D02*
X115600000Y-77100000D01*
X119000000Y-103381371D02*
X119000000Y-152250000D01*
X122600000Y-51290000D02*
X124000000Y-49890000D01*
X124000000Y-49890000D02*
X125160000Y-49890000D01*
X115600000Y-77100000D02*
X115500000Y-77000000D01*
X125160000Y-49890000D02*
X126260000Y-48790000D01*
X117000000Y-62830000D02*
X117000000Y-58970000D01*
X117000000Y-101381371D02*
X119000000Y-103381371D01*
X117000000Y-85750000D02*
X117000000Y-101381371D01*
X115500000Y-66940000D02*
X117000000Y-65440000D01*
X115500000Y-77000000D02*
X115500000Y-66940000D01*
X122600000Y-53370000D02*
X122600000Y-51290000D01*
%TO.N,Net-(D29-A)*%
X128580000Y-48790000D02*
X128800000Y-48790000D01*
X120500000Y-85750000D02*
X119000000Y-84250000D01*
X128000000Y-105250000D02*
X122000000Y-105250000D01*
X129500000Y-103750000D02*
X128000000Y-105250000D01*
X126100000Y-53650000D02*
X126100000Y-51270000D01*
X120500000Y-59250000D02*
X126100000Y-53650000D01*
X119000000Y-84250000D02*
X119000000Y-67130000D01*
X129500000Y-96750000D02*
X129500000Y-103750000D01*
X119000000Y-67130000D02*
X120500000Y-65630000D01*
X120500000Y-85750000D02*
X120500000Y-87750000D01*
X126100000Y-51270000D02*
X128580000Y-48790000D01*
X120500000Y-87750000D02*
X129500000Y-96750000D01*
X120500000Y-62830000D02*
X120500000Y-59250000D01*
%TO.N,Net-(D31-A)*%
X124000000Y-85750000D02*
X122500000Y-84250000D01*
X124000000Y-58970000D02*
X129600000Y-53370000D01*
X129600000Y-50530000D02*
X131340000Y-48790000D01*
X130000000Y-177250000D02*
X130000000Y-91750000D01*
X130000000Y-91750000D02*
X124000000Y-85750000D01*
X129600000Y-53370000D02*
X129600000Y-50530000D01*
X134500000Y-181750000D02*
X130000000Y-177250000D01*
X122500000Y-66940000D02*
X124000000Y-65440000D01*
X122500000Y-84250000D02*
X122500000Y-66940000D01*
X124000000Y-62830000D02*
X124000000Y-58970000D01*
%TO.N,Net-(D33-A)*%
X126000000Y-67130000D02*
X127500000Y-65630000D01*
X127500000Y-58890000D02*
X133000000Y-53390000D01*
X133000000Y-53390000D02*
X133000000Y-49670000D01*
X136050000Y-131300000D02*
X136050000Y-94460000D01*
X127500000Y-85910000D02*
X126000000Y-84410000D01*
X127500000Y-62830000D02*
X127500000Y-58890000D01*
X133000000Y-49670000D02*
X133880000Y-48790000D01*
X135600000Y-131750000D02*
X136050000Y-131300000D01*
X126000000Y-84410000D02*
X126000000Y-67130000D01*
X134500000Y-131750000D02*
X135600000Y-131750000D01*
X136050000Y-94460000D02*
X127500000Y-85910000D01*
%TO.N,Net-(D35-A)*%
X137500000Y-92750000D02*
X131000000Y-86250000D01*
X131000000Y-57495635D02*
X136420000Y-52075635D01*
X141000000Y-157750000D02*
X137500000Y-154250000D01*
X128900000Y-84150000D02*
X128900000Y-67730000D01*
X141000000Y-165250000D02*
X141000000Y-157750000D01*
X128900000Y-67730000D02*
X131000000Y-65630000D01*
X136420000Y-52075635D02*
X136420000Y-48790000D01*
X137500000Y-154250000D02*
X137500000Y-92750000D01*
X131000000Y-62750000D02*
X131000000Y-57495635D01*
X131000000Y-86250000D02*
X128900000Y-84150000D01*
%TO.N,Net-(D3-A)*%
X44500000Y-125750000D02*
X44500000Y-98250000D01*
X75000000Y-85750000D02*
X73600000Y-84350000D01*
X49200000Y-155950000D02*
X49200000Y-151950000D01*
X94680000Y-33070000D02*
X95700000Y-32050000D01*
X73600000Y-84350000D02*
X73600000Y-66840000D01*
X75000000Y-62750000D02*
X77100000Y-60650000D01*
X94680000Y-33665635D02*
X94680000Y-33070000D01*
X50000000Y-156750000D02*
X49200000Y-155950000D01*
X77100000Y-51245635D02*
X94680000Y-33665635D01*
X77100000Y-60650000D02*
X77100000Y-51245635D01*
X62500000Y-98250000D02*
X75000000Y-85750000D01*
X101900000Y-32050000D02*
X103400000Y-33550000D01*
X48500000Y-151250000D02*
X48500000Y-130750000D01*
X44500000Y-98250000D02*
X62500000Y-98250000D01*
X45000000Y-127250000D02*
X45000000Y-126250000D01*
X75000000Y-85750000D02*
X73500000Y-84250000D01*
X45000000Y-126250000D02*
X44500000Y-125750000D01*
X48500000Y-130750000D02*
X45000000Y-127250000D01*
X49200000Y-151950000D02*
X48500000Y-151250000D01*
X95700000Y-32050000D02*
X101900000Y-32050000D01*
X73600000Y-66840000D02*
X75000000Y-65440000D01*
%TO.N,Net-(D5-A)*%
X78500000Y-85750000D02*
X58500000Y-105750000D01*
X80100000Y-50785635D02*
X97000000Y-33885635D01*
X77100000Y-84350000D02*
X77100000Y-66840000D01*
X78500000Y-62830000D02*
X80100000Y-61230000D01*
X99760000Y-32450000D02*
X100860000Y-33550000D01*
X97000000Y-33314365D02*
X97864365Y-32450000D01*
X78500000Y-85750000D02*
X77100000Y-84350000D01*
X97864365Y-32450000D02*
X99760000Y-32450000D01*
X77100000Y-66840000D02*
X78500000Y-65440000D01*
X58500000Y-105750000D02*
X50000000Y-105750000D01*
X80100000Y-61230000D02*
X80100000Y-50785635D01*
X97000000Y-33885635D02*
X97000000Y-33314365D01*
%TO.N,Net-(D7-A)*%
X62000000Y-182750000D02*
X58500000Y-179250000D01*
X80500000Y-51370000D02*
X98320000Y-33550000D01*
X82000000Y-85750000D02*
X80600000Y-84350000D01*
X58500000Y-109750000D02*
X82000000Y-86250000D01*
X82000000Y-62830000D02*
X80500000Y-61330000D01*
X80500000Y-61330000D02*
X80500000Y-51370000D01*
X80600000Y-84350000D02*
X80600000Y-66650000D01*
X80600000Y-66650000D02*
X82000000Y-65250000D01*
X58500000Y-179250000D02*
X58500000Y-109750000D01*
X82000000Y-86250000D02*
X82000000Y-85750000D01*
%TO.N,Net-(D10-K)*%
X64000000Y-105750000D02*
X67000000Y-102750000D01*
X62000000Y-132250000D02*
X64000000Y-130250000D01*
X68500000Y-102750000D02*
X85500000Y-85750000D01*
X85500000Y-85750000D02*
X84100000Y-84350000D01*
X94600000Y-53650000D02*
X94600000Y-51270000D01*
X84100000Y-66840000D02*
X85500000Y-65440000D01*
X67000000Y-102750000D02*
X68500000Y-102750000D01*
X85500000Y-62750000D02*
X94600000Y-53650000D01*
X64000000Y-130250000D02*
X64000000Y-105750000D01*
X95620000Y-50250000D02*
X96860000Y-50250000D01*
X84100000Y-84350000D02*
X84100000Y-66840000D01*
X94600000Y-51270000D02*
X95620000Y-50250000D01*
X96860000Y-50250000D02*
X98320000Y-48790000D01*
%TO.N,Net-(D11-A)*%
X100580000Y-48790000D02*
X100860000Y-48790000D01*
X69500000Y-153750000D02*
X71500000Y-155750000D01*
X89000000Y-87250000D02*
X75500000Y-100750000D01*
X75500000Y-100750000D02*
X71065686Y-100750000D01*
X87600000Y-66840000D02*
X89000000Y-65440000D01*
X71500000Y-155750000D02*
X74000000Y-155750000D01*
X68000000Y-153250000D02*
X68500000Y-153750000D01*
X89000000Y-62750000D02*
X98100000Y-53650000D01*
X68000000Y-103815686D02*
X68000000Y-153250000D01*
X89000000Y-85750000D02*
X89000000Y-87250000D01*
X68500000Y-153750000D02*
X69500000Y-153750000D01*
X89000000Y-85750000D02*
X87600000Y-84350000D01*
X98100000Y-53650000D02*
X98100000Y-51270000D01*
X87600000Y-84350000D02*
X87600000Y-66840000D01*
X71065686Y-100750000D02*
X68000000Y-103815686D01*
X98100000Y-51270000D02*
X100580000Y-48790000D01*
%TO.N,Net-(D13-A)*%
X70500000Y-103250000D02*
X70500000Y-131250000D01*
X90000000Y-150750000D02*
X90000000Y-178750000D01*
X101600000Y-50590000D02*
X103400000Y-48790000D01*
X72000000Y-101750000D02*
X70500000Y-103250000D01*
X70500000Y-131250000D02*
X90000000Y-150750000D01*
X76368629Y-101750000D02*
X72000000Y-101750000D01*
X92500000Y-62750000D02*
X101600000Y-53650000D01*
X91100000Y-66840000D02*
X92500000Y-65440000D01*
X92500000Y-85750000D02*
X91100000Y-84350000D01*
X92500000Y-85750000D02*
X92368629Y-85750000D01*
X87500000Y-181250000D02*
X86000000Y-181250000D01*
X92368629Y-85750000D02*
X76368629Y-101750000D01*
X91100000Y-84350000D02*
X91100000Y-66840000D01*
X90000000Y-178750000D02*
X87500000Y-181250000D01*
X101600000Y-53650000D02*
X101600000Y-50590000D01*
%TO.N,Net-(D15-A)*%
X104400000Y-54430000D02*
X104400000Y-50330000D01*
X96000000Y-85750000D02*
X94600000Y-84350000D01*
X94600000Y-66840000D02*
X96000000Y-65440000D01*
X96000000Y-85750000D02*
X76500000Y-105250000D01*
X76500000Y-105250000D02*
X74000000Y-105250000D01*
X104400000Y-50330000D02*
X105940000Y-48790000D01*
X94600000Y-84350000D02*
X94600000Y-66840000D01*
X96000000Y-62830000D02*
X104400000Y-54430000D01*
%TO.N,Net-(D17-A)*%
X99500000Y-62830000D02*
X105920101Y-56409899D01*
X92700000Y-102550000D02*
X88500000Y-106750000D01*
X88500000Y-128750000D02*
X86000000Y-131250000D01*
X98100000Y-66840000D02*
X99500000Y-65440000D01*
X105920101Y-56409899D02*
X108854415Y-56409899D01*
X88500000Y-106750000D02*
X88500000Y-128750000D01*
X98100000Y-84350000D02*
X98100000Y-66840000D01*
X111700000Y-50650000D02*
X113560000Y-48790000D01*
X92700000Y-92550000D02*
X92700000Y-102550000D01*
X111700000Y-53564314D02*
X111700000Y-50650000D01*
X99500000Y-85750000D02*
X92700000Y-92550000D01*
X108854415Y-56409899D02*
X111700000Y-53564314D01*
X99500000Y-85750000D02*
X98100000Y-84350000D01*
%TO.N,Net-(D19-A)*%
X101600000Y-66650000D02*
X103000000Y-65250000D01*
X112100000Y-53730000D02*
X112100000Y-51190000D01*
X103000000Y-62830000D02*
X112100000Y-53730000D01*
X114740000Y-51190000D02*
X114740000Y-50150000D01*
X103000000Y-85750000D02*
X103000000Y-101250000D01*
X114740000Y-50150000D02*
X116100000Y-48790000D01*
X103000000Y-101250000D02*
X98000000Y-106250000D01*
X101600000Y-84350000D02*
X101600000Y-66650000D01*
X112100000Y-51190000D02*
X114740000Y-51190000D01*
X103000000Y-85750000D02*
X101600000Y-84350000D01*
%TO.N,Net-(D23-A)*%
X110000000Y-62750000D02*
X110000000Y-59670000D01*
X107500000Y-128750000D02*
X109000000Y-130250000D01*
X115600000Y-54070000D02*
X115600000Y-51270000D01*
X107500000Y-88250000D02*
X107500000Y-128750000D01*
X110000000Y-85750000D02*
X107500000Y-88250000D01*
X109000000Y-130250000D02*
X110000000Y-130250000D01*
X108600000Y-84350000D02*
X108600000Y-66650000D01*
X116120000Y-50750000D02*
X121000000Y-50750000D01*
X121000000Y-50750000D02*
X121180000Y-50570000D01*
X110000000Y-85750000D02*
X108600000Y-84350000D01*
X121180000Y-50570000D02*
X121180000Y-48790000D01*
X108600000Y-66650000D02*
X110000000Y-65250000D01*
X110000000Y-59670000D02*
X115600000Y-54070000D01*
X115600000Y-51270000D02*
X116120000Y-50750000D01*
%TO.N,Net-(P19-Pad1)*%
X134500000Y-83560000D02*
X139500000Y-78560000D01*
X140000000Y-50290000D02*
X141500000Y-48790000D01*
X139500000Y-78560000D02*
X139500000Y-51250000D01*
X140000000Y-50750000D02*
X140000000Y-50290000D01*
X139500000Y-51250000D02*
X140000000Y-50750000D01*
%TD*%
M02*
