%TF.GenerationSoftware,KiCad,Pcbnew,8.0.1*%
%TF.CreationDate,2024-04-18T23:28:31-04:00*%
%TF.ProjectId,emandoharp,656d616e-646f-4686-9172-702e6b696361,rev?*%
%TF.SameCoordinates,Original*%
%TF.FileFunction,Drillmap*%
%TF.FilePolarity,Positive*%
%FSLAX45Y45*%
G04 Gerber Fmt 4.5, Leading zero omitted, Abs format (unit mm)*
G04 Created by KiCad (PCBNEW 8.0.1) date 2024-04-18 23:28:31*
%MOMM*%
%LPD*%
G01*
G04 APERTURE LIST*
%ADD10C,0.050000*%
%ADD11C,0.200000*%
%ADD12C,0.400000*%
G04 APERTURE END LIST*
D10*
X2600000Y-1925000D02*
X14600000Y-1925000D01*
X14600000Y-18925000D01*
X2600000Y-18925000D01*
X2600000Y-1925000D01*
D11*
D12*
X2950000Y-2275000D02*
X3350000Y-2675000D01*
X3350000Y-2275000D02*
X2950000Y-2675000D01*
X2950000Y-18175000D02*
X3350000Y-18575000D01*
X3350000Y-18175000D02*
X2950000Y-18575000D01*
X13850000Y-2275000D02*
X14250000Y-2675000D01*
X14250000Y-2275000D02*
X13850000Y-2675000D01*
X13850000Y-18175000D02*
X14250000Y-18575000D01*
X14250000Y-18175000D02*
X13850000Y-18575000D01*
D11*
X2858277Y-19238984D02*
X2858277Y-19038984D01*
X2858277Y-19038984D02*
X2905896Y-19038984D01*
X2905896Y-19038984D02*
X2934467Y-19048508D01*
X2934467Y-19048508D02*
X2953515Y-19067555D01*
X2953515Y-19067555D02*
X2963039Y-19086603D01*
X2963039Y-19086603D02*
X2972562Y-19124698D01*
X2972562Y-19124698D02*
X2972562Y-19153270D01*
X2972562Y-19153270D02*
X2963039Y-19191365D01*
X2963039Y-19191365D02*
X2953515Y-19210412D01*
X2953515Y-19210412D02*
X2934467Y-19229460D01*
X2934467Y-19229460D02*
X2905896Y-19238984D01*
X2905896Y-19238984D02*
X2858277Y-19238984D01*
X3058277Y-19238984D02*
X3058277Y-19105650D01*
X3058277Y-19143746D02*
X3067801Y-19124698D01*
X3067801Y-19124698D02*
X3077324Y-19115174D01*
X3077324Y-19115174D02*
X3096372Y-19105650D01*
X3096372Y-19105650D02*
X3115420Y-19105650D01*
X3182086Y-19238984D02*
X3182086Y-19105650D01*
X3182086Y-19038984D02*
X3172562Y-19048508D01*
X3172562Y-19048508D02*
X3182086Y-19058031D01*
X3182086Y-19058031D02*
X3191610Y-19048508D01*
X3191610Y-19048508D02*
X3182086Y-19038984D01*
X3182086Y-19038984D02*
X3182086Y-19058031D01*
X3305896Y-19238984D02*
X3286848Y-19229460D01*
X3286848Y-19229460D02*
X3277324Y-19210412D01*
X3277324Y-19210412D02*
X3277324Y-19038984D01*
X3410658Y-19238984D02*
X3391610Y-19229460D01*
X3391610Y-19229460D02*
X3382086Y-19210412D01*
X3382086Y-19210412D02*
X3382086Y-19038984D01*
X3639229Y-19238984D02*
X3639229Y-19038984D01*
X3639229Y-19038984D02*
X3705896Y-19181841D01*
X3705896Y-19181841D02*
X3772562Y-19038984D01*
X3772562Y-19038984D02*
X3772562Y-19238984D01*
X3953515Y-19238984D02*
X3953515Y-19134222D01*
X3953515Y-19134222D02*
X3943991Y-19115174D01*
X3943991Y-19115174D02*
X3924943Y-19105650D01*
X3924943Y-19105650D02*
X3886848Y-19105650D01*
X3886848Y-19105650D02*
X3867801Y-19115174D01*
X3953515Y-19229460D02*
X3934467Y-19238984D01*
X3934467Y-19238984D02*
X3886848Y-19238984D01*
X3886848Y-19238984D02*
X3867801Y-19229460D01*
X3867801Y-19229460D02*
X3858277Y-19210412D01*
X3858277Y-19210412D02*
X3858277Y-19191365D01*
X3858277Y-19191365D02*
X3867801Y-19172317D01*
X3867801Y-19172317D02*
X3886848Y-19162793D01*
X3886848Y-19162793D02*
X3934467Y-19162793D01*
X3934467Y-19162793D02*
X3953515Y-19153270D01*
X4048753Y-19105650D02*
X4048753Y-19305650D01*
X4048753Y-19115174D02*
X4067801Y-19105650D01*
X4067801Y-19105650D02*
X4105896Y-19105650D01*
X4105896Y-19105650D02*
X4124943Y-19115174D01*
X4124943Y-19115174D02*
X4134467Y-19124698D01*
X4134467Y-19124698D02*
X4143991Y-19143746D01*
X4143991Y-19143746D02*
X4143991Y-19200889D01*
X4143991Y-19200889D02*
X4134467Y-19219936D01*
X4134467Y-19219936D02*
X4124943Y-19229460D01*
X4124943Y-19229460D02*
X4105896Y-19238984D01*
X4105896Y-19238984D02*
X4067801Y-19238984D01*
X4067801Y-19238984D02*
X4048753Y-19229460D01*
X4229705Y-19219936D02*
X4239229Y-19229460D01*
X4239229Y-19229460D02*
X4229705Y-19238984D01*
X4229705Y-19238984D02*
X4220182Y-19229460D01*
X4220182Y-19229460D02*
X4229705Y-19219936D01*
X4229705Y-19219936D02*
X4229705Y-19238984D01*
X4229705Y-19115174D02*
X4239229Y-19124698D01*
X4239229Y-19124698D02*
X4229705Y-19134222D01*
X4229705Y-19134222D02*
X4220182Y-19124698D01*
X4220182Y-19124698D02*
X4229705Y-19115174D01*
X4229705Y-19115174D02*
X4229705Y-19134222D01*
X2397500Y-19467500D02*
X2597500Y-19667500D01*
X2597500Y-19467500D02*
X2397500Y-19667500D01*
X2943991Y-19525650D02*
X2943991Y-19658984D01*
X2896372Y-19449460D02*
X2848753Y-19592317D01*
X2848753Y-19592317D02*
X2972562Y-19592317D01*
X3048753Y-19639936D02*
X3058277Y-19649460D01*
X3058277Y-19649460D02*
X3048753Y-19658984D01*
X3048753Y-19658984D02*
X3039229Y-19649460D01*
X3039229Y-19649460D02*
X3048753Y-19639936D01*
X3048753Y-19639936D02*
X3048753Y-19658984D01*
X3182086Y-19458984D02*
X3201134Y-19458984D01*
X3201134Y-19458984D02*
X3220182Y-19468508D01*
X3220182Y-19468508D02*
X3229705Y-19478031D01*
X3229705Y-19478031D02*
X3239229Y-19497079D01*
X3239229Y-19497079D02*
X3248753Y-19535174D01*
X3248753Y-19535174D02*
X3248753Y-19582793D01*
X3248753Y-19582793D02*
X3239229Y-19620889D01*
X3239229Y-19620889D02*
X3229705Y-19639936D01*
X3229705Y-19639936D02*
X3220182Y-19649460D01*
X3220182Y-19649460D02*
X3201134Y-19658984D01*
X3201134Y-19658984D02*
X3182086Y-19658984D01*
X3182086Y-19658984D02*
X3163039Y-19649460D01*
X3163039Y-19649460D02*
X3153515Y-19639936D01*
X3153515Y-19639936D02*
X3143991Y-19620889D01*
X3143991Y-19620889D02*
X3134467Y-19582793D01*
X3134467Y-19582793D02*
X3134467Y-19535174D01*
X3134467Y-19535174D02*
X3143991Y-19497079D01*
X3143991Y-19497079D02*
X3153515Y-19478031D01*
X3153515Y-19478031D02*
X3163039Y-19468508D01*
X3163039Y-19468508D02*
X3182086Y-19458984D01*
X3372562Y-19458984D02*
X3391610Y-19458984D01*
X3391610Y-19458984D02*
X3410658Y-19468508D01*
X3410658Y-19468508D02*
X3420182Y-19478031D01*
X3420182Y-19478031D02*
X3429705Y-19497079D01*
X3429705Y-19497079D02*
X3439229Y-19535174D01*
X3439229Y-19535174D02*
X3439229Y-19582793D01*
X3439229Y-19582793D02*
X3429705Y-19620889D01*
X3429705Y-19620889D02*
X3420182Y-19639936D01*
X3420182Y-19639936D02*
X3410658Y-19649460D01*
X3410658Y-19649460D02*
X3391610Y-19658984D01*
X3391610Y-19658984D02*
X3372562Y-19658984D01*
X3372562Y-19658984D02*
X3353515Y-19649460D01*
X3353515Y-19649460D02*
X3343991Y-19639936D01*
X3343991Y-19639936D02*
X3334467Y-19620889D01*
X3334467Y-19620889D02*
X3324943Y-19582793D01*
X3324943Y-19582793D02*
X3324943Y-19535174D01*
X3324943Y-19535174D02*
X3334467Y-19497079D01*
X3334467Y-19497079D02*
X3343991Y-19478031D01*
X3343991Y-19478031D02*
X3353515Y-19468508D01*
X3353515Y-19468508D02*
X3372562Y-19458984D01*
X3563039Y-19458984D02*
X3582086Y-19458984D01*
X3582086Y-19458984D02*
X3601134Y-19468508D01*
X3601134Y-19468508D02*
X3610658Y-19478031D01*
X3610658Y-19478031D02*
X3620182Y-19497079D01*
X3620182Y-19497079D02*
X3629705Y-19535174D01*
X3629705Y-19535174D02*
X3629705Y-19582793D01*
X3629705Y-19582793D02*
X3620182Y-19620889D01*
X3620182Y-19620889D02*
X3610658Y-19639936D01*
X3610658Y-19639936D02*
X3601134Y-19649460D01*
X3601134Y-19649460D02*
X3582086Y-19658984D01*
X3582086Y-19658984D02*
X3563039Y-19658984D01*
X3563039Y-19658984D02*
X3543991Y-19649460D01*
X3543991Y-19649460D02*
X3534467Y-19639936D01*
X3534467Y-19639936D02*
X3524943Y-19620889D01*
X3524943Y-19620889D02*
X3515420Y-19582793D01*
X3515420Y-19582793D02*
X3515420Y-19535174D01*
X3515420Y-19535174D02*
X3524943Y-19497079D01*
X3524943Y-19497079D02*
X3534467Y-19478031D01*
X3534467Y-19478031D02*
X3543991Y-19468508D01*
X3543991Y-19468508D02*
X3563039Y-19458984D01*
X3715420Y-19658984D02*
X3715420Y-19525650D01*
X3715420Y-19544698D02*
X3724943Y-19535174D01*
X3724943Y-19535174D02*
X3743991Y-19525650D01*
X3743991Y-19525650D02*
X3772563Y-19525650D01*
X3772563Y-19525650D02*
X3791610Y-19535174D01*
X3791610Y-19535174D02*
X3801134Y-19554222D01*
X3801134Y-19554222D02*
X3801134Y-19658984D01*
X3801134Y-19554222D02*
X3810658Y-19535174D01*
X3810658Y-19535174D02*
X3829705Y-19525650D01*
X3829705Y-19525650D02*
X3858277Y-19525650D01*
X3858277Y-19525650D02*
X3877324Y-19535174D01*
X3877324Y-19535174D02*
X3886848Y-19554222D01*
X3886848Y-19554222D02*
X3886848Y-19658984D01*
X3982086Y-19658984D02*
X3982086Y-19525650D01*
X3982086Y-19544698D02*
X3991610Y-19535174D01*
X3991610Y-19535174D02*
X4010658Y-19525650D01*
X4010658Y-19525650D02*
X4039229Y-19525650D01*
X4039229Y-19525650D02*
X4058277Y-19535174D01*
X4058277Y-19535174D02*
X4067801Y-19554222D01*
X4067801Y-19554222D02*
X4067801Y-19658984D01*
X4067801Y-19554222D02*
X4077324Y-19535174D01*
X4077324Y-19535174D02*
X4096372Y-19525650D01*
X4096372Y-19525650D02*
X4124943Y-19525650D01*
X4124943Y-19525650D02*
X4143991Y-19535174D01*
X4143991Y-19535174D02*
X4153515Y-19554222D01*
X4153515Y-19554222D02*
X4153515Y-19658984D01*
X4543991Y-19449460D02*
X4372563Y-19706603D01*
X4801134Y-19458984D02*
X4820182Y-19458984D01*
X4820182Y-19458984D02*
X4839229Y-19468508D01*
X4839229Y-19468508D02*
X4848753Y-19478031D01*
X4848753Y-19478031D02*
X4858277Y-19497079D01*
X4858277Y-19497079D02*
X4867801Y-19535174D01*
X4867801Y-19535174D02*
X4867801Y-19582793D01*
X4867801Y-19582793D02*
X4858277Y-19620889D01*
X4858277Y-19620889D02*
X4848753Y-19639936D01*
X4848753Y-19639936D02*
X4839229Y-19649460D01*
X4839229Y-19649460D02*
X4820182Y-19658984D01*
X4820182Y-19658984D02*
X4801134Y-19658984D01*
X4801134Y-19658984D02*
X4782087Y-19649460D01*
X4782087Y-19649460D02*
X4772563Y-19639936D01*
X4772563Y-19639936D02*
X4763039Y-19620889D01*
X4763039Y-19620889D02*
X4753515Y-19582793D01*
X4753515Y-19582793D02*
X4753515Y-19535174D01*
X4753515Y-19535174D02*
X4763039Y-19497079D01*
X4763039Y-19497079D02*
X4772563Y-19478031D01*
X4772563Y-19478031D02*
X4782087Y-19468508D01*
X4782087Y-19468508D02*
X4801134Y-19458984D01*
X4953515Y-19639936D02*
X4963039Y-19649460D01*
X4963039Y-19649460D02*
X4953515Y-19658984D01*
X4953515Y-19658984D02*
X4943991Y-19649460D01*
X4943991Y-19649460D02*
X4953515Y-19639936D01*
X4953515Y-19639936D02*
X4953515Y-19658984D01*
X5153515Y-19658984D02*
X5039229Y-19658984D01*
X5096372Y-19658984D02*
X5096372Y-19458984D01*
X5096372Y-19458984D02*
X5077325Y-19487555D01*
X5077325Y-19487555D02*
X5058277Y-19506603D01*
X5058277Y-19506603D02*
X5039229Y-19516127D01*
X5334468Y-19458984D02*
X5239229Y-19458984D01*
X5239229Y-19458984D02*
X5229706Y-19554222D01*
X5229706Y-19554222D02*
X5239229Y-19544698D01*
X5239229Y-19544698D02*
X5258277Y-19535174D01*
X5258277Y-19535174D02*
X5305896Y-19535174D01*
X5305896Y-19535174D02*
X5324944Y-19544698D01*
X5324944Y-19544698D02*
X5334468Y-19554222D01*
X5334468Y-19554222D02*
X5343991Y-19573270D01*
X5343991Y-19573270D02*
X5343991Y-19620889D01*
X5343991Y-19620889D02*
X5334468Y-19639936D01*
X5334468Y-19639936D02*
X5324944Y-19649460D01*
X5324944Y-19649460D02*
X5305896Y-19658984D01*
X5305896Y-19658984D02*
X5258277Y-19658984D01*
X5258277Y-19658984D02*
X5239229Y-19649460D01*
X5239229Y-19649460D02*
X5229706Y-19639936D01*
X5410658Y-19458984D02*
X5543991Y-19458984D01*
X5543991Y-19458984D02*
X5458277Y-19658984D01*
X5715420Y-19458984D02*
X5620182Y-19458984D01*
X5620182Y-19458984D02*
X5610658Y-19554222D01*
X5610658Y-19554222D02*
X5620182Y-19544698D01*
X5620182Y-19544698D02*
X5639229Y-19535174D01*
X5639229Y-19535174D02*
X5686848Y-19535174D01*
X5686848Y-19535174D02*
X5705896Y-19544698D01*
X5705896Y-19544698D02*
X5715420Y-19554222D01*
X5715420Y-19554222D02*
X5724944Y-19573270D01*
X5724944Y-19573270D02*
X5724944Y-19620889D01*
X5724944Y-19620889D02*
X5715420Y-19639936D01*
X5715420Y-19639936D02*
X5705896Y-19649460D01*
X5705896Y-19649460D02*
X5686848Y-19658984D01*
X5686848Y-19658984D02*
X5639229Y-19658984D01*
X5639229Y-19658984D02*
X5620182Y-19649460D01*
X5620182Y-19649460D02*
X5610658Y-19639936D01*
X5801134Y-19458984D02*
X5801134Y-19497079D01*
X5877325Y-19458984D02*
X5877325Y-19497079D01*
X6172563Y-19735174D02*
X6163039Y-19725650D01*
X6163039Y-19725650D02*
X6143991Y-19697079D01*
X6143991Y-19697079D02*
X6134468Y-19678031D01*
X6134468Y-19678031D02*
X6124944Y-19649460D01*
X6124944Y-19649460D02*
X6115420Y-19601841D01*
X6115420Y-19601841D02*
X6115420Y-19563746D01*
X6115420Y-19563746D02*
X6124944Y-19516127D01*
X6124944Y-19516127D02*
X6134468Y-19487555D01*
X6134468Y-19487555D02*
X6143991Y-19468508D01*
X6143991Y-19468508D02*
X6163039Y-19439936D01*
X6163039Y-19439936D02*
X6172563Y-19430412D01*
X6334468Y-19525650D02*
X6334468Y-19658984D01*
X6286848Y-19449460D02*
X6239229Y-19592317D01*
X6239229Y-19592317D02*
X6363039Y-19592317D01*
X6591610Y-19658984D02*
X6591610Y-19458984D01*
X6677325Y-19658984D02*
X6677325Y-19554222D01*
X6677325Y-19554222D02*
X6667801Y-19535174D01*
X6667801Y-19535174D02*
X6648753Y-19525650D01*
X6648753Y-19525650D02*
X6620182Y-19525650D01*
X6620182Y-19525650D02*
X6601134Y-19535174D01*
X6601134Y-19535174D02*
X6591610Y-19544698D01*
X6801134Y-19658984D02*
X6782087Y-19649460D01*
X6782087Y-19649460D02*
X6772563Y-19639936D01*
X6772563Y-19639936D02*
X6763039Y-19620889D01*
X6763039Y-19620889D02*
X6763039Y-19563746D01*
X6763039Y-19563746D02*
X6772563Y-19544698D01*
X6772563Y-19544698D02*
X6782087Y-19535174D01*
X6782087Y-19535174D02*
X6801134Y-19525650D01*
X6801134Y-19525650D02*
X6829706Y-19525650D01*
X6829706Y-19525650D02*
X6848753Y-19535174D01*
X6848753Y-19535174D02*
X6858277Y-19544698D01*
X6858277Y-19544698D02*
X6867801Y-19563746D01*
X6867801Y-19563746D02*
X6867801Y-19620889D01*
X6867801Y-19620889D02*
X6858277Y-19639936D01*
X6858277Y-19639936D02*
X6848753Y-19649460D01*
X6848753Y-19649460D02*
X6829706Y-19658984D01*
X6829706Y-19658984D02*
X6801134Y-19658984D01*
X6982087Y-19658984D02*
X6963039Y-19649460D01*
X6963039Y-19649460D02*
X6953515Y-19630412D01*
X6953515Y-19630412D02*
X6953515Y-19458984D01*
X7134468Y-19649460D02*
X7115420Y-19658984D01*
X7115420Y-19658984D02*
X7077325Y-19658984D01*
X7077325Y-19658984D02*
X7058277Y-19649460D01*
X7058277Y-19649460D02*
X7048753Y-19630412D01*
X7048753Y-19630412D02*
X7048753Y-19554222D01*
X7048753Y-19554222D02*
X7058277Y-19535174D01*
X7058277Y-19535174D02*
X7077325Y-19525650D01*
X7077325Y-19525650D02*
X7115420Y-19525650D01*
X7115420Y-19525650D02*
X7134468Y-19535174D01*
X7134468Y-19535174D02*
X7143991Y-19554222D01*
X7143991Y-19554222D02*
X7143991Y-19573270D01*
X7143991Y-19573270D02*
X7048753Y-19592317D01*
X7220182Y-19649460D02*
X7239230Y-19658984D01*
X7239230Y-19658984D02*
X7277325Y-19658984D01*
X7277325Y-19658984D02*
X7296372Y-19649460D01*
X7296372Y-19649460D02*
X7305896Y-19630412D01*
X7305896Y-19630412D02*
X7305896Y-19620889D01*
X7305896Y-19620889D02*
X7296372Y-19601841D01*
X7296372Y-19601841D02*
X7277325Y-19592317D01*
X7277325Y-19592317D02*
X7248753Y-19592317D01*
X7248753Y-19592317D02*
X7229706Y-19582793D01*
X7229706Y-19582793D02*
X7220182Y-19563746D01*
X7220182Y-19563746D02*
X7220182Y-19554222D01*
X7220182Y-19554222D02*
X7229706Y-19535174D01*
X7229706Y-19535174D02*
X7248753Y-19525650D01*
X7248753Y-19525650D02*
X7277325Y-19525650D01*
X7277325Y-19525650D02*
X7296372Y-19535174D01*
X7372563Y-19735174D02*
X7382087Y-19725650D01*
X7382087Y-19725650D02*
X7401134Y-19697079D01*
X7401134Y-19697079D02*
X7410658Y-19678031D01*
X7410658Y-19678031D02*
X7420182Y-19649460D01*
X7420182Y-19649460D02*
X7429706Y-19601841D01*
X7429706Y-19601841D02*
X7429706Y-19563746D01*
X7429706Y-19563746D02*
X7420182Y-19516127D01*
X7420182Y-19516127D02*
X7410658Y-19487555D01*
X7410658Y-19487555D02*
X7401134Y-19468508D01*
X7401134Y-19468508D02*
X7382087Y-19439936D01*
X7382087Y-19439936D02*
X7372563Y-19430412D01*
X7734468Y-19735174D02*
X7724944Y-19725650D01*
X7724944Y-19725650D02*
X7705896Y-19697079D01*
X7705896Y-19697079D02*
X7696372Y-19678031D01*
X7696372Y-19678031D02*
X7686849Y-19649460D01*
X7686849Y-19649460D02*
X7677325Y-19601841D01*
X7677325Y-19601841D02*
X7677325Y-19563746D01*
X7677325Y-19563746D02*
X7686849Y-19516127D01*
X7686849Y-19516127D02*
X7696372Y-19487555D01*
X7696372Y-19487555D02*
X7705896Y-19468508D01*
X7705896Y-19468508D02*
X7724944Y-19439936D01*
X7724944Y-19439936D02*
X7734468Y-19430412D01*
X7810658Y-19525650D02*
X7810658Y-19658984D01*
X7810658Y-19544698D02*
X7820182Y-19535174D01*
X7820182Y-19535174D02*
X7839230Y-19525650D01*
X7839230Y-19525650D02*
X7867801Y-19525650D01*
X7867801Y-19525650D02*
X7886849Y-19535174D01*
X7886849Y-19535174D02*
X7896372Y-19554222D01*
X7896372Y-19554222D02*
X7896372Y-19658984D01*
X8020182Y-19658984D02*
X8001134Y-19649460D01*
X8001134Y-19649460D02*
X7991611Y-19639936D01*
X7991611Y-19639936D02*
X7982087Y-19620889D01*
X7982087Y-19620889D02*
X7982087Y-19563746D01*
X7982087Y-19563746D02*
X7991611Y-19544698D01*
X7991611Y-19544698D02*
X8001134Y-19535174D01*
X8001134Y-19535174D02*
X8020182Y-19525650D01*
X8020182Y-19525650D02*
X8048753Y-19525650D01*
X8048753Y-19525650D02*
X8067801Y-19535174D01*
X8067801Y-19535174D02*
X8077325Y-19544698D01*
X8077325Y-19544698D02*
X8086849Y-19563746D01*
X8086849Y-19563746D02*
X8086849Y-19620889D01*
X8086849Y-19620889D02*
X8077325Y-19639936D01*
X8077325Y-19639936D02*
X8067801Y-19649460D01*
X8067801Y-19649460D02*
X8048753Y-19658984D01*
X8048753Y-19658984D02*
X8020182Y-19658984D01*
X8143992Y-19525650D02*
X8220182Y-19525650D01*
X8172563Y-19458984D02*
X8172563Y-19630412D01*
X8172563Y-19630412D02*
X8182087Y-19649460D01*
X8182087Y-19649460D02*
X8201134Y-19658984D01*
X8201134Y-19658984D02*
X8220182Y-19658984D01*
X8439230Y-19525650D02*
X8439230Y-19725650D01*
X8439230Y-19535174D02*
X8458277Y-19525650D01*
X8458277Y-19525650D02*
X8496373Y-19525650D01*
X8496373Y-19525650D02*
X8515420Y-19535174D01*
X8515420Y-19535174D02*
X8524944Y-19544698D01*
X8524944Y-19544698D02*
X8534468Y-19563746D01*
X8534468Y-19563746D02*
X8534468Y-19620889D01*
X8534468Y-19620889D02*
X8524944Y-19639936D01*
X8524944Y-19639936D02*
X8515420Y-19649460D01*
X8515420Y-19649460D02*
X8496373Y-19658984D01*
X8496373Y-19658984D02*
X8458277Y-19658984D01*
X8458277Y-19658984D02*
X8439230Y-19649460D01*
X8648754Y-19658984D02*
X8629706Y-19649460D01*
X8629706Y-19649460D02*
X8620182Y-19630412D01*
X8620182Y-19630412D02*
X8620182Y-19458984D01*
X8810658Y-19658984D02*
X8810658Y-19554222D01*
X8810658Y-19554222D02*
X8801135Y-19535174D01*
X8801135Y-19535174D02*
X8782087Y-19525650D01*
X8782087Y-19525650D02*
X8743992Y-19525650D01*
X8743992Y-19525650D02*
X8724944Y-19535174D01*
X8810658Y-19649460D02*
X8791611Y-19658984D01*
X8791611Y-19658984D02*
X8743992Y-19658984D01*
X8743992Y-19658984D02*
X8724944Y-19649460D01*
X8724944Y-19649460D02*
X8715420Y-19630412D01*
X8715420Y-19630412D02*
X8715420Y-19611365D01*
X8715420Y-19611365D02*
X8724944Y-19592317D01*
X8724944Y-19592317D02*
X8743992Y-19582793D01*
X8743992Y-19582793D02*
X8791611Y-19582793D01*
X8791611Y-19582793D02*
X8810658Y-19573270D01*
X8877325Y-19525650D02*
X8953515Y-19525650D01*
X8905896Y-19458984D02*
X8905896Y-19630412D01*
X8905896Y-19630412D02*
X8915420Y-19649460D01*
X8915420Y-19649460D02*
X8934468Y-19658984D01*
X8934468Y-19658984D02*
X8953515Y-19658984D01*
X9096373Y-19649460D02*
X9077325Y-19658984D01*
X9077325Y-19658984D02*
X9039230Y-19658984D01*
X9039230Y-19658984D02*
X9020182Y-19649460D01*
X9020182Y-19649460D02*
X9010658Y-19630412D01*
X9010658Y-19630412D02*
X9010658Y-19554222D01*
X9010658Y-19554222D02*
X9020182Y-19535174D01*
X9020182Y-19535174D02*
X9039230Y-19525650D01*
X9039230Y-19525650D02*
X9077325Y-19525650D01*
X9077325Y-19525650D02*
X9096373Y-19535174D01*
X9096373Y-19535174D02*
X9105896Y-19554222D01*
X9105896Y-19554222D02*
X9105896Y-19573270D01*
X9105896Y-19573270D02*
X9010658Y-19592317D01*
X9277325Y-19658984D02*
X9277325Y-19458984D01*
X9277325Y-19649460D02*
X9258277Y-19658984D01*
X9258277Y-19658984D02*
X9220182Y-19658984D01*
X9220182Y-19658984D02*
X9201135Y-19649460D01*
X9201135Y-19649460D02*
X9191611Y-19639936D01*
X9191611Y-19639936D02*
X9182087Y-19620889D01*
X9182087Y-19620889D02*
X9182087Y-19563746D01*
X9182087Y-19563746D02*
X9191611Y-19544698D01*
X9191611Y-19544698D02*
X9201135Y-19535174D01*
X9201135Y-19535174D02*
X9220182Y-19525650D01*
X9220182Y-19525650D02*
X9258277Y-19525650D01*
X9258277Y-19525650D02*
X9277325Y-19535174D01*
X9353516Y-19735174D02*
X9363039Y-19725650D01*
X9363039Y-19725650D02*
X9382087Y-19697079D01*
X9382087Y-19697079D02*
X9391611Y-19678031D01*
X9391611Y-19678031D02*
X9401135Y-19649460D01*
X9401135Y-19649460D02*
X9410658Y-19601841D01*
X9410658Y-19601841D02*
X9410658Y-19563746D01*
X9410658Y-19563746D02*
X9401135Y-19516127D01*
X9401135Y-19516127D02*
X9391611Y-19487555D01*
X9391611Y-19487555D02*
X9382087Y-19468508D01*
X9382087Y-19468508D02*
X9363039Y-19439936D01*
X9363039Y-19439936D02*
X9353516Y-19430412D01*
M02*
