%TF.GenerationSoftware,KiCad,Pcbnew,8.0.1*%
%TF.CreationDate,2024-04-18T23:30:45-04:00*%
%TF.ProjectId,emandoharp,656d616e-646f-4686-9172-702e6b696361,rev?*%
%TF.SameCoordinates,Original*%
%TF.FileFunction,Copper,L1,Top*%
%TF.FilePolarity,Positive*%
%FSLAX46Y46*%
G04 Gerber Fmt 4.6, Leading zero omitted, Abs format (unit mm)*
G04 Created by KiCad (PCBNEW 8.0.1) date 2024-04-18 23:30:45*
%MOMM*%
%LPD*%
G01*
G04 APERTURE LIST*
%TA.AperFunction,ComponentPad*%
%ADD10R,2.200000X2.200000*%
%TD*%
%TA.AperFunction,ComponentPad*%
%ADD11O,2.200000X2.200000*%
%TD*%
%TA.AperFunction,ComponentPad*%
%ADD12C,1.600000*%
%TD*%
%TA.AperFunction,ComponentPad*%
%ADD13O,1.600000X1.600000*%
%TD*%
%TA.AperFunction,ComponentPad*%
%ADD14C,1.000000*%
%TD*%
%TA.AperFunction,ComponentPad*%
%ADD15R,1.600000X1.600000*%
%TD*%
%TA.AperFunction,ComponentPad*%
%ADD16R,1.300000X1.300000*%
%TD*%
%TA.AperFunction,ComponentPad*%
%ADD17C,1.300000*%
%TD*%
%TA.AperFunction,Conductor*%
%ADD18C,0.200000*%
%TD*%
G04 APERTURE END LIST*
D10*
%TO.P,D28,1,K*%
%TO.N,Net-(D27-A)*%
X117000000Y-85750000D03*
D11*
%TO.P,D28,2,A*%
%TO.N,Net-(D10-A)*%
X117000000Y-75590000D03*
%TD*%
D12*
%TO.P,R13,1*%
%TO.N,Net-(D15-A)*%
X96000000Y-65440000D03*
D13*
%TO.P,R13,2*%
%TO.N,Net-(R10-Pad2)*%
X96000000Y-73060000D03*
%TD*%
D14*
%TO.P,P20,1,1*%
%TO.N,Net-(P19-Pad1)*%
X86000000Y-175250000D03*
%TD*%
%TO.P,P3,1,1*%
%TO.N,Net-(D5-A)*%
X50000000Y-105750000D03*
%TD*%
D12*
%TO.P,R2,1*%
%TO.N,Net-(R2-Pad1)*%
X138000000Y-59870000D03*
D13*
%TO.P,R2,2*%
%TO.N,Net-(D1-K)*%
X138000000Y-52250000D03*
%TD*%
D14*
%TO.P,P27,1,1*%
%TO.N,Net-(P19-Pad1)*%
X137500000Y-165250000D03*
%TD*%
D10*
%TO.P,D7,1,K*%
%TO.N,Net-(D1-K)*%
X82000000Y-52670000D03*
D11*
%TO.P,D7,2,A*%
%TO.N,Net-(D7-A)*%
X82000000Y-62830000D03*
%TD*%
D10*
%TO.P,D23,1,K*%
%TO.N,Net-(D1-K)*%
X110000000Y-52590000D03*
D11*
%TO.P,D23,2,A*%
%TO.N,Net-(D23-A)*%
X110000000Y-62750000D03*
%TD*%
D10*
%TO.P,D20,1,K*%
%TO.N,Net-(D19-A)*%
X103000000Y-85750000D03*
D11*
%TO.P,D20,2,A*%
%TO.N,Net-(D10-A)*%
X103000000Y-75590000D03*
%TD*%
D10*
%TO.P,D15,1,K*%
%TO.N,Net-(D1-K)*%
X96000000Y-52670000D03*
D11*
%TO.P,D15,2,A*%
%TO.N,Net-(D15-A)*%
X96000000Y-62830000D03*
%TD*%
D12*
%TO.P,R19,1*%
%TO.N,Net-(D29-A)*%
X120500000Y-65500000D03*
D13*
%TO.P,R19,2*%
%TO.N,Net-(R10-Pad2)*%
X120500000Y-73120000D03*
%TD*%
D10*
%TO.P,D2,1,K*%
%TO.N,Net-(D1-A)*%
X71500000Y-85750000D03*
D11*
%TO.P,D2,2,A*%
%TO.N,Net-(D10-A)*%
X71500000Y-75590000D03*
%TD*%
D14*
%TO.P,P25,1,1*%
%TO.N,Net-(P19-Pad1)*%
X98000000Y-149250000D03*
%TD*%
D10*
%TO.P,D36,1,K*%
%TO.N,Net-(D35-A)*%
X131000000Y-86250000D03*
D11*
%TO.P,D36,2,A*%
%TO.N,Net-(D10-A)*%
X131000000Y-76090000D03*
%TD*%
D15*
%TO.P,U1,1,GND*%
%TO.N,unconnected-(U1-GND-Pad1)*%
X144040000Y-33550000D03*
D12*
%TO.P,U1,2,0_RX1_CRX2_CS1*%
%TO.N,unconnected-(U1-0_RX1_CRX2_CS1-Pad2)*%
X141500000Y-33550000D03*
%TO.P,U1,3,1_TX1_CTX2_MISO1*%
%TO.N,unconnected-(U1-1_TX1_CTX2_MISO1-Pad3)*%
X138960000Y-33550000D03*
%TO.P,U1,4,2_OUT2*%
%TO.N,unconnected-(U1-2_OUT2-Pad4)*%
X136420000Y-33550000D03*
%TO.P,U1,5,3_LRCLK2*%
%TO.N,unconnected-(U1-3_LRCLK2-Pad5)*%
X133880000Y-33550000D03*
%TO.P,U1,6,4_BCLK2*%
%TO.N,unconnected-(U1-4_BCLK2-Pad6)*%
X131340000Y-33550000D03*
%TO.P,U1,7,5_IN2*%
%TO.N,unconnected-(U1-5_IN2-Pad7)*%
X128800000Y-33550000D03*
%TO.P,U1,8,6_OUT1D*%
%TO.N,unconnected-(U1-6_OUT1D-Pad8)*%
X126260000Y-33550000D03*
%TO.P,U1,9,7_RX2_OUT1A*%
%TO.N,unconnected-(U1-7_RX2_OUT1A-Pad9)*%
X123720000Y-33550000D03*
%TO.P,U1,10,8_TX2_IN1*%
%TO.N,unconnected-(U1-8_TX2_IN1-Pad10)*%
X121180000Y-33550000D03*
%TO.P,U1,11,9_OUT1C*%
%TO.N,unconnected-(U1-9_OUT1C-Pad11)*%
X118640000Y-33550000D03*
%TO.P,U1,12,10_CS_MQSR*%
%TO.N,unconnected-(U1-10_CS_MQSR-Pad12)*%
X116100000Y-33550000D03*
%TO.P,U1,13,11_MOSI_CTX1*%
%TO.N,unconnected-(U1-11_MOSI_CTX1-Pad13)*%
X113560000Y-33550000D03*
%TO.P,U1,14,12_MISO_MQSL*%
%TO.N,unconnected-(U1-12_MISO_MQSL-Pad14)*%
X111020000Y-33550000D03*
%TO.P,U1,15,3V3*%
%TO.N,unconnected-(U1-3V3-Pad15)*%
X108480000Y-33550000D03*
%TO.P,U1,16,24_A10_TX6_SCL2*%
%TO.N,Net-(D1-A)*%
X105940000Y-33550000D03*
%TO.P,U1,17,25_A11_RX6_SDA2*%
%TO.N,Net-(D3-A)*%
X103400000Y-33550000D03*
%TO.P,U1,18,26_A12_MOSI1*%
%TO.N,Net-(D5-A)*%
X100860000Y-33550000D03*
%TO.P,U1,19,27_A13_SCK1*%
%TO.N,Net-(D7-A)*%
X98320000Y-33550000D03*
%TO.P,U1,20,28_RX7*%
%TO.N,unconnected-(U1-28_RX7-Pad20)*%
X95780000Y-33550000D03*
%TO.P,U1,21,29_TX7*%
%TO.N,unconnected-(U1-29_TX7-Pad21)*%
X93240000Y-33550000D03*
%TO.P,U1,22,30_CRX3*%
%TO.N,unconnected-(U1-30_CRX3-Pad22)*%
X90700000Y-33550000D03*
%TO.P,U1,23,31_CTX3*%
%TO.N,unconnected-(U1-31_CTX3-Pad23)*%
X88160000Y-33550000D03*
%TO.P,U1,24,32_OUT1B*%
%TO.N,unconnected-(U1-32_OUT1B-Pad24)*%
X85620000Y-33550000D03*
%TO.P,U1,25,33_MCLK2*%
%TO.N,unconnected-(U1-33_MCLK2-Pad25)*%
X85620000Y-48790000D03*
%TO.P,U1,26,34_RX8*%
%TO.N,unconnected-(U1-34_RX8-Pad26)*%
X88160000Y-48790000D03*
%TO.P,U1,27,35_TX8*%
%TO.N,unconnected-(U1-35_TX8-Pad27)*%
X90700000Y-48790000D03*
%TO.P,U1,28,36_CS*%
%TO.N,unconnected-(U1-36_CS-Pad28)*%
X93240000Y-48790000D03*
%TO.P,U1,29,37_CS*%
%TO.N,unconnected-(U1-37_CS-Pad29)*%
X95780000Y-48790000D03*
%TO.P,U1,30,38_CS1_IN1*%
%TO.N,Net-(D10-K)*%
X98320000Y-48790000D03*
%TO.P,U1,31,39_MISO1_OUT1A*%
%TO.N,Net-(D11-A)*%
X100860000Y-48790000D03*
%TO.P,U1,32,40_A16*%
%TO.N,Net-(D13-A)*%
X103400000Y-48790000D03*
%TO.P,U1,33,41_A17*%
%TO.N,Net-(D15-A)*%
X105940000Y-48790000D03*
%TO.P,U1,34,GND*%
%TO.N,unconnected-(U1-GND-Pad34)*%
X108480000Y-48790000D03*
%TO.P,U1,35,13_SCK_LED*%
%TO.N,unconnected-(U1-13_SCK_LED-Pad35)*%
X111020000Y-48790000D03*
%TO.P,U1,36,14_A0_TX3_SPDIF_OUT*%
%TO.N,Net-(D17-A)*%
X113560000Y-48790000D03*
%TO.P,U1,37,15_A1_RX3_SPDIF_IN*%
%TO.N,Net-(D19-A)*%
X116100000Y-48790000D03*
%TO.P,U1,38,16_A2_RX4_SCL1*%
%TO.N,Net-(D21-A)*%
X118640000Y-48790000D03*
%TO.P,U1,39,17_A3_TX4_SDA1*%
%TO.N,Net-(D23-A)*%
X121180000Y-48790000D03*
%TO.P,U1,40,18_A4_SDA*%
%TO.N,Net-(D25-A)*%
X123720000Y-48790000D03*
%TO.P,U1,41,19_A5_SCL*%
%TO.N,Net-(D27-A)*%
X126260000Y-48790000D03*
%TO.P,U1,42,20_A6_TX5_LRCLK1*%
%TO.N,Net-(D29-A)*%
X128800000Y-48790000D03*
%TO.P,U1,43,21_A7_RX5_BCLK1*%
%TO.N,Net-(D31-A)*%
X131340000Y-48790000D03*
%TO.P,U1,44,22_A8_CTX1*%
%TO.N,Net-(D33-A)*%
X133880000Y-48790000D03*
%TO.P,U1,45,23_A9_CRX1_MCLK1*%
%TO.N,Net-(D35-A)*%
X136420000Y-48790000D03*
%TO.P,U1,46,3V3*%
%TO.N,Net-(R2-Pad1)*%
X138960000Y-48790000D03*
%TO.P,U1,47,GND*%
%TO.N,Net-(P19-Pad1)*%
X141500000Y-48790000D03*
%TO.P,U1,48,VIN*%
%TO.N,unconnected-(U1-VIN-Pad48)*%
X144040000Y-48790000D03*
%TO.P,U1,49,VUSB*%
%TO.N,unconnected-(U1-VUSB-Pad49)*%
X141500000Y-46250000D03*
%TO.P,U1,50,VBAT*%
%TO.N,unconnected-(U1-VBAT-Pad50)*%
X98320000Y-36090000D03*
%TO.P,U1,51,3V3*%
%TO.N,unconnected-(U1-3V3-Pad51)*%
X98320000Y-38630000D03*
%TO.P,U1,52,GND*%
%TO.N,unconnected-(U1-GND-Pad52)*%
X98320000Y-41170000D03*
%TO.P,U1,53,PROGRAM*%
%TO.N,unconnected-(U1-PROGRAM-Pad53)*%
X98320000Y-43710000D03*
%TO.P,U1,54,ON_OFF*%
%TO.N,unconnected-(U1-ON_OFF-Pad54)*%
X98320000Y-46250000D03*
D15*
%TO.P,U1,55,5V*%
%TO.N,unconnected-(U1-5V-Pad55)*%
X137740800Y-36600800D03*
D12*
%TO.P,U1,56,D-*%
%TO.N,unconnected-(U1-D--Pad56)*%
X135200800Y-36600800D03*
%TO.P,U1,57,D+*%
%TO.N,unconnected-(U1-D+-Pad57)*%
X132660800Y-36600800D03*
%TO.P,U1,58,GND*%
%TO.N,unconnected-(U1-GND-Pad58)*%
X130120800Y-36600800D03*
%TO.P,U1,59,GND*%
%TO.N,unconnected-(U1-GND-Pad59)*%
X127580800Y-36600800D03*
D16*
%TO.P,U1,60,R+*%
%TO.N,unconnected-(U1-R+-Pad60)*%
X131070000Y-46351600D03*
D17*
%TO.P,U1,61,LED*%
%TO.N,unconnected-(U1-LED-Pad61)*%
X131070000Y-44351600D03*
%TO.P,U1,62,T-*%
%TO.N,unconnected-(U1-T--Pad62)*%
X131070000Y-42351600D03*
%TO.P,U1,63,T+*%
%TO.N,unconnected-(U1-T+-Pad63)*%
X129070000Y-42351600D03*
%TO.P,U1,64,GND*%
%TO.N,unconnected-(U1-GND-Pad64)*%
X129070000Y-44351600D03*
%TO.P,U1,65,R-*%
%TO.N,unconnected-(U1-R--Pad65)*%
X129070000Y-46351600D03*
%TO.P,U1,66,D-*%
%TO.N,unconnected-(U1-D--Pad66)*%
X143310000Y-42440000D03*
%TO.P,U1,67,D+*%
%TO.N,unconnected-(U1-D+-Pad67)*%
X143310000Y-39900000D03*
%TD*%
D14*
%TO.P,P23,1,1*%
%TO.N,Net-(P19-Pad1)*%
X50000000Y-149250000D03*
%TD*%
%TO.P,P17,1,1*%
%TO.N,Net-(D33-A)*%
X134500000Y-131750000D03*
%TD*%
D12*
%TO.P,R6,1*%
%TO.N,Net-(D3-A)*%
X75000000Y-65440000D03*
D13*
%TO.P,R6,2*%
%TO.N,Net-(R10-Pad2)*%
X75000000Y-73060000D03*
%TD*%
D12*
%TO.P,R10,1*%
%TO.N,Net-(D21-A)*%
X106500000Y-65250000D03*
D13*
%TO.P,R10,2*%
%TO.N,Net-(R10-Pad2)*%
X106500000Y-72870000D03*
%TD*%
D10*
%TO.P,D29,1,K*%
%TO.N,Net-(D1-K)*%
X120500000Y-52670000D03*
D11*
%TO.P,D29,2,A*%
%TO.N,Net-(D29-A)*%
X120500000Y-62830000D03*
%TD*%
D14*
%TO.P,P19,1,1*%
%TO.N,Net-(P19-Pad1)*%
X62000000Y-175250000D03*
%TD*%
%TO.P,P6,1,1*%
%TO.N,Net-(D11-A)*%
X74000000Y-155750000D03*
%TD*%
D12*
%TO.P,R14,1*%
%TO.N,Net-(D17-A)*%
X99500000Y-65440000D03*
D13*
%TO.P,R14,2*%
%TO.N,Net-(R10-Pad2)*%
X99500000Y-73060000D03*
%TD*%
D14*
%TO.P,P21,1,1*%
%TO.N,Net-(P19-Pad1)*%
X110000000Y-175250000D03*
%TD*%
%TO.P,P34,1,1*%
%TO.N,Net-(P19-Pad1)*%
X98000000Y-99250000D03*
%TD*%
%TO.P,P36,1,1*%
%TO.N,Net-(P19-Pad1)*%
X62000000Y-75250000D03*
%TD*%
D10*
%TO.P,D11,1,K*%
%TO.N,Net-(D1-K)*%
X89000000Y-52590000D03*
D11*
%TO.P,D11,2,A*%
%TO.N,Net-(D11-A)*%
X89000000Y-62750000D03*
%TD*%
D14*
%TO.P,P15,1,1*%
%TO.N,Net-(D29-A)*%
X122000000Y-105250000D03*
%TD*%
D10*
%TO.P,D8,1,K*%
%TO.N,Net-(D7-A)*%
X82000000Y-85750000D03*
D11*
%TO.P,D8,2,A*%
%TO.N,Net-(D10-A)*%
X82000000Y-75590000D03*
%TD*%
D10*
%TO.P,D12,1,K*%
%TO.N,Net-(D11-A)*%
X89000000Y-85750000D03*
D11*
%TO.P,D12,2,A*%
%TO.N,Net-(D10-A)*%
X89000000Y-75590000D03*
%TD*%
D10*
%TO.P,D9,1,K*%
%TO.N,Net-(D1-K)*%
X85500000Y-52590000D03*
D11*
%TO.P,D9,2,A*%
%TO.N,Net-(D10-K)*%
X85500000Y-62750000D03*
%TD*%
D10*
%TO.P,D27,1,K*%
%TO.N,Net-(D1-K)*%
X117000000Y-52670000D03*
D11*
%TO.P,D27,2,A*%
%TO.N,Net-(D27-A)*%
X117000000Y-62830000D03*
%TD*%
D14*
%TO.P,P12,1,1*%
%TO.N,Net-(D23-A)*%
X110000000Y-130250000D03*
%TD*%
%TO.P,P13,1,1*%
%TO.N,Net-(D25-A)*%
X110000000Y-180750000D03*
%TD*%
D10*
%TO.P,D10,1,K*%
%TO.N,Net-(D10-K)*%
X85500000Y-85750000D03*
D11*
%TO.P,D10,2,A*%
%TO.N,Net-(D10-A)*%
X85500000Y-75590000D03*
%TD*%
D10*
%TO.P,D19,1,K*%
%TO.N,Net-(D1-K)*%
X103000000Y-52670000D03*
D11*
%TO.P,D19,2,A*%
%TO.N,Net-(D19-A)*%
X103000000Y-62830000D03*
%TD*%
D14*
%TO.P,P22,1,1*%
%TO.N,Net-(P19-Pad1)*%
X134000000Y-175250000D03*
%TD*%
%TO.P,P11,1,1*%
%TO.N,Net-(D21-A)*%
X98000000Y-155750000D03*
%TD*%
D12*
%TO.P,R11,1*%
%TO.N,Net-(D11-A)*%
X89000000Y-65440000D03*
D13*
%TO.P,R11,2*%
%TO.N,Net-(R10-Pad2)*%
X89000000Y-73060000D03*
%TD*%
D10*
%TO.P,D14,1,K*%
%TO.N,Net-(D13-A)*%
X92500000Y-85750000D03*
D11*
%TO.P,D14,2,A*%
%TO.N,Net-(D10-A)*%
X92500000Y-75590000D03*
%TD*%
D10*
%TO.P,D16,1,K*%
%TO.N,Net-(D15-A)*%
X96000000Y-85750000D03*
D11*
%TO.P,D16,2,A*%
%TO.N,Net-(D10-A)*%
X96000000Y-75590000D03*
%TD*%
D12*
%TO.P,R3,1*%
%TO.N,Net-(D1-K)*%
X134500000Y-52440000D03*
D13*
%TO.P,R3,2*%
%TO.N,Net-(R10-Pad2)*%
X134500000Y-60060000D03*
%TD*%
D14*
%TO.P,P14,1,1*%
%TO.N,Net-(D27-A)*%
X122000000Y-156750000D03*
%TD*%
%TO.P,P9,1,1*%
%TO.N,Net-(D17-A)*%
X86000000Y-131250000D03*
%TD*%
D12*
%TO.P,R7,1*%
%TO.N,Net-(D5-A)*%
X78500000Y-65440000D03*
D13*
%TO.P,R7,2*%
%TO.N,Net-(R10-Pad2)*%
X78500000Y-73060000D03*
%TD*%
D12*
%TO.P,R22,1*%
%TO.N,Net-(D35-A)*%
X131000000Y-65630000D03*
D13*
%TO.P,R22,2*%
%TO.N,Net-(R10-Pad2)*%
X131000000Y-73250000D03*
%TD*%
D14*
%TO.P,P32,1,1*%
%TO.N,Net-(P19-Pad1)*%
X50000000Y-99250000D03*
%TD*%
%TO.P,P29,1,1*%
%TO.N,Net-(P19-Pad1)*%
X86000000Y-123250000D03*
%TD*%
D10*
%TO.P,D34,1,K*%
%TO.N,Net-(D33-A)*%
X127500000Y-85910000D03*
D11*
%TO.P,D34,2,A*%
%TO.N,Net-(D10-A)*%
X127500000Y-75750000D03*
%TD*%
D14*
%TO.P,P7,1,1*%
%TO.N,Net-(D13-A)*%
X86000000Y-181250000D03*
%TD*%
D10*
%TO.P,D30,1,K*%
%TO.N,Net-(D29-A)*%
X120500000Y-85750000D03*
D11*
%TO.P,D30,2,A*%
%TO.N,Net-(D10-A)*%
X120500000Y-75590000D03*
%TD*%
D10*
%TO.P,D32,1,K*%
%TO.N,Net-(D31-A)*%
X124000000Y-85750000D03*
D11*
%TO.P,D32,2,A*%
%TO.N,Net-(D10-A)*%
X124000000Y-75590000D03*
%TD*%
D12*
%TO.P,R8,1*%
%TO.N,Net-(D7-A)*%
X82000000Y-65250000D03*
D13*
%TO.P,R8,2*%
%TO.N,Net-(R10-Pad2)*%
X82000000Y-72870000D03*
%TD*%
D12*
%TO.P,R15,1*%
%TO.N,Net-(D19-A)*%
X103000000Y-65250000D03*
D13*
%TO.P,R15,2*%
%TO.N,Net-(R10-Pad2)*%
X103000000Y-72870000D03*
%TD*%
D10*
%TO.P,D21,1,K*%
%TO.N,Net-(D1-K)*%
X106500000Y-52590000D03*
D11*
%TO.P,D21,2,A*%
%TO.N,Net-(D21-A)*%
X106500000Y-62750000D03*
%TD*%
D14*
%TO.P,P33,1,1*%
%TO.N,Net-(P19-Pad1)*%
X74000000Y-99250000D03*
%TD*%
D12*
%TO.P,R4,1*%
%TO.N,Net-(R10-Pad2)*%
X134500000Y-63940000D03*
D13*
%TO.P,R4,2*%
%TO.N,Net-(D10-A)*%
X134500000Y-71560000D03*
%TD*%
D10*
%TO.P,D4,1,K*%
%TO.N,Net-(D3-A)*%
X75000000Y-85750000D03*
D11*
%TO.P,D4,2,A*%
%TO.N,Net-(D10-A)*%
X75000000Y-75590000D03*
%TD*%
D10*
%TO.P,D26,1,K*%
%TO.N,Net-(D25-A)*%
X113500000Y-85750000D03*
D11*
%TO.P,D26,2,A*%
%TO.N,Net-(D10-A)*%
X113500000Y-75590000D03*
%TD*%
D10*
%TO.P,D22,1,K*%
%TO.N,Net-(D21-A)*%
X106500000Y-85750000D03*
D11*
%TO.P,D22,2,A*%
%TO.N,Net-(D10-A)*%
X106500000Y-75590000D03*
%TD*%
D14*
%TO.P,P31,1,1*%
%TO.N,Net-(P19-Pad1)*%
X134000000Y-123750000D03*
%TD*%
D10*
%TO.P,D31,1,K*%
%TO.N,Net-(D1-K)*%
X124000000Y-52670000D03*
D11*
%TO.P,D31,2,A*%
%TO.N,Net-(D31-A)*%
X124000000Y-62830000D03*
%TD*%
D14*
%TO.P,P2,1,1*%
%TO.N,Net-(D3-A)*%
X50000000Y-156750000D03*
%TD*%
D10*
%TO.P,D24,1,K*%
%TO.N,Net-(D23-A)*%
X110000000Y-85750000D03*
D11*
%TO.P,D24,2,A*%
%TO.N,Net-(D10-A)*%
X110000000Y-75590000D03*
%TD*%
D12*
%TO.P,R9,1*%
%TO.N,Net-(D10-K)*%
X85500000Y-65440000D03*
D13*
%TO.P,R9,2*%
%TO.N,Net-(R10-Pad2)*%
X85500000Y-73060000D03*
%TD*%
D10*
%TO.P,D25,1,K*%
%TO.N,Net-(D1-K)*%
X113500000Y-52590000D03*
D11*
%TO.P,D25,2,A*%
%TO.N,Net-(D25-A)*%
X113500000Y-62750000D03*
%TD*%
D14*
%TO.P,P8,1,1*%
%TO.N,Net-(D15-A)*%
X74000000Y-105250000D03*
%TD*%
D10*
%TO.P,D33,1,K*%
%TO.N,Net-(D1-K)*%
X127500000Y-52670000D03*
D11*
%TO.P,D33,2,A*%
%TO.N,Net-(D33-A)*%
X127500000Y-62830000D03*
%TD*%
D14*
%TO.P,P5,1,1*%
%TO.N,Net-(D10-K)*%
X62000000Y-132250000D03*
%TD*%
%TO.P,P10,1,1*%
%TO.N,Net-(D19-A)*%
X98000000Y-106250000D03*
%TD*%
D10*
%TO.P,D17,1,K*%
%TO.N,Net-(D1-K)*%
X99500000Y-52670000D03*
D11*
%TO.P,D17,2,A*%
%TO.N,Net-(D17-A)*%
X99500000Y-62830000D03*
%TD*%
D14*
%TO.P,P1,1,1*%
%TO.N,Net-(D1-A)*%
X62000000Y-82750000D03*
%TD*%
D12*
%TO.P,R1,1*%
%TO.N,Net-(P19-Pad1)*%
X134500000Y-83560000D03*
D13*
%TO.P,R1,2*%
%TO.N,Net-(D10-A)*%
X134500000Y-75940000D03*
%TD*%
D10*
%TO.P,D5,1,K*%
%TO.N,Net-(D1-K)*%
X78500000Y-52670000D03*
D11*
%TO.P,D5,2,A*%
%TO.N,Net-(D5-A)*%
X78500000Y-62830000D03*
%TD*%
D12*
%TO.P,R18,1*%
%TO.N,Net-(D27-A)*%
X117000000Y-65440000D03*
D13*
%TO.P,R18,2*%
%TO.N,Net-(R10-Pad2)*%
X117000000Y-73060000D03*
%TD*%
D12*
%TO.P,R5,1*%
%TO.N,Net-(D1-A)*%
X71500000Y-65440000D03*
D13*
%TO.P,R5,2*%
%TO.N,Net-(R10-Pad2)*%
X71500000Y-73060000D03*
%TD*%
D14*
%TO.P,P30,1,1*%
%TO.N,Net-(P19-Pad1)*%
X110000000Y-123250000D03*
%TD*%
D12*
%TO.P,R20,1*%
%TO.N,Net-(D31-A)*%
X124000000Y-65440000D03*
D13*
%TO.P,R20,2*%
%TO.N,Net-(R10-Pad2)*%
X124000000Y-73060000D03*
%TD*%
D10*
%TO.P,D3,1,K*%
%TO.N,Net-(D1-K)*%
X75000000Y-52590000D03*
D11*
%TO.P,D3,2,A*%
%TO.N,Net-(D3-A)*%
X75000000Y-62750000D03*
%TD*%
D14*
%TO.P,P26,1,1*%
%TO.N,Net-(P19-Pad1)*%
X122000000Y-149250000D03*
%TD*%
D12*
%TO.P,R16,1*%
%TO.N,Net-(D23-A)*%
X110000000Y-65250000D03*
D13*
%TO.P,R16,2*%
%TO.N,Net-(R10-Pad2)*%
X110000000Y-72870000D03*
%TD*%
D10*
%TO.P,D13,1,K*%
%TO.N,Net-(D1-K)*%
X92500000Y-52590000D03*
D11*
%TO.P,D13,2,A*%
%TO.N,Net-(D13-A)*%
X92500000Y-62750000D03*
%TD*%
D10*
%TO.P,D35,1,K*%
%TO.N,Net-(D1-K)*%
X131000000Y-52590000D03*
D11*
%TO.P,D35,2,A*%
%TO.N,Net-(D35-A)*%
X131000000Y-62750000D03*
%TD*%
D10*
%TO.P,D6,1,K*%
%TO.N,Net-(D5-A)*%
X78500000Y-85750000D03*
D11*
%TO.P,D6,2,A*%
%TO.N,Net-(D10-A)*%
X78500000Y-75590000D03*
%TD*%
D12*
%TO.P,R17,1*%
%TO.N,Net-(D25-A)*%
X113500000Y-65440000D03*
D13*
%TO.P,R17,2*%
%TO.N,Net-(R10-Pad2)*%
X113500000Y-73060000D03*
%TD*%
D10*
%TO.P,D1,1,K*%
%TO.N,Net-(D1-K)*%
X71500000Y-52590000D03*
D11*
%TO.P,D1,2,A*%
%TO.N,Net-(D1-A)*%
X71500000Y-62750000D03*
%TD*%
D10*
%TO.P,D18,1,K*%
%TO.N,Net-(D17-A)*%
X99500000Y-85750000D03*
D11*
%TO.P,D18,2,A*%
%TO.N,Net-(D10-A)*%
X99500000Y-75590000D03*
%TD*%
D14*
%TO.P,P4,1,1*%
%TO.N,Net-(D7-A)*%
X62000000Y-182750000D03*
%TD*%
%TO.P,P18,1,1*%
%TO.N,Net-(D35-A)*%
X141000000Y-165250000D03*
%TD*%
%TO.P,P24,1,1*%
%TO.N,Net-(P19-Pad1)*%
X74000000Y-149250000D03*
%TD*%
D12*
%TO.P,R12,1*%
%TO.N,Net-(D13-A)*%
X92500000Y-65440000D03*
D13*
%TO.P,R12,2*%
%TO.N,Net-(R10-Pad2)*%
X92500000Y-73060000D03*
%TD*%
D14*
%TO.P,P16,1,1*%
%TO.N,Net-(D31-A)*%
X134500000Y-181750000D03*
%TD*%
D12*
%TO.P,R21,1*%
%TO.N,Net-(D33-A)*%
X127500000Y-65630000D03*
D13*
%TO.P,R21,2*%
%TO.N,Net-(R10-Pad2)*%
X127500000Y-73250000D03*
%TD*%
D14*
%TO.P,P35,1,1*%
%TO.N,Net-(P19-Pad1)*%
X122000000Y-99250000D03*
%TD*%
%TO.P,P28,1,1*%
%TO.N,Net-(P19-Pad1)*%
X62000000Y-123250000D03*
%TD*%
D18*
%TO.N,Net-(D1-A)*%
X71500000Y-62750000D02*
X71500000Y-65440000D01*
%TO.N,Net-(D10-A)*%
X78500000Y-75590000D02*
X75000000Y-75590000D01*
X127340000Y-75590000D02*
X124000000Y-75590000D01*
X99500000Y-75590000D02*
X96000000Y-75590000D01*
X131000000Y-76090000D02*
X127840000Y-76090000D01*
X127840000Y-76090000D02*
X127500000Y-75750000D01*
X134500000Y-71560000D02*
X134500000Y-75940000D01*
X71500000Y-75590000D02*
X75000000Y-75590000D01*
X106500000Y-75590000D02*
X103000000Y-75590000D01*
X85500000Y-75590000D02*
X82000000Y-75590000D01*
X120500000Y-75590000D02*
X117000000Y-75590000D01*
X96000000Y-75590000D02*
X92500000Y-75590000D01*
X117000000Y-75590000D02*
X113500000Y-75590000D01*
X127500000Y-75750000D02*
X127340000Y-75590000D01*
X134350000Y-76090000D02*
X134500000Y-75940000D01*
X131000000Y-76090000D02*
X134350000Y-76090000D01*
X82000000Y-75590000D02*
X78500000Y-75590000D01*
X89000000Y-75590000D02*
X85500000Y-75590000D01*
X110000000Y-75590000D02*
X106500000Y-75590000D01*
X113500000Y-75590000D02*
X110000000Y-75590000D01*
X124000000Y-75590000D02*
X120500000Y-75590000D01*
X103000000Y-75590000D02*
X99500000Y-75590000D01*
X92500000Y-75590000D02*
X89000000Y-75590000D01*
%TO.N,Net-(D21-A)*%
X106500000Y-62750000D02*
X106500000Y-65250000D01*
%TO.N,Net-(D25-A)*%
X113500000Y-62750000D02*
X113500000Y-65440000D01*
%TO.N,Net-(D27-A)*%
X117000000Y-62830000D02*
X117000000Y-65440000D01*
%TO.N,Net-(D29-A)*%
X120500000Y-62830000D02*
X120500000Y-65630000D01*
%TO.N,Net-(D31-A)*%
X124000000Y-62830000D02*
X124000000Y-65440000D01*
%TO.N,Net-(D33-A)*%
X127500000Y-62830000D02*
X127500000Y-65630000D01*
%TO.N,Net-(D35-A)*%
X131000000Y-62750000D02*
X131000000Y-65630000D01*
%TO.N,Net-(D1-K)*%
X103500000Y-52590000D02*
X106500000Y-52590000D01*
X92920000Y-52670000D02*
X96000000Y-52670000D01*
X127500000Y-52670000D02*
X130920000Y-52670000D01*
X106500000Y-52590000D02*
X110000000Y-52590000D01*
X134500000Y-52440000D02*
X137810000Y-52440000D01*
X78500000Y-52670000D02*
X82000000Y-52670000D01*
X113500000Y-52590000D02*
X116920000Y-52590000D01*
X85500000Y-52590000D02*
X89000000Y-52590000D01*
X110000000Y-52590000D02*
X113500000Y-52590000D01*
X75420000Y-52670000D02*
X78500000Y-52670000D01*
X117000000Y-52670000D02*
X120500000Y-52670000D01*
X75340000Y-52590000D02*
X75420000Y-52670000D01*
X92840000Y-52590000D02*
X92920000Y-52670000D01*
X116920000Y-52590000D02*
X117000000Y-52670000D01*
X130920000Y-52670000D02*
X131000000Y-52590000D01*
X134350000Y-52590000D02*
X134500000Y-52440000D01*
X131000000Y-52590000D02*
X134350000Y-52590000D01*
X96000000Y-52670000D02*
X99500000Y-52670000D01*
X82920000Y-52670000D02*
X83000000Y-52590000D01*
X83000000Y-52590000D02*
X85500000Y-52590000D01*
X82000000Y-52670000D02*
X82920000Y-52670000D01*
X137810000Y-52440000D02*
X138000000Y-52250000D01*
X103000000Y-52670000D02*
X103420000Y-52670000D01*
X120500000Y-52670000D02*
X124000000Y-52670000D01*
X92500000Y-52590000D02*
X92840000Y-52590000D01*
X71500000Y-52590000D02*
X75000000Y-52590000D01*
X124000000Y-52670000D02*
X127500000Y-52670000D01*
X75000000Y-52590000D02*
X75340000Y-52590000D01*
X89000000Y-52590000D02*
X92500000Y-52590000D01*
X103420000Y-52670000D02*
X103500000Y-52590000D01*
X99500000Y-52670000D02*
X103000000Y-52670000D01*
%TO.N,Net-(D3-A)*%
X75000000Y-62750000D02*
X75000000Y-65440000D01*
%TO.N,Net-(D5-A)*%
X78500000Y-62830000D02*
X78500000Y-65440000D01*
%TO.N,Net-(D7-A)*%
X82000000Y-62830000D02*
X82000000Y-65250000D01*
%TO.N,Net-(D10-K)*%
X85500000Y-62750000D02*
X85500000Y-65440000D01*
%TO.N,Net-(D11-A)*%
X89000000Y-62750000D02*
X89000000Y-65440000D01*
%TO.N,Net-(D13-A)*%
X92500000Y-62750000D02*
X92500000Y-65440000D01*
%TO.N,Net-(D15-A)*%
X96000000Y-62830000D02*
X96000000Y-65440000D01*
%TO.N,Net-(D17-A)*%
X99500000Y-62830000D02*
X99500000Y-65440000D01*
%TO.N,Net-(D19-A)*%
X103000000Y-62830000D02*
X103000000Y-65250000D01*
%TO.N,Net-(D23-A)*%
X110000000Y-62750000D02*
X110000000Y-65250000D01*
%TO.N,Net-(P19-Pad1)*%
X74000000Y-98250000D02*
X67000000Y-91250000D01*
X134000000Y-169250000D02*
X134000000Y-175250000D01*
X60750000Y-110000000D02*
X50000000Y-99250000D01*
X62000000Y-123250000D02*
X87000000Y-123250000D01*
X133500001Y-123250001D02*
X134000000Y-123750000D01*
X50000000Y-149250000D02*
X74000000Y-149250000D01*
X74000000Y-99250000D02*
X74000000Y-98250000D01*
X122000000Y-99250000D02*
X134500000Y-86750000D01*
X98000000Y-149250000D02*
X96250000Y-147500000D01*
X60750000Y-122000000D02*
X60750000Y-110000000D01*
X62000000Y-175250000D02*
X86000000Y-175250000D01*
X67000000Y-91250000D02*
X67000000Y-80250000D01*
X88000000Y-123250000D02*
X110000000Y-123250000D01*
X110000000Y-123250000D02*
X133500001Y-123250001D01*
X110000000Y-175250000D02*
X134000000Y-175250000D01*
X137500000Y-165250000D02*
X137500000Y-165750000D01*
X96250000Y-133500000D02*
X86000000Y-123250000D01*
X96250000Y-147500000D02*
X96250000Y-133500000D01*
X137500000Y-165750000D02*
X134000000Y-169250000D01*
X122000000Y-149250000D02*
X137500000Y-164750000D01*
X134500000Y-86750000D02*
X134500000Y-83560000D01*
X122000000Y-99250000D02*
X98000000Y-99250000D01*
X50000000Y-99250000D02*
X74000000Y-99250000D01*
X67000000Y-80250000D02*
X62000000Y-75250000D01*
X98000000Y-149250000D02*
X122000000Y-149250000D01*
X62000000Y-123250000D02*
X60750000Y-122000000D01*
X74000000Y-99250000D02*
X98000000Y-99250000D01*
X137500000Y-164750000D02*
X137500000Y-165250000D01*
X86000000Y-175250000D02*
X110000000Y-175250000D01*
X87000000Y-123250000D02*
X87500000Y-122750000D01*
X74000000Y-149250000D02*
X98000000Y-149250000D01*
X87500000Y-122750000D02*
X88000000Y-123250000D01*
%TO.N,Net-(R10-Pad2)*%
X99690000Y-72870000D02*
X99500000Y-73060000D01*
X117000000Y-73060000D02*
X113500000Y-73060000D01*
X89000000Y-73060000D02*
X92500000Y-73060000D01*
X131000000Y-73250000D02*
X127500000Y-73250000D01*
X96000000Y-73060000D02*
X92500000Y-73060000D01*
X127310000Y-73060000D02*
X127500000Y-73250000D01*
X103000000Y-72870000D02*
X99690000Y-72870000D01*
X131000000Y-73250000D02*
X131000000Y-72750000D01*
X113500000Y-73060000D02*
X110190000Y-73060000D01*
X110190000Y-73060000D02*
X110000000Y-72870000D01*
X124000000Y-73060000D02*
X127310000Y-73060000D01*
X110000000Y-72870000D02*
X106500000Y-72870000D01*
X78810000Y-73060000D02*
X79000000Y-72870000D01*
X82000000Y-72870000D02*
X82380000Y-72870000D01*
X120310000Y-73060000D02*
X120500000Y-73250000D01*
X134500000Y-63940000D02*
X134500000Y-60060000D01*
X79000000Y-72870000D02*
X82000000Y-72870000D01*
X99500000Y-73060000D02*
X96000000Y-73060000D01*
X71500000Y-73060000D02*
X75000000Y-73060000D01*
X82570000Y-73060000D02*
X85500000Y-73060000D01*
X78500000Y-73060000D02*
X78810000Y-73060000D01*
X124000000Y-73060000D02*
X120690000Y-73060000D01*
X131000000Y-72750000D02*
X134500000Y-69250000D01*
X117000000Y-73060000D02*
X120310000Y-73060000D01*
X75000000Y-73060000D02*
X78500000Y-73060000D01*
X106500000Y-72870000D02*
X103000000Y-72870000D01*
X85500000Y-73060000D02*
X89000000Y-73060000D01*
X82380000Y-72870000D02*
X82570000Y-73060000D01*
X120690000Y-73060000D02*
X120500000Y-73250000D01*
X134500000Y-69250000D02*
X134500000Y-63940000D01*
%TD*%
M02*
