%TF.GenerationSoftware,KiCad,Pcbnew,8.0.1*%
%TF.CreationDate,2024-04-24T21:21:33-04:00*%
%TF.ProjectId,emandoharp,656d616e-646f-4686-9172-702e6b696361,rev?*%
%TF.SameCoordinates,Original*%
%TF.FileFunction,Soldermask,Top*%
%TF.FilePolarity,Negative*%
%FSLAX46Y46*%
G04 Gerber Fmt 4.6, Leading zero omitted, Abs format (unit mm)*
G04 Created by KiCad (PCBNEW 8.0.1) date 2024-04-24 21:21:33*
%MOMM*%
%LPD*%
G01*
G04 APERTURE LIST*
%ADD10R,2.200000X2.200000*%
%ADD11O,2.200000X2.200000*%
%ADD12C,1.600000*%
%ADD13O,1.600000X1.600000*%
%ADD14C,2.000000*%
%ADD15C,4.000000*%
%ADD16R,1.600000X1.600000*%
%ADD17R,1.300000X1.300000*%
%ADD18C,1.300000*%
G04 APERTURE END LIST*
D10*
%TO.C,D28*%
X117000000Y-85750000D03*
D11*
X117000000Y-75590000D03*
%TD*%
D12*
%TO.C,R13*%
X96000000Y-65440000D03*
D13*
X96000000Y-73060000D03*
%TD*%
D14*
%TO.C,P20*%
X86500000Y-175250000D03*
%TD*%
%TO.C,P3*%
X50000000Y-105750000D03*
%TD*%
D12*
%TO.C,R2*%
X138000000Y-59870000D03*
D13*
X138000000Y-52250000D03*
%TD*%
D14*
%TO.C,P27*%
X141500000Y-165000000D03*
%TD*%
D10*
%TO.C,D7*%
X82000000Y-52670000D03*
D11*
X82000000Y-62830000D03*
%TD*%
D10*
%TO.C,D23*%
X110000000Y-52590000D03*
D11*
X110000000Y-62750000D03*
%TD*%
D10*
%TO.C,D20*%
X103000000Y-85750000D03*
D11*
X103000000Y-75590000D03*
%TD*%
D10*
%TO.C,D15*%
X96000000Y-52670000D03*
D11*
X96000000Y-62830000D03*
%TD*%
D12*
%TO.C,R19*%
X120500000Y-65500000D03*
D13*
X120500000Y-73120000D03*
%TD*%
D15*
%TO.C,REF\u002A\u002A*%
X31500000Y-183750000D03*
%TD*%
D10*
%TO.C,D2*%
X71500000Y-85750000D03*
D11*
X71500000Y-75590000D03*
%TD*%
D14*
%TO.C,P25*%
X98000000Y-149250000D03*
%TD*%
D10*
%TO.C,D36*%
X131000000Y-86250000D03*
D11*
X131000000Y-76090000D03*
%TD*%
D16*
%TO.C,U1*%
X144040000Y-33550000D03*
D12*
X141500000Y-33550000D03*
X138960000Y-33550000D03*
X136420000Y-33550000D03*
X133880000Y-33550000D03*
X131340000Y-33550000D03*
X128800000Y-33550000D03*
X126260000Y-33550000D03*
X123720000Y-33550000D03*
X121180000Y-33550000D03*
X118640000Y-33550000D03*
X116100000Y-33550000D03*
X113560000Y-33550000D03*
X111020000Y-33550000D03*
X108480000Y-33550000D03*
X105940000Y-33550000D03*
X103400000Y-33550000D03*
X100860000Y-33550000D03*
X98320000Y-33550000D03*
X95780000Y-33550000D03*
X93240000Y-33550000D03*
X90700000Y-33550000D03*
X88160000Y-33550000D03*
X85620000Y-33550000D03*
X85620000Y-48790000D03*
X88160000Y-48790000D03*
X90700000Y-48790000D03*
X93240000Y-48790000D03*
X95780000Y-48790000D03*
X98320000Y-48790000D03*
X100860000Y-48790000D03*
X103400000Y-48790000D03*
X105940000Y-48790000D03*
X108480000Y-48790000D03*
X111020000Y-48790000D03*
X113560000Y-48790000D03*
X116100000Y-48790000D03*
X118640000Y-48790000D03*
X121180000Y-48790000D03*
X123720000Y-48790000D03*
X126260000Y-48790000D03*
X128800000Y-48790000D03*
X131340000Y-48790000D03*
X133880000Y-48790000D03*
X136420000Y-48790000D03*
X138960000Y-48790000D03*
X141500000Y-48790000D03*
X144040000Y-48790000D03*
X141500000Y-46250000D03*
X98320000Y-36090000D03*
X98320000Y-38630000D03*
X98320000Y-41170000D03*
X98320000Y-43710000D03*
X98320000Y-46250000D03*
D16*
X137740800Y-36600800D03*
D12*
X135200800Y-36600800D03*
X132660800Y-36600800D03*
X130120800Y-36600800D03*
X127580800Y-36600800D03*
D17*
X131070000Y-46351600D03*
D18*
X131070000Y-44351600D03*
X131070000Y-42351600D03*
X129070000Y-42351600D03*
X129070000Y-44351600D03*
X129070000Y-46351600D03*
X143310000Y-42440000D03*
X143310000Y-39900000D03*
%TD*%
D14*
%TO.C,P23*%
X50000000Y-149250000D03*
%TD*%
%TO.C,P17*%
X134500000Y-131750000D03*
%TD*%
D12*
%TO.C,R6*%
X75000000Y-65440000D03*
D13*
X75000000Y-73060000D03*
%TD*%
D12*
%TO.C,R10*%
X106500000Y-65250000D03*
D13*
X106500000Y-72870000D03*
%TD*%
D10*
%TO.C,D29*%
X120500000Y-52670000D03*
D11*
X120500000Y-62830000D03*
%TD*%
D14*
%TO.C,P19*%
X62500000Y-175250000D03*
%TD*%
%TO.C,P6*%
X74000000Y-155750000D03*
%TD*%
D12*
%TO.C,R14*%
X99500000Y-65440000D03*
D13*
X99500000Y-73060000D03*
%TD*%
D14*
%TO.C,P21*%
X110500000Y-175250000D03*
%TD*%
D15*
%TO.C,REF\u002A\u002A*%
X140500000Y-183750000D03*
%TD*%
D14*
%TO.C,P34*%
X98000000Y-99250000D03*
%TD*%
%TO.C,P36*%
X62000000Y-75250000D03*
%TD*%
D10*
%TO.C,D11*%
X89000000Y-52590000D03*
D11*
X89000000Y-62750000D03*
%TD*%
D14*
%TO.C,P15*%
X122000000Y-105250000D03*
%TD*%
D10*
%TO.C,D8*%
X82000000Y-85750000D03*
D11*
X82000000Y-75590000D03*
%TD*%
D10*
%TO.C,D12*%
X89000000Y-85750000D03*
D11*
X89000000Y-75590000D03*
%TD*%
D10*
%TO.C,D9*%
X85500000Y-52590000D03*
D11*
X85500000Y-62750000D03*
%TD*%
D10*
%TO.C,D27*%
X117000000Y-52670000D03*
D11*
X117000000Y-62830000D03*
%TD*%
D14*
%TO.C,P12*%
X110000000Y-130250000D03*
%TD*%
%TO.C,P13*%
X110500000Y-180500000D03*
%TD*%
D10*
%TO.C,D10*%
X85500000Y-85750000D03*
D11*
X85500000Y-75590000D03*
%TD*%
D10*
%TO.C,D19*%
X103000000Y-52670000D03*
D11*
X103000000Y-62830000D03*
%TD*%
D14*
%TO.C,P22*%
X135000000Y-175250000D03*
%TD*%
%TO.C,P11*%
X98000000Y-155750000D03*
%TD*%
D12*
%TO.C,R11*%
X89000000Y-65440000D03*
D13*
X89000000Y-73060000D03*
%TD*%
D10*
%TO.C,D14*%
X92500000Y-85750000D03*
D11*
X92500000Y-75590000D03*
%TD*%
D10*
%TO.C,D16*%
X96000000Y-85750000D03*
D11*
X96000000Y-75590000D03*
%TD*%
D12*
%TO.C,R3*%
X134500000Y-52440000D03*
D13*
X134500000Y-60060000D03*
%TD*%
D14*
%TO.C,P14*%
X122000000Y-156750000D03*
%TD*%
%TO.C,P9*%
X86000000Y-131250000D03*
%TD*%
D12*
%TO.C,R7*%
X78500000Y-65440000D03*
D13*
X78500000Y-73060000D03*
%TD*%
D12*
%TO.C,R22*%
X131000000Y-65630000D03*
D13*
X131000000Y-73250000D03*
%TD*%
D14*
%TO.C,P32*%
X50000000Y-99250000D03*
%TD*%
%TO.C,P29*%
X86000000Y-123250000D03*
%TD*%
D15*
%TO.C,REF\u002A\u002A*%
X31500000Y-24750000D03*
%TD*%
D10*
%TO.C,D34*%
X127500000Y-85910000D03*
D11*
X127500000Y-75750000D03*
%TD*%
D14*
%TO.C,P7*%
X86500000Y-181250000D03*
%TD*%
D10*
%TO.C,D30*%
X120500000Y-85750000D03*
D11*
X120500000Y-75590000D03*
%TD*%
D10*
%TO.C,D32*%
X124000000Y-85750000D03*
D11*
X124000000Y-75590000D03*
%TD*%
D12*
%TO.C,R8*%
X82000000Y-65250000D03*
D13*
X82000000Y-72870000D03*
%TD*%
D12*
%TO.C,R15*%
X103000000Y-65250000D03*
D13*
X103000000Y-72870000D03*
%TD*%
D10*
%TO.C,D21*%
X106500000Y-52590000D03*
D11*
X106500000Y-62750000D03*
%TD*%
D14*
%TO.C,P33*%
X74000000Y-99250000D03*
%TD*%
D12*
%TO.C,R4*%
X134500000Y-63940000D03*
D13*
X134500000Y-71560000D03*
%TD*%
D10*
%TO.C,D4*%
X75000000Y-85750000D03*
D11*
X75000000Y-75590000D03*
%TD*%
D10*
%TO.C,D26*%
X113500000Y-85750000D03*
D11*
X113500000Y-75590000D03*
%TD*%
D10*
%TO.C,D22*%
X106500000Y-85750000D03*
D11*
X106500000Y-75590000D03*
%TD*%
D14*
%TO.C,P31*%
X134500000Y-123500000D03*
%TD*%
D10*
%TO.C,D31*%
X124000000Y-52670000D03*
D11*
X124000000Y-62830000D03*
%TD*%
D14*
%TO.C,P2*%
X50000000Y-156750000D03*
%TD*%
D10*
%TO.C,D24*%
X110000000Y-85750000D03*
D11*
X110000000Y-75590000D03*
%TD*%
D12*
%TO.C,R9*%
X85500000Y-65440000D03*
D13*
X85500000Y-73060000D03*
%TD*%
D10*
%TO.C,D25*%
X113500000Y-52590000D03*
D11*
X113500000Y-62750000D03*
%TD*%
D14*
%TO.C,P8*%
X74000000Y-105250000D03*
%TD*%
D10*
%TO.C,D33*%
X127500000Y-52670000D03*
D11*
X127500000Y-62830000D03*
%TD*%
D14*
%TO.C,P5*%
X62000000Y-132250000D03*
%TD*%
%TO.C,P10*%
X98000000Y-106250000D03*
%TD*%
D10*
%TO.C,D17*%
X99500000Y-52670000D03*
D11*
X99500000Y-62830000D03*
%TD*%
D14*
%TO.C,P1*%
X62000000Y-82750000D03*
%TD*%
D15*
%TO.C,REF\u002A\u002A*%
X140500000Y-24750000D03*
%TD*%
D12*
%TO.C,R1*%
X134500000Y-83560000D03*
D13*
X134500000Y-75940000D03*
%TD*%
D10*
%TO.C,D5*%
X78500000Y-52670000D03*
D11*
X78500000Y-62830000D03*
%TD*%
D12*
%TO.C,R18*%
X117000000Y-65440000D03*
D13*
X117000000Y-73060000D03*
%TD*%
D12*
%TO.C,R5*%
X71500000Y-65440000D03*
D13*
X71500000Y-73060000D03*
%TD*%
D14*
%TO.C,P30*%
X110000000Y-123250000D03*
%TD*%
D12*
%TO.C,R20*%
X124000000Y-65440000D03*
D13*
X124000000Y-73060000D03*
%TD*%
D10*
%TO.C,D3*%
X75000000Y-52590000D03*
D11*
X75000000Y-62750000D03*
%TD*%
D14*
%TO.C,P26*%
X122000000Y-149250000D03*
%TD*%
D12*
%TO.C,R16*%
X110000000Y-65250000D03*
D13*
X110000000Y-72870000D03*
%TD*%
D10*
%TO.C,D13*%
X92500000Y-52590000D03*
D11*
X92500000Y-62750000D03*
%TD*%
D10*
%TO.C,D35*%
X131000000Y-52590000D03*
D11*
X131000000Y-62750000D03*
%TD*%
D10*
%TO.C,D6*%
X78500000Y-85750000D03*
D11*
X78500000Y-75590000D03*
%TD*%
D12*
%TO.C,R17*%
X113500000Y-65440000D03*
D13*
X113500000Y-73060000D03*
%TD*%
D10*
%TO.C,D1*%
X71500000Y-52590000D03*
D11*
X71500000Y-62750000D03*
%TD*%
D10*
%TO.C,D18*%
X99500000Y-85750000D03*
D11*
X99500000Y-75590000D03*
%TD*%
D14*
%TO.C,P4*%
X62500000Y-182750000D03*
%TD*%
%TO.C,P18*%
X138500000Y-165000000D03*
%TD*%
%TO.C,P24*%
X74000000Y-149250000D03*
%TD*%
D12*
%TO.C,R12*%
X92500000Y-65440000D03*
D13*
X92500000Y-73060000D03*
%TD*%
D14*
%TO.C,P16*%
X135000000Y-180500000D03*
%TD*%
D12*
%TO.C,R21*%
X127500000Y-65630000D03*
D13*
X127500000Y-73250000D03*
%TD*%
D14*
%TO.C,P35*%
X122000000Y-99250000D03*
%TD*%
%TO.C,P28*%
X62000000Y-123250000D03*
%TD*%
M02*
