M48
; DRILL file {KiCad 8.0.1} date 2024-04-24T21:21:30-0400
; FORMAT={-:-/ absolute / inch / decimal}
; #@! TF.CreationDate,2024-04-24T21:21:30-04:00
; #@! TF.GenerationSoftware,Kicad,Pcbnew,8.0.1
; #@! TF.FileFunction,Plated,1,2,PTH
FMAT,2
INCH
; #@! TA.AperFunction,Plated,PTH,ComponentDrill
T1C0.0315
; #@! TA.AperFunction,Plated,PTH,ComponentDrill
T2C0.0394
; #@! TA.AperFunction,Plated,PTH,ComponentDrill
T3C0.0433
%
G90
G05
T1
X2.815Y-2.5764
X2.815Y-2.8764
X2.9528Y-2.5764
X2.9528Y-2.8764
X3.0906Y-2.5764
X3.0906Y-2.8764
X3.2283Y-2.5689
X3.2283Y-2.8689
X3.3661Y-2.5764
X3.3661Y-2.8764
X3.5039Y-2.5764
X3.5039Y-2.8764
X3.6417Y-2.5764
X3.6417Y-2.8764
X3.7795Y-2.5764
X3.7795Y-2.8764
X3.9173Y-2.5764
X3.9173Y-2.8764
X4.0551Y-2.5689
X4.0551Y-2.8689
X4.1929Y-2.5689
X4.1929Y-2.8689
X4.3307Y-2.5689
X4.3307Y-2.8689
X4.4685Y-2.5764
X4.4685Y-2.8764
X4.6063Y-2.5764
X4.6063Y-2.8764
X4.7441Y-2.5787
X4.7441Y-2.8787
X4.8819Y-2.5764
X4.8819Y-2.8764
X5.0197Y-2.5839
X5.0197Y-2.8839
X5.0815Y-1.6674
X5.0815Y-1.7461
X5.0815Y-1.8249
X5.1575Y-2.5839
X5.1575Y-2.8839
X5.1602Y-1.6674
X5.1602Y-1.7461
X5.1602Y-1.8249
X5.2953Y-2.0646
X5.2953Y-2.3646
X5.2953Y-2.5173
X5.2953Y-2.8173
X5.2953Y-2.9898
X5.2953Y-3.2898
X5.4331Y-2.0571
X5.4331Y-2.3571
X5.6421Y-1.5709
X5.6421Y-1.6709
T2
X1.9685Y-3.9075
X1.9685Y-4.1634
X1.9685Y-5.876
X1.9685Y-6.1713
X2.4409Y-2.9626
X2.4409Y-3.2579
X2.4409Y-4.8524
X2.4409Y-5.2067
X2.4606Y-6.8996
X2.4606Y-7.1949
X2.9134Y-3.9075
X2.9134Y-4.1437
X2.9134Y-5.876
X2.9134Y-6.1319
X3.3858Y-4.8524
X3.3858Y-5.1673
X3.4055Y-6.8996
X3.4055Y-7.1358
X3.8583Y-3.9075
X3.8583Y-4.1831
X3.8583Y-5.876
X3.8583Y-6.1319
X4.3307Y-4.8524
X4.3307Y-5.128
X4.3504Y-6.8996
X4.3504Y-7.1063
X4.8031Y-3.9075
X4.8031Y-4.1437
X4.8031Y-5.876
X4.8031Y-6.1713
X5.2953Y-4.8622
X5.2953Y-5.187
X5.315Y-6.8996
X5.315Y-7.1063
X5.4528Y-6.4961
X5.5709Y-6.4961
T3
X2.815Y-2.0705
X2.815Y-2.4705
X2.815Y-2.976
X2.815Y-3.376
X2.9528Y-2.0705
X2.9528Y-2.4705
X2.9528Y-2.976
X2.9528Y-3.376
X3.0906Y-2.0736
X3.0906Y-2.4736
X3.0906Y-2.976
X3.0906Y-3.376
X3.2283Y-2.0736
X3.2283Y-2.4736
X3.2283Y-2.976
X3.2283Y-3.376
X3.3661Y-2.0705
X3.3661Y-2.4705
X3.3661Y-2.976
X3.3661Y-3.376
X3.3709Y-1.3209
X3.3709Y-1.9209
X3.4709Y-1.3209
X3.4709Y-1.9209
X3.5039Y-2.0705
X3.5039Y-2.4705
X3.5039Y-2.976
X3.5039Y-3.376
X3.5709Y-1.3209
X3.5709Y-1.9209
X3.6417Y-2.0705
X3.6417Y-2.4705
X3.6417Y-2.976
X3.6417Y-3.376
X3.6709Y-1.3209
X3.6709Y-1.9209
X3.7709Y-1.3209
X3.7709Y-1.9209
X3.7795Y-2.0736
X3.7795Y-2.4736
X3.7795Y-2.976
X3.7795Y-3.376
X3.8709Y-1.3209
X3.8709Y-1.4209
X3.8709Y-1.5209
X3.8709Y-1.6209
X3.8709Y-1.7209
X3.8709Y-1.8209
X3.8709Y-1.9209
X3.9173Y-2.0736
X3.9173Y-2.4736
X3.9173Y-2.976
X3.9173Y-3.376
X3.9709Y-1.3209
X3.9709Y-1.9209
X4.0551Y-2.0736
X4.0551Y-2.4736
X4.0551Y-2.976
X4.0551Y-3.376
X4.0709Y-1.3209
X4.0709Y-1.9209
X4.1709Y-1.3209
X4.1709Y-1.9209
X4.1929Y-2.0705
X4.1929Y-2.4705
X4.1929Y-2.976
X4.1929Y-3.376
X4.2709Y-1.3209
X4.2709Y-1.9209
X4.3307Y-2.0705
X4.3307Y-2.4705
X4.3307Y-2.976
X4.3307Y-3.376
X4.3709Y-1.3209
X4.3709Y-1.9209
X4.4685Y-2.0705
X4.4685Y-2.4705
X4.4685Y-2.976
X4.4685Y-3.376
X4.4709Y-1.3209
X4.4709Y-1.9209
X4.5709Y-1.3209
X4.5709Y-1.9209
X4.6063Y-2.0736
X4.6063Y-2.4736
X4.6063Y-2.976
X4.6063Y-3.376
X4.6709Y-1.3209
X4.6709Y-1.9209
X4.7441Y-2.0736
X4.7441Y-2.4736
X4.7441Y-2.976
X4.7441Y-3.376
X4.7709Y-1.3209
X4.7709Y-1.9209
X4.8709Y-1.3209
X4.8709Y-1.9209
X4.8819Y-2.0736
X4.8819Y-2.4736
X4.8819Y-2.976
X4.8819Y-3.376
X4.9709Y-1.3209
X4.9709Y-1.9209
X5.0197Y-2.0736
X5.0197Y-2.4736
X5.0197Y-2.9823
X5.0197Y-3.3823
X5.0229Y-1.441
X5.0709Y-1.3209
X5.0709Y-1.9209
X5.1229Y-1.441
X5.1575Y-2.0705
X5.1575Y-2.4705
X5.1575Y-2.9957
X5.1575Y-3.3957
X5.1709Y-1.3209
X5.1709Y-1.9209
X5.2229Y-1.441
X5.2709Y-1.3209
X5.2709Y-1.9209
X5.3229Y-1.441
X5.3709Y-1.3209
X5.3709Y-1.9209
X5.4229Y-1.441
X5.4709Y-1.3209
X5.4709Y-1.9209
X5.5709Y-1.3209
X5.5709Y-1.8209
X5.5709Y-1.9209
X5.6709Y-1.3209
X5.6709Y-1.9209
M30
